%TF.GenerationSoftware,KiCad,Pcbnew,(6.0.2)*%
%TF.CreationDate,2022-04-13T18:01:38+02:00*%
%TF.ProjectId,SPKB,53504b42-2e6b-4696-9361-645f70636258,rev?*%
%TF.SameCoordinates,Original*%
%TF.FileFunction,Legend,Bot*%
%TF.FilePolarity,Positive*%
%FSLAX46Y46*%
G04 Gerber Fmt 4.6, Leading zero omitted, Abs format (unit mm)*
G04 Created by KiCad (PCBNEW (6.0.2)) date 2022-04-13 18:01:38*
%MOMM*%
%LPD*%
G01*
G04 APERTURE LIST*
%ADD10C,0.150000*%
%ADD11C,0.200000*%
%ADD12C,0.100000*%
%ADD13C,0.120000*%
G04 APERTURE END LIST*
D10*
%TO.C,SW20*%
X93364523Y-53499761D02*
X93221666Y-53547380D01*
X92983571Y-53547380D01*
X92888333Y-53499761D01*
X92840714Y-53452142D01*
X92793095Y-53356904D01*
X92793095Y-53261666D01*
X92840714Y-53166428D01*
X92888333Y-53118809D01*
X92983571Y-53071190D01*
X93174047Y-53023571D01*
X93269285Y-52975952D01*
X93316904Y-52928333D01*
X93364523Y-52833095D01*
X93364523Y-52737857D01*
X93316904Y-52642619D01*
X93269285Y-52595000D01*
X93174047Y-52547380D01*
X92935952Y-52547380D01*
X92793095Y-52595000D01*
X92459761Y-52547380D02*
X92221666Y-53547380D01*
X92031190Y-52833095D01*
X91840714Y-53547380D01*
X91602619Y-52547380D01*
X91269285Y-52642619D02*
X91221666Y-52595000D01*
X91126428Y-52547380D01*
X90888333Y-52547380D01*
X90793095Y-52595000D01*
X90745476Y-52642619D01*
X90697857Y-52737857D01*
X90697857Y-52833095D01*
X90745476Y-52975952D01*
X91316904Y-53547380D01*
X90697857Y-53547380D01*
X90078809Y-52547380D02*
X89983571Y-52547380D01*
X89888333Y-52595000D01*
X89840714Y-52642619D01*
X89793095Y-52737857D01*
X89745476Y-52928333D01*
X89745476Y-53166428D01*
X89793095Y-53356904D01*
X89840714Y-53452142D01*
X89888333Y-53499761D01*
X89983571Y-53547380D01*
X90078809Y-53547380D01*
X90174047Y-53499761D01*
X90221666Y-53452142D01*
X90269285Y-53356904D01*
X90316904Y-53166428D01*
X90316904Y-52928333D01*
X90269285Y-52737857D01*
X90221666Y-52642619D01*
X90174047Y-52595000D01*
X90078809Y-52547380D01*
%TO.C,SW22*%
X93364523Y-89499761D02*
X93221666Y-89547380D01*
X92983571Y-89547380D01*
X92888333Y-89499761D01*
X92840714Y-89452142D01*
X92793095Y-89356904D01*
X92793095Y-89261666D01*
X92840714Y-89166428D01*
X92888333Y-89118809D01*
X92983571Y-89071190D01*
X93174047Y-89023571D01*
X93269285Y-88975952D01*
X93316904Y-88928333D01*
X93364523Y-88833095D01*
X93364523Y-88737857D01*
X93316904Y-88642619D01*
X93269285Y-88595000D01*
X93174047Y-88547380D01*
X92935952Y-88547380D01*
X92793095Y-88595000D01*
X92459761Y-88547380D02*
X92221666Y-89547380D01*
X92031190Y-88833095D01*
X91840714Y-89547380D01*
X91602619Y-88547380D01*
X91269285Y-88642619D02*
X91221666Y-88595000D01*
X91126428Y-88547380D01*
X90888333Y-88547380D01*
X90793095Y-88595000D01*
X90745476Y-88642619D01*
X90697857Y-88737857D01*
X90697857Y-88833095D01*
X90745476Y-88975952D01*
X91316904Y-89547380D01*
X90697857Y-89547380D01*
X90316904Y-88642619D02*
X90269285Y-88595000D01*
X90174047Y-88547380D01*
X89935952Y-88547380D01*
X89840714Y-88595000D01*
X89793095Y-88642619D01*
X89745476Y-88737857D01*
X89745476Y-88833095D01*
X89793095Y-88975952D01*
X90364523Y-89547380D01*
X89745476Y-89547380D01*
%TO.C,SW0*%
X130888333Y-53499761D02*
X130745476Y-53547380D01*
X130507380Y-53547380D01*
X130412142Y-53499761D01*
X130364523Y-53452142D01*
X130316904Y-53356904D01*
X130316904Y-53261666D01*
X130364523Y-53166428D01*
X130412142Y-53118809D01*
X130507380Y-53071190D01*
X130697857Y-53023571D01*
X130793095Y-52975952D01*
X130840714Y-52928333D01*
X130888333Y-52833095D01*
X130888333Y-52737857D01*
X130840714Y-52642619D01*
X130793095Y-52595000D01*
X130697857Y-52547380D01*
X130459761Y-52547380D01*
X130316904Y-52595000D01*
X129983571Y-52547380D02*
X129745476Y-53547380D01*
X129555000Y-52833095D01*
X129364523Y-53547380D01*
X129126428Y-52547380D01*
X128555000Y-52547380D02*
X128459761Y-52547380D01*
X128364523Y-52595000D01*
X128316904Y-52642619D01*
X128269285Y-52737857D01*
X128221666Y-52928333D01*
X128221666Y-53166428D01*
X128269285Y-53356904D01*
X128316904Y-53452142D01*
X128364523Y-53499761D01*
X128459761Y-53547380D01*
X128555000Y-53547380D01*
X128650238Y-53499761D01*
X128697857Y-53452142D01*
X128745476Y-53356904D01*
X128793095Y-53166428D01*
X128793095Y-52928333D01*
X128745476Y-52737857D01*
X128697857Y-52642619D01*
X128650238Y-52595000D01*
X128555000Y-52547380D01*
%TO.C,SW21*%
X93364523Y-71499761D02*
X93221666Y-71547380D01*
X92983571Y-71547380D01*
X92888333Y-71499761D01*
X92840714Y-71452142D01*
X92793095Y-71356904D01*
X92793095Y-71261666D01*
X92840714Y-71166428D01*
X92888333Y-71118809D01*
X92983571Y-71071190D01*
X93174047Y-71023571D01*
X93269285Y-70975952D01*
X93316904Y-70928333D01*
X93364523Y-70833095D01*
X93364523Y-70737857D01*
X93316904Y-70642619D01*
X93269285Y-70595000D01*
X93174047Y-70547380D01*
X92935952Y-70547380D01*
X92793095Y-70595000D01*
X92459761Y-70547380D02*
X92221666Y-71547380D01*
X92031190Y-70833095D01*
X91840714Y-71547380D01*
X91602619Y-70547380D01*
X91269285Y-70642619D02*
X91221666Y-70595000D01*
X91126428Y-70547380D01*
X90888333Y-70547380D01*
X90793095Y-70595000D01*
X90745476Y-70642619D01*
X90697857Y-70737857D01*
X90697857Y-70833095D01*
X90745476Y-70975952D01*
X91316904Y-71547380D01*
X90697857Y-71547380D01*
X89745476Y-71547380D02*
X90316904Y-71547380D01*
X90031190Y-71547380D02*
X90031190Y-70547380D01*
X90126428Y-70690238D01*
X90221666Y-70785476D01*
X90316904Y-70833095D01*
%TO.C,SW52*%
X36364523Y-89499761D02*
X36221666Y-89547380D01*
X35983571Y-89547380D01*
X35888333Y-89499761D01*
X35840714Y-89452142D01*
X35793095Y-89356904D01*
X35793095Y-89261666D01*
X35840714Y-89166428D01*
X35888333Y-89118809D01*
X35983571Y-89071190D01*
X36174047Y-89023571D01*
X36269285Y-88975952D01*
X36316904Y-88928333D01*
X36364523Y-88833095D01*
X36364523Y-88737857D01*
X36316904Y-88642619D01*
X36269285Y-88595000D01*
X36174047Y-88547380D01*
X35935952Y-88547380D01*
X35793095Y-88595000D01*
X35459761Y-88547380D02*
X35221666Y-89547380D01*
X35031190Y-88833095D01*
X34840714Y-89547380D01*
X34602619Y-88547380D01*
X33745476Y-88547380D02*
X34221666Y-88547380D01*
X34269285Y-89023571D01*
X34221666Y-88975952D01*
X34126428Y-88928333D01*
X33888333Y-88928333D01*
X33793095Y-88975952D01*
X33745476Y-89023571D01*
X33697857Y-89118809D01*
X33697857Y-89356904D01*
X33745476Y-89452142D01*
X33793095Y-89499761D01*
X33888333Y-89547380D01*
X34126428Y-89547380D01*
X34221666Y-89499761D01*
X34269285Y-89452142D01*
X33316904Y-88642619D02*
X33269285Y-88595000D01*
X33174047Y-88547380D01*
X32935952Y-88547380D01*
X32840714Y-88595000D01*
X32793095Y-88642619D01*
X32745476Y-88737857D01*
X32745476Y-88833095D01*
X32793095Y-88975952D01*
X33364523Y-89547380D01*
X32745476Y-89547380D01*
%TO.C,SW54*%
X36364523Y-125499761D02*
X36221666Y-125547380D01*
X35983571Y-125547380D01*
X35888333Y-125499761D01*
X35840714Y-125452142D01*
X35793095Y-125356904D01*
X35793095Y-125261666D01*
X35840714Y-125166428D01*
X35888333Y-125118809D01*
X35983571Y-125071190D01*
X36174047Y-125023571D01*
X36269285Y-124975952D01*
X36316904Y-124928333D01*
X36364523Y-124833095D01*
X36364523Y-124737857D01*
X36316904Y-124642619D01*
X36269285Y-124595000D01*
X36174047Y-124547380D01*
X35935952Y-124547380D01*
X35793095Y-124595000D01*
X35459761Y-124547380D02*
X35221666Y-125547380D01*
X35031190Y-124833095D01*
X34840714Y-125547380D01*
X34602619Y-124547380D01*
X33745476Y-124547380D02*
X34221666Y-124547380D01*
X34269285Y-125023571D01*
X34221666Y-124975952D01*
X34126428Y-124928333D01*
X33888333Y-124928333D01*
X33793095Y-124975952D01*
X33745476Y-125023571D01*
X33697857Y-125118809D01*
X33697857Y-125356904D01*
X33745476Y-125452142D01*
X33793095Y-125499761D01*
X33888333Y-125547380D01*
X34126428Y-125547380D01*
X34221666Y-125499761D01*
X34269285Y-125452142D01*
X32840714Y-124880714D02*
X32840714Y-125547380D01*
X33078809Y-124499761D02*
X33316904Y-125214047D01*
X32697857Y-125214047D01*
%TO.C,SW34*%
X74364523Y-125499761D02*
X74221666Y-125547380D01*
X73983571Y-125547380D01*
X73888333Y-125499761D01*
X73840714Y-125452142D01*
X73793095Y-125356904D01*
X73793095Y-125261666D01*
X73840714Y-125166428D01*
X73888333Y-125118809D01*
X73983571Y-125071190D01*
X74174047Y-125023571D01*
X74269285Y-124975952D01*
X74316904Y-124928333D01*
X74364523Y-124833095D01*
X74364523Y-124737857D01*
X74316904Y-124642619D01*
X74269285Y-124595000D01*
X74174047Y-124547380D01*
X73935952Y-124547380D01*
X73793095Y-124595000D01*
X73459761Y-124547380D02*
X73221666Y-125547380D01*
X73031190Y-124833095D01*
X72840714Y-125547380D01*
X72602619Y-124547380D01*
X72316904Y-124547380D02*
X71697857Y-124547380D01*
X72031190Y-124928333D01*
X71888333Y-124928333D01*
X71793095Y-124975952D01*
X71745476Y-125023571D01*
X71697857Y-125118809D01*
X71697857Y-125356904D01*
X71745476Y-125452142D01*
X71793095Y-125499761D01*
X71888333Y-125547380D01*
X72174047Y-125547380D01*
X72269285Y-125499761D01*
X72316904Y-125452142D01*
X70840714Y-124880714D02*
X70840714Y-125547380D01*
X71078809Y-124499761D02*
X71316904Y-125214047D01*
X70697857Y-125214047D01*
%TO.C,SW50*%
X36364523Y-53499761D02*
X36221666Y-53547380D01*
X35983571Y-53547380D01*
X35888333Y-53499761D01*
X35840714Y-53452142D01*
X35793095Y-53356904D01*
X35793095Y-53261666D01*
X35840714Y-53166428D01*
X35888333Y-53118809D01*
X35983571Y-53071190D01*
X36174047Y-53023571D01*
X36269285Y-52975952D01*
X36316904Y-52928333D01*
X36364523Y-52833095D01*
X36364523Y-52737857D01*
X36316904Y-52642619D01*
X36269285Y-52595000D01*
X36174047Y-52547380D01*
X35935952Y-52547380D01*
X35793095Y-52595000D01*
X35459761Y-52547380D02*
X35221666Y-53547380D01*
X35031190Y-52833095D01*
X34840714Y-53547380D01*
X34602619Y-52547380D01*
X33745476Y-52547380D02*
X34221666Y-52547380D01*
X34269285Y-53023571D01*
X34221666Y-52975952D01*
X34126428Y-52928333D01*
X33888333Y-52928333D01*
X33793095Y-52975952D01*
X33745476Y-53023571D01*
X33697857Y-53118809D01*
X33697857Y-53356904D01*
X33745476Y-53452142D01*
X33793095Y-53499761D01*
X33888333Y-53547380D01*
X34126428Y-53547380D01*
X34221666Y-53499761D01*
X34269285Y-53452142D01*
X33078809Y-52547380D02*
X32983571Y-52547380D01*
X32888333Y-52595000D01*
X32840714Y-52642619D01*
X32793095Y-52737857D01*
X32745476Y-52928333D01*
X32745476Y-53166428D01*
X32793095Y-53356904D01*
X32840714Y-53452142D01*
X32888333Y-53499761D01*
X32983571Y-53547380D01*
X33078809Y-53547380D01*
X33174047Y-53499761D01*
X33221666Y-53452142D01*
X33269285Y-53356904D01*
X33316904Y-53166428D01*
X33316904Y-52928333D01*
X33269285Y-52737857D01*
X33221666Y-52642619D01*
X33174047Y-52595000D01*
X33078809Y-52547380D01*
%TO.C,SW13*%
X112364523Y-107499761D02*
X112221666Y-107547380D01*
X111983571Y-107547380D01*
X111888333Y-107499761D01*
X111840714Y-107452142D01*
X111793095Y-107356904D01*
X111793095Y-107261666D01*
X111840714Y-107166428D01*
X111888333Y-107118809D01*
X111983571Y-107071190D01*
X112174047Y-107023571D01*
X112269285Y-106975952D01*
X112316904Y-106928333D01*
X112364523Y-106833095D01*
X112364523Y-106737857D01*
X112316904Y-106642619D01*
X112269285Y-106595000D01*
X112174047Y-106547380D01*
X111935952Y-106547380D01*
X111793095Y-106595000D01*
X111459761Y-106547380D02*
X111221666Y-107547380D01*
X111031190Y-106833095D01*
X110840714Y-107547380D01*
X110602619Y-106547380D01*
X109697857Y-107547380D02*
X110269285Y-107547380D01*
X109983571Y-107547380D02*
X109983571Y-106547380D01*
X110078809Y-106690238D01*
X110174047Y-106785476D01*
X110269285Y-106833095D01*
X109364523Y-106547380D02*
X108745476Y-106547380D01*
X109078809Y-106928333D01*
X108935952Y-106928333D01*
X108840714Y-106975952D01*
X108793095Y-107023571D01*
X108745476Y-107118809D01*
X108745476Y-107356904D01*
X108793095Y-107452142D01*
X108840714Y-107499761D01*
X108935952Y-107547380D01*
X109221666Y-107547380D01*
X109316904Y-107499761D01*
X109364523Y-107452142D01*
%TO.C,SW32*%
X74364523Y-89499761D02*
X74221666Y-89547380D01*
X73983571Y-89547380D01*
X73888333Y-89499761D01*
X73840714Y-89452142D01*
X73793095Y-89356904D01*
X73793095Y-89261666D01*
X73840714Y-89166428D01*
X73888333Y-89118809D01*
X73983571Y-89071190D01*
X74174047Y-89023571D01*
X74269285Y-88975952D01*
X74316904Y-88928333D01*
X74364523Y-88833095D01*
X74364523Y-88737857D01*
X74316904Y-88642619D01*
X74269285Y-88595000D01*
X74174047Y-88547380D01*
X73935952Y-88547380D01*
X73793095Y-88595000D01*
X73459761Y-88547380D02*
X73221666Y-89547380D01*
X73031190Y-88833095D01*
X72840714Y-89547380D01*
X72602619Y-88547380D01*
X72316904Y-88547380D02*
X71697857Y-88547380D01*
X72031190Y-88928333D01*
X71888333Y-88928333D01*
X71793095Y-88975952D01*
X71745476Y-89023571D01*
X71697857Y-89118809D01*
X71697857Y-89356904D01*
X71745476Y-89452142D01*
X71793095Y-89499761D01*
X71888333Y-89547380D01*
X72174047Y-89547380D01*
X72269285Y-89499761D01*
X72316904Y-89452142D01*
X71316904Y-88642619D02*
X71269285Y-88595000D01*
X71174047Y-88547380D01*
X70935952Y-88547380D01*
X70840714Y-88595000D01*
X70793095Y-88642619D01*
X70745476Y-88737857D01*
X70745476Y-88833095D01*
X70793095Y-88975952D01*
X71364523Y-89547380D01*
X70745476Y-89547380D01*
%TO.C,SW41*%
X55364523Y-71499761D02*
X55221666Y-71547380D01*
X54983571Y-71547380D01*
X54888333Y-71499761D01*
X54840714Y-71452142D01*
X54793095Y-71356904D01*
X54793095Y-71261666D01*
X54840714Y-71166428D01*
X54888333Y-71118809D01*
X54983571Y-71071190D01*
X55174047Y-71023571D01*
X55269285Y-70975952D01*
X55316904Y-70928333D01*
X55364523Y-70833095D01*
X55364523Y-70737857D01*
X55316904Y-70642619D01*
X55269285Y-70595000D01*
X55174047Y-70547380D01*
X54935952Y-70547380D01*
X54793095Y-70595000D01*
X54459761Y-70547380D02*
X54221666Y-71547380D01*
X54031190Y-70833095D01*
X53840714Y-71547380D01*
X53602619Y-70547380D01*
X52793095Y-70880714D02*
X52793095Y-71547380D01*
X53031190Y-70499761D02*
X53269285Y-71214047D01*
X52650238Y-71214047D01*
X51745476Y-71547380D02*
X52316904Y-71547380D01*
X52031190Y-71547380D02*
X52031190Y-70547380D01*
X52126428Y-70690238D01*
X52221666Y-70785476D01*
X52316904Y-70833095D01*
%TO.C,SW44*%
X55364523Y-125499761D02*
X55221666Y-125547380D01*
X54983571Y-125547380D01*
X54888333Y-125499761D01*
X54840714Y-125452142D01*
X54793095Y-125356904D01*
X54793095Y-125261666D01*
X54840714Y-125166428D01*
X54888333Y-125118809D01*
X54983571Y-125071190D01*
X55174047Y-125023571D01*
X55269285Y-124975952D01*
X55316904Y-124928333D01*
X55364523Y-124833095D01*
X55364523Y-124737857D01*
X55316904Y-124642619D01*
X55269285Y-124595000D01*
X55174047Y-124547380D01*
X54935952Y-124547380D01*
X54793095Y-124595000D01*
X54459761Y-124547380D02*
X54221666Y-125547380D01*
X54031190Y-124833095D01*
X53840714Y-125547380D01*
X53602619Y-124547380D01*
X52793095Y-124880714D02*
X52793095Y-125547380D01*
X53031190Y-124499761D02*
X53269285Y-125214047D01*
X52650238Y-125214047D01*
X51840714Y-124880714D02*
X51840714Y-125547380D01*
X52078809Y-124499761D02*
X52316904Y-125214047D01*
X51697857Y-125214047D01*
%TO.C,SW11*%
X112364523Y-71499761D02*
X112221666Y-71547380D01*
X111983571Y-71547380D01*
X111888333Y-71499761D01*
X111840714Y-71452142D01*
X111793095Y-71356904D01*
X111793095Y-71261666D01*
X111840714Y-71166428D01*
X111888333Y-71118809D01*
X111983571Y-71071190D01*
X112174047Y-71023571D01*
X112269285Y-70975952D01*
X112316904Y-70928333D01*
X112364523Y-70833095D01*
X112364523Y-70737857D01*
X112316904Y-70642619D01*
X112269285Y-70595000D01*
X112174047Y-70547380D01*
X111935952Y-70547380D01*
X111793095Y-70595000D01*
X111459761Y-70547380D02*
X111221666Y-71547380D01*
X111031190Y-70833095D01*
X110840714Y-71547380D01*
X110602619Y-70547380D01*
X109697857Y-71547380D02*
X110269285Y-71547380D01*
X109983571Y-71547380D02*
X109983571Y-70547380D01*
X110078809Y-70690238D01*
X110174047Y-70785476D01*
X110269285Y-70833095D01*
X108745476Y-71547380D02*
X109316904Y-71547380D01*
X109031190Y-71547380D02*
X109031190Y-70547380D01*
X109126428Y-70690238D01*
X109221666Y-70785476D01*
X109316904Y-70833095D01*
%TO.C,SW42*%
X55364523Y-89499761D02*
X55221666Y-89547380D01*
X54983571Y-89547380D01*
X54888333Y-89499761D01*
X54840714Y-89452142D01*
X54793095Y-89356904D01*
X54793095Y-89261666D01*
X54840714Y-89166428D01*
X54888333Y-89118809D01*
X54983571Y-89071190D01*
X55174047Y-89023571D01*
X55269285Y-88975952D01*
X55316904Y-88928333D01*
X55364523Y-88833095D01*
X55364523Y-88737857D01*
X55316904Y-88642619D01*
X55269285Y-88595000D01*
X55174047Y-88547380D01*
X54935952Y-88547380D01*
X54793095Y-88595000D01*
X54459761Y-88547380D02*
X54221666Y-89547380D01*
X54031190Y-88833095D01*
X53840714Y-89547380D01*
X53602619Y-88547380D01*
X52793095Y-88880714D02*
X52793095Y-89547380D01*
X53031190Y-88499761D02*
X53269285Y-89214047D01*
X52650238Y-89214047D01*
X52316904Y-88642619D02*
X52269285Y-88595000D01*
X52174047Y-88547380D01*
X51935952Y-88547380D01*
X51840714Y-88595000D01*
X51793095Y-88642619D01*
X51745476Y-88737857D01*
X51745476Y-88833095D01*
X51793095Y-88975952D01*
X52364523Y-89547380D01*
X51745476Y-89547380D01*
%TO.C,SW3*%
X130888333Y-107499761D02*
X130745476Y-107547380D01*
X130507380Y-107547380D01*
X130412142Y-107499761D01*
X130364523Y-107452142D01*
X130316904Y-107356904D01*
X130316904Y-107261666D01*
X130364523Y-107166428D01*
X130412142Y-107118809D01*
X130507380Y-107071190D01*
X130697857Y-107023571D01*
X130793095Y-106975952D01*
X130840714Y-106928333D01*
X130888333Y-106833095D01*
X130888333Y-106737857D01*
X130840714Y-106642619D01*
X130793095Y-106595000D01*
X130697857Y-106547380D01*
X130459761Y-106547380D01*
X130316904Y-106595000D01*
X129983571Y-106547380D02*
X129745476Y-107547380D01*
X129555000Y-106833095D01*
X129364523Y-107547380D01*
X129126428Y-106547380D01*
X128840714Y-106547380D02*
X128221666Y-106547380D01*
X128555000Y-106928333D01*
X128412142Y-106928333D01*
X128316904Y-106975952D01*
X128269285Y-107023571D01*
X128221666Y-107118809D01*
X128221666Y-107356904D01*
X128269285Y-107452142D01*
X128316904Y-107499761D01*
X128412142Y-107547380D01*
X128697857Y-107547380D01*
X128793095Y-107499761D01*
X128840714Y-107452142D01*
%TO.C,SW24*%
X93364523Y-125499761D02*
X93221666Y-125547380D01*
X92983571Y-125547380D01*
X92888333Y-125499761D01*
X92840714Y-125452142D01*
X92793095Y-125356904D01*
X92793095Y-125261666D01*
X92840714Y-125166428D01*
X92888333Y-125118809D01*
X92983571Y-125071190D01*
X93174047Y-125023571D01*
X93269285Y-124975952D01*
X93316904Y-124928333D01*
X93364523Y-124833095D01*
X93364523Y-124737857D01*
X93316904Y-124642619D01*
X93269285Y-124595000D01*
X93174047Y-124547380D01*
X92935952Y-124547380D01*
X92793095Y-124595000D01*
X92459761Y-124547380D02*
X92221666Y-125547380D01*
X92031190Y-124833095D01*
X91840714Y-125547380D01*
X91602619Y-124547380D01*
X91269285Y-124642619D02*
X91221666Y-124595000D01*
X91126428Y-124547380D01*
X90888333Y-124547380D01*
X90793095Y-124595000D01*
X90745476Y-124642619D01*
X90697857Y-124737857D01*
X90697857Y-124833095D01*
X90745476Y-124975952D01*
X91316904Y-125547380D01*
X90697857Y-125547380D01*
X89840714Y-124880714D02*
X89840714Y-125547380D01*
X90078809Y-124499761D02*
X90316904Y-125214047D01*
X89697857Y-125214047D01*
%TO.C,SW14*%
X117275608Y-136802734D02*
X117208264Y-136937421D01*
X117039906Y-137105780D01*
X116938890Y-137139451D01*
X116871547Y-137139451D01*
X116770532Y-137105780D01*
X116703188Y-137038436D01*
X116669516Y-136937421D01*
X116669516Y-136870077D01*
X116703188Y-136769062D01*
X116804203Y-136600703D01*
X116837875Y-136499688D01*
X116837875Y-136432345D01*
X116804203Y-136331329D01*
X116736860Y-136263986D01*
X116635845Y-136230314D01*
X116568501Y-136230314D01*
X116467486Y-136263986D01*
X116299127Y-136432345D01*
X116231784Y-136567032D01*
X115962410Y-136769062D02*
X116501158Y-137644528D01*
X115861394Y-137274138D01*
X116231784Y-137913902D01*
X115356318Y-137375154D01*
X115423662Y-138722024D02*
X115827723Y-138317963D01*
X115625692Y-138519993D02*
X114918585Y-137812886D01*
X115086944Y-137846558D01*
X115221631Y-137846558D01*
X115322646Y-137812886D01*
X114346166Y-138856711D02*
X114817570Y-139328115D01*
X114245150Y-138418978D02*
X114918585Y-138755695D01*
X114480853Y-139193428D01*
%TO.C,SW33*%
X74364523Y-107499761D02*
X74221666Y-107547380D01*
X73983571Y-107547380D01*
X73888333Y-107499761D01*
X73840714Y-107452142D01*
X73793095Y-107356904D01*
X73793095Y-107261666D01*
X73840714Y-107166428D01*
X73888333Y-107118809D01*
X73983571Y-107071190D01*
X74174047Y-107023571D01*
X74269285Y-106975952D01*
X74316904Y-106928333D01*
X74364523Y-106833095D01*
X74364523Y-106737857D01*
X74316904Y-106642619D01*
X74269285Y-106595000D01*
X74174047Y-106547380D01*
X73935952Y-106547380D01*
X73793095Y-106595000D01*
X73459761Y-106547380D02*
X73221666Y-107547380D01*
X73031190Y-106833095D01*
X72840714Y-107547380D01*
X72602619Y-106547380D01*
X72316904Y-106547380D02*
X71697857Y-106547380D01*
X72031190Y-106928333D01*
X71888333Y-106928333D01*
X71793095Y-106975952D01*
X71745476Y-107023571D01*
X71697857Y-107118809D01*
X71697857Y-107356904D01*
X71745476Y-107452142D01*
X71793095Y-107499761D01*
X71888333Y-107547380D01*
X72174047Y-107547380D01*
X72269285Y-107499761D01*
X72316904Y-107452142D01*
X71364523Y-106547380D02*
X70745476Y-106547380D01*
X71078809Y-106928333D01*
X70935952Y-106928333D01*
X70840714Y-106975952D01*
X70793095Y-107023571D01*
X70745476Y-107118809D01*
X70745476Y-107356904D01*
X70793095Y-107452142D01*
X70840714Y-107499761D01*
X70935952Y-107547380D01*
X71221666Y-107547380D01*
X71316904Y-107499761D01*
X71364523Y-107452142D01*
%TO.C,SW1*%
X130888333Y-71499761D02*
X130745476Y-71547380D01*
X130507380Y-71547380D01*
X130412142Y-71499761D01*
X130364523Y-71452142D01*
X130316904Y-71356904D01*
X130316904Y-71261666D01*
X130364523Y-71166428D01*
X130412142Y-71118809D01*
X130507380Y-71071190D01*
X130697857Y-71023571D01*
X130793095Y-70975952D01*
X130840714Y-70928333D01*
X130888333Y-70833095D01*
X130888333Y-70737857D01*
X130840714Y-70642619D01*
X130793095Y-70595000D01*
X130697857Y-70547380D01*
X130459761Y-70547380D01*
X130316904Y-70595000D01*
X129983571Y-70547380D02*
X129745476Y-71547380D01*
X129555000Y-70833095D01*
X129364523Y-71547380D01*
X129126428Y-70547380D01*
X128221666Y-71547380D02*
X128793095Y-71547380D01*
X128507380Y-71547380D02*
X128507380Y-70547380D01*
X128602619Y-70690238D01*
X128697857Y-70785476D01*
X128793095Y-70833095D01*
%TO.C,SW23*%
X93364523Y-107499761D02*
X93221666Y-107547380D01*
X92983571Y-107547380D01*
X92888333Y-107499761D01*
X92840714Y-107452142D01*
X92793095Y-107356904D01*
X92793095Y-107261666D01*
X92840714Y-107166428D01*
X92888333Y-107118809D01*
X92983571Y-107071190D01*
X93174047Y-107023571D01*
X93269285Y-106975952D01*
X93316904Y-106928333D01*
X93364523Y-106833095D01*
X93364523Y-106737857D01*
X93316904Y-106642619D01*
X93269285Y-106595000D01*
X93174047Y-106547380D01*
X92935952Y-106547380D01*
X92793095Y-106595000D01*
X92459761Y-106547380D02*
X92221666Y-107547380D01*
X92031190Y-106833095D01*
X91840714Y-107547380D01*
X91602619Y-106547380D01*
X91269285Y-106642619D02*
X91221666Y-106595000D01*
X91126428Y-106547380D01*
X90888333Y-106547380D01*
X90793095Y-106595000D01*
X90745476Y-106642619D01*
X90697857Y-106737857D01*
X90697857Y-106833095D01*
X90745476Y-106975952D01*
X91316904Y-107547380D01*
X90697857Y-107547380D01*
X90364523Y-106547380D02*
X89745476Y-106547380D01*
X90078809Y-106928333D01*
X89935952Y-106928333D01*
X89840714Y-106975952D01*
X89793095Y-107023571D01*
X89745476Y-107118809D01*
X89745476Y-107356904D01*
X89793095Y-107452142D01*
X89840714Y-107499761D01*
X89935952Y-107547380D01*
X90221666Y-107547380D01*
X90316904Y-107499761D01*
X90364523Y-107452142D01*
%TO.C,SW30*%
X74364523Y-53499761D02*
X74221666Y-53547380D01*
X73983571Y-53547380D01*
X73888333Y-53499761D01*
X73840714Y-53452142D01*
X73793095Y-53356904D01*
X73793095Y-53261666D01*
X73840714Y-53166428D01*
X73888333Y-53118809D01*
X73983571Y-53071190D01*
X74174047Y-53023571D01*
X74269285Y-52975952D01*
X74316904Y-52928333D01*
X74364523Y-52833095D01*
X74364523Y-52737857D01*
X74316904Y-52642619D01*
X74269285Y-52595000D01*
X74174047Y-52547380D01*
X73935952Y-52547380D01*
X73793095Y-52595000D01*
X73459761Y-52547380D02*
X73221666Y-53547380D01*
X73031190Y-52833095D01*
X72840714Y-53547380D01*
X72602619Y-52547380D01*
X72316904Y-52547380D02*
X71697857Y-52547380D01*
X72031190Y-52928333D01*
X71888333Y-52928333D01*
X71793095Y-52975952D01*
X71745476Y-53023571D01*
X71697857Y-53118809D01*
X71697857Y-53356904D01*
X71745476Y-53452142D01*
X71793095Y-53499761D01*
X71888333Y-53547380D01*
X72174047Y-53547380D01*
X72269285Y-53499761D01*
X72316904Y-53452142D01*
X71078809Y-52547380D02*
X70983571Y-52547380D01*
X70888333Y-52595000D01*
X70840714Y-52642619D01*
X70793095Y-52737857D01*
X70745476Y-52928333D01*
X70745476Y-53166428D01*
X70793095Y-53356904D01*
X70840714Y-53452142D01*
X70888333Y-53499761D01*
X70983571Y-53547380D01*
X71078809Y-53547380D01*
X71174047Y-53499761D01*
X71221666Y-53452142D01*
X71269285Y-53356904D01*
X71316904Y-53166428D01*
X71316904Y-52928333D01*
X71269285Y-52737857D01*
X71221666Y-52642619D01*
X71174047Y-52595000D01*
X71078809Y-52547380D01*
%TO.C,SW4*%
X127938890Y-154139451D02*
X127871547Y-154274138D01*
X127703188Y-154442497D01*
X127602173Y-154476169D01*
X127534829Y-154476169D01*
X127433814Y-154442497D01*
X127366471Y-154375154D01*
X127332799Y-154274138D01*
X127332799Y-154206795D01*
X127366471Y-154105780D01*
X127467486Y-153937421D01*
X127501158Y-153836406D01*
X127501158Y-153769062D01*
X127467486Y-153668047D01*
X127400142Y-153600703D01*
X127299127Y-153567032D01*
X127231784Y-153567032D01*
X127130768Y-153600703D01*
X126962410Y-153769062D01*
X126895066Y-153903749D01*
X126625692Y-154105780D02*
X127164440Y-154981245D01*
X126524677Y-154610856D01*
X126895066Y-155250619D01*
X126019601Y-154711871D01*
X125682883Y-155519993D02*
X126154288Y-155991398D01*
X125581868Y-155082260D02*
X126255303Y-155418978D01*
X125817570Y-155856711D01*
%TO.C,T1*%
X174869047Y-81252380D02*
X174869047Y-80252380D01*
X174488095Y-80252380D01*
X174392857Y-80300000D01*
X174345238Y-80347619D01*
X174297619Y-80442857D01*
X174297619Y-80585714D01*
X174345238Y-80680952D01*
X174392857Y-80728571D01*
X174488095Y-80776190D01*
X174869047Y-80776190D01*
X173583333Y-80252380D02*
X173583333Y-80966666D01*
X173630952Y-81109523D01*
X173726190Y-81204761D01*
X173869047Y-81252380D01*
X173964285Y-81252380D01*
X173107142Y-80871428D02*
X172345238Y-80871428D01*
X171964285Y-80252380D02*
X171345238Y-80252380D01*
X171678571Y-80633333D01*
X171535714Y-80633333D01*
X171440476Y-80680952D01*
X171392857Y-80728571D01*
X171345238Y-80823809D01*
X171345238Y-81061904D01*
X171392857Y-81157142D01*
X171440476Y-81204761D01*
X171535714Y-81252380D01*
X171821428Y-81252380D01*
X171916666Y-81204761D01*
X171964285Y-81157142D01*
X170964285Y-80347619D02*
X170916666Y-80300000D01*
X170821428Y-80252380D01*
X170583333Y-80252380D01*
X170488095Y-80300000D01*
X170440476Y-80347619D01*
X170392857Y-80442857D01*
X170392857Y-80538095D01*
X170440476Y-80680952D01*
X171011904Y-81252380D01*
X170392857Y-81252380D01*
X169773809Y-80252380D02*
X169678571Y-80252380D01*
X169583333Y-80300000D01*
X169535714Y-80347619D01*
X169488095Y-80442857D01*
X169440476Y-80633333D01*
X169440476Y-80871428D01*
X169488095Y-81061904D01*
X169535714Y-81157142D01*
X169583333Y-81204761D01*
X169678571Y-81252380D01*
X169773809Y-81252380D01*
X169869047Y-81204761D01*
X169916666Y-81157142D01*
X169964285Y-81061904D01*
X170011904Y-80871428D01*
X170011904Y-80633333D01*
X169964285Y-80442857D01*
X169916666Y-80347619D01*
X169869047Y-80300000D01*
X169773809Y-80252380D01*
X169059523Y-80966666D02*
X168583333Y-80966666D01*
X169154761Y-81252380D02*
X168821428Y-80252380D01*
X168488095Y-81252380D01*
%TO.C,SW43*%
X55364523Y-107499761D02*
X55221666Y-107547380D01*
X54983571Y-107547380D01*
X54888333Y-107499761D01*
X54840714Y-107452142D01*
X54793095Y-107356904D01*
X54793095Y-107261666D01*
X54840714Y-107166428D01*
X54888333Y-107118809D01*
X54983571Y-107071190D01*
X55174047Y-107023571D01*
X55269285Y-106975952D01*
X55316904Y-106928333D01*
X55364523Y-106833095D01*
X55364523Y-106737857D01*
X55316904Y-106642619D01*
X55269285Y-106595000D01*
X55174047Y-106547380D01*
X54935952Y-106547380D01*
X54793095Y-106595000D01*
X54459761Y-106547380D02*
X54221666Y-107547380D01*
X54031190Y-106833095D01*
X53840714Y-107547380D01*
X53602619Y-106547380D01*
X52793095Y-106880714D02*
X52793095Y-107547380D01*
X53031190Y-106499761D02*
X53269285Y-107214047D01*
X52650238Y-107214047D01*
X52364523Y-106547380D02*
X51745476Y-106547380D01*
X52078809Y-106928333D01*
X51935952Y-106928333D01*
X51840714Y-106975952D01*
X51793095Y-107023571D01*
X51745476Y-107118809D01*
X51745476Y-107356904D01*
X51793095Y-107452142D01*
X51840714Y-107499761D01*
X51935952Y-107547380D01*
X52221666Y-107547380D01*
X52316904Y-107499761D01*
X52364523Y-107452142D01*
%TO.C,SW2*%
X130888333Y-89499761D02*
X130745476Y-89547380D01*
X130507380Y-89547380D01*
X130412142Y-89499761D01*
X130364523Y-89452142D01*
X130316904Y-89356904D01*
X130316904Y-89261666D01*
X130364523Y-89166428D01*
X130412142Y-89118809D01*
X130507380Y-89071190D01*
X130697857Y-89023571D01*
X130793095Y-88975952D01*
X130840714Y-88928333D01*
X130888333Y-88833095D01*
X130888333Y-88737857D01*
X130840714Y-88642619D01*
X130793095Y-88595000D01*
X130697857Y-88547380D01*
X130459761Y-88547380D01*
X130316904Y-88595000D01*
X129983571Y-88547380D02*
X129745476Y-89547380D01*
X129555000Y-88833095D01*
X129364523Y-89547380D01*
X129126428Y-88547380D01*
X128793095Y-88642619D02*
X128745476Y-88595000D01*
X128650238Y-88547380D01*
X128412142Y-88547380D01*
X128316904Y-88595000D01*
X128269285Y-88642619D01*
X128221666Y-88737857D01*
X128221666Y-88833095D01*
X128269285Y-88975952D01*
X128840714Y-89547380D01*
X128221666Y-89547380D01*
%TO.C,SW12*%
X112364523Y-89499761D02*
X112221666Y-89547380D01*
X111983571Y-89547380D01*
X111888333Y-89499761D01*
X111840714Y-89452142D01*
X111793095Y-89356904D01*
X111793095Y-89261666D01*
X111840714Y-89166428D01*
X111888333Y-89118809D01*
X111983571Y-89071190D01*
X112174047Y-89023571D01*
X112269285Y-88975952D01*
X112316904Y-88928333D01*
X112364523Y-88833095D01*
X112364523Y-88737857D01*
X112316904Y-88642619D01*
X112269285Y-88595000D01*
X112174047Y-88547380D01*
X111935952Y-88547380D01*
X111793095Y-88595000D01*
X111459761Y-88547380D02*
X111221666Y-89547380D01*
X111031190Y-88833095D01*
X110840714Y-89547380D01*
X110602619Y-88547380D01*
X109697857Y-89547380D02*
X110269285Y-89547380D01*
X109983571Y-89547380D02*
X109983571Y-88547380D01*
X110078809Y-88690238D01*
X110174047Y-88785476D01*
X110269285Y-88833095D01*
X109316904Y-88642619D02*
X109269285Y-88595000D01*
X109174047Y-88547380D01*
X108935952Y-88547380D01*
X108840714Y-88595000D01*
X108793095Y-88642619D01*
X108745476Y-88737857D01*
X108745476Y-88833095D01*
X108793095Y-88975952D01*
X109364523Y-89547380D01*
X108745476Y-89547380D01*
%TO.C,SW31*%
X74364523Y-71499761D02*
X74221666Y-71547380D01*
X73983571Y-71547380D01*
X73888333Y-71499761D01*
X73840714Y-71452142D01*
X73793095Y-71356904D01*
X73793095Y-71261666D01*
X73840714Y-71166428D01*
X73888333Y-71118809D01*
X73983571Y-71071190D01*
X74174047Y-71023571D01*
X74269285Y-70975952D01*
X74316904Y-70928333D01*
X74364523Y-70833095D01*
X74364523Y-70737857D01*
X74316904Y-70642619D01*
X74269285Y-70595000D01*
X74174047Y-70547380D01*
X73935952Y-70547380D01*
X73793095Y-70595000D01*
X73459761Y-70547380D02*
X73221666Y-71547380D01*
X73031190Y-70833095D01*
X72840714Y-71547380D01*
X72602619Y-70547380D01*
X72316904Y-70547380D02*
X71697857Y-70547380D01*
X72031190Y-70928333D01*
X71888333Y-70928333D01*
X71793095Y-70975952D01*
X71745476Y-71023571D01*
X71697857Y-71118809D01*
X71697857Y-71356904D01*
X71745476Y-71452142D01*
X71793095Y-71499761D01*
X71888333Y-71547380D01*
X72174047Y-71547380D01*
X72269285Y-71499761D01*
X72316904Y-71452142D01*
X70745476Y-71547380D02*
X71316904Y-71547380D01*
X71031190Y-71547380D02*
X71031190Y-70547380D01*
X71126428Y-70690238D01*
X71221666Y-70785476D01*
X71316904Y-70833095D01*
%TO.C,SW51*%
X36364523Y-71499761D02*
X36221666Y-71547380D01*
X35983571Y-71547380D01*
X35888333Y-71499761D01*
X35840714Y-71452142D01*
X35793095Y-71356904D01*
X35793095Y-71261666D01*
X35840714Y-71166428D01*
X35888333Y-71118809D01*
X35983571Y-71071190D01*
X36174047Y-71023571D01*
X36269285Y-70975952D01*
X36316904Y-70928333D01*
X36364523Y-70833095D01*
X36364523Y-70737857D01*
X36316904Y-70642619D01*
X36269285Y-70595000D01*
X36174047Y-70547380D01*
X35935952Y-70547380D01*
X35793095Y-70595000D01*
X35459761Y-70547380D02*
X35221666Y-71547380D01*
X35031190Y-70833095D01*
X34840714Y-71547380D01*
X34602619Y-70547380D01*
X33745476Y-70547380D02*
X34221666Y-70547380D01*
X34269285Y-71023571D01*
X34221666Y-70975952D01*
X34126428Y-70928333D01*
X33888333Y-70928333D01*
X33793095Y-70975952D01*
X33745476Y-71023571D01*
X33697857Y-71118809D01*
X33697857Y-71356904D01*
X33745476Y-71452142D01*
X33793095Y-71499761D01*
X33888333Y-71547380D01*
X34126428Y-71547380D01*
X34221666Y-71499761D01*
X34269285Y-71452142D01*
X32745476Y-71547380D02*
X33316904Y-71547380D01*
X33031190Y-71547380D02*
X33031190Y-70547380D01*
X33126428Y-70690238D01*
X33221666Y-70785476D01*
X33316904Y-70833095D01*
%TO.C,SW40*%
X55364523Y-53499761D02*
X55221666Y-53547380D01*
X54983571Y-53547380D01*
X54888333Y-53499761D01*
X54840714Y-53452142D01*
X54793095Y-53356904D01*
X54793095Y-53261666D01*
X54840714Y-53166428D01*
X54888333Y-53118809D01*
X54983571Y-53071190D01*
X55174047Y-53023571D01*
X55269285Y-52975952D01*
X55316904Y-52928333D01*
X55364523Y-52833095D01*
X55364523Y-52737857D01*
X55316904Y-52642619D01*
X55269285Y-52595000D01*
X55174047Y-52547380D01*
X54935952Y-52547380D01*
X54793095Y-52595000D01*
X54459761Y-52547380D02*
X54221666Y-53547380D01*
X54031190Y-52833095D01*
X53840714Y-53547380D01*
X53602619Y-52547380D01*
X52793095Y-52880714D02*
X52793095Y-53547380D01*
X53031190Y-52499761D02*
X53269285Y-53214047D01*
X52650238Y-53214047D01*
X52078809Y-52547380D02*
X51983571Y-52547380D01*
X51888333Y-52595000D01*
X51840714Y-52642619D01*
X51793095Y-52737857D01*
X51745476Y-52928333D01*
X51745476Y-53166428D01*
X51793095Y-53356904D01*
X51840714Y-53452142D01*
X51888333Y-53499761D01*
X51983571Y-53547380D01*
X52078809Y-53547380D01*
X52174047Y-53499761D01*
X52221666Y-53452142D01*
X52269285Y-53356904D01*
X52316904Y-53166428D01*
X52316904Y-52928333D01*
X52269285Y-52737857D01*
X52221666Y-52642619D01*
X52174047Y-52595000D01*
X52078809Y-52547380D01*
%TO.C,SW10*%
X112364523Y-53499761D02*
X112221666Y-53547380D01*
X111983571Y-53547380D01*
X111888333Y-53499761D01*
X111840714Y-53452142D01*
X111793095Y-53356904D01*
X111793095Y-53261666D01*
X111840714Y-53166428D01*
X111888333Y-53118809D01*
X111983571Y-53071190D01*
X112174047Y-53023571D01*
X112269285Y-52975952D01*
X112316904Y-52928333D01*
X112364523Y-52833095D01*
X112364523Y-52737857D01*
X112316904Y-52642619D01*
X112269285Y-52595000D01*
X112174047Y-52547380D01*
X111935952Y-52547380D01*
X111793095Y-52595000D01*
X111459761Y-52547380D02*
X111221666Y-53547380D01*
X111031190Y-52833095D01*
X110840714Y-53547380D01*
X110602619Y-52547380D01*
X109697857Y-53547380D02*
X110269285Y-53547380D01*
X109983571Y-53547380D02*
X109983571Y-52547380D01*
X110078809Y-52690238D01*
X110174047Y-52785476D01*
X110269285Y-52833095D01*
X109078809Y-52547380D02*
X108983571Y-52547380D01*
X108888333Y-52595000D01*
X108840714Y-52642619D01*
X108793095Y-52737857D01*
X108745476Y-52928333D01*
X108745476Y-53166428D01*
X108793095Y-53356904D01*
X108840714Y-53452142D01*
X108888333Y-53499761D01*
X108983571Y-53547380D01*
X109078809Y-53547380D01*
X109174047Y-53499761D01*
X109221666Y-53452142D01*
X109269285Y-53356904D01*
X109316904Y-53166428D01*
X109316904Y-52928333D01*
X109269285Y-52737857D01*
X109221666Y-52642619D01*
X109174047Y-52595000D01*
X109078809Y-52547380D01*
%TO.C,SW53*%
X36364523Y-107499761D02*
X36221666Y-107547380D01*
X35983571Y-107547380D01*
X35888333Y-107499761D01*
X35840714Y-107452142D01*
X35793095Y-107356904D01*
X35793095Y-107261666D01*
X35840714Y-107166428D01*
X35888333Y-107118809D01*
X35983571Y-107071190D01*
X36174047Y-107023571D01*
X36269285Y-106975952D01*
X36316904Y-106928333D01*
X36364523Y-106833095D01*
X36364523Y-106737857D01*
X36316904Y-106642619D01*
X36269285Y-106595000D01*
X36174047Y-106547380D01*
X35935952Y-106547380D01*
X35793095Y-106595000D01*
X35459761Y-106547380D02*
X35221666Y-107547380D01*
X35031190Y-106833095D01*
X34840714Y-107547380D01*
X34602619Y-106547380D01*
X33745476Y-106547380D02*
X34221666Y-106547380D01*
X34269285Y-107023571D01*
X34221666Y-106975952D01*
X34126428Y-106928333D01*
X33888333Y-106928333D01*
X33793095Y-106975952D01*
X33745476Y-107023571D01*
X33697857Y-107118809D01*
X33697857Y-107356904D01*
X33745476Y-107452142D01*
X33793095Y-107499761D01*
X33888333Y-107547380D01*
X34126428Y-107547380D01*
X34221666Y-107499761D01*
X34269285Y-107452142D01*
X33364523Y-106547380D02*
X32745476Y-106547380D01*
X33078809Y-106928333D01*
X32935952Y-106928333D01*
X32840714Y-106975952D01*
X32793095Y-107023571D01*
X32745476Y-107118809D01*
X32745476Y-107356904D01*
X32793095Y-107452142D01*
X32840714Y-107499761D01*
X32935952Y-107547380D01*
X33221666Y-107547380D01*
X33316904Y-107499761D01*
X33364523Y-107452142D01*
D11*
%TO.C,SW20*%
X99900000Y-48850000D02*
X99900000Y-51550000D01*
D10*
X103000000Y-62000000D02*
X102000000Y-62000000D01*
X89000000Y-48000000D02*
X90000000Y-48000000D01*
X94000000Y-61700000D02*
X94000000Y-62700000D01*
X98000000Y-62700000D02*
X97500000Y-63200000D01*
X97500000Y-63200000D02*
X94500000Y-63200000D01*
X90000000Y-62000000D02*
X89000000Y-62000000D01*
D11*
X101000000Y-48850000D02*
X99900000Y-48850000D01*
D10*
X97500000Y-58700000D02*
X95000000Y-58700000D01*
X103000000Y-61000000D02*
X103000000Y-62000000D01*
X89000000Y-62000000D02*
X89000000Y-61000000D01*
X102000000Y-48000000D02*
X103000000Y-48000000D01*
X89000000Y-56500000D02*
X89000000Y-57000000D01*
X98000000Y-59200000D02*
X97500000Y-58700000D01*
D11*
X101000000Y-51550000D02*
X101000000Y-48850000D01*
D10*
X89000000Y-61200000D02*
X93500000Y-61200000D01*
X94500000Y-63200000D02*
X94000000Y-62700000D01*
D11*
X99900000Y-51550000D02*
X101000000Y-51550000D01*
D10*
X93500000Y-56500000D02*
X89000000Y-56500000D01*
X103000000Y-48000000D02*
X103000000Y-49000000D01*
X89000000Y-60600000D02*
X89000000Y-61200000D01*
X89000000Y-49000000D02*
X89000000Y-48000000D01*
X93500000Y-57200000D02*
X93500000Y-56500000D01*
X93500000Y-57200000D02*
G75*
G03*
X95000000Y-58700000I1500001J1D01*
G01*
X94000000Y-61700000D02*
G75*
G03*
X93500000Y-61200000I-500001J-1D01*
G01*
D12*
X93200000Y-48910000D02*
X93800000Y-48910000D01*
X93800000Y-48910000D02*
X93800000Y-48310000D01*
X93800000Y-48310000D02*
X93200000Y-48910000D01*
G36*
X93800000Y-48910000D02*
G01*
X93200000Y-48910000D01*
X93800000Y-48310000D01*
X93800000Y-48910000D01*
G37*
X93800000Y-48910000D02*
X93200000Y-48910000D01*
X93800000Y-48310000D01*
X93800000Y-48910000D01*
D10*
%TO.C,SW22*%
X103000000Y-98000000D02*
X102000000Y-98000000D01*
D11*
X101000000Y-84850000D02*
X99900000Y-84850000D01*
D10*
X93500000Y-93200000D02*
X93500000Y-92500000D01*
X94500000Y-99200000D02*
X94000000Y-98700000D01*
X97500000Y-94700000D02*
X95000000Y-94700000D01*
D11*
X99900000Y-87550000D02*
X101000000Y-87550000D01*
X99900000Y-84850000D02*
X99900000Y-87550000D01*
D10*
X94000000Y-97700000D02*
X94000000Y-98700000D01*
X89000000Y-96600000D02*
X89000000Y-97200000D01*
X90000000Y-98000000D02*
X89000000Y-98000000D01*
X93500000Y-92500000D02*
X89000000Y-92500000D01*
X97500000Y-99200000D02*
X94500000Y-99200000D01*
X89000000Y-98000000D02*
X89000000Y-97000000D01*
X89000000Y-92500000D02*
X89000000Y-93000000D01*
X98000000Y-95200000D02*
X97500000Y-94700000D01*
X103000000Y-84000000D02*
X103000000Y-85000000D01*
D11*
X101000000Y-87550000D02*
X101000000Y-84850000D01*
D10*
X89000000Y-85000000D02*
X89000000Y-84000000D01*
X89000000Y-97200000D02*
X93500000Y-97200000D01*
X89000000Y-84000000D02*
X90000000Y-84000000D01*
X98000000Y-98700000D02*
X97500000Y-99200000D01*
X103000000Y-97000000D02*
X103000000Y-98000000D01*
X102000000Y-84000000D02*
X103000000Y-84000000D01*
X93500000Y-93200000D02*
G75*
G03*
X95000000Y-94700000I1500001J1D01*
G01*
X94000000Y-97700000D02*
G75*
G03*
X93500000Y-97200000I-500001J-1D01*
G01*
D12*
X93200000Y-84910000D02*
X93800000Y-84910000D01*
X93800000Y-84910000D02*
X93800000Y-84310000D01*
X93800000Y-84310000D02*
X93200000Y-84910000D01*
G36*
X93800000Y-84910000D02*
G01*
X93200000Y-84910000D01*
X93800000Y-84310000D01*
X93800000Y-84910000D01*
G37*
X93800000Y-84910000D02*
X93200000Y-84910000D01*
X93800000Y-84310000D01*
X93800000Y-84910000D01*
D10*
%TO.C,SW0*%
X131500000Y-56500000D02*
X127000000Y-56500000D01*
X141000000Y-61000000D02*
X141000000Y-62000000D01*
X132000000Y-61700000D02*
X132000000Y-62700000D01*
X127000000Y-48000000D02*
X128000000Y-48000000D01*
X132500000Y-63200000D02*
X132000000Y-62700000D01*
D11*
X137900000Y-51550000D02*
X139000000Y-51550000D01*
D10*
X135500000Y-63200000D02*
X132500000Y-63200000D01*
D11*
X139000000Y-51550000D02*
X139000000Y-48850000D01*
D10*
X136000000Y-62700000D02*
X135500000Y-63200000D01*
X140000000Y-48000000D02*
X141000000Y-48000000D01*
X127000000Y-62000000D02*
X127000000Y-61000000D01*
D11*
X139000000Y-48850000D02*
X137900000Y-48850000D01*
D10*
X128000000Y-62000000D02*
X127000000Y-62000000D01*
X127000000Y-60600000D02*
X127000000Y-61200000D01*
X131500000Y-57200000D02*
X131500000Y-56500000D01*
X141000000Y-48000000D02*
X141000000Y-49000000D01*
X127000000Y-49000000D02*
X127000000Y-48000000D01*
X136000000Y-59200000D02*
X135500000Y-58700000D01*
X127000000Y-61200000D02*
X131500000Y-61200000D01*
X135500000Y-58700000D02*
X133000000Y-58700000D01*
D11*
X137900000Y-48850000D02*
X137900000Y-51550000D01*
D10*
X141000000Y-62000000D02*
X140000000Y-62000000D01*
X127000000Y-56500000D02*
X127000000Y-57000000D01*
X131500000Y-57200000D02*
G75*
G03*
X133000000Y-58700000I1500001J1D01*
G01*
X132000000Y-61700000D02*
G75*
G03*
X131500000Y-61200000I-500001J-1D01*
G01*
D12*
X131200000Y-48910000D02*
X131800000Y-48910000D01*
X131800000Y-48910000D02*
X131800000Y-48310000D01*
X131800000Y-48310000D02*
X131200000Y-48910000D01*
G36*
X131800000Y-48910000D02*
G01*
X131200000Y-48910000D01*
X131800000Y-48310000D01*
X131800000Y-48910000D01*
G37*
X131800000Y-48910000D02*
X131200000Y-48910000D01*
X131800000Y-48310000D01*
X131800000Y-48910000D01*
D10*
%TO.C,SW21*%
X103000000Y-80000000D02*
X102000000Y-80000000D01*
X94500000Y-81200000D02*
X94000000Y-80700000D01*
X89000000Y-74500000D02*
X89000000Y-75000000D01*
D11*
X99900000Y-69550000D02*
X101000000Y-69550000D01*
X101000000Y-66850000D02*
X99900000Y-66850000D01*
D10*
X97500000Y-76700000D02*
X95000000Y-76700000D01*
D11*
X99900000Y-66850000D02*
X99900000Y-69550000D01*
D10*
X93500000Y-75200000D02*
X93500000Y-74500000D01*
X103000000Y-79000000D02*
X103000000Y-80000000D01*
X97500000Y-81200000D02*
X94500000Y-81200000D01*
X98000000Y-77200000D02*
X97500000Y-76700000D01*
X89000000Y-79200000D02*
X93500000Y-79200000D01*
X94000000Y-79700000D02*
X94000000Y-80700000D01*
X93500000Y-74500000D02*
X89000000Y-74500000D01*
X89000000Y-78600000D02*
X89000000Y-79200000D01*
X102000000Y-66000000D02*
X103000000Y-66000000D01*
X103000000Y-66000000D02*
X103000000Y-67000000D01*
X89000000Y-66000000D02*
X90000000Y-66000000D01*
X90000000Y-80000000D02*
X89000000Y-80000000D01*
X89000000Y-80000000D02*
X89000000Y-79000000D01*
X89000000Y-67000000D02*
X89000000Y-66000000D01*
D11*
X101000000Y-69550000D02*
X101000000Y-66850000D01*
D10*
X98000000Y-80700000D02*
X97500000Y-81200000D01*
X94000000Y-79700000D02*
G75*
G03*
X93500000Y-79200000I-500001J-1D01*
G01*
X93500000Y-75200000D02*
G75*
G03*
X95000000Y-76700000I1500001J1D01*
G01*
D12*
X93200000Y-66910000D02*
X93800000Y-66910000D01*
X93800000Y-66910000D02*
X93800000Y-66310000D01*
X93800000Y-66310000D02*
X93200000Y-66910000D01*
G36*
X93800000Y-66910000D02*
G01*
X93200000Y-66910000D01*
X93800000Y-66310000D01*
X93800000Y-66910000D01*
G37*
X93800000Y-66910000D02*
X93200000Y-66910000D01*
X93800000Y-66310000D01*
X93800000Y-66910000D01*
D10*
%TO.C,SW52*%
X41000000Y-98700000D02*
X40500000Y-99200000D01*
D11*
X44000000Y-87550000D02*
X44000000Y-84850000D01*
D10*
X37000000Y-97700000D02*
X37000000Y-98700000D01*
X41000000Y-95200000D02*
X40500000Y-94700000D01*
X37500000Y-99200000D02*
X37000000Y-98700000D01*
D11*
X42900000Y-87550000D02*
X44000000Y-87550000D01*
D10*
X32000000Y-96600000D02*
X32000000Y-97200000D01*
D11*
X42900000Y-84850000D02*
X42900000Y-87550000D01*
D10*
X46000000Y-98000000D02*
X45000000Y-98000000D01*
X32000000Y-92500000D02*
X32000000Y-93000000D01*
X32000000Y-84000000D02*
X33000000Y-84000000D01*
X45000000Y-84000000D02*
X46000000Y-84000000D01*
X46000000Y-84000000D02*
X46000000Y-85000000D01*
X32000000Y-85000000D02*
X32000000Y-84000000D01*
X33000000Y-98000000D02*
X32000000Y-98000000D01*
X32000000Y-97200000D02*
X36500000Y-97200000D01*
X46000000Y-97000000D02*
X46000000Y-98000000D01*
X32000000Y-98000000D02*
X32000000Y-97000000D01*
D11*
X44000000Y-84850000D02*
X42900000Y-84850000D01*
D10*
X36500000Y-93200000D02*
X36500000Y-92500000D01*
X36500000Y-92500000D02*
X32000000Y-92500000D01*
X40500000Y-99200000D02*
X37500000Y-99200000D01*
X40500000Y-94700000D02*
X38000000Y-94700000D01*
X36500000Y-93200000D02*
G75*
G03*
X38000000Y-94700000I1500001J1D01*
G01*
X37000000Y-97700000D02*
G75*
G03*
X36500000Y-97200000I-500001J-1D01*
G01*
D12*
X36200000Y-84910000D02*
X36800000Y-84910000D01*
X36800000Y-84910000D02*
X36800000Y-84310000D01*
X36800000Y-84310000D02*
X36200000Y-84910000D01*
G36*
X36800000Y-84910000D02*
G01*
X36200000Y-84910000D01*
X36800000Y-84310000D01*
X36800000Y-84910000D01*
G37*
X36800000Y-84910000D02*
X36200000Y-84910000D01*
X36800000Y-84310000D01*
X36800000Y-84910000D01*
D10*
%TO.C,SW54*%
X41000000Y-134700000D02*
X40500000Y-135200000D01*
X40500000Y-135200000D02*
X37500000Y-135200000D01*
D11*
X44000000Y-123550000D02*
X44000000Y-120850000D01*
D10*
X46000000Y-134000000D02*
X45000000Y-134000000D01*
X36500000Y-128500000D02*
X32000000Y-128500000D01*
X32000000Y-132600000D02*
X32000000Y-133200000D01*
X32000000Y-134000000D02*
X32000000Y-133000000D01*
X41000000Y-131200000D02*
X40500000Y-130700000D01*
X32000000Y-133200000D02*
X36500000Y-133200000D01*
X32000000Y-120000000D02*
X33000000Y-120000000D01*
D11*
X44000000Y-120850000D02*
X42900000Y-120850000D01*
D10*
X37500000Y-135200000D02*
X37000000Y-134700000D01*
D11*
X42900000Y-123550000D02*
X44000000Y-123550000D01*
D10*
X46000000Y-120000000D02*
X46000000Y-121000000D01*
X36500000Y-129200000D02*
X36500000Y-128500000D01*
X45000000Y-120000000D02*
X46000000Y-120000000D01*
X37000000Y-133700000D02*
X37000000Y-134700000D01*
D11*
X42900000Y-120850000D02*
X42900000Y-123550000D01*
D10*
X32000000Y-121000000D02*
X32000000Y-120000000D01*
X46000000Y-133000000D02*
X46000000Y-134000000D01*
X33000000Y-134000000D02*
X32000000Y-134000000D01*
X32000000Y-128500000D02*
X32000000Y-129000000D01*
X40500000Y-130700000D02*
X38000000Y-130700000D01*
X37000000Y-133700000D02*
G75*
G03*
X36500000Y-133200000I-500001J-1D01*
G01*
X36500000Y-129200000D02*
G75*
G03*
X38000000Y-130700000I1500001J1D01*
G01*
D12*
X36200000Y-120910000D02*
X36800000Y-120910000D01*
X36800000Y-120910000D02*
X36800000Y-120310000D01*
X36800000Y-120310000D02*
X36200000Y-120910000D01*
G36*
X36800000Y-120910000D02*
G01*
X36200000Y-120910000D01*
X36800000Y-120310000D01*
X36800000Y-120910000D01*
G37*
X36800000Y-120910000D02*
X36200000Y-120910000D01*
X36800000Y-120310000D01*
X36800000Y-120910000D01*
D10*
%TO.C,SW34*%
X75500000Y-135200000D02*
X75000000Y-134700000D01*
X70000000Y-132600000D02*
X70000000Y-133200000D01*
X75000000Y-133700000D02*
X75000000Y-134700000D01*
D11*
X82000000Y-120850000D02*
X80900000Y-120850000D01*
D10*
X79000000Y-134700000D02*
X78500000Y-135200000D01*
X78500000Y-135200000D02*
X75500000Y-135200000D01*
D11*
X80900000Y-120850000D02*
X80900000Y-123550000D01*
X80900000Y-123550000D02*
X82000000Y-123550000D01*
D10*
X74500000Y-129200000D02*
X74500000Y-128500000D01*
X84000000Y-134000000D02*
X83000000Y-134000000D01*
X71000000Y-134000000D02*
X70000000Y-134000000D01*
X70000000Y-128500000D02*
X70000000Y-129000000D01*
X83000000Y-120000000D02*
X84000000Y-120000000D01*
X74500000Y-128500000D02*
X70000000Y-128500000D01*
X79000000Y-131200000D02*
X78500000Y-130700000D01*
X70000000Y-121000000D02*
X70000000Y-120000000D01*
X78500000Y-130700000D02*
X76000000Y-130700000D01*
D11*
X82000000Y-123550000D02*
X82000000Y-120850000D01*
D10*
X84000000Y-133000000D02*
X84000000Y-134000000D01*
X70000000Y-120000000D02*
X71000000Y-120000000D01*
X70000000Y-134000000D02*
X70000000Y-133000000D01*
X70000000Y-133200000D02*
X74500000Y-133200000D01*
X84000000Y-120000000D02*
X84000000Y-121000000D01*
X75000000Y-133700000D02*
G75*
G03*
X74500000Y-133200000I-500001J-1D01*
G01*
X74500000Y-129200000D02*
G75*
G03*
X76000000Y-130700000I1500001J1D01*
G01*
D12*
X74200000Y-120910000D02*
X74800000Y-120910000D01*
X74800000Y-120910000D02*
X74800000Y-120310000D01*
X74800000Y-120310000D02*
X74200000Y-120910000D01*
G36*
X74800000Y-120910000D02*
G01*
X74200000Y-120910000D01*
X74800000Y-120310000D01*
X74800000Y-120910000D01*
G37*
X74800000Y-120910000D02*
X74200000Y-120910000D01*
X74800000Y-120310000D01*
X74800000Y-120910000D01*
D10*
%TO.C,SW50*%
X37000000Y-61700000D02*
X37000000Y-62700000D01*
X40500000Y-63200000D02*
X37500000Y-63200000D01*
D11*
X42900000Y-51550000D02*
X44000000Y-51550000D01*
D10*
X45000000Y-48000000D02*
X46000000Y-48000000D01*
X32000000Y-56500000D02*
X32000000Y-57000000D01*
X32000000Y-60600000D02*
X32000000Y-61200000D01*
X37500000Y-63200000D02*
X37000000Y-62700000D01*
X33000000Y-62000000D02*
X32000000Y-62000000D01*
X32000000Y-61200000D02*
X36500000Y-61200000D01*
D11*
X44000000Y-51550000D02*
X44000000Y-48850000D01*
D10*
X32000000Y-62000000D02*
X32000000Y-61000000D01*
X40500000Y-58700000D02*
X38000000Y-58700000D01*
X46000000Y-61000000D02*
X46000000Y-62000000D01*
X36500000Y-57200000D02*
X36500000Y-56500000D01*
X32000000Y-49000000D02*
X32000000Y-48000000D01*
X36500000Y-56500000D02*
X32000000Y-56500000D01*
D11*
X42900000Y-48850000D02*
X42900000Y-51550000D01*
D10*
X46000000Y-48000000D02*
X46000000Y-49000000D01*
X32000000Y-48000000D02*
X33000000Y-48000000D01*
D11*
X44000000Y-48850000D02*
X42900000Y-48850000D01*
D10*
X41000000Y-62700000D02*
X40500000Y-63200000D01*
X46000000Y-62000000D02*
X45000000Y-62000000D01*
X41000000Y-59200000D02*
X40500000Y-58700000D01*
X36500000Y-57200000D02*
G75*
G03*
X38000000Y-58700000I1500001J1D01*
G01*
X37000000Y-61700000D02*
G75*
G03*
X36500000Y-61200000I-500001J-1D01*
G01*
D12*
X36200000Y-48910000D02*
X36800000Y-48910000D01*
X36800000Y-48910000D02*
X36800000Y-48310000D01*
X36800000Y-48310000D02*
X36200000Y-48910000D01*
G36*
X36800000Y-48910000D02*
G01*
X36200000Y-48910000D01*
X36800000Y-48310000D01*
X36800000Y-48910000D01*
G37*
X36800000Y-48910000D02*
X36200000Y-48910000D01*
X36800000Y-48310000D01*
X36800000Y-48910000D01*
D10*
%TO.C,SW13*%
X109000000Y-116000000D02*
X108000000Y-116000000D01*
X112500000Y-110500000D02*
X108000000Y-110500000D01*
X116500000Y-112700000D02*
X114000000Y-112700000D01*
X113500000Y-117200000D02*
X113000000Y-116700000D01*
X108000000Y-114600000D02*
X108000000Y-115200000D01*
D11*
X118900000Y-102850000D02*
X118900000Y-105550000D01*
D10*
X108000000Y-110500000D02*
X108000000Y-111000000D01*
X122000000Y-116000000D02*
X121000000Y-116000000D01*
X108000000Y-115200000D02*
X112500000Y-115200000D01*
X108000000Y-102000000D02*
X109000000Y-102000000D01*
D11*
X120000000Y-105550000D02*
X120000000Y-102850000D01*
D10*
X112500000Y-111200000D02*
X112500000Y-110500000D01*
X108000000Y-116000000D02*
X108000000Y-115000000D01*
X117000000Y-113200000D02*
X116500000Y-112700000D01*
X121000000Y-102000000D02*
X122000000Y-102000000D01*
X113000000Y-115700000D02*
X113000000Y-116700000D01*
X116500000Y-117200000D02*
X113500000Y-117200000D01*
D11*
X120000000Y-102850000D02*
X118900000Y-102850000D01*
D10*
X122000000Y-102000000D02*
X122000000Y-103000000D01*
D11*
X118900000Y-105550000D02*
X120000000Y-105550000D01*
D10*
X117000000Y-116700000D02*
X116500000Y-117200000D01*
X122000000Y-115000000D02*
X122000000Y-116000000D01*
X108000000Y-103000000D02*
X108000000Y-102000000D01*
X113000000Y-115700000D02*
G75*
G03*
X112500000Y-115200000I-500001J-1D01*
G01*
X112500000Y-111200000D02*
G75*
G03*
X114000000Y-112700000I1500001J1D01*
G01*
D12*
X112200000Y-102910000D02*
X112800000Y-102910000D01*
X112800000Y-102910000D02*
X112800000Y-102310000D01*
X112800000Y-102310000D02*
X112200000Y-102910000D01*
G36*
X112800000Y-102910000D02*
G01*
X112200000Y-102910000D01*
X112800000Y-102310000D01*
X112800000Y-102910000D01*
G37*
X112800000Y-102910000D02*
X112200000Y-102910000D01*
X112800000Y-102310000D01*
X112800000Y-102910000D01*
D11*
%TO.C,SW32*%
X82000000Y-87550000D02*
X82000000Y-84850000D01*
D10*
X75500000Y-99200000D02*
X75000000Y-98700000D01*
X79000000Y-95200000D02*
X78500000Y-94700000D01*
X84000000Y-98000000D02*
X83000000Y-98000000D01*
X83000000Y-84000000D02*
X84000000Y-84000000D01*
X84000000Y-97000000D02*
X84000000Y-98000000D01*
X70000000Y-98000000D02*
X70000000Y-97000000D01*
X71000000Y-98000000D02*
X70000000Y-98000000D01*
X78500000Y-99200000D02*
X75500000Y-99200000D01*
X70000000Y-96600000D02*
X70000000Y-97200000D01*
X78500000Y-94700000D02*
X76000000Y-94700000D01*
X74500000Y-92500000D02*
X70000000Y-92500000D01*
D11*
X80900000Y-84850000D02*
X80900000Y-87550000D01*
D10*
X79000000Y-98700000D02*
X78500000Y-99200000D01*
X70000000Y-92500000D02*
X70000000Y-93000000D01*
X70000000Y-84000000D02*
X71000000Y-84000000D01*
X74500000Y-93200000D02*
X74500000Y-92500000D01*
D11*
X82000000Y-84850000D02*
X80900000Y-84850000D01*
D10*
X70000000Y-85000000D02*
X70000000Y-84000000D01*
D11*
X80900000Y-87550000D02*
X82000000Y-87550000D01*
D10*
X75000000Y-97700000D02*
X75000000Y-98700000D01*
X84000000Y-84000000D02*
X84000000Y-85000000D01*
X70000000Y-97200000D02*
X74500000Y-97200000D01*
X75000000Y-97700000D02*
G75*
G03*
X74500000Y-97200000I-500001J-1D01*
G01*
X74500000Y-93200000D02*
G75*
G03*
X76000000Y-94700000I1500001J1D01*
G01*
D12*
X74200000Y-84910000D02*
X74800000Y-84910000D01*
X74800000Y-84910000D02*
X74800000Y-84310000D01*
X74800000Y-84310000D02*
X74200000Y-84910000D01*
G36*
X74800000Y-84910000D02*
G01*
X74200000Y-84910000D01*
X74800000Y-84310000D01*
X74800000Y-84910000D01*
G37*
X74800000Y-84910000D02*
X74200000Y-84910000D01*
X74800000Y-84310000D01*
X74800000Y-84910000D01*
D10*
%TO.C,SW41*%
X64000000Y-66000000D02*
X65000000Y-66000000D01*
X59500000Y-81200000D02*
X56500000Y-81200000D01*
X51000000Y-79200000D02*
X55500000Y-79200000D01*
X51000000Y-67000000D02*
X51000000Y-66000000D01*
X59500000Y-76700000D02*
X57000000Y-76700000D01*
X51000000Y-80000000D02*
X51000000Y-79000000D01*
X52000000Y-80000000D02*
X51000000Y-80000000D01*
X56500000Y-81200000D02*
X56000000Y-80700000D01*
X60000000Y-80700000D02*
X59500000Y-81200000D01*
D11*
X61900000Y-69550000D02*
X63000000Y-69550000D01*
X61900000Y-66850000D02*
X61900000Y-69550000D01*
D10*
X51000000Y-66000000D02*
X52000000Y-66000000D01*
X51000000Y-74500000D02*
X51000000Y-75000000D01*
X65000000Y-79000000D02*
X65000000Y-80000000D01*
X60000000Y-77200000D02*
X59500000Y-76700000D01*
X55500000Y-75200000D02*
X55500000Y-74500000D01*
X56000000Y-79700000D02*
X56000000Y-80700000D01*
D11*
X63000000Y-69550000D02*
X63000000Y-66850000D01*
D10*
X51000000Y-78600000D02*
X51000000Y-79200000D01*
D11*
X63000000Y-66850000D02*
X61900000Y-66850000D01*
D10*
X55500000Y-74500000D02*
X51000000Y-74500000D01*
X65000000Y-66000000D02*
X65000000Y-67000000D01*
X65000000Y-80000000D02*
X64000000Y-80000000D01*
X55500000Y-75200000D02*
G75*
G03*
X57000000Y-76700000I1500001J1D01*
G01*
X56000000Y-79700000D02*
G75*
G03*
X55500000Y-79200000I-500001J-1D01*
G01*
D12*
X55200000Y-66910000D02*
X55800000Y-66910000D01*
X55800000Y-66910000D02*
X55800000Y-66310000D01*
X55800000Y-66310000D02*
X55200000Y-66910000D01*
G36*
X55800000Y-66910000D02*
G01*
X55200000Y-66910000D01*
X55800000Y-66310000D01*
X55800000Y-66910000D01*
G37*
X55800000Y-66910000D02*
X55200000Y-66910000D01*
X55800000Y-66310000D01*
X55800000Y-66910000D01*
D10*
%TO.C,SW44*%
X59500000Y-130700000D02*
X57000000Y-130700000D01*
X56000000Y-133700000D02*
X56000000Y-134700000D01*
X65000000Y-134000000D02*
X64000000Y-134000000D01*
X52000000Y-134000000D02*
X51000000Y-134000000D01*
X65000000Y-120000000D02*
X65000000Y-121000000D01*
D11*
X61900000Y-120850000D02*
X61900000Y-123550000D01*
D10*
X60000000Y-134700000D02*
X59500000Y-135200000D01*
X64000000Y-120000000D02*
X65000000Y-120000000D01*
X51000000Y-128500000D02*
X51000000Y-129000000D01*
X59500000Y-135200000D02*
X56500000Y-135200000D01*
X55500000Y-129200000D02*
X55500000Y-128500000D01*
X51000000Y-120000000D02*
X52000000Y-120000000D01*
X60000000Y-131200000D02*
X59500000Y-130700000D01*
X51000000Y-121000000D02*
X51000000Y-120000000D01*
X51000000Y-132600000D02*
X51000000Y-133200000D01*
D11*
X63000000Y-120850000D02*
X61900000Y-120850000D01*
D10*
X55500000Y-128500000D02*
X51000000Y-128500000D01*
X56500000Y-135200000D02*
X56000000Y-134700000D01*
D11*
X63000000Y-123550000D02*
X63000000Y-120850000D01*
D10*
X51000000Y-133200000D02*
X55500000Y-133200000D01*
X65000000Y-133000000D02*
X65000000Y-134000000D01*
X51000000Y-134000000D02*
X51000000Y-133000000D01*
D11*
X61900000Y-123550000D02*
X63000000Y-123550000D01*
D10*
X55500000Y-129200000D02*
G75*
G03*
X57000000Y-130700000I1500001J1D01*
G01*
X56000000Y-133700000D02*
G75*
G03*
X55500000Y-133200000I-500001J-1D01*
G01*
D12*
X55200000Y-120910000D02*
X55800000Y-120910000D01*
X55800000Y-120910000D02*
X55800000Y-120310000D01*
X55800000Y-120310000D02*
X55200000Y-120910000D01*
G36*
X55800000Y-120910000D02*
G01*
X55200000Y-120910000D01*
X55800000Y-120310000D01*
X55800000Y-120910000D01*
G37*
X55800000Y-120910000D02*
X55200000Y-120910000D01*
X55800000Y-120310000D01*
X55800000Y-120910000D01*
D10*
%TO.C,SW11*%
X116500000Y-81200000D02*
X113500000Y-81200000D01*
X117000000Y-77200000D02*
X116500000Y-76700000D01*
X112500000Y-74500000D02*
X108000000Y-74500000D01*
X108000000Y-67000000D02*
X108000000Y-66000000D01*
D11*
X120000000Y-69550000D02*
X120000000Y-66850000D01*
D10*
X122000000Y-66000000D02*
X122000000Y-67000000D01*
D11*
X120000000Y-66850000D02*
X118900000Y-66850000D01*
D10*
X108000000Y-78600000D02*
X108000000Y-79200000D01*
X108000000Y-74500000D02*
X108000000Y-75000000D01*
X113500000Y-81200000D02*
X113000000Y-80700000D01*
X109000000Y-80000000D02*
X108000000Y-80000000D01*
D11*
X118900000Y-66850000D02*
X118900000Y-69550000D01*
D10*
X116500000Y-76700000D02*
X114000000Y-76700000D01*
X122000000Y-80000000D02*
X121000000Y-80000000D01*
X108000000Y-80000000D02*
X108000000Y-79000000D01*
X121000000Y-66000000D02*
X122000000Y-66000000D01*
X112500000Y-75200000D02*
X112500000Y-74500000D01*
X108000000Y-79200000D02*
X112500000Y-79200000D01*
D11*
X118900000Y-69550000D02*
X120000000Y-69550000D01*
D10*
X117000000Y-80700000D02*
X116500000Y-81200000D01*
X113000000Y-79700000D02*
X113000000Y-80700000D01*
X108000000Y-66000000D02*
X109000000Y-66000000D01*
X122000000Y-79000000D02*
X122000000Y-80000000D01*
X113000000Y-79700000D02*
G75*
G03*
X112500000Y-79200000I-500001J-1D01*
G01*
X112500000Y-75200000D02*
G75*
G03*
X114000000Y-76700000I1500001J1D01*
G01*
D12*
X112200000Y-66910000D02*
X112800000Y-66910000D01*
X112800000Y-66910000D02*
X112800000Y-66310000D01*
X112800000Y-66310000D02*
X112200000Y-66910000D01*
G36*
X112800000Y-66910000D02*
G01*
X112200000Y-66910000D01*
X112800000Y-66310000D01*
X112800000Y-66910000D01*
G37*
X112800000Y-66910000D02*
X112200000Y-66910000D01*
X112800000Y-66310000D01*
X112800000Y-66910000D01*
D10*
%TO.C,SW42*%
X52000000Y-98000000D02*
X51000000Y-98000000D01*
X59500000Y-94700000D02*
X57000000Y-94700000D01*
X56000000Y-97700000D02*
X56000000Y-98700000D01*
X56500000Y-99200000D02*
X56000000Y-98700000D01*
D11*
X63000000Y-84850000D02*
X61900000Y-84850000D01*
D10*
X51000000Y-85000000D02*
X51000000Y-84000000D01*
X51000000Y-98000000D02*
X51000000Y-97000000D01*
X65000000Y-84000000D02*
X65000000Y-85000000D01*
X59500000Y-99200000D02*
X56500000Y-99200000D01*
X60000000Y-95200000D02*
X59500000Y-94700000D01*
X65000000Y-97000000D02*
X65000000Y-98000000D01*
X65000000Y-98000000D02*
X64000000Y-98000000D01*
D11*
X61900000Y-84850000D02*
X61900000Y-87550000D01*
X63000000Y-87550000D02*
X63000000Y-84850000D01*
D10*
X51000000Y-84000000D02*
X52000000Y-84000000D01*
X64000000Y-84000000D02*
X65000000Y-84000000D01*
X55500000Y-93200000D02*
X55500000Y-92500000D01*
D11*
X61900000Y-87550000D02*
X63000000Y-87550000D01*
D10*
X60000000Y-98700000D02*
X59500000Y-99200000D01*
X51000000Y-96600000D02*
X51000000Y-97200000D01*
X55500000Y-92500000D02*
X51000000Y-92500000D01*
X51000000Y-97200000D02*
X55500000Y-97200000D01*
X51000000Y-92500000D02*
X51000000Y-93000000D01*
X56000000Y-97700000D02*
G75*
G03*
X55500000Y-97200000I-500001J-1D01*
G01*
X55500000Y-93200000D02*
G75*
G03*
X57000000Y-94700000I1500001J1D01*
G01*
D12*
X55200000Y-84910000D02*
X55800000Y-84910000D01*
X55800000Y-84910000D02*
X55800000Y-84310000D01*
X55800000Y-84310000D02*
X55200000Y-84910000D01*
G36*
X55800000Y-84910000D02*
G01*
X55200000Y-84910000D01*
X55800000Y-84310000D01*
X55800000Y-84910000D01*
G37*
X55800000Y-84910000D02*
X55200000Y-84910000D01*
X55800000Y-84310000D01*
X55800000Y-84910000D01*
D10*
%TO.C,SW3*%
X141000000Y-116000000D02*
X140000000Y-116000000D01*
X141000000Y-115000000D02*
X141000000Y-116000000D01*
X135500000Y-112700000D02*
X133000000Y-112700000D01*
X127000000Y-116000000D02*
X127000000Y-115000000D01*
D11*
X139000000Y-102850000D02*
X137900000Y-102850000D01*
D10*
X131500000Y-110500000D02*
X127000000Y-110500000D01*
X127000000Y-103000000D02*
X127000000Y-102000000D01*
X136000000Y-116700000D02*
X135500000Y-117200000D01*
X135500000Y-117200000D02*
X132500000Y-117200000D01*
X131500000Y-111200000D02*
X131500000Y-110500000D01*
D11*
X137900000Y-102850000D02*
X137900000Y-105550000D01*
X139000000Y-105550000D02*
X139000000Y-102850000D01*
D10*
X128000000Y-116000000D02*
X127000000Y-116000000D01*
X127000000Y-110500000D02*
X127000000Y-111000000D01*
X127000000Y-114600000D02*
X127000000Y-115200000D01*
X141000000Y-102000000D02*
X141000000Y-103000000D01*
X127000000Y-102000000D02*
X128000000Y-102000000D01*
X140000000Y-102000000D02*
X141000000Y-102000000D01*
X127000000Y-115200000D02*
X131500000Y-115200000D01*
D11*
X137900000Y-105550000D02*
X139000000Y-105550000D01*
D10*
X136000000Y-113200000D02*
X135500000Y-112700000D01*
X132000000Y-115700000D02*
X132000000Y-116700000D01*
X132500000Y-117200000D02*
X132000000Y-116700000D01*
X131500000Y-111200000D02*
G75*
G03*
X133000000Y-112700000I1500001J1D01*
G01*
X132000000Y-115700000D02*
G75*
G03*
X131500000Y-115200000I-500001J-1D01*
G01*
D12*
X131200000Y-102910000D02*
X131800000Y-102910000D01*
X131800000Y-102910000D02*
X131800000Y-102310000D01*
X131800000Y-102310000D02*
X131200000Y-102910000D01*
G36*
X131800000Y-102910000D02*
G01*
X131200000Y-102910000D01*
X131800000Y-102310000D01*
X131800000Y-102910000D01*
G37*
X131800000Y-102910000D02*
X131200000Y-102910000D01*
X131800000Y-102310000D01*
X131800000Y-102910000D01*
D10*
%TO.C,SW24*%
X89000000Y-134000000D02*
X89000000Y-133000000D01*
D11*
X101000000Y-120850000D02*
X99900000Y-120850000D01*
D10*
X97500000Y-130700000D02*
X95000000Y-130700000D01*
X89000000Y-120000000D02*
X90000000Y-120000000D01*
X93500000Y-129200000D02*
X93500000Y-128500000D01*
X94000000Y-133700000D02*
X94000000Y-134700000D01*
X98000000Y-131200000D02*
X97500000Y-130700000D01*
X103000000Y-133000000D02*
X103000000Y-134000000D01*
X89000000Y-132600000D02*
X89000000Y-133200000D01*
D11*
X99900000Y-123550000D02*
X101000000Y-123550000D01*
D10*
X103000000Y-134000000D02*
X102000000Y-134000000D01*
D11*
X99900000Y-120850000D02*
X99900000Y-123550000D01*
D10*
X90000000Y-134000000D02*
X89000000Y-134000000D01*
X89000000Y-128500000D02*
X89000000Y-129000000D01*
X89000000Y-133200000D02*
X93500000Y-133200000D01*
X103000000Y-120000000D02*
X103000000Y-121000000D01*
X94500000Y-135200000D02*
X94000000Y-134700000D01*
X102000000Y-120000000D02*
X103000000Y-120000000D01*
X93500000Y-128500000D02*
X89000000Y-128500000D01*
X89000000Y-121000000D02*
X89000000Y-120000000D01*
X98000000Y-134700000D02*
X97500000Y-135200000D01*
X97500000Y-135200000D02*
X94500000Y-135200000D01*
D11*
X101000000Y-123550000D02*
X101000000Y-120850000D01*
D10*
X93500000Y-129200000D02*
G75*
G03*
X95000000Y-130700000I1500001J1D01*
G01*
X94000000Y-133700000D02*
G75*
G03*
X93500000Y-133200000I-500001J-1D01*
G01*
D12*
X93200000Y-120910000D02*
X93800000Y-120910000D01*
X93800000Y-120910000D02*
X93800000Y-120310000D01*
X93800000Y-120310000D02*
X93200000Y-120910000D01*
G36*
X93800000Y-120910000D02*
G01*
X93200000Y-120910000D01*
X93800000Y-120310000D01*
X93800000Y-120910000D01*
G37*
X93800000Y-120910000D02*
X93200000Y-120910000D01*
X93800000Y-120310000D01*
X93800000Y-120910000D01*
D10*
%TO.C,SW14*%
X120907107Y-145192388D02*
X120200000Y-145899495D01*
X129392388Y-135292893D02*
X130099495Y-136000000D01*
D11*
X121296016Y-130024948D02*
X119386827Y-128115759D01*
X119386827Y-128115759D02*
X118609010Y-128893577D01*
D10*
X123523402Y-142151829D02*
X124230509Y-142858936D01*
X127058936Y-140737615D02*
X124937615Y-142858936D01*
D11*
X118609010Y-128893577D02*
X120518198Y-130802765D01*
D10*
X130099495Y-136000000D02*
X129392388Y-136707107D01*
X123876955Y-137555635D02*
X122109188Y-139323402D01*
X124584062Y-137555635D02*
X123876955Y-137555635D01*
X124937615Y-142858936D02*
X124230509Y-142858936D01*
X119634315Y-145333810D02*
X122816295Y-142151829D01*
D11*
X120518198Y-130802765D02*
X121296016Y-130024948D01*
D10*
X111007612Y-136707107D02*
X110300505Y-136000000D01*
X119492893Y-126807612D02*
X120200000Y-126100505D01*
X127058936Y-140030509D02*
X127058936Y-140737615D01*
X116310913Y-142010408D02*
X116664466Y-142363961D01*
X119492893Y-138828427D02*
X116310913Y-142010408D01*
X120200000Y-126100505D02*
X120907107Y-126807612D01*
X120200000Y-145899495D02*
X119492893Y-145192388D01*
X119987868Y-139323402D02*
X119492893Y-138828427D01*
X119210051Y-144909545D02*
X119634315Y-145333810D01*
X110300505Y-136000000D02*
X111007612Y-135292893D01*
X123523402Y-142151829D02*
G75*
G03*
X122816295Y-142151829I-353554J-353555D01*
G01*
X119987868Y-139323402D02*
G75*
G03*
X122109188Y-139323402I1060660J1060662D01*
G01*
D12*
X113913821Y-133673619D02*
X114338085Y-133249355D01*
X114338085Y-133249355D02*
X113913821Y-132825091D01*
X113913821Y-132825091D02*
X113913821Y-133673619D01*
G36*
X114338085Y-133249355D02*
G01*
X113913821Y-133673619D01*
X113913821Y-132825091D01*
X114338085Y-133249355D01*
G37*
X114338085Y-133249355D02*
X113913821Y-133673619D01*
X113913821Y-132825091D01*
X114338085Y-133249355D01*
D10*
%TO.C,SW33*%
X74500000Y-110500000D02*
X70000000Y-110500000D01*
X78500000Y-112700000D02*
X76000000Y-112700000D01*
X84000000Y-102000000D02*
X84000000Y-103000000D01*
X70000000Y-103000000D02*
X70000000Y-102000000D01*
X70000000Y-110500000D02*
X70000000Y-111000000D01*
D11*
X82000000Y-102850000D02*
X80900000Y-102850000D01*
D10*
X84000000Y-116000000D02*
X83000000Y-116000000D01*
X70000000Y-114600000D02*
X70000000Y-115200000D01*
X79000000Y-116700000D02*
X78500000Y-117200000D01*
X71000000Y-116000000D02*
X70000000Y-116000000D01*
X83000000Y-102000000D02*
X84000000Y-102000000D01*
X70000000Y-102000000D02*
X71000000Y-102000000D01*
D11*
X80900000Y-105550000D02*
X82000000Y-105550000D01*
D10*
X75500000Y-117200000D02*
X75000000Y-116700000D01*
D11*
X80900000Y-102850000D02*
X80900000Y-105550000D01*
D10*
X79000000Y-113200000D02*
X78500000Y-112700000D01*
X78500000Y-117200000D02*
X75500000Y-117200000D01*
D11*
X82000000Y-105550000D02*
X82000000Y-102850000D01*
D10*
X74500000Y-111200000D02*
X74500000Y-110500000D01*
X75000000Y-115700000D02*
X75000000Y-116700000D01*
X70000000Y-115200000D02*
X74500000Y-115200000D01*
X70000000Y-116000000D02*
X70000000Y-115000000D01*
X84000000Y-115000000D02*
X84000000Y-116000000D01*
X75000000Y-115700000D02*
G75*
G03*
X74500000Y-115200000I-500001J-1D01*
G01*
X74500000Y-111200000D02*
G75*
G03*
X76000000Y-112700000I1500001J1D01*
G01*
D12*
X74200000Y-102910000D02*
X74800000Y-102910000D01*
X74800000Y-102910000D02*
X74800000Y-102310000D01*
X74800000Y-102310000D02*
X74200000Y-102910000D01*
G36*
X74800000Y-102910000D02*
G01*
X74200000Y-102910000D01*
X74800000Y-102310000D01*
X74800000Y-102910000D01*
G37*
X74800000Y-102910000D02*
X74200000Y-102910000D01*
X74800000Y-102310000D01*
X74800000Y-102910000D01*
D10*
%TO.C,SW1*%
X127000000Y-66000000D02*
X128000000Y-66000000D01*
X140000000Y-66000000D02*
X141000000Y-66000000D01*
X131500000Y-75200000D02*
X131500000Y-74500000D01*
X141000000Y-79000000D02*
X141000000Y-80000000D01*
X135500000Y-76700000D02*
X133000000Y-76700000D01*
X141000000Y-80000000D02*
X140000000Y-80000000D01*
X135500000Y-81200000D02*
X132500000Y-81200000D01*
X127000000Y-74500000D02*
X127000000Y-75000000D01*
X127000000Y-67000000D02*
X127000000Y-66000000D01*
X127000000Y-80000000D02*
X127000000Y-79000000D01*
D11*
X139000000Y-69550000D02*
X139000000Y-66850000D01*
D10*
X127000000Y-79200000D02*
X131500000Y-79200000D01*
D11*
X137900000Y-69550000D02*
X139000000Y-69550000D01*
D10*
X132500000Y-81200000D02*
X132000000Y-80700000D01*
X132000000Y-79700000D02*
X132000000Y-80700000D01*
X136000000Y-77200000D02*
X135500000Y-76700000D01*
X131500000Y-74500000D02*
X127000000Y-74500000D01*
X141000000Y-66000000D02*
X141000000Y-67000000D01*
D11*
X139000000Y-66850000D02*
X137900000Y-66850000D01*
D10*
X127000000Y-78600000D02*
X127000000Y-79200000D01*
X136000000Y-80700000D02*
X135500000Y-81200000D01*
X128000000Y-80000000D02*
X127000000Y-80000000D01*
D11*
X137900000Y-66850000D02*
X137900000Y-69550000D01*
D10*
X132000000Y-79700000D02*
G75*
G03*
X131500000Y-79200000I-500001J-1D01*
G01*
X131500000Y-75200000D02*
G75*
G03*
X133000000Y-76700000I1500001J1D01*
G01*
D12*
X131200000Y-66910000D02*
X131800000Y-66910000D01*
X131800000Y-66910000D02*
X131800000Y-66310000D01*
X131800000Y-66310000D02*
X131200000Y-66910000D01*
G36*
X131800000Y-66910000D02*
G01*
X131200000Y-66910000D01*
X131800000Y-66310000D01*
X131800000Y-66910000D01*
G37*
X131800000Y-66910000D02*
X131200000Y-66910000D01*
X131800000Y-66310000D01*
X131800000Y-66910000D01*
D10*
%TO.C,SW23*%
X89000000Y-114600000D02*
X89000000Y-115200000D01*
X98000000Y-116700000D02*
X97500000Y-117200000D01*
X98000000Y-113200000D02*
X97500000Y-112700000D01*
X94500000Y-117200000D02*
X94000000Y-116700000D01*
D11*
X99900000Y-102850000D02*
X99900000Y-105550000D01*
D10*
X93500000Y-110500000D02*
X89000000Y-110500000D01*
X103000000Y-115000000D02*
X103000000Y-116000000D01*
X97500000Y-112700000D02*
X95000000Y-112700000D01*
X90000000Y-116000000D02*
X89000000Y-116000000D01*
D11*
X101000000Y-105550000D02*
X101000000Y-102850000D01*
D10*
X89000000Y-115200000D02*
X93500000Y-115200000D01*
X89000000Y-116000000D02*
X89000000Y-115000000D01*
X94000000Y-115700000D02*
X94000000Y-116700000D01*
X102000000Y-102000000D02*
X103000000Y-102000000D01*
X103000000Y-116000000D02*
X102000000Y-116000000D01*
D11*
X101000000Y-102850000D02*
X99900000Y-102850000D01*
D10*
X89000000Y-110500000D02*
X89000000Y-111000000D01*
X89000000Y-102000000D02*
X90000000Y-102000000D01*
D11*
X99900000Y-105550000D02*
X101000000Y-105550000D01*
D10*
X97500000Y-117200000D02*
X94500000Y-117200000D01*
X93500000Y-111200000D02*
X93500000Y-110500000D01*
X103000000Y-102000000D02*
X103000000Y-103000000D01*
X89000000Y-103000000D02*
X89000000Y-102000000D01*
X94000000Y-115700000D02*
G75*
G03*
X93500000Y-115200000I-500001J-1D01*
G01*
X93500000Y-111200000D02*
G75*
G03*
X95000000Y-112700000I1500001J1D01*
G01*
D12*
X93200000Y-102910000D02*
X93800000Y-102910000D01*
X93800000Y-102910000D02*
X93800000Y-102310000D01*
X93800000Y-102310000D02*
X93200000Y-102910000D01*
G36*
X93800000Y-102910000D02*
G01*
X93200000Y-102910000D01*
X93800000Y-102310000D01*
X93800000Y-102910000D01*
G37*
X93800000Y-102910000D02*
X93200000Y-102910000D01*
X93800000Y-102310000D01*
X93800000Y-102910000D01*
D10*
%TO.C,SW30*%
X74500000Y-57200000D02*
X74500000Y-56500000D01*
X70000000Y-56500000D02*
X70000000Y-57000000D01*
X70000000Y-62000000D02*
X70000000Y-61000000D01*
X79000000Y-62700000D02*
X78500000Y-63200000D01*
X75000000Y-61700000D02*
X75000000Y-62700000D01*
X74500000Y-56500000D02*
X70000000Y-56500000D01*
X70000000Y-61200000D02*
X74500000Y-61200000D01*
X79000000Y-59200000D02*
X78500000Y-58700000D01*
X78500000Y-63200000D02*
X75500000Y-63200000D01*
X70000000Y-49000000D02*
X70000000Y-48000000D01*
X84000000Y-61000000D02*
X84000000Y-62000000D01*
D11*
X82000000Y-48850000D02*
X80900000Y-48850000D01*
X82000000Y-51550000D02*
X82000000Y-48850000D01*
D10*
X70000000Y-60600000D02*
X70000000Y-61200000D01*
X78500000Y-58700000D02*
X76000000Y-58700000D01*
X75500000Y-63200000D02*
X75000000Y-62700000D01*
X71000000Y-62000000D02*
X70000000Y-62000000D01*
X84000000Y-62000000D02*
X83000000Y-62000000D01*
D11*
X80900000Y-51550000D02*
X82000000Y-51550000D01*
X80900000Y-48850000D02*
X80900000Y-51550000D01*
D10*
X83000000Y-48000000D02*
X84000000Y-48000000D01*
X84000000Y-48000000D02*
X84000000Y-49000000D01*
X70000000Y-48000000D02*
X71000000Y-48000000D01*
X75000000Y-61700000D02*
G75*
G03*
X74500000Y-61200000I-500001J-1D01*
G01*
X74500000Y-57200000D02*
G75*
G03*
X76000000Y-58700000I1500001J1D01*
G01*
D12*
X74200000Y-48910000D02*
X74800000Y-48910000D01*
X74800000Y-48910000D02*
X74800000Y-48310000D01*
X74800000Y-48310000D02*
X74200000Y-48910000D01*
G36*
X74800000Y-48910000D02*
G01*
X74200000Y-48910000D01*
X74800000Y-48310000D01*
X74800000Y-48910000D01*
G37*
X74800000Y-48910000D02*
X74200000Y-48910000D01*
X74800000Y-48310000D01*
X74800000Y-48910000D01*
D10*
%TO.C,SW4*%
X131200000Y-143100505D02*
X131907107Y-143807612D01*
X127310913Y-159010408D02*
X127664466Y-159363961D01*
X140392388Y-152292893D02*
X141099495Y-153000000D01*
X122007612Y-153707107D02*
X121300505Y-153000000D01*
X131200000Y-162899495D02*
X130492893Y-162192388D01*
X130634315Y-162333810D02*
X133816295Y-159151829D01*
X134876955Y-154555635D02*
X133109188Y-156323402D01*
X141099495Y-153000000D02*
X140392388Y-153707107D01*
X130492893Y-143807612D02*
X131200000Y-143100505D01*
X135937615Y-159858936D02*
X135230509Y-159858936D01*
D11*
X129609010Y-145893577D02*
X131518198Y-147802765D01*
D10*
X134523402Y-159151829D02*
X135230509Y-159858936D01*
X121300505Y-153000000D02*
X122007612Y-152292893D01*
X131907107Y-162192388D02*
X131200000Y-162899495D01*
X138058936Y-157030509D02*
X138058936Y-157737615D01*
D11*
X130386827Y-145115759D02*
X129609010Y-145893577D01*
D10*
X135584062Y-154555635D02*
X134876955Y-154555635D01*
D11*
X132296016Y-147024948D02*
X130386827Y-145115759D01*
D10*
X130987868Y-156323402D02*
X130492893Y-155828427D01*
X130210051Y-161909545D02*
X130634315Y-162333810D01*
X130492893Y-155828427D02*
X127310913Y-159010408D01*
X138058936Y-157737615D02*
X135937615Y-159858936D01*
D11*
X131518198Y-147802765D02*
X132296016Y-147024948D01*
D10*
X134523402Y-159151829D02*
G75*
G03*
X133816295Y-159151829I-353554J-353555D01*
G01*
X130987868Y-156323402D02*
G75*
G03*
X133109188Y-156323402I1060660J1060662D01*
G01*
D12*
X124913821Y-150673619D02*
X125338085Y-150249355D01*
X125338085Y-150249355D02*
X124913821Y-149825091D01*
X124913821Y-149825091D02*
X124913821Y-150673619D01*
G36*
X125338085Y-150249355D02*
G01*
X124913821Y-150673619D01*
X124913821Y-149825091D01*
X125338085Y-150249355D01*
G37*
X125338085Y-150249355D02*
X124913821Y-150673619D01*
X124913821Y-149825091D01*
X125338085Y-150249355D01*
D10*
%TO.C,T1*%
X177000000Y-81900000D02*
X179000000Y-81900000D01*
X164900000Y-76050000D02*
X164900000Y-82150000D01*
X177000000Y-76050000D02*
X177000000Y-82150000D01*
X177000000Y-76300000D02*
X179000000Y-76300000D01*
X177000000Y-82150000D02*
X164900000Y-82150000D01*
X177000000Y-76050000D02*
X164900000Y-76050000D01*
X179000000Y-76300000D02*
X179000000Y-81900000D01*
%TO.C,SW43*%
X64000000Y-102000000D02*
X65000000Y-102000000D01*
X56000000Y-115700000D02*
X56000000Y-116700000D01*
X59500000Y-112700000D02*
X57000000Y-112700000D01*
X56500000Y-117200000D02*
X56000000Y-116700000D01*
X55500000Y-111200000D02*
X55500000Y-110500000D01*
D11*
X63000000Y-102850000D02*
X61900000Y-102850000D01*
D10*
X51000000Y-110500000D02*
X51000000Y-111000000D01*
X65000000Y-116000000D02*
X64000000Y-116000000D01*
X55500000Y-110500000D02*
X51000000Y-110500000D01*
D11*
X61900000Y-105550000D02*
X63000000Y-105550000D01*
D10*
X59500000Y-117200000D02*
X56500000Y-117200000D01*
X60000000Y-113200000D02*
X59500000Y-112700000D01*
X51000000Y-102000000D02*
X52000000Y-102000000D01*
X51000000Y-114600000D02*
X51000000Y-115200000D01*
X52000000Y-116000000D02*
X51000000Y-116000000D01*
D11*
X61900000Y-102850000D02*
X61900000Y-105550000D01*
D10*
X65000000Y-102000000D02*
X65000000Y-103000000D01*
X51000000Y-103000000D02*
X51000000Y-102000000D01*
X65000000Y-115000000D02*
X65000000Y-116000000D01*
D11*
X63000000Y-105550000D02*
X63000000Y-102850000D01*
D10*
X60000000Y-116700000D02*
X59500000Y-117200000D01*
X51000000Y-115200000D02*
X55500000Y-115200000D01*
X51000000Y-116000000D02*
X51000000Y-115000000D01*
X55500000Y-111200000D02*
G75*
G03*
X57000000Y-112700000I1500001J1D01*
G01*
X56000000Y-115700000D02*
G75*
G03*
X55500000Y-115200000I-500001J-1D01*
G01*
D12*
X55200000Y-102910000D02*
X55800000Y-102910000D01*
X55800000Y-102910000D02*
X55800000Y-102310000D01*
X55800000Y-102310000D02*
X55200000Y-102910000D01*
G36*
X55800000Y-102910000D02*
G01*
X55200000Y-102910000D01*
X55800000Y-102310000D01*
X55800000Y-102910000D01*
G37*
X55800000Y-102910000D02*
X55200000Y-102910000D01*
X55800000Y-102310000D01*
X55800000Y-102910000D01*
D10*
%TO.C,SW2*%
X127000000Y-85000000D02*
X127000000Y-84000000D01*
X131500000Y-93200000D02*
X131500000Y-92500000D01*
X128000000Y-98000000D02*
X127000000Y-98000000D01*
X132500000Y-99200000D02*
X132000000Y-98700000D01*
X136000000Y-95200000D02*
X135500000Y-94700000D01*
X136000000Y-98700000D02*
X135500000Y-99200000D01*
X135500000Y-94700000D02*
X133000000Y-94700000D01*
X135500000Y-99200000D02*
X132500000Y-99200000D01*
X141000000Y-84000000D02*
X141000000Y-85000000D01*
X132000000Y-97700000D02*
X132000000Y-98700000D01*
D11*
X137900000Y-84850000D02*
X137900000Y-87550000D01*
X137900000Y-87550000D02*
X139000000Y-87550000D01*
X139000000Y-87550000D02*
X139000000Y-84850000D01*
D10*
X127000000Y-97200000D02*
X131500000Y-97200000D01*
X141000000Y-98000000D02*
X140000000Y-98000000D01*
X127000000Y-96600000D02*
X127000000Y-97200000D01*
X127000000Y-98000000D02*
X127000000Y-97000000D01*
X141000000Y-97000000D02*
X141000000Y-98000000D01*
X127000000Y-92500000D02*
X127000000Y-93000000D01*
X131500000Y-92500000D02*
X127000000Y-92500000D01*
X140000000Y-84000000D02*
X141000000Y-84000000D01*
D11*
X139000000Y-84850000D02*
X137900000Y-84850000D01*
D10*
X127000000Y-84000000D02*
X128000000Y-84000000D01*
X132000000Y-97700000D02*
G75*
G03*
X131500000Y-97200000I-500001J-1D01*
G01*
X131500000Y-93200000D02*
G75*
G03*
X133000000Y-94700000I1500001J1D01*
G01*
D12*
X131200000Y-84910000D02*
X131800000Y-84910000D01*
X131800000Y-84910000D02*
X131800000Y-84310000D01*
X131800000Y-84310000D02*
X131200000Y-84910000D01*
G36*
X131800000Y-84910000D02*
G01*
X131200000Y-84910000D01*
X131800000Y-84310000D01*
X131800000Y-84910000D01*
G37*
X131800000Y-84910000D02*
X131200000Y-84910000D01*
X131800000Y-84310000D01*
X131800000Y-84910000D01*
D10*
%TO.C,SW12*%
X121000000Y-84000000D02*
X122000000Y-84000000D01*
X108000000Y-97200000D02*
X112500000Y-97200000D01*
X108000000Y-96600000D02*
X108000000Y-97200000D01*
D11*
X118900000Y-84850000D02*
X118900000Y-87550000D01*
D10*
X122000000Y-98000000D02*
X121000000Y-98000000D01*
X112500000Y-92500000D02*
X108000000Y-92500000D01*
X116500000Y-94700000D02*
X114000000Y-94700000D01*
D11*
X118900000Y-87550000D02*
X120000000Y-87550000D01*
D10*
X117000000Y-95200000D02*
X116500000Y-94700000D01*
D11*
X120000000Y-84850000D02*
X118900000Y-84850000D01*
D10*
X109000000Y-98000000D02*
X108000000Y-98000000D01*
X113500000Y-99200000D02*
X113000000Y-98700000D01*
X113000000Y-97700000D02*
X113000000Y-98700000D01*
X117000000Y-98700000D02*
X116500000Y-99200000D01*
X108000000Y-92500000D02*
X108000000Y-93000000D01*
X108000000Y-98000000D02*
X108000000Y-97000000D01*
X122000000Y-97000000D02*
X122000000Y-98000000D01*
X108000000Y-84000000D02*
X109000000Y-84000000D01*
X122000000Y-84000000D02*
X122000000Y-85000000D01*
D11*
X120000000Y-87550000D02*
X120000000Y-84850000D01*
D10*
X108000000Y-85000000D02*
X108000000Y-84000000D01*
X112500000Y-93200000D02*
X112500000Y-92500000D01*
X116500000Y-99200000D02*
X113500000Y-99200000D01*
X113000000Y-97700000D02*
G75*
G03*
X112500000Y-97200000I-500001J-1D01*
G01*
X112500000Y-93200000D02*
G75*
G03*
X114000000Y-94700000I1500001J1D01*
G01*
D12*
X112200000Y-84910000D02*
X112800000Y-84910000D01*
X112800000Y-84910000D02*
X112800000Y-84310000D01*
X112800000Y-84310000D02*
X112200000Y-84910000D01*
G36*
X112800000Y-84910000D02*
G01*
X112200000Y-84910000D01*
X112800000Y-84310000D01*
X112800000Y-84910000D01*
G37*
X112800000Y-84910000D02*
X112200000Y-84910000D01*
X112800000Y-84310000D01*
X112800000Y-84910000D01*
D13*
%TO.C,U1*%
X172540000Y-29460000D02*
X154540000Y-29460000D01*
X154540000Y-29460000D02*
X154540000Y-52960000D01*
X154540000Y-52960000D02*
X172540000Y-52960000D01*
X172540000Y-52960000D02*
X172540000Y-29460000D01*
D10*
%TO.C,SW31*%
X79000000Y-80700000D02*
X78500000Y-81200000D01*
X70000000Y-78600000D02*
X70000000Y-79200000D01*
X84000000Y-66000000D02*
X84000000Y-67000000D01*
D11*
X82000000Y-69550000D02*
X82000000Y-66850000D01*
X80900000Y-66850000D02*
X80900000Y-69550000D01*
D10*
X70000000Y-74500000D02*
X70000000Y-75000000D01*
X70000000Y-80000000D02*
X70000000Y-79000000D01*
X74500000Y-75200000D02*
X74500000Y-74500000D01*
X84000000Y-79000000D02*
X84000000Y-80000000D01*
X70000000Y-67000000D02*
X70000000Y-66000000D01*
X79000000Y-77200000D02*
X78500000Y-76700000D01*
X70000000Y-79200000D02*
X74500000Y-79200000D01*
X74500000Y-74500000D02*
X70000000Y-74500000D01*
X78500000Y-81200000D02*
X75500000Y-81200000D01*
X75000000Y-79700000D02*
X75000000Y-80700000D01*
X84000000Y-80000000D02*
X83000000Y-80000000D01*
D11*
X82000000Y-66850000D02*
X80900000Y-66850000D01*
D10*
X70000000Y-66000000D02*
X71000000Y-66000000D01*
X78500000Y-76700000D02*
X76000000Y-76700000D01*
D11*
X80900000Y-69550000D02*
X82000000Y-69550000D01*
D10*
X71000000Y-80000000D02*
X70000000Y-80000000D01*
X75500000Y-81200000D02*
X75000000Y-80700000D01*
X83000000Y-66000000D02*
X84000000Y-66000000D01*
X75000000Y-79700000D02*
G75*
G03*
X74500000Y-79200000I-500001J-1D01*
G01*
X74500000Y-75200000D02*
G75*
G03*
X76000000Y-76700000I1500001J1D01*
G01*
D12*
X74200000Y-66910000D02*
X74800000Y-66910000D01*
X74800000Y-66910000D02*
X74800000Y-66310000D01*
X74800000Y-66310000D02*
X74200000Y-66910000D01*
G36*
X74800000Y-66910000D02*
G01*
X74200000Y-66910000D01*
X74800000Y-66310000D01*
X74800000Y-66910000D01*
G37*
X74800000Y-66910000D02*
X74200000Y-66910000D01*
X74800000Y-66310000D01*
X74800000Y-66910000D01*
D10*
%TO.C,SW51*%
X40500000Y-81200000D02*
X37500000Y-81200000D01*
X41000000Y-77200000D02*
X40500000Y-76700000D01*
X40500000Y-76700000D02*
X38000000Y-76700000D01*
D11*
X42900000Y-66850000D02*
X42900000Y-69550000D01*
D10*
X41000000Y-80700000D02*
X40500000Y-81200000D01*
X33000000Y-80000000D02*
X32000000Y-80000000D01*
X36500000Y-75200000D02*
X36500000Y-74500000D01*
X45000000Y-66000000D02*
X46000000Y-66000000D01*
D11*
X44000000Y-69550000D02*
X44000000Y-66850000D01*
D10*
X46000000Y-79000000D02*
X46000000Y-80000000D01*
X46000000Y-80000000D02*
X45000000Y-80000000D01*
X32000000Y-67000000D02*
X32000000Y-66000000D01*
X32000000Y-78600000D02*
X32000000Y-79200000D01*
D11*
X42900000Y-69550000D02*
X44000000Y-69550000D01*
D10*
X37500000Y-81200000D02*
X37000000Y-80700000D01*
D11*
X44000000Y-66850000D02*
X42900000Y-66850000D01*
D10*
X46000000Y-66000000D02*
X46000000Y-67000000D01*
X32000000Y-79200000D02*
X36500000Y-79200000D01*
X32000000Y-80000000D02*
X32000000Y-79000000D01*
X32000000Y-66000000D02*
X33000000Y-66000000D01*
X32000000Y-74500000D02*
X32000000Y-75000000D01*
X37000000Y-79700000D02*
X37000000Y-80700000D01*
X36500000Y-74500000D02*
X32000000Y-74500000D01*
X36500000Y-75200000D02*
G75*
G03*
X38000000Y-76700000I1500001J1D01*
G01*
X37000000Y-79700000D02*
G75*
G03*
X36500000Y-79200000I-500001J-1D01*
G01*
D12*
X36200000Y-66910000D02*
X36800000Y-66910000D01*
X36800000Y-66910000D02*
X36800000Y-66310000D01*
X36800000Y-66310000D02*
X36200000Y-66910000D01*
G36*
X36800000Y-66910000D02*
G01*
X36200000Y-66910000D01*
X36800000Y-66310000D01*
X36800000Y-66910000D01*
G37*
X36800000Y-66910000D02*
X36200000Y-66910000D01*
X36800000Y-66310000D01*
X36800000Y-66910000D01*
D10*
%TO.C,SW40*%
X65000000Y-61000000D02*
X65000000Y-62000000D01*
X56000000Y-61700000D02*
X56000000Y-62700000D01*
X60000000Y-62700000D02*
X59500000Y-63200000D01*
X55500000Y-57200000D02*
X55500000Y-56500000D01*
D11*
X61900000Y-48850000D02*
X61900000Y-51550000D01*
D10*
X65000000Y-62000000D02*
X64000000Y-62000000D01*
X51000000Y-61200000D02*
X55500000Y-61200000D01*
D11*
X63000000Y-48850000D02*
X61900000Y-48850000D01*
D10*
X60000000Y-59200000D02*
X59500000Y-58700000D01*
X55500000Y-56500000D02*
X51000000Y-56500000D01*
X59500000Y-63200000D02*
X56500000Y-63200000D01*
X51000000Y-48000000D02*
X52000000Y-48000000D01*
X51000000Y-56500000D02*
X51000000Y-57000000D01*
X56500000Y-63200000D02*
X56000000Y-62700000D01*
D11*
X63000000Y-51550000D02*
X63000000Y-48850000D01*
D10*
X59500000Y-58700000D02*
X57000000Y-58700000D01*
D11*
X61900000Y-51550000D02*
X63000000Y-51550000D01*
D10*
X51000000Y-62000000D02*
X51000000Y-61000000D01*
X52000000Y-62000000D02*
X51000000Y-62000000D01*
X65000000Y-48000000D02*
X65000000Y-49000000D01*
X51000000Y-49000000D02*
X51000000Y-48000000D01*
X51000000Y-60600000D02*
X51000000Y-61200000D01*
X64000000Y-48000000D02*
X65000000Y-48000000D01*
X56000000Y-61700000D02*
G75*
G03*
X55500000Y-61200000I-500001J-1D01*
G01*
X55500000Y-57200000D02*
G75*
G03*
X57000000Y-58700000I1500001J1D01*
G01*
D12*
X55200000Y-48910000D02*
X55800000Y-48910000D01*
X55800000Y-48910000D02*
X55800000Y-48310000D01*
X55800000Y-48310000D02*
X55200000Y-48910000D01*
G36*
X55800000Y-48910000D02*
G01*
X55200000Y-48910000D01*
X55800000Y-48310000D01*
X55800000Y-48910000D01*
G37*
X55800000Y-48910000D02*
X55200000Y-48910000D01*
X55800000Y-48310000D01*
X55800000Y-48910000D01*
D11*
%TO.C,SW10*%
X118900000Y-48850000D02*
X118900000Y-51550000D01*
D10*
X112500000Y-56500000D02*
X108000000Y-56500000D01*
X117000000Y-59200000D02*
X116500000Y-58700000D01*
X112500000Y-57200000D02*
X112500000Y-56500000D01*
D11*
X118900000Y-51550000D02*
X120000000Y-51550000D01*
D10*
X116500000Y-58700000D02*
X114000000Y-58700000D01*
D11*
X120000000Y-48850000D02*
X118900000Y-48850000D01*
D10*
X113000000Y-61700000D02*
X113000000Y-62700000D01*
X117000000Y-62700000D02*
X116500000Y-63200000D01*
X121000000Y-48000000D02*
X122000000Y-48000000D01*
X108000000Y-49000000D02*
X108000000Y-48000000D01*
X108000000Y-61200000D02*
X112500000Y-61200000D01*
X109000000Y-62000000D02*
X108000000Y-62000000D01*
X122000000Y-62000000D02*
X121000000Y-62000000D01*
X108000000Y-60600000D02*
X108000000Y-61200000D01*
X108000000Y-56500000D02*
X108000000Y-57000000D01*
X108000000Y-62000000D02*
X108000000Y-61000000D01*
D11*
X120000000Y-51550000D02*
X120000000Y-48850000D01*
D10*
X122000000Y-61000000D02*
X122000000Y-62000000D01*
X116500000Y-63200000D02*
X113500000Y-63200000D01*
X113500000Y-63200000D02*
X113000000Y-62700000D01*
X108000000Y-48000000D02*
X109000000Y-48000000D01*
X122000000Y-48000000D02*
X122000000Y-49000000D01*
X113000000Y-61700000D02*
G75*
G03*
X112500000Y-61200000I-500001J-1D01*
G01*
X112500000Y-57200000D02*
G75*
G03*
X114000000Y-58700000I1500001J1D01*
G01*
D12*
X112200000Y-48910000D02*
X112800000Y-48910000D01*
X112800000Y-48910000D02*
X112800000Y-48310000D01*
X112800000Y-48310000D02*
X112200000Y-48910000D01*
G36*
X112800000Y-48910000D02*
G01*
X112200000Y-48910000D01*
X112800000Y-48310000D01*
X112800000Y-48910000D01*
G37*
X112800000Y-48910000D02*
X112200000Y-48910000D01*
X112800000Y-48310000D01*
X112800000Y-48910000D01*
D10*
%TO.C,SW53*%
X46000000Y-102000000D02*
X46000000Y-103000000D01*
X32000000Y-116000000D02*
X32000000Y-115000000D01*
X32000000Y-102000000D02*
X33000000Y-102000000D01*
X32000000Y-114600000D02*
X32000000Y-115200000D01*
X36500000Y-110500000D02*
X32000000Y-110500000D01*
X40500000Y-112700000D02*
X38000000Y-112700000D01*
X37500000Y-117200000D02*
X37000000Y-116700000D01*
X32000000Y-115200000D02*
X36500000Y-115200000D01*
X37000000Y-115700000D02*
X37000000Y-116700000D01*
X32000000Y-103000000D02*
X32000000Y-102000000D01*
X41000000Y-116700000D02*
X40500000Y-117200000D01*
X40500000Y-117200000D02*
X37500000Y-117200000D01*
X46000000Y-115000000D02*
X46000000Y-116000000D01*
D11*
X44000000Y-102850000D02*
X42900000Y-102850000D01*
D10*
X33000000Y-116000000D02*
X32000000Y-116000000D01*
X36500000Y-111200000D02*
X36500000Y-110500000D01*
D11*
X44000000Y-105550000D02*
X44000000Y-102850000D01*
D10*
X45000000Y-102000000D02*
X46000000Y-102000000D01*
X46000000Y-116000000D02*
X45000000Y-116000000D01*
X32000000Y-110500000D02*
X32000000Y-111000000D01*
X41000000Y-113200000D02*
X40500000Y-112700000D01*
D11*
X42900000Y-102850000D02*
X42900000Y-105550000D01*
X42900000Y-105550000D02*
X44000000Y-105550000D01*
D10*
X37000000Y-115700000D02*
G75*
G03*
X36500000Y-115200000I-500001J-1D01*
G01*
X36500000Y-111200000D02*
G75*
G03*
X38000000Y-112700000I1500001J1D01*
G01*
D12*
X36200000Y-102910000D02*
X36800000Y-102910000D01*
X36800000Y-102910000D02*
X36800000Y-102310000D01*
X36800000Y-102310000D02*
X36200000Y-102910000D01*
G36*
X36800000Y-102910000D02*
G01*
X36200000Y-102910000D01*
X36800000Y-102310000D01*
X36800000Y-102910000D01*
G37*
X36800000Y-102910000D02*
X36200000Y-102910000D01*
X36800000Y-102310000D01*
X36800000Y-102910000D01*
%TD*%
M02*
