%TF.GenerationSoftware,KiCad,Pcbnew,(6.0.2)*%
%TF.CreationDate,2022-04-13T18:01:38+02:00*%
%TF.ProjectId,SPKB,53504b42-2e6b-4696-9361-645f70636258,rev?*%
%TF.SameCoordinates,Original*%
%TF.FileFunction,Paste,Top*%
%TF.FilePolarity,Positive*%
%FSLAX46Y46*%
G04 Gerber Fmt 4.6, Leading zero omitted, Abs format (unit mm)*
G04 Created by KiCad (PCBNEW (6.0.2)) date 2022-04-13 18:01:38*
%MOMM*%
%LPD*%
G01*
G04 APERTURE LIST*
G04 Aperture macros list*
%AMRoundRect*
0 Rectangle with rounded corners*
0 $1 Rounding radius*
0 $2 $3 $4 $5 $6 $7 $8 $9 X,Y pos of 4 corners*
0 Add a 4 corners polygon primitive as box body*
4,1,4,$2,$3,$4,$5,$6,$7,$8,$9,$2,$3,0*
0 Add four circle primitives for the rounded corners*
1,1,$1+$1,$2,$3*
1,1,$1+$1,$4,$5*
1,1,$1+$1,$6,$7*
1,1,$1+$1,$8,$9*
0 Add four rect primitives between the rounded corners*
20,1,$1+$1,$2,$3,$4,$5,0*
20,1,$1+$1,$4,$5,$6,$7,0*
20,1,$1+$1,$6,$7,$8,$9,0*
20,1,$1+$1,$8,$9,$2,$3,0*%
%AMRotRect*
0 Rectangle, with rotation*
0 The origin of the aperture is its center*
0 $1 length*
0 $2 width*
0 $3 Rotation angle, in degrees counterclockwise*
0 Add horizontal line*
21,1,$1,$2,0,0,$3*%
G04 Aperture macros list end*
%ADD10R,2.600000X2.600000*%
%ADD11RoundRect,0.205000X-0.645000X-0.205000X0.645000X-0.205000X0.645000X0.205000X-0.645000X0.205000X0*%
%ADD12R,1.700000X0.820000*%
%ADD13R,0.750000X0.800000*%
%ADD14RotRect,2.600000X2.600000X45.000000*%
%ADD15RoundRect,0.205000X-0.311127X-0.601041X0.601041X0.311127X0.311127X0.601041X-0.601041X-0.311127X0*%
%ADD16RotRect,0.800000X0.750000X315.000000*%
%ADD17RotRect,1.700000X0.820000X45.000000*%
G04 APERTURE END LIST*
D10*
%TO.C,SW20*%
X92725000Y-60950000D03*
X104275000Y-58750000D03*
D11*
X98550000Y-49560000D03*
D12*
X98550000Y-51060000D03*
D13*
X91550000Y-50950000D03*
D12*
X93450000Y-51060000D03*
X93450000Y-49560000D03*
D13*
X91550000Y-49450000D03*
%TD*%
D10*
%TO.C,SW22*%
X92725000Y-96950000D03*
X104275000Y-94750000D03*
D11*
X98550000Y-85560000D03*
D12*
X98550000Y-87060000D03*
D13*
X91550000Y-86950000D03*
D12*
X93450000Y-87060000D03*
X93450000Y-85560000D03*
D13*
X91550000Y-85450000D03*
%TD*%
D10*
%TO.C,SW0*%
X130725000Y-60950000D03*
X142275000Y-58750000D03*
D11*
X136550000Y-49560000D03*
D12*
X136550000Y-51060000D03*
D13*
X129550000Y-50950000D03*
D12*
X131450000Y-51060000D03*
X131450000Y-49560000D03*
D13*
X129550000Y-49450000D03*
%TD*%
D10*
%TO.C,SW21*%
X92725000Y-78950000D03*
X104275000Y-76750000D03*
D11*
X98550000Y-67560000D03*
D13*
X91550000Y-68950000D03*
D12*
X98550000Y-69060000D03*
X93450000Y-69060000D03*
X93450000Y-67560000D03*
D13*
X91550000Y-67450000D03*
%TD*%
D10*
%TO.C,SW52*%
X35725000Y-96950000D03*
X47275000Y-94750000D03*
D11*
X41550000Y-85560000D03*
D13*
X34550000Y-86950000D03*
D12*
X41550000Y-87060000D03*
X36450000Y-87060000D03*
D13*
X34550000Y-85450000D03*
D12*
X36450000Y-85560000D03*
%TD*%
D10*
%TO.C,SW54*%
X35725000Y-132950000D03*
X47275000Y-130750000D03*
D11*
X41550000Y-121560000D03*
D12*
X41550000Y-123060000D03*
D13*
X34550000Y-122950000D03*
D12*
X36450000Y-123060000D03*
X36450000Y-121560000D03*
D13*
X34550000Y-121450000D03*
%TD*%
D10*
%TO.C,SW34*%
X73725000Y-132950000D03*
X85275000Y-130750000D03*
D11*
X79550000Y-121560000D03*
D13*
X72550000Y-122950000D03*
D12*
X79550000Y-123060000D03*
X74450000Y-123060000D03*
X74450000Y-121560000D03*
D13*
X72550000Y-121450000D03*
%TD*%
D10*
%TO.C,SW50*%
X35725000Y-60950000D03*
X47275000Y-58750000D03*
D11*
X41550000Y-49560000D03*
D13*
X34550000Y-50950000D03*
D12*
X41550000Y-51060000D03*
X36450000Y-51060000D03*
D13*
X34550000Y-49450000D03*
D12*
X36450000Y-49560000D03*
%TD*%
D10*
%TO.C,SW13*%
X111725000Y-114950000D03*
X123275000Y-112750000D03*
D11*
X117550000Y-103560000D03*
D12*
X117550000Y-105060000D03*
D13*
X110550000Y-104950000D03*
D12*
X112450000Y-105060000D03*
X112450000Y-103560000D03*
D13*
X110550000Y-103450000D03*
%TD*%
D10*
%TO.C,SW32*%
X73725000Y-96950000D03*
X85275000Y-94750000D03*
D11*
X79550000Y-85560000D03*
D13*
X72550000Y-86950000D03*
D12*
X79550000Y-87060000D03*
X74450000Y-87060000D03*
X74450000Y-85560000D03*
D13*
X72550000Y-85450000D03*
%TD*%
D10*
%TO.C,SW41*%
X54725000Y-78950000D03*
X66275000Y-76750000D03*
D11*
X60550000Y-67560000D03*
D12*
X60550000Y-69060000D03*
D13*
X53550000Y-68950000D03*
D12*
X55450000Y-69060000D03*
D13*
X53550000Y-67450000D03*
D12*
X55450000Y-67560000D03*
%TD*%
D10*
%TO.C,SW44*%
X54725000Y-132950000D03*
X66275000Y-130750000D03*
D11*
X60550000Y-121560000D03*
D12*
X60550000Y-123060000D03*
D13*
X53550000Y-122950000D03*
D12*
X55450000Y-123060000D03*
D13*
X53550000Y-121450000D03*
D12*
X55450000Y-121560000D03*
%TD*%
D10*
%TO.C,SW11*%
X111725000Y-78950000D03*
X123275000Y-76750000D03*
D11*
X117550000Y-67560000D03*
D12*
X117550000Y-69060000D03*
D13*
X110550000Y-68950000D03*
D12*
X112450000Y-69060000D03*
D13*
X110550000Y-67450000D03*
D12*
X112450000Y-67560000D03*
%TD*%
D10*
%TO.C,SW42*%
X54725000Y-96950000D03*
X66275000Y-94750000D03*
D11*
X60550000Y-85560000D03*
D12*
X60550000Y-87060000D03*
D13*
X53550000Y-86950000D03*
D12*
X55450000Y-87060000D03*
D13*
X53550000Y-85450000D03*
D12*
X55450000Y-85560000D03*
%TD*%
D10*
%TO.C,SW3*%
X130725000Y-114950000D03*
X142275000Y-112750000D03*
D11*
X136550000Y-103560000D03*
D12*
X136550000Y-105060000D03*
D13*
X129550000Y-104950000D03*
D12*
X131450000Y-105060000D03*
X131450000Y-103560000D03*
D13*
X129550000Y-103450000D03*
%TD*%
D10*
%TO.C,SW24*%
X92725000Y-132950000D03*
X104275000Y-130750000D03*
D11*
X98550000Y-121560000D03*
D13*
X91550000Y-122950000D03*
D12*
X98550000Y-123060000D03*
X93450000Y-123060000D03*
X93450000Y-121560000D03*
D13*
X91550000Y-121450000D03*
%TD*%
D14*
%TO.C,SW14*%
X122091511Y-142523060D03*
X128702959Y-132800342D03*
D15*
X118156461Y-130350217D03*
D16*
X114189592Y-136282843D03*
D17*
X119217122Y-131410877D03*
X115610877Y-135017122D03*
D16*
X113128932Y-135222183D03*
D17*
X114550217Y-133956461D03*
%TD*%
D10*
%TO.C,SW33*%
X73725000Y-114950000D03*
X85275000Y-112750000D03*
D11*
X79550000Y-103560000D03*
D13*
X72550000Y-104950000D03*
D12*
X79550000Y-105060000D03*
X74450000Y-105060000D03*
X74450000Y-103560000D03*
D13*
X72550000Y-103450000D03*
%TD*%
D10*
%TO.C,SW1*%
X130725000Y-78950000D03*
X142275000Y-76750000D03*
D11*
X136550000Y-67560000D03*
D13*
X129550000Y-68950000D03*
D12*
X136550000Y-69060000D03*
X131450000Y-69060000D03*
X131450000Y-67560000D03*
D13*
X129550000Y-67450000D03*
%TD*%
D10*
%TO.C,SW23*%
X92725000Y-114950000D03*
X104275000Y-112750000D03*
D11*
X98550000Y-103560000D03*
D13*
X91550000Y-104950000D03*
D12*
X98550000Y-105060000D03*
X93450000Y-105060000D03*
D13*
X91550000Y-103450000D03*
D12*
X93450000Y-103560000D03*
%TD*%
D10*
%TO.C,SW30*%
X73725000Y-60950000D03*
X85275000Y-58750000D03*
D11*
X79550000Y-49560000D03*
D12*
X79550000Y-51060000D03*
D13*
X72550000Y-50950000D03*
D12*
X74450000Y-51060000D03*
X74450000Y-49560000D03*
D13*
X72550000Y-49450000D03*
%TD*%
D14*
%TO.C,SW4*%
X133091511Y-159523060D03*
X139702959Y-149800342D03*
D15*
X129156461Y-147350217D03*
D16*
X125189592Y-153282843D03*
D17*
X130217122Y-148410877D03*
X126610877Y-152017122D03*
X125550217Y-150956461D03*
D16*
X124128932Y-152222183D03*
%TD*%
D10*
%TO.C,SW43*%
X54725000Y-114950000D03*
X66275000Y-112750000D03*
D11*
X60550000Y-103560000D03*
D12*
X60550000Y-105060000D03*
D13*
X53550000Y-104950000D03*
D12*
X55450000Y-105060000D03*
X55450000Y-103560000D03*
D13*
X53550000Y-103450000D03*
%TD*%
D10*
%TO.C,SW2*%
X130725000Y-96950000D03*
X142275000Y-94750000D03*
D11*
X136550000Y-85560000D03*
D13*
X129550000Y-86950000D03*
D12*
X136550000Y-87060000D03*
X131450000Y-87060000D03*
D13*
X129550000Y-85450000D03*
D12*
X131450000Y-85560000D03*
%TD*%
D10*
%TO.C,SW12*%
X111725000Y-96950000D03*
X123275000Y-94750000D03*
D11*
X117550000Y-85560000D03*
D13*
X110550000Y-86950000D03*
D12*
X117550000Y-87060000D03*
X112450000Y-87060000D03*
D13*
X110550000Y-85450000D03*
D12*
X112450000Y-85560000D03*
%TD*%
D10*
%TO.C,SW31*%
X73725000Y-78950000D03*
X85275000Y-76750000D03*
D11*
X79550000Y-67560000D03*
D13*
X72550000Y-68950000D03*
D12*
X79550000Y-69060000D03*
X74450000Y-69060000D03*
X74450000Y-67560000D03*
D13*
X72550000Y-67450000D03*
%TD*%
D10*
%TO.C,SW51*%
X35725000Y-78950000D03*
X47275000Y-76750000D03*
D11*
X41550000Y-67560000D03*
D13*
X34550000Y-68950000D03*
D12*
X41550000Y-69060000D03*
X36450000Y-69060000D03*
D13*
X34550000Y-67450000D03*
D12*
X36450000Y-67560000D03*
%TD*%
D10*
%TO.C,SW40*%
X54725000Y-60950000D03*
X66275000Y-58750000D03*
D11*
X60550000Y-49560000D03*
D13*
X53550000Y-50950000D03*
D12*
X60550000Y-51060000D03*
X55450000Y-51060000D03*
X55450000Y-49560000D03*
D13*
X53550000Y-49450000D03*
%TD*%
D10*
%TO.C,SW10*%
X111725000Y-60950000D03*
X123275000Y-58750000D03*
D11*
X117550000Y-49560000D03*
D12*
X117550000Y-51060000D03*
D13*
X110550000Y-50950000D03*
D12*
X112450000Y-51060000D03*
D13*
X110550000Y-49450000D03*
D12*
X112450000Y-49560000D03*
%TD*%
D10*
%TO.C,SW53*%
X35725000Y-114950000D03*
X47275000Y-112750000D03*
D11*
X41550000Y-103560000D03*
D12*
X41550000Y-105060000D03*
D13*
X34550000Y-104950000D03*
D12*
X36450000Y-105060000D03*
X36450000Y-103560000D03*
D13*
X34550000Y-103450000D03*
%TD*%
M02*
