%TF.GenerationSoftware,KiCad,Pcbnew,(6.0.2)*%
%TF.CreationDate,2022-04-13T18:01:38+02:00*%
%TF.ProjectId,SPKB,53504b42-2e6b-4696-9361-645f70636258,rev?*%
%TF.SameCoordinates,Original*%
%TF.FileFunction,Paste,Bot*%
%TF.FilePolarity,Positive*%
%FSLAX46Y46*%
G04 Gerber Fmt 4.6, Leading zero omitted, Abs format (unit mm)*
G04 Created by KiCad (PCBNEW (6.0.2)) date 2022-04-13 18:01:38*
%MOMM*%
%LPD*%
G01*
G04 APERTURE LIST*
G04 Aperture macros list*
%AMRoundRect*
0 Rectangle with rounded corners*
0 $1 Rounding radius*
0 $2 $3 $4 $5 $6 $7 $8 $9 X,Y pos of 4 corners*
0 Add a 4 corners polygon primitive as box body*
4,1,4,$2,$3,$4,$5,$6,$7,$8,$9,$2,$3,0*
0 Add four circle primitives for the rounded corners*
1,1,$1+$1,$2,$3*
1,1,$1+$1,$4,$5*
1,1,$1+$1,$6,$7*
1,1,$1+$1,$8,$9*
0 Add four rect primitives between the rounded corners*
20,1,$1+$1,$2,$3,$4,$5,0*
20,1,$1+$1,$4,$5,$6,$7,0*
20,1,$1+$1,$6,$7,$8,$9,0*
20,1,$1+$1,$8,$9,$2,$3,0*%
%AMRotRect*
0 Rectangle, with rotation*
0 The origin of the aperture is its center*
0 $1 length*
0 $2 width*
0 $3 Rotation angle, in degrees counterclockwise*
0 Add horizontal line*
21,1,$1,$2,0,0,$3*%
G04 Aperture macros list end*
%ADD10R,2.600000X2.600000*%
%ADD11RoundRect,0.205000X-0.645000X-0.205000X0.645000X-0.205000X0.645000X0.205000X-0.645000X0.205000X0*%
%ADD12R,0.750000X0.800000*%
%ADD13R,1.700000X0.820000*%
%ADD14RotRect,2.600000X2.600000X45.000000*%
%ADD15RoundRect,0.205000X-0.311127X-0.601041X0.601041X0.311127X0.311127X0.601041X-0.601041X-0.311127X0*%
%ADD16RotRect,0.800000X0.750000X135.000000*%
%ADD17RotRect,1.700000X0.820000X45.000000*%
G04 APERTURE END LIST*
D10*
%TO.C,SW20*%
X99275000Y-60950000D03*
X87725000Y-58750000D03*
D11*
X93450000Y-49560000D03*
D12*
X100450000Y-50950000D03*
D13*
X93450000Y-51060000D03*
X98550000Y-51060000D03*
X98550000Y-49560000D03*
D12*
X100450000Y-49450000D03*
%TD*%
D10*
%TO.C,SW22*%
X99275000Y-96950000D03*
X87725000Y-94750000D03*
D11*
X93450000Y-85560000D03*
D13*
X93450000Y-87060000D03*
D12*
X100450000Y-86950000D03*
D13*
X98550000Y-87060000D03*
X98550000Y-85560000D03*
D12*
X100450000Y-85450000D03*
%TD*%
D10*
%TO.C,SW0*%
X137275000Y-60950000D03*
X125725000Y-58750000D03*
D11*
X131450000Y-49560000D03*
D12*
X138450000Y-50950000D03*
D13*
X131450000Y-51060000D03*
X136550000Y-51060000D03*
X136550000Y-49560000D03*
D12*
X138450000Y-49450000D03*
%TD*%
D10*
%TO.C,SW21*%
X99275000Y-78950000D03*
X87725000Y-76750000D03*
D11*
X93450000Y-67560000D03*
D12*
X100450000Y-68950000D03*
D13*
X93450000Y-69060000D03*
X98550000Y-69060000D03*
X98550000Y-67560000D03*
D12*
X100450000Y-67450000D03*
%TD*%
D10*
%TO.C,SW52*%
X42275000Y-96950000D03*
X30725000Y-94750000D03*
D11*
X36450000Y-85560000D03*
D12*
X43450000Y-86950000D03*
D13*
X36450000Y-87060000D03*
X41550000Y-87060000D03*
X41550000Y-85560000D03*
D12*
X43450000Y-85450000D03*
%TD*%
D10*
%TO.C,SW54*%
X42275000Y-132950000D03*
X30725000Y-130750000D03*
D11*
X36450000Y-121560000D03*
D12*
X43450000Y-122950000D03*
D13*
X36450000Y-123060000D03*
X41550000Y-123060000D03*
X41550000Y-121560000D03*
D12*
X43450000Y-121450000D03*
%TD*%
D10*
%TO.C,SW34*%
X80275000Y-132950000D03*
X68725000Y-130750000D03*
D11*
X74450000Y-121560000D03*
D12*
X81450000Y-122950000D03*
D13*
X74450000Y-123060000D03*
X79550000Y-123060000D03*
X79550000Y-121560000D03*
D12*
X81450000Y-121450000D03*
%TD*%
D10*
%TO.C,SW50*%
X42275000Y-60950000D03*
X30725000Y-58750000D03*
D11*
X36450000Y-49560000D03*
D12*
X43450000Y-50950000D03*
D13*
X36450000Y-51060000D03*
X41550000Y-51060000D03*
X41550000Y-49560000D03*
D12*
X43450000Y-49450000D03*
%TD*%
D10*
%TO.C,SW13*%
X118275000Y-114950000D03*
X106725000Y-112750000D03*
D11*
X112450000Y-103560000D03*
D12*
X119450000Y-104950000D03*
D13*
X112450000Y-105060000D03*
X117550000Y-105060000D03*
D12*
X119450000Y-103450000D03*
D13*
X117550000Y-103560000D03*
%TD*%
D10*
%TO.C,SW32*%
X80275000Y-96950000D03*
X68725000Y-94750000D03*
D11*
X74450000Y-85560000D03*
D13*
X74450000Y-87060000D03*
D12*
X81450000Y-86950000D03*
D13*
X79550000Y-87060000D03*
D12*
X81450000Y-85450000D03*
D13*
X79550000Y-85560000D03*
%TD*%
D10*
%TO.C,SW41*%
X61275000Y-78950000D03*
X49725000Y-76750000D03*
D11*
X55450000Y-67560000D03*
D12*
X62450000Y-68950000D03*
D13*
X55450000Y-69060000D03*
X60550000Y-69060000D03*
D12*
X62450000Y-67450000D03*
D13*
X60550000Y-67560000D03*
%TD*%
D10*
%TO.C,SW44*%
X61275000Y-132950000D03*
X49725000Y-130750000D03*
D11*
X55450000Y-121560000D03*
D13*
X55450000Y-123060000D03*
D12*
X62450000Y-122950000D03*
D13*
X60550000Y-123060000D03*
X60550000Y-121560000D03*
D12*
X62450000Y-121450000D03*
%TD*%
D10*
%TO.C,SW11*%
X118275000Y-78950000D03*
X106725000Y-76750000D03*
D11*
X112450000Y-67560000D03*
D13*
X112450000Y-69060000D03*
D12*
X119450000Y-68950000D03*
D13*
X117550000Y-69060000D03*
D12*
X119450000Y-67450000D03*
D13*
X117550000Y-67560000D03*
%TD*%
D10*
%TO.C,SW42*%
X61275000Y-96950000D03*
X49725000Y-94750000D03*
D11*
X55450000Y-85560000D03*
D12*
X62450000Y-86950000D03*
D13*
X55450000Y-87060000D03*
X60550000Y-87060000D03*
D12*
X62450000Y-85450000D03*
D13*
X60550000Y-85560000D03*
%TD*%
D10*
%TO.C,SW3*%
X137275000Y-114950000D03*
X125725000Y-112750000D03*
D11*
X131450000Y-103560000D03*
D13*
X131450000Y-105060000D03*
D12*
X138450000Y-104950000D03*
D13*
X136550000Y-105060000D03*
X136550000Y-103560000D03*
D12*
X138450000Y-103450000D03*
%TD*%
D10*
%TO.C,SW24*%
X99275000Y-132950000D03*
X87725000Y-130750000D03*
D11*
X93450000Y-121560000D03*
D13*
X93450000Y-123060000D03*
D12*
X100450000Y-122950000D03*
D13*
X98550000Y-123060000D03*
D12*
X100450000Y-121450000D03*
D13*
X98550000Y-121560000D03*
%TD*%
D14*
%TO.C,SW14*%
X126723060Y-137891511D03*
X117000342Y-144502959D03*
D15*
X114550217Y-133956461D03*
D16*
X120482843Y-129989592D03*
D17*
X115610877Y-135017122D03*
X119217122Y-131410877D03*
D16*
X119422183Y-128928932D03*
D17*
X118156461Y-130350217D03*
%TD*%
D10*
%TO.C,SW33*%
X80275000Y-114950000D03*
X68725000Y-112750000D03*
D11*
X74450000Y-103560000D03*
D13*
X74450000Y-105060000D03*
D12*
X81450000Y-104950000D03*
D13*
X79550000Y-105060000D03*
D12*
X81450000Y-103450000D03*
D13*
X79550000Y-103560000D03*
%TD*%
D10*
%TO.C,SW1*%
X137275000Y-78950000D03*
X125725000Y-76750000D03*
D11*
X131450000Y-67560000D03*
D12*
X138450000Y-68950000D03*
D13*
X131450000Y-69060000D03*
X136550000Y-69060000D03*
D12*
X138450000Y-67450000D03*
D13*
X136550000Y-67560000D03*
%TD*%
D10*
%TO.C,SW23*%
X99275000Y-114950000D03*
X87725000Y-112750000D03*
D11*
X93450000Y-103560000D03*
D12*
X100450000Y-104950000D03*
D13*
X93450000Y-105060000D03*
X98550000Y-105060000D03*
X98550000Y-103560000D03*
D12*
X100450000Y-103450000D03*
%TD*%
D10*
%TO.C,SW30*%
X80275000Y-60950000D03*
X68725000Y-58750000D03*
D11*
X74450000Y-49560000D03*
D13*
X74450000Y-51060000D03*
D12*
X81450000Y-50950000D03*
D13*
X79550000Y-51060000D03*
D12*
X81450000Y-49450000D03*
D13*
X79550000Y-49560000D03*
%TD*%
D14*
%TO.C,SW4*%
X137723060Y-154891511D03*
X128000342Y-161502959D03*
D15*
X125550217Y-150956461D03*
D17*
X126610877Y-152017122D03*
D16*
X131482843Y-146989592D03*
D17*
X130217122Y-148410877D03*
X129156461Y-147350217D03*
D16*
X130422183Y-145928932D03*
%TD*%
D10*
%TO.C,SW43*%
X61275000Y-114950000D03*
X49725000Y-112750000D03*
D11*
X55450000Y-103560000D03*
D12*
X62450000Y-104950000D03*
D13*
X55450000Y-105060000D03*
X60550000Y-105060000D03*
D12*
X62450000Y-103450000D03*
D13*
X60550000Y-103560000D03*
%TD*%
D10*
%TO.C,SW2*%
X137275000Y-96950000D03*
X125725000Y-94750000D03*
D11*
X131450000Y-85560000D03*
D12*
X138450000Y-86950000D03*
D13*
X131450000Y-87060000D03*
X136550000Y-87060000D03*
D12*
X138450000Y-85450000D03*
D13*
X136550000Y-85560000D03*
%TD*%
D10*
%TO.C,SW12*%
X118275000Y-96950000D03*
X106725000Y-94750000D03*
D11*
X112450000Y-85560000D03*
D13*
X112450000Y-87060000D03*
D12*
X119450000Y-86950000D03*
D13*
X117550000Y-87060000D03*
X117550000Y-85560000D03*
D12*
X119450000Y-85450000D03*
%TD*%
D10*
%TO.C,SW31*%
X80275000Y-78950000D03*
X68725000Y-76750000D03*
D11*
X74450000Y-67560000D03*
D12*
X81450000Y-68950000D03*
D13*
X74450000Y-69060000D03*
X79550000Y-69060000D03*
D12*
X81450000Y-67450000D03*
D13*
X79550000Y-67560000D03*
%TD*%
D10*
%TO.C,SW51*%
X42275000Y-78950000D03*
X30725000Y-76750000D03*
D11*
X36450000Y-67560000D03*
D13*
X36450000Y-69060000D03*
D12*
X43450000Y-68950000D03*
D13*
X41550000Y-69060000D03*
D12*
X43450000Y-67450000D03*
D13*
X41550000Y-67560000D03*
%TD*%
D10*
%TO.C,SW40*%
X61275000Y-60950000D03*
X49725000Y-58750000D03*
D11*
X55450000Y-49560000D03*
D13*
X55450000Y-51060000D03*
D12*
X62450000Y-50950000D03*
D13*
X60550000Y-51060000D03*
X60550000Y-49560000D03*
D12*
X62450000Y-49450000D03*
%TD*%
D10*
%TO.C,SW10*%
X118275000Y-60950000D03*
X106725000Y-58750000D03*
D11*
X112450000Y-49560000D03*
D12*
X119450000Y-50950000D03*
D13*
X112450000Y-51060000D03*
X117550000Y-51060000D03*
X117550000Y-49560000D03*
D12*
X119450000Y-49450000D03*
%TD*%
D10*
%TO.C,SW53*%
X42275000Y-114950000D03*
X30725000Y-112750000D03*
D11*
X36450000Y-103560000D03*
D12*
X43450000Y-104950000D03*
D13*
X36450000Y-105060000D03*
X41550000Y-105060000D03*
X41550000Y-103560000D03*
D12*
X43450000Y-103450000D03*
%TD*%
M02*
