%TF.GenerationSoftware,KiCad,Pcbnew,(6.0.2)*%
%TF.CreationDate,2022-04-13T18:01:38+02:00*%
%TF.ProjectId,SPKB,53504b42-2e6b-4696-9361-645f70636258,rev?*%
%TF.SameCoordinates,Original*%
%TF.FileFunction,Copper,L2,Bot*%
%TF.FilePolarity,Positive*%
%FSLAX46Y46*%
G04 Gerber Fmt 4.6, Leading zero omitted, Abs format (unit mm)*
G04 Created by KiCad (PCBNEW (6.0.2)) date 2022-04-13 18:01:38*
%MOMM*%
%LPD*%
G01*
G04 APERTURE LIST*
G04 Aperture macros list*
%AMRoundRect*
0 Rectangle with rounded corners*
0 $1 Rounding radius*
0 $2 $3 $4 $5 $6 $7 $8 $9 X,Y pos of 4 corners*
0 Add a 4 corners polygon primitive as box body*
4,1,4,$2,$3,$4,$5,$6,$7,$8,$9,$2,$3,0*
0 Add four circle primitives for the rounded corners*
1,1,$1+$1,$2,$3*
1,1,$1+$1,$4,$5*
1,1,$1+$1,$6,$7*
1,1,$1+$1,$8,$9*
0 Add four rect primitives between the rounded corners*
20,1,$1+$1,$2,$3,$4,$5,0*
20,1,$1+$1,$4,$5,$6,$7,0*
20,1,$1+$1,$6,$7,$8,$9,0*
20,1,$1+$1,$8,$9,$2,$3,0*%
%AMRotRect*
0 Rectangle, with rotation*
0 The origin of the aperture is its center*
0 $1 length*
0 $2 width*
0 $3 Rotation angle, in degrees counterclockwise*
0 Add horizontal line*
21,1,$1,$2,0,0,$3*%
G04 Aperture macros list end*
%TA.AperFunction,ComponentPad*%
%ADD10C,1.752600*%
%TD*%
%TA.AperFunction,SMDPad,CuDef*%
%ADD11R,2.600000X2.600000*%
%TD*%
%TA.AperFunction,SMDPad,CuDef*%
%ADD12RoundRect,0.205000X-0.645000X-0.205000X0.645000X-0.205000X0.645000X0.205000X-0.645000X0.205000X0*%
%TD*%
%TA.AperFunction,SMDPad,CuDef*%
%ADD13R,0.750000X0.800000*%
%TD*%
%TA.AperFunction,SMDPad,CuDef*%
%ADD14R,1.700000X0.820000*%
%TD*%
%TA.AperFunction,ComponentPad*%
%ADD15R,1.600000X1.600000*%
%TD*%
%TA.AperFunction,ComponentPad*%
%ADD16O,1.600000X1.600000*%
%TD*%
%TA.AperFunction,SMDPad,CuDef*%
%ADD17RotRect,2.600000X2.600000X45.000000*%
%TD*%
%TA.AperFunction,SMDPad,CuDef*%
%ADD18RoundRect,0.205000X-0.311127X-0.601041X0.601041X0.311127X0.311127X0.601041X-0.601041X-0.311127X0*%
%TD*%
%TA.AperFunction,SMDPad,CuDef*%
%ADD19RotRect,0.800000X0.750000X135.000000*%
%TD*%
%TA.AperFunction,SMDPad,CuDef*%
%ADD20RotRect,1.700000X0.820000X45.000000*%
%TD*%
%TA.AperFunction,ComponentPad*%
%ADD21O,2.200000X1.600000*%
%TD*%
%TA.AperFunction,ViaPad*%
%ADD22C,0.800000*%
%TD*%
%TA.AperFunction,Conductor*%
%ADD23C,0.250000*%
%TD*%
%TA.AperFunction,Conductor*%
%ADD24C,0.200000*%
%TD*%
G04 APERTURE END LIST*
D10*
%TO.P,J1,1,5V*%
%TO.N,5V*%
X166700000Y-92000000D03*
%TO.P,J1,2,3V3*%
%TO.N,3V3*%
X154000000Y-92000000D03*
%TO.P,J1,3,GND*%
%TO.N,GND*%
X156540000Y-92000000D03*
%TO.P,J1,4,JS_X*%
%TO.N,JS_X*%
X159080000Y-92000000D03*
%TO.P,J1,5,JS_Y*%
%TO.N,JS_Y*%
X161620000Y-92000000D03*
%TO.P,J1,6,JS_S*%
%TO.N,JS_S*%
X164160000Y-92000000D03*
%TD*%
D11*
%TO.P,SW20,1,COL*%
%TO.N,COL 2*%
X99275000Y-60950000D03*
%TO.P,SW20,2,ROW*%
%TO.N,Net-(D20-Pad2)*%
X87725000Y-58750000D03*
D12*
%TO.P,SW20,3,OUT*%
%TO.N,Net-(SW10-Pad5)*%
X93450000Y-49560000D03*
D13*
%TO.P,SW20,4,VCC*%
%TO.N,5V*%
X100450000Y-50950000D03*
D14*
X93450000Y-51060000D03*
%TO.P,SW20,5,IN*%
%TO.N,Net-(SW20-Pad5)*%
X98550000Y-51060000D03*
%TO.P,SW20,6,GND*%
%TO.N,GND*%
X98550000Y-49560000D03*
D13*
X100450000Y-49450000D03*
%TD*%
D11*
%TO.P,SW22,1,COL*%
%TO.N,COL 2*%
X99275000Y-96950000D03*
%TO.P,SW22,2,ROW*%
%TO.N,Net-(D22-Pad2)*%
X87725000Y-94750000D03*
D12*
%TO.P,SW22,3,OUT*%
%TO.N,Net-(SW12-Pad5)*%
X93450000Y-85560000D03*
D14*
%TO.P,SW22,4,VCC*%
%TO.N,5V*%
X93450000Y-87060000D03*
D13*
X100450000Y-86950000D03*
D14*
%TO.P,SW22,5,IN*%
%TO.N,Net-(SW22-Pad5)*%
X98550000Y-87060000D03*
%TO.P,SW22,6,GND*%
%TO.N,GND*%
X98550000Y-85560000D03*
D13*
X100450000Y-85450000D03*
%TD*%
D11*
%TO.P,SW0,1,COL*%
%TO.N,COL 0*%
X137275000Y-60950000D03*
%TO.P,SW0,2,ROW*%
%TO.N,Net-(D0-Pad2)*%
X125725000Y-58750000D03*
D12*
%TO.P,SW0,3,OUT*%
%TO.N,unconnected-(SW0-Pad3)*%
X131450000Y-49560000D03*
D13*
%TO.P,SW0,4,VCC*%
%TO.N,5V*%
X138450000Y-50950000D03*
D14*
X131450000Y-51060000D03*
%TO.P,SW0,5,IN*%
%TO.N,Net-(SW0-Pad5)*%
X136550000Y-51060000D03*
%TO.P,SW0,6,GND*%
%TO.N,GND*%
X136550000Y-49560000D03*
D13*
X138450000Y-49450000D03*
%TD*%
D11*
%TO.P,SW21,1,COL*%
%TO.N,COL 2*%
X99275000Y-78950000D03*
%TO.P,SW21,2,ROW*%
%TO.N,Net-(D21-Pad2)*%
X87725000Y-76750000D03*
D12*
%TO.P,SW21,3,OUT*%
%TO.N,Net-(SW11-Pad5)*%
X93450000Y-67560000D03*
D13*
%TO.P,SW21,4,VCC*%
%TO.N,5V*%
X100450000Y-68950000D03*
D14*
X93450000Y-69060000D03*
%TO.P,SW21,5,IN*%
%TO.N,Net-(SW21-Pad5)*%
X98550000Y-69060000D03*
%TO.P,SW21,6,GND*%
%TO.N,GND*%
X98550000Y-67560000D03*
D13*
X100450000Y-67450000D03*
%TD*%
D11*
%TO.P,SW52,1,COL*%
%TO.N,COL 5*%
X42275000Y-96950000D03*
%TO.P,SW52,2,ROW*%
%TO.N,Net-(D52-Pad2)*%
X30725000Y-94750000D03*
D12*
%TO.P,SW52,3,OUT*%
%TO.N,Net-(SW42-Pad5)*%
X36450000Y-85560000D03*
D13*
%TO.P,SW52,4,VCC*%
%TO.N,5V*%
X43450000Y-86950000D03*
D14*
X36450000Y-87060000D03*
%TO.P,SW52,5,IN*%
%TO.N,Net-(SW3-Pad3)*%
X41550000Y-87060000D03*
%TO.P,SW52,6,GND*%
%TO.N,GND*%
X41550000Y-85560000D03*
D13*
X43450000Y-85450000D03*
%TD*%
D15*
%TO.P,D13,1,K*%
%TO.N,ROW 3*%
X112000000Y-31690000D03*
D16*
%TO.P,D13,2,A*%
%TO.N,Net-(D13-Pad2)*%
X112000000Y-39310000D03*
%TD*%
D11*
%TO.P,SW54,1,COL*%
%TO.N,COL 5*%
X42275000Y-132950000D03*
%TO.P,SW54,2,ROW*%
%TO.N,Net-(D54-Pad2)*%
X30725000Y-130750000D03*
D12*
%TO.P,SW54,3,OUT*%
%TO.N,Net-(SW44-Pad5)*%
X36450000Y-121560000D03*
D13*
%TO.P,SW54,4,VCC*%
%TO.N,5V*%
X43450000Y-122950000D03*
D14*
X36450000Y-123060000D03*
%TO.P,SW54,5,IN*%
%TO.N,LED*%
X41550000Y-123060000D03*
%TO.P,SW54,6,GND*%
%TO.N,GND*%
X41550000Y-121560000D03*
D13*
X43450000Y-121450000D03*
%TD*%
D11*
%TO.P,SW34,1,COL*%
%TO.N,COL 3*%
X80275000Y-132950000D03*
%TO.P,SW34,2,ROW*%
%TO.N,Net-(D34-Pad2)*%
X68725000Y-130750000D03*
D12*
%TO.P,SW34,3,OUT*%
%TO.N,Net-(SW24-Pad5)*%
X74450000Y-121560000D03*
D13*
%TO.P,SW34,4,VCC*%
%TO.N,5V*%
X81450000Y-122950000D03*
D14*
X74450000Y-123060000D03*
%TO.P,SW34,5,IN*%
%TO.N,Net-(SW34-Pad5)*%
X79550000Y-123060000D03*
%TO.P,SW34,6,GND*%
%TO.N,GND*%
X79550000Y-121560000D03*
D13*
X81450000Y-121450000D03*
%TD*%
D11*
%TO.P,SW50,1,COL*%
%TO.N,COL 5*%
X42275000Y-60950000D03*
%TO.P,SW50,2,ROW*%
%TO.N,Net-(D50-Pad2)*%
X30725000Y-58750000D03*
D12*
%TO.P,SW50,3,OUT*%
%TO.N,Net-(SW40-Pad5)*%
X36450000Y-49560000D03*
D13*
%TO.P,SW50,4,VCC*%
%TO.N,5V*%
X43450000Y-50950000D03*
D14*
X36450000Y-51060000D03*
%TO.P,SW50,5,IN*%
%TO.N,Net-(SW1-Pad3)*%
X41550000Y-51060000D03*
%TO.P,SW50,6,GND*%
%TO.N,GND*%
X41550000Y-49560000D03*
D13*
X43450000Y-49450000D03*
%TD*%
D15*
%TO.P,D31,1,K*%
%TO.N,ROW 1*%
X80000000Y-35690000D03*
D16*
%TO.P,D31,2,A*%
%TO.N,Net-(D31-Pad2)*%
X80000000Y-43310000D03*
%TD*%
D15*
%TO.P,D40,1,K*%
%TO.N,ROW 0*%
X64000000Y-37690000D03*
D16*
%TO.P,D40,2,A*%
%TO.N,Net-(D40-Pad2)*%
X64000000Y-45310000D03*
%TD*%
D15*
%TO.P,D34,1,K*%
%TO.N,ROW 4*%
X71000000Y-29690000D03*
D16*
%TO.P,D34,2,A*%
%TO.N,Net-(D34-Pad2)*%
X71000000Y-37310000D03*
%TD*%
D15*
%TO.P,D20,1,K*%
%TO.N,ROW 0*%
X102000000Y-37690000D03*
D16*
%TO.P,D20,2,A*%
%TO.N,Net-(D20-Pad2)*%
X102000000Y-45310000D03*
%TD*%
D11*
%TO.P,SW13,1,COL*%
%TO.N,COL 1*%
X118275000Y-114950000D03*
%TO.P,SW13,2,ROW*%
%TO.N,Net-(D13-Pad2)*%
X106725000Y-112750000D03*
D12*
%TO.P,SW13,3,OUT*%
%TO.N,Net-(SW13-Pad3)*%
X112450000Y-103560000D03*
D13*
%TO.P,SW13,4,VCC*%
%TO.N,5V*%
X119450000Y-104950000D03*
D14*
X112450000Y-105060000D03*
%TO.P,SW13,5,IN*%
%TO.N,Net-(SW13-Pad5)*%
X117550000Y-105060000D03*
D13*
%TO.P,SW13,6,GND*%
%TO.N,GND*%
X119450000Y-103450000D03*
D14*
X117550000Y-103560000D03*
%TD*%
D15*
%TO.P,D1,1,K*%
%TO.N,ROW 1*%
X137000000Y-35690000D03*
D16*
%TO.P,D1,2,A*%
%TO.N,Net-(D1-Pad2)*%
X137000000Y-43310000D03*
%TD*%
D11*
%TO.P,SW32,1,COL*%
%TO.N,COL 3*%
X80275000Y-96950000D03*
%TO.P,SW32,2,ROW*%
%TO.N,Net-(D32-Pad2)*%
X68725000Y-94750000D03*
D12*
%TO.P,SW32,3,OUT*%
%TO.N,Net-(SW22-Pad5)*%
X74450000Y-85560000D03*
D14*
%TO.P,SW32,4,VCC*%
%TO.N,5V*%
X74450000Y-87060000D03*
D13*
X81450000Y-86950000D03*
D14*
%TO.P,SW32,5,IN*%
%TO.N,Net-(SW32-Pad5)*%
X79550000Y-87060000D03*
D13*
%TO.P,SW32,6,GND*%
%TO.N,GND*%
X81450000Y-85450000D03*
D14*
X79550000Y-85560000D03*
%TD*%
D15*
%TO.P,D14,1,K*%
%TO.N,ROW 4*%
X109000000Y-29690000D03*
D16*
%TO.P,D14,2,A*%
%TO.N,Net-(D14-Pad2)*%
X109000000Y-37310000D03*
%TD*%
D15*
%TO.P,D0,1,K*%
%TO.N,ROW 0*%
X140000000Y-37690000D03*
D16*
%TO.P,D0,2,A*%
%TO.N,Net-(D0-Pad2)*%
X140000000Y-45310000D03*
%TD*%
D11*
%TO.P,SW41,1,COL*%
%TO.N,COL 4*%
X61275000Y-78950000D03*
%TO.P,SW41,2,ROW*%
%TO.N,Net-(D41-Pad2)*%
X49725000Y-76750000D03*
D12*
%TO.P,SW41,3,OUT*%
%TO.N,Net-(SW31-Pad5)*%
X55450000Y-67560000D03*
D13*
%TO.P,SW41,4,VCC*%
%TO.N,5V*%
X62450000Y-68950000D03*
D14*
X55450000Y-69060000D03*
%TO.P,SW41,5,IN*%
%TO.N,Net-(SW41-Pad5)*%
X60550000Y-69060000D03*
D13*
%TO.P,SW41,6,GND*%
%TO.N,GND*%
X62450000Y-67450000D03*
D14*
X60550000Y-67560000D03*
%TD*%
D15*
%TO.P,D2,1,K*%
%TO.N,ROW 2*%
X134000000Y-33690000D03*
D16*
%TO.P,D2,2,A*%
%TO.N,Net-(D2-Pad2)*%
X134000000Y-41310000D03*
%TD*%
D15*
%TO.P,D41,1,K*%
%TO.N,ROW 1*%
X61000000Y-35690000D03*
D16*
%TO.P,D41,2,A*%
%TO.N,Net-(D41-Pad2)*%
X61000000Y-43310000D03*
%TD*%
D15*
%TO.P,D53,1,K*%
%TO.N,ROW 3*%
X36000000Y-31690000D03*
D16*
%TO.P,D53,2,A*%
%TO.N,Net-(D53-Pad2)*%
X36000000Y-39310000D03*
%TD*%
D11*
%TO.P,SW44,1,COL*%
%TO.N,COL 4*%
X61275000Y-132950000D03*
%TO.P,SW44,2,ROW*%
%TO.N,Net-(D44-Pad2)*%
X49725000Y-130750000D03*
D12*
%TO.P,SW44,3,OUT*%
%TO.N,Net-(SW34-Pad5)*%
X55450000Y-121560000D03*
D14*
%TO.P,SW44,4,VCC*%
%TO.N,5V*%
X55450000Y-123060000D03*
D13*
X62450000Y-122950000D03*
D14*
%TO.P,SW44,5,IN*%
%TO.N,Net-(SW44-Pad5)*%
X60550000Y-123060000D03*
%TO.P,SW44,6,GND*%
%TO.N,GND*%
X60550000Y-121560000D03*
D13*
X62450000Y-121450000D03*
%TD*%
D15*
%TO.P,D3,1,K*%
%TO.N,ROW 3*%
X131000000Y-31690000D03*
D16*
%TO.P,D3,2,A*%
%TO.N,Net-(D3-Pad2)*%
X131000000Y-39310000D03*
%TD*%
D11*
%TO.P,SW11,1,COL*%
%TO.N,COL 1*%
X118275000Y-78950000D03*
%TO.P,SW11,2,ROW*%
%TO.N,Net-(D11-Pad2)*%
X106725000Y-76750000D03*
D12*
%TO.P,SW11,3,OUT*%
%TO.N,Net-(SW1-Pad5)*%
X112450000Y-67560000D03*
D14*
%TO.P,SW11,4,VCC*%
%TO.N,5V*%
X112450000Y-69060000D03*
D13*
X119450000Y-68950000D03*
D14*
%TO.P,SW11,5,IN*%
%TO.N,Net-(SW11-Pad5)*%
X117550000Y-69060000D03*
D13*
%TO.P,SW11,6,GND*%
%TO.N,GND*%
X119450000Y-67450000D03*
D14*
X117550000Y-67560000D03*
%TD*%
D15*
%TO.P,D54,1,K*%
%TO.N,ROW 4*%
X33000000Y-29690000D03*
D16*
%TO.P,D54,2,A*%
%TO.N,Net-(D54-Pad2)*%
X33000000Y-37310000D03*
%TD*%
D11*
%TO.P,SW42,1,COL*%
%TO.N,COL 4*%
X61275000Y-96950000D03*
%TO.P,SW42,2,ROW*%
%TO.N,Net-(D42-Pad2)*%
X49725000Y-94750000D03*
D12*
%TO.P,SW42,3,OUT*%
%TO.N,Net-(SW32-Pad5)*%
X55450000Y-85560000D03*
D13*
%TO.P,SW42,4,VCC*%
%TO.N,5V*%
X62450000Y-86950000D03*
D14*
X55450000Y-87060000D03*
%TO.P,SW42,5,IN*%
%TO.N,Net-(SW42-Pad5)*%
X60550000Y-87060000D03*
D13*
%TO.P,SW42,6,GND*%
%TO.N,GND*%
X62450000Y-85450000D03*
D14*
X60550000Y-85560000D03*
%TD*%
D11*
%TO.P,SW3,1,COL*%
%TO.N,COL 0*%
X137275000Y-114950000D03*
%TO.P,SW3,2,ROW*%
%TO.N,Net-(D3-Pad2)*%
X125725000Y-112750000D03*
D12*
%TO.P,SW3,3,OUT*%
%TO.N,Net-(SW3-Pad3)*%
X131450000Y-103560000D03*
D14*
%TO.P,SW3,4,VCC*%
%TO.N,5V*%
X131450000Y-105060000D03*
D13*
X138450000Y-104950000D03*
D14*
%TO.P,SW3,5,IN*%
%TO.N,Net-(SW13-Pad3)*%
X136550000Y-105060000D03*
%TO.P,SW3,6,GND*%
%TO.N,GND*%
X136550000Y-103560000D03*
D13*
X138450000Y-103450000D03*
%TD*%
D15*
%TO.P,D24,1,K*%
%TO.N,ROW 4*%
X90000000Y-29690000D03*
D16*
%TO.P,D24,2,A*%
%TO.N,Net-(D24-Pad2)*%
X90000000Y-37310000D03*
%TD*%
D15*
%TO.P,D43,1,K*%
%TO.N,ROW 3*%
X55000000Y-31690000D03*
D16*
%TO.P,D43,2,A*%
%TO.N,Net-(D43-Pad2)*%
X55000000Y-39310000D03*
%TD*%
D15*
%TO.P,D12,1,K*%
%TO.N,ROW 2*%
X115000000Y-33690000D03*
D16*
%TO.P,D12,2,A*%
%TO.N,Net-(D12-Pad2)*%
X115000000Y-41310000D03*
%TD*%
D15*
%TO.P,D4,1,K*%
%TO.N,ROW 4*%
X128000000Y-29690000D03*
D16*
%TO.P,D4,2,A*%
%TO.N,Net-(D4-Pad2)*%
X128000000Y-37310000D03*
%TD*%
D11*
%TO.P,SW24,1,COL*%
%TO.N,COL 2*%
X99275000Y-132950000D03*
%TO.P,SW24,2,ROW*%
%TO.N,Net-(D24-Pad2)*%
X87725000Y-130750000D03*
D12*
%TO.P,SW24,3,OUT*%
%TO.N,Net-(SW14-Pad5)*%
X93450000Y-121560000D03*
D14*
%TO.P,SW24,4,VCC*%
%TO.N,5V*%
X93450000Y-123060000D03*
D13*
X100450000Y-122950000D03*
D14*
%TO.P,SW24,5,IN*%
%TO.N,Net-(SW24-Pad5)*%
X98550000Y-123060000D03*
D13*
%TO.P,SW24,6,GND*%
%TO.N,GND*%
X100450000Y-121450000D03*
D14*
X98550000Y-121560000D03*
%TD*%
D17*
%TO.P,SW14,1,COL*%
%TO.N,COL 1*%
X126723060Y-137891511D03*
%TO.P,SW14,2,ROW*%
%TO.N,Net-(D14-Pad2)*%
X117000342Y-144502959D03*
D18*
%TO.P,SW14,3,OUT*%
%TO.N,Net-(SW14-Pad3)*%
X114550217Y-133956461D03*
D19*
%TO.P,SW14,4,VCC*%
%TO.N,5V*%
X120482843Y-129989592D03*
D20*
X115610877Y-135017122D03*
%TO.P,SW14,5,IN*%
%TO.N,Net-(SW14-Pad5)*%
X119217122Y-131410877D03*
D19*
%TO.P,SW14,6,GND*%
%TO.N,GND*%
X119422183Y-128928932D03*
D20*
X118156461Y-130350217D03*
%TD*%
D15*
%TO.P,D44,1,K*%
%TO.N,ROW 4*%
X52000000Y-29690000D03*
D16*
%TO.P,D44,2,A*%
%TO.N,Net-(D44-Pad2)*%
X52000000Y-37310000D03*
%TD*%
D15*
%TO.P,D30,1,K*%
%TO.N,ROW 0*%
X83000000Y-37690000D03*
D16*
%TO.P,D30,2,A*%
%TO.N,Net-(D30-Pad2)*%
X83000000Y-45310000D03*
%TD*%
D15*
%TO.P,D10,1,K*%
%TO.N,ROW 0*%
X121000000Y-37690000D03*
D16*
%TO.P,D10,2,A*%
%TO.N,Net-(D10-Pad2)*%
X121000000Y-45310000D03*
%TD*%
D15*
%TO.P,D42,1,K*%
%TO.N,ROW 2*%
X58000000Y-33690000D03*
D16*
%TO.P,D42,2,A*%
%TO.N,Net-(D42-Pad2)*%
X58000000Y-41310000D03*
%TD*%
D11*
%TO.P,SW33,1,COL*%
%TO.N,COL 3*%
X80275000Y-114950000D03*
%TO.P,SW33,2,ROW*%
%TO.N,Net-(D33-Pad2)*%
X68725000Y-112750000D03*
D12*
%TO.P,SW33,3,OUT*%
%TO.N,Net-(SW23-Pad5)*%
X74450000Y-103560000D03*
D14*
%TO.P,SW33,4,VCC*%
%TO.N,5V*%
X74450000Y-105060000D03*
D13*
X81450000Y-104950000D03*
D14*
%TO.P,SW33,5,IN*%
%TO.N,Net-(SW33-Pad5)*%
X79550000Y-105060000D03*
D13*
%TO.P,SW33,6,GND*%
%TO.N,GND*%
X81450000Y-103450000D03*
D14*
X79550000Y-103560000D03*
%TD*%
D15*
%TO.P,D51,1,K*%
%TO.N,ROW 1*%
X42000000Y-35690000D03*
D16*
%TO.P,D51,2,A*%
%TO.N,Net-(D51-Pad2)*%
X42000000Y-43310000D03*
%TD*%
D11*
%TO.P,SW1,1,COL*%
%TO.N,COL 0*%
X137275000Y-78950000D03*
%TO.P,SW1,2,ROW*%
%TO.N,Net-(D1-Pad2)*%
X125725000Y-76750000D03*
D12*
%TO.P,SW1,3,OUT*%
%TO.N,Net-(SW1-Pad3)*%
X131450000Y-67560000D03*
D13*
%TO.P,SW1,4,VCC*%
%TO.N,5V*%
X138450000Y-68950000D03*
D14*
X131450000Y-69060000D03*
%TO.P,SW1,5,IN*%
%TO.N,Net-(SW1-Pad5)*%
X136550000Y-69060000D03*
D13*
%TO.P,SW1,6,GND*%
%TO.N,GND*%
X138450000Y-67450000D03*
D14*
X136550000Y-67560000D03*
%TD*%
D11*
%TO.P,SW23,1,COL*%
%TO.N,COL 2*%
X99275000Y-114950000D03*
%TO.P,SW23,2,ROW*%
%TO.N,Net-(D23-Pad2)*%
X87725000Y-112750000D03*
D12*
%TO.P,SW23,3,OUT*%
%TO.N,Net-(SW13-Pad5)*%
X93450000Y-103560000D03*
D13*
%TO.P,SW23,4,VCC*%
%TO.N,5V*%
X100450000Y-104950000D03*
D14*
X93450000Y-105060000D03*
%TO.P,SW23,5,IN*%
%TO.N,Net-(SW23-Pad5)*%
X98550000Y-105060000D03*
%TO.P,SW23,6,GND*%
%TO.N,GND*%
X98550000Y-103560000D03*
D13*
X100450000Y-103450000D03*
%TD*%
D11*
%TO.P,SW30,1,COL*%
%TO.N,COL 3*%
X80275000Y-60950000D03*
%TO.P,SW30,2,ROW*%
%TO.N,Net-(D30-Pad2)*%
X68725000Y-58750000D03*
D12*
%TO.P,SW30,3,OUT*%
%TO.N,Net-(SW20-Pad5)*%
X74450000Y-49560000D03*
D14*
%TO.P,SW30,4,VCC*%
%TO.N,5V*%
X74450000Y-51060000D03*
D13*
X81450000Y-50950000D03*
D14*
%TO.P,SW30,5,IN*%
%TO.N,Net-(SW30-Pad5)*%
X79550000Y-51060000D03*
D13*
%TO.P,SW30,6,GND*%
%TO.N,GND*%
X81450000Y-49450000D03*
D14*
X79550000Y-49560000D03*
%TD*%
D15*
%TO.P,D11,1,K*%
%TO.N,ROW 1*%
X118000000Y-35690000D03*
D16*
%TO.P,D11,2,A*%
%TO.N,Net-(D11-Pad2)*%
X118000000Y-43310000D03*
%TD*%
D17*
%TO.P,SW4,1,COL*%
%TO.N,COL 0*%
X137723060Y-154891511D03*
%TO.P,SW4,2,ROW*%
%TO.N,Net-(D4-Pad2)*%
X128000342Y-161502959D03*
D18*
%TO.P,SW4,3,OUT*%
%TO.N,Net-(SW4-Pad3)*%
X125550217Y-150956461D03*
D20*
%TO.P,SW4,4,VCC*%
%TO.N,5V*%
X126610877Y-152017122D03*
D19*
X131482843Y-146989592D03*
D20*
%TO.P,SW4,5,IN*%
%TO.N,Net-(SW14-Pad3)*%
X130217122Y-148410877D03*
%TO.P,SW4,6,GND*%
%TO.N,GND*%
X129156461Y-147350217D03*
D19*
X130422183Y-145928932D03*
%TD*%
D21*
%TO.P,T1,1*%
%TO.N,N/C*%
X165700000Y-72200000D03*
X165700000Y-81400000D03*
%TO.P,T1,2*%
X166800000Y-76800000D03*
%TO.P,T1,3*%
X170800000Y-76800000D03*
%TO.P,T1,4*%
X173800000Y-76800000D03*
%TD*%
D11*
%TO.P,SW43,1,COL*%
%TO.N,COL 4*%
X61275000Y-114950000D03*
%TO.P,SW43,2,ROW*%
%TO.N,Net-(D43-Pad2)*%
X49725000Y-112750000D03*
D12*
%TO.P,SW43,3,OUT*%
%TO.N,Net-(SW33-Pad5)*%
X55450000Y-103560000D03*
D13*
%TO.P,SW43,4,VCC*%
%TO.N,5V*%
X62450000Y-104950000D03*
D14*
X55450000Y-105060000D03*
%TO.P,SW43,5,IN*%
%TO.N,Net-(SW43-Pad5)*%
X60550000Y-105060000D03*
D13*
%TO.P,SW43,6,GND*%
%TO.N,GND*%
X62450000Y-103450000D03*
D14*
X60550000Y-103560000D03*
%TD*%
D11*
%TO.P,SW2,1,COL*%
%TO.N,COL 0*%
X137275000Y-96950000D03*
%TO.P,SW2,2,ROW*%
%TO.N,Net-(D2-Pad2)*%
X125725000Y-94750000D03*
D12*
%TO.P,SW2,3,OUT*%
%TO.N,Net-(SW2-Pad3)*%
X131450000Y-85560000D03*
D13*
%TO.P,SW2,4,VCC*%
%TO.N,5V*%
X138450000Y-86950000D03*
D14*
X131450000Y-87060000D03*
%TO.P,SW2,5,IN*%
%TO.N,Net-(SW12-Pad3)*%
X136550000Y-87060000D03*
D13*
%TO.P,SW2,6,GND*%
%TO.N,GND*%
X138450000Y-85450000D03*
D14*
X136550000Y-85560000D03*
%TD*%
D11*
%TO.P,SW12,1,COL*%
%TO.N,COL 1*%
X118275000Y-96950000D03*
%TO.P,SW12,2,ROW*%
%TO.N,Net-(D12-Pad2)*%
X106725000Y-94750000D03*
D12*
%TO.P,SW12,3,OUT*%
%TO.N,Net-(SW12-Pad3)*%
X112450000Y-85560000D03*
D14*
%TO.P,SW12,4,VCC*%
%TO.N,5V*%
X112450000Y-87060000D03*
D13*
X119450000Y-86950000D03*
D14*
%TO.P,SW12,5,IN*%
%TO.N,Net-(SW12-Pad5)*%
X117550000Y-87060000D03*
%TO.P,SW12,6,GND*%
%TO.N,GND*%
X117550000Y-85560000D03*
D13*
X119450000Y-85450000D03*
%TD*%
D15*
%TO.P,D21,1,K*%
%TO.N,ROW 1*%
X99000000Y-35690000D03*
D16*
%TO.P,D21,2,A*%
%TO.N,Net-(D21-Pad2)*%
X99000000Y-43310000D03*
%TD*%
D10*
%TO.P,U1,1,5V*%
%TO.N,5V*%
X171160000Y-31050000D03*
X153380000Y-33590000D03*
%TO.P,U1,2,GND*%
%TO.N,GND*%
X171160000Y-33590000D03*
X153380000Y-36130000D03*
%TO.P,U1,3,3V3*%
%TO.N,3V3*%
X171160000Y-36130000D03*
X153380000Y-38670000D03*
%TO.P,U1,4,GP29*%
%TO.N,JS_X*%
X153380000Y-41210000D03*
X171160000Y-38670000D03*
%TO.P,U1,5,GP28*%
%TO.N,JS_Y*%
X171160000Y-41210000D03*
X153380000Y-43750000D03*
%TO.P,U1,6,GP27*%
%TO.N,JS_S*%
X153380000Y-46290000D03*
X171160000Y-43750000D03*
%TO.P,U1,7,GP26*%
%TO.N,unconnected-(U1-Pad7)*%
X153380000Y-48830000D03*
X171160000Y-46290000D03*
%TO.P,U1,8,GP15*%
%TO.N,I2C SDA*%
X153380000Y-51370000D03*
X171160000Y-48830000D03*
%TO.P,U1,9,GP14*%
%TO.N,I2C SCL*%
X153380000Y-53910000D03*
X171160000Y-51370000D03*
%TO.P,U1,10,GP13*%
%TO.N,unconnected-(U1-Pad10)*%
X155920000Y-53910000D03*
%TO.P,U1,11,GP12*%
%TO.N,ROW 4*%
X166080000Y-51370000D03*
X158460000Y-53910000D03*
%TO.P,U1,12,GP11*%
%TO.N,ROW 3*%
X163540000Y-51370000D03*
X161000000Y-53910000D03*
%TO.P,U1,13,GP10*%
%TO.N,ROW 2*%
X163540000Y-53910000D03*
X161000000Y-51370000D03*
%TO.P,U1,14,GP9*%
%TO.N,ROW 1*%
X158460000Y-51370000D03*
X166080000Y-53910000D03*
%TO.P,U1,15,GP8*%
%TO.N,ROW 0*%
X155920000Y-51370000D03*
X168620000Y-53910000D03*
%TO.P,U1,16,GP7*%
%TO.N,unconnected-(U1-Pad16)*%
X155920000Y-48830000D03*
%TO.P,U1,17,GP6*%
%TO.N,LED*%
X155920000Y-46290000D03*
X168620000Y-48830000D03*
%TO.P,U1,18,GP5*%
%TO.N,COL 5*%
X155920000Y-43750000D03*
X168620000Y-46290000D03*
%TO.P,U1,19,GP4*%
%TO.N,COL 4*%
X168620000Y-43750000D03*
X155920000Y-41210000D03*
%TO.P,U1,20,GP3*%
%TO.N,COL 3*%
X168620000Y-41210000D03*
X155920000Y-38670000D03*
%TO.P,U1,21,GP2*%
%TO.N,COL 2*%
X168620000Y-38670000D03*
X155920000Y-36130000D03*
%TO.P,U1,22,GP1*%
%TO.N,COL 1*%
X168620000Y-36130000D03*
X155920000Y-33590000D03*
%TO.P,U1,23,GP0*%
%TO.N,COL 0*%
X168620000Y-33590000D03*
X155920000Y-31050000D03*
%TO.P,U1,24*%
%TO.N,N/C*%
X168620000Y-51370000D03*
%TD*%
D15*
%TO.P,D22,1,K*%
%TO.N,ROW 2*%
X96000000Y-33690000D03*
D16*
%TO.P,D22,2,A*%
%TO.N,Net-(D22-Pad2)*%
X96000000Y-41310000D03*
%TD*%
D11*
%TO.P,SW31,1,COL*%
%TO.N,COL 3*%
X80275000Y-78950000D03*
%TO.P,SW31,2,ROW*%
%TO.N,Net-(D31-Pad2)*%
X68725000Y-76750000D03*
D12*
%TO.P,SW31,3,OUT*%
%TO.N,Net-(SW21-Pad5)*%
X74450000Y-67560000D03*
D13*
%TO.P,SW31,4,VCC*%
%TO.N,5V*%
X81450000Y-68950000D03*
D14*
X74450000Y-69060000D03*
%TO.P,SW31,5,IN*%
%TO.N,Net-(SW31-Pad5)*%
X79550000Y-69060000D03*
D13*
%TO.P,SW31,6,GND*%
%TO.N,GND*%
X81450000Y-67450000D03*
D14*
X79550000Y-67560000D03*
%TD*%
D11*
%TO.P,SW51,1,COL*%
%TO.N,COL 5*%
X42275000Y-78950000D03*
%TO.P,SW51,2,ROW*%
%TO.N,Net-(D51-Pad2)*%
X30725000Y-76750000D03*
D12*
%TO.P,SW51,3,OUT*%
%TO.N,Net-(SW41-Pad5)*%
X36450000Y-67560000D03*
D14*
%TO.P,SW51,4,VCC*%
%TO.N,5V*%
X36450000Y-69060000D03*
D13*
X43450000Y-68950000D03*
D14*
%TO.P,SW51,5,IN*%
%TO.N,Net-(SW2-Pad3)*%
X41550000Y-69060000D03*
D13*
%TO.P,SW51,6,GND*%
%TO.N,GND*%
X43450000Y-67450000D03*
D14*
X41550000Y-67560000D03*
%TD*%
D11*
%TO.P,SW40,1,COL*%
%TO.N,COL 4*%
X61275000Y-60950000D03*
%TO.P,SW40,2,ROW*%
%TO.N,Net-(D40-Pad2)*%
X49725000Y-58750000D03*
D12*
%TO.P,SW40,3,OUT*%
%TO.N,Net-(SW30-Pad5)*%
X55450000Y-49560000D03*
D14*
%TO.P,SW40,4,VCC*%
%TO.N,5V*%
X55450000Y-51060000D03*
D13*
X62450000Y-50950000D03*
D14*
%TO.P,SW40,5,IN*%
%TO.N,Net-(SW40-Pad5)*%
X60550000Y-51060000D03*
%TO.P,SW40,6,GND*%
%TO.N,GND*%
X60550000Y-49560000D03*
D13*
X62450000Y-49450000D03*
%TD*%
D15*
%TO.P,D50,1,K*%
%TO.N,ROW 0*%
X45000000Y-37690000D03*
D16*
%TO.P,D50,2,A*%
%TO.N,Net-(D50-Pad2)*%
X45000000Y-45310000D03*
%TD*%
D15*
%TO.P,D32,1,K*%
%TO.N,ROW 2*%
X77000000Y-33690000D03*
D16*
%TO.P,D32,2,A*%
%TO.N,Net-(D32-Pad2)*%
X77000000Y-41310000D03*
%TD*%
D11*
%TO.P,SW10,1,COL*%
%TO.N,COL 1*%
X118275000Y-60950000D03*
%TO.P,SW10,2,ROW*%
%TO.N,Net-(D10-Pad2)*%
X106725000Y-58750000D03*
D12*
%TO.P,SW10,3,OUT*%
%TO.N,Net-(SW0-Pad5)*%
X112450000Y-49560000D03*
D13*
%TO.P,SW10,4,VCC*%
%TO.N,5V*%
X119450000Y-50950000D03*
D14*
X112450000Y-51060000D03*
%TO.P,SW10,5,IN*%
%TO.N,Net-(SW10-Pad5)*%
X117550000Y-51060000D03*
%TO.P,SW10,6,GND*%
%TO.N,GND*%
X117550000Y-49560000D03*
D13*
X119450000Y-49450000D03*
%TD*%
D15*
%TO.P,D33,1,K*%
%TO.N,ROW 3*%
X74000000Y-31690000D03*
D16*
%TO.P,D33,2,A*%
%TO.N,Net-(D33-Pad2)*%
X74000000Y-39310000D03*
%TD*%
D11*
%TO.P,SW53,1,COL*%
%TO.N,COL 5*%
X42275000Y-114950000D03*
%TO.P,SW53,2,ROW*%
%TO.N,Net-(D53-Pad2)*%
X30725000Y-112750000D03*
D12*
%TO.P,SW53,3,OUT*%
%TO.N,Net-(SW43-Pad5)*%
X36450000Y-103560000D03*
D13*
%TO.P,SW53,4,VCC*%
%TO.N,5V*%
X43450000Y-104950000D03*
D14*
X36450000Y-105060000D03*
%TO.P,SW53,5,IN*%
%TO.N,Net-(SW4-Pad3)*%
X41550000Y-105060000D03*
%TO.P,SW53,6,GND*%
%TO.N,GND*%
X41550000Y-103560000D03*
D13*
X43450000Y-103450000D03*
%TD*%
D15*
%TO.P,D23,1,K*%
%TO.N,ROW 3*%
X93000000Y-31690000D03*
D16*
%TO.P,D23,2,A*%
%TO.N,Net-(D23-Pad2)*%
X93000000Y-39310000D03*
%TD*%
D15*
%TO.P,D52,1,K*%
%TO.N,ROW 2*%
X39000000Y-33690000D03*
D16*
%TO.P,D52,2,A*%
%TO.N,Net-(D52-Pad2)*%
X39000000Y-41310000D03*
%TD*%
D22*
%TO.N,GND*%
X161600000Y-76800000D03*
%TO.N,JS_X*%
X148000000Y-62400000D03*
%TO.N,JS_S*%
X149600000Y-62400000D03*
%TO.N,3V3*%
X147200000Y-61600000D03*
%TO.N,JS_Y*%
X148800000Y-61600000D03*
%TO.N,JS_S*%
X149600000Y-54800000D03*
%TO.N,JS_Y*%
X148800000Y-54000000D03*
%TO.N,JS_X*%
X148000000Y-54800000D03*
%TO.N,3V3*%
X147200000Y-54000000D03*
%TO.N,Net-(D31-Pad2)*%
X77000000Y-76000000D03*
%TO.N,Net-(D34-Pad2)*%
X77000000Y-130000000D03*
%TO.N,Net-(D22-Pad2)*%
X96000000Y-94000000D03*
%TO.N,Net-(D24-Pad2)*%
X96000000Y-130000000D03*
%TO.N,COL 0*%
X137600000Y-159400000D03*
X134000000Y-64000000D03*
X134000000Y-118000000D03*
X134000000Y-82000000D03*
X134000000Y-100000000D03*
%TO.N,COL 5*%
X99000000Y-64000000D03*
X39000000Y-64000000D03*
X39000000Y-136000000D03*
X39000000Y-100000000D03*
X55000000Y-64000000D03*
X61000000Y-64000000D03*
X93000000Y-64000000D03*
X118000000Y-64000000D03*
X112000000Y-64000000D03*
X39000000Y-118000000D03*
X80000000Y-64000000D03*
X131000000Y-64000000D03*
X74000000Y-64000000D03*
X144800000Y-63400000D03*
X39000000Y-82000000D03*
X137000000Y-63400000D03*
%TO.N,COL 4*%
X80000000Y-82000000D03*
X131000000Y-82000000D03*
X118000000Y-82000000D03*
X74000000Y-82000000D03*
X112000000Y-82000000D03*
X58000000Y-82000000D03*
X58000000Y-100000000D03*
X58000000Y-64000000D03*
X137000000Y-81400000D03*
X93000000Y-82000000D03*
X58000000Y-136000000D03*
X99000000Y-82000000D03*
X58000000Y-118000000D03*
X144800000Y-81400000D03*
%TO.N,COL 3*%
X77000000Y-118000000D03*
X131000000Y-100000000D03*
X118000000Y-100000000D03*
X112000000Y-100000000D03*
X77000000Y-136000000D03*
X99000000Y-100000000D03*
X77000000Y-64000000D03*
X137000000Y-99400000D03*
X77000000Y-100000000D03*
X93000000Y-100000000D03*
X77000000Y-82000000D03*
X144800000Y-99400000D03*
%TO.N,COL 1*%
X115000000Y-100000000D03*
X115000000Y-64000000D03*
X145600000Y-118200000D03*
X121000000Y-118800000D03*
X126600000Y-142400000D03*
X115000000Y-82000000D03*
X115000000Y-118000000D03*
%TO.N,COL 2*%
X96000000Y-100000000D03*
X96000000Y-118000000D03*
X96000000Y-136000000D03*
X144800000Y-117400000D03*
X96000000Y-82000000D03*
X112000000Y-118000000D03*
X118000000Y-118000000D03*
X96000000Y-64000000D03*
%TO.N,Net-(D1-Pad2)*%
X134000000Y-76000000D03*
%TO.N,I2C SDA*%
X154000000Y-62000000D03*
X164800000Y-69400000D03*
%TO.N,I2C SCL*%
X156000000Y-62000000D03*
X165400000Y-68400000D03*
%TO.N,LED*%
X36000000Y-124200000D03*
%TO.N,GND*%
X143000000Y-83600000D03*
X36000000Y-48400000D03*
X36000000Y-84400000D03*
X113400000Y-133400000D03*
X93000000Y-102400000D03*
X146324500Y-47600000D03*
X36000000Y-66400000D03*
X93000000Y-48400000D03*
X55000000Y-120400000D03*
X74000000Y-102400000D03*
X74000000Y-48400000D03*
X36000000Y-102400000D03*
X74000000Y-84400000D03*
X131000000Y-102400000D03*
X133000000Y-141200000D03*
X112000000Y-102400000D03*
X55000000Y-102400000D03*
X112000000Y-48400000D03*
X74000000Y-66400000D03*
X55000000Y-48400000D03*
X74000000Y-120400000D03*
X131000000Y-84400000D03*
X131000000Y-48400000D03*
X112000000Y-66400000D03*
X124400000Y-150400000D03*
X36000000Y-120400000D03*
X131000000Y-66400000D03*
X143000000Y-101600000D03*
X55000000Y-84400000D03*
X111997488Y-84399999D03*
X55000000Y-66400000D03*
X93000000Y-84400000D03*
X93000000Y-66400000D03*
X143000000Y-47600000D03*
X93000000Y-120400000D03*
X143000000Y-65600000D03*
%TO.N,Net-(SW0-Pad5)*%
X118000000Y-48400000D03*
X131000000Y-52200000D03*
%TO.N,5V*%
X33200000Y-123000000D03*
X71200000Y-87000000D03*
X90200000Y-69000000D03*
X137000000Y-106200000D03*
X33200000Y-87000000D03*
X61000000Y-124200000D03*
X128200000Y-87000000D03*
X145724500Y-52200000D03*
X42000000Y-70200000D03*
X42000000Y-106200000D03*
X99000000Y-52200000D03*
X33200000Y-51000000D03*
X109197488Y-86999999D03*
X61000000Y-106200000D03*
X42000000Y-124200000D03*
X124200000Y-154200000D03*
X120400000Y-132000000D03*
X113200000Y-137200000D03*
X118000000Y-52200000D03*
X128200000Y-69000000D03*
X142000000Y-88200000D03*
X109200000Y-105000000D03*
X52200000Y-51000000D03*
X136000000Y-136600000D03*
X71200000Y-105000000D03*
X61000000Y-88200000D03*
X80000000Y-52200000D03*
X90200000Y-105000000D03*
X90200000Y-51000000D03*
X118000000Y-70200000D03*
X109200000Y-69000000D03*
X80000000Y-88200000D03*
X61000000Y-70200000D03*
X52200000Y-123000000D03*
X128200000Y-105000000D03*
X131400000Y-149000000D03*
X71200000Y-69000000D03*
X109200000Y-51000000D03*
X99000000Y-88200000D03*
X80000000Y-106200000D03*
X142000000Y-70200000D03*
X52200000Y-105000000D03*
X80000000Y-124200000D03*
X52200000Y-87000000D03*
X42000000Y-88200000D03*
X128200000Y-51000000D03*
X90200000Y-123000000D03*
X90200000Y-87000000D03*
X99000000Y-124200000D03*
X33200000Y-69000000D03*
X52200000Y-69000000D03*
X137000000Y-70200000D03*
X61000000Y-52200000D03*
X80000000Y-70200000D03*
X137000000Y-52200000D03*
X42000000Y-52200000D03*
X99000000Y-106200000D03*
X71200000Y-51000000D03*
X99000000Y-70200000D03*
X118000000Y-106200000D03*
X142000000Y-52200000D03*
X117997488Y-88199999D03*
X137000000Y-88200000D03*
X33200000Y-105000000D03*
X71200000Y-123000000D03*
X142000000Y-106200000D03*
%TO.N,unconnected-(SW0-Pad3)*%
X137000000Y-48400000D03*
%TO.N,Net-(SW1-Pad3)*%
X137000000Y-66400000D03*
X36000000Y-52200000D03*
X137000000Y-64800000D03*
%TO.N,Net-(SW12-Pad3)*%
X131000000Y-88200000D03*
X117997488Y-84399999D03*
%TO.N,Net-(SW13-Pad3)*%
X118000000Y-102400000D03*
X131000000Y-106200000D03*
%TO.N,Net-(SW14-Pad3)*%
X127200000Y-153200000D03*
X117600000Y-129200000D03*
%TO.N,Net-(SW10-Pad5)*%
X112000000Y-52200000D03*
X99000000Y-48400000D03*
%TO.N,Net-(SW21-Pad5)*%
X93000000Y-70200000D03*
X80000000Y-66400000D03*
%TO.N,Net-(SW31-Pad5)*%
X61000000Y-66400000D03*
X74000000Y-70200000D03*
%TO.N,Net-(SW40-Pad5)*%
X55000000Y-52200000D03*
X42000000Y-48400000D03*
%TO.N,Net-(SW41-Pad5)*%
X55000000Y-70200000D03*
X42000000Y-66400000D03*
%TO.N,Net-(D0-Pad2)*%
X134000000Y-58000000D03*
%TO.N,Net-(D2-Pad2)*%
X134000000Y-94000000D03*
%TO.N,Net-(D3-Pad2)*%
X134000000Y-112000000D03*
%TO.N,Net-(D4-Pad2)*%
X133400000Y-155200000D03*
%TO.N,Net-(D10-Pad2)*%
X115000000Y-58000000D03*
%TO.N,Net-(D11-Pad2)*%
X115000000Y-76000000D03*
%TO.N,Net-(D12-Pad2)*%
X115000000Y-94000000D03*
%TO.N,Net-(D13-Pad2)*%
X115000000Y-112000000D03*
%TO.N,Net-(D14-Pad2)*%
X122400000Y-138200000D03*
%TO.N,Net-(D20-Pad2)*%
X96000000Y-58000000D03*
%TO.N,Net-(D21-Pad2)*%
X96000000Y-76000000D03*
%TO.N,Net-(D23-Pad2)*%
X96000000Y-112000000D03*
%TO.N,Net-(D30-Pad2)*%
X77000000Y-58000000D03*
%TO.N,Net-(D32-Pad2)*%
X77000000Y-94000000D03*
%TO.N,Net-(D33-Pad2)*%
X77000000Y-112000000D03*
%TO.N,Net-(D40-Pad2)*%
X58000000Y-58000000D03*
%TO.N,Net-(D41-Pad2)*%
X58000000Y-76000000D03*
%TO.N,Net-(D42-Pad2)*%
X58000000Y-94000000D03*
%TO.N,Net-(D43-Pad2)*%
X58000000Y-112000000D03*
%TO.N,Net-(D44-Pad2)*%
X58000000Y-130000000D03*
%TO.N,Net-(D50-Pad2)*%
X39000000Y-58000000D03*
%TO.N,Net-(D51-Pad2)*%
X39000000Y-76000000D03*
%TO.N,Net-(D52-Pad2)*%
X39000000Y-94000000D03*
%TO.N,Net-(D53-Pad2)*%
X39000000Y-112000000D03*
%TO.N,Net-(D54-Pad2)*%
X39000000Y-130000000D03*
%TO.N,Net-(SW1-Pad5)*%
X118000000Y-66400000D03*
X131000000Y-70200000D03*
%TO.N,Net-(SW2-Pad3)*%
X137000000Y-84400000D03*
X137000000Y-82800000D03*
X36000000Y-70200000D03*
%TO.N,Net-(SW3-Pad3)*%
X36000000Y-88200000D03*
X137000000Y-100800000D03*
X137000000Y-102400000D03*
%TO.N,Net-(SW4-Pad3)*%
X36000000Y-106200000D03*
X128600000Y-146200000D03*
%TO.N,Net-(SW11-Pad5)*%
X99000000Y-66400000D03*
X112000000Y-70200000D03*
%TO.N,Net-(SW12-Pad5)*%
X99000000Y-84400000D03*
X111997488Y-88199999D03*
%TO.N,Net-(SW13-Pad5)*%
X112000000Y-106200000D03*
X99000000Y-102400000D03*
%TO.N,Net-(SW14-Pad5)*%
X116200000Y-136200000D03*
X99000000Y-120400000D03*
%TO.N,Net-(SW20-Pad5)*%
X80000000Y-48400000D03*
X93000000Y-52200000D03*
%TO.N,Net-(SW22-Pad5)*%
X80000000Y-84400000D03*
X93000000Y-88200000D03*
%TO.N,Net-(SW23-Pad5)*%
X80000000Y-102400000D03*
X93000000Y-106200000D03*
%TO.N,Net-(SW24-Pad5)*%
X80000000Y-120400000D03*
X93000000Y-124200000D03*
%TO.N,Net-(SW30-Pad5)*%
X61000000Y-48400000D03*
X74000000Y-52200000D03*
%TO.N,Net-(SW32-Pad5)*%
X74000000Y-88200000D03*
X61000000Y-84400000D03*
%TO.N,Net-(SW33-Pad5)*%
X61000000Y-102400000D03*
X74000000Y-106200000D03*
%TO.N,Net-(SW34-Pad5)*%
X61000000Y-120400000D03*
X74000000Y-124200000D03*
%TO.N,Net-(SW42-Pad5)*%
X42000000Y-84400000D03*
X55000000Y-88200000D03*
%TO.N,Net-(SW43-Pad5)*%
X42000000Y-102400000D03*
X55000000Y-106200000D03*
%TO.N,Net-(SW44-Pad5)*%
X55000000Y-124200000D03*
X42000000Y-120400000D03*
%TD*%
D23*
%TO.N,GND*%
X156540000Y-81860000D02*
X161600000Y-76800000D01*
X156540000Y-92000000D02*
X156540000Y-81860000D01*
%TO.N,JS_S*%
X149600000Y-62400000D02*
X149600000Y-54800000D01*
%TO.N,JS_Y*%
X148800000Y-54000000D02*
X148800000Y-61600000D01*
%TO.N,JS_X*%
X148000000Y-62400000D02*
X148000000Y-54800000D01*
%TO.N,3V3*%
X147200000Y-54000000D02*
X147200000Y-61600000D01*
%TO.N,GND*%
X145000000Y-53949114D02*
X145000000Y-56400000D01*
X146449011Y-50373511D02*
X146449011Y-52500103D01*
X143000000Y-58400000D02*
X143000000Y-65600000D01*
X146324500Y-50249000D02*
X146449011Y-50373511D01*
X146449011Y-52500103D02*
X145000000Y-53949114D01*
X145000000Y-56400000D02*
X143000000Y-58400000D01*
X146324500Y-47600000D02*
X146324500Y-50249000D01*
%TO.N,ROW 0*%
X155920000Y-51370000D02*
X157259189Y-52709189D01*
X157259189Y-54407393D02*
X158501316Y-55649520D01*
X166880480Y-55649520D02*
X168620000Y-53910000D01*
X157259189Y-52709189D02*
X157259189Y-54407393D01*
X158501316Y-55649520D02*
X166880480Y-55649520D01*
%TO.N,ROW 1*%
X158460000Y-51370000D02*
X159660811Y-52570811D01*
X159660811Y-54269015D02*
X160591796Y-55200000D01*
X164790000Y-55200000D02*
X166080000Y-53910000D01*
X159660811Y-52570811D02*
X159660811Y-54269015D01*
X160591796Y-55200000D02*
X164790000Y-55200000D01*
%TO.N,ROW 2*%
X161000000Y-51370000D02*
X159799189Y-50169189D01*
X159799189Y-50169189D02*
X152169189Y-50169189D01*
X139090000Y-33690000D02*
X134000000Y-33690000D01*
X141800000Y-36400000D02*
X139090000Y-33690000D01*
X152169189Y-50169189D02*
X141800000Y-39800000D01*
X141800000Y-39800000D02*
X141800000Y-36400000D01*
X161000000Y-51370000D02*
X163540000Y-53910000D01*
%TO.N,ROW 3*%
X159799189Y-47629189D02*
X163540000Y-51370000D01*
X150264907Y-47629189D02*
X159799189Y-47629189D01*
X142249520Y-39613802D02*
X150264907Y-47629189D01*
X137890000Y-31690000D02*
X142249520Y-36049520D01*
X131000000Y-31690000D02*
X137890000Y-31690000D01*
X142249520Y-36049520D02*
X142249520Y-39613802D01*
%TO.N,Net-(D31-Pad2)*%
X71797154Y-43310000D02*
X67000000Y-48107154D01*
X67148209Y-76746997D02*
X68723209Y-76746997D01*
X66998209Y-48104151D02*
X66998209Y-61357440D01*
X66996289Y-76595077D02*
X67148209Y-76746997D01*
X66996289Y-61359360D02*
X66996289Y-76595077D01*
X77000000Y-76000000D02*
X74375479Y-78624521D01*
X80000000Y-43310000D02*
X71797154Y-43310000D01*
X70599521Y-78624521D02*
X68725000Y-76750000D01*
X74375479Y-78624521D02*
X70599521Y-78624521D01*
X66998209Y-61357440D02*
X66996289Y-61359360D01*
%TO.N,Net-(D34-Pad2)*%
X65797729Y-130746997D02*
X65647729Y-130596997D01*
X65647729Y-56947477D02*
X65647729Y-56347477D01*
X71000000Y-39000000D02*
X71000000Y-37310000D01*
X65647729Y-56947477D02*
X65647729Y-47547477D01*
X68723209Y-130746997D02*
X65797729Y-130746997D01*
X71000000Y-42200000D02*
X71000000Y-39000000D01*
X65647729Y-130596997D02*
X65647729Y-56947477D01*
X74375479Y-132624521D02*
X70599521Y-132624521D01*
X70599521Y-132624521D02*
X68725000Y-130750000D01*
X77000000Y-130000000D02*
X74375479Y-132624521D01*
X65649520Y-47550480D02*
X71000000Y-42200000D01*
%TO.N,Net-(D22-Pad2)*%
X85548560Y-47922876D02*
X85548560Y-94600000D01*
X96000000Y-41310000D02*
X92161436Y-41310000D01*
X92161436Y-41310000D02*
X85548560Y-47922876D01*
X89599521Y-96624521D02*
X87725000Y-94750000D01*
X85548560Y-94600000D02*
X85698560Y-94750000D01*
X85698560Y-94750000D02*
X87725000Y-94750000D01*
X93375479Y-96624521D02*
X89599521Y-96624521D01*
X96000000Y-94000000D02*
X93375479Y-96624521D01*
%TO.N,Net-(D24-Pad2)*%
X89599521Y-132624521D02*
X87725000Y-130750000D01*
X90000000Y-42200000D02*
X90000000Y-39000000D01*
X84799520Y-130750000D02*
X84649520Y-130600000D01*
X84649520Y-47550480D02*
X90000000Y-42200000D01*
X93375479Y-132624521D02*
X89599521Y-132624521D01*
X84649520Y-130600000D02*
X84649520Y-56950480D01*
X84649520Y-56950480D02*
X84649520Y-56350480D01*
X84649520Y-56950480D02*
X84649520Y-47550480D01*
X90000000Y-39000000D02*
X90000000Y-37310000D01*
X87725000Y-130750000D02*
X84799520Y-130750000D01*
X96000000Y-130000000D02*
X93375479Y-132624521D01*
%TO.N,COL 0*%
X140450000Y-114950000D02*
X141200000Y-114200000D01*
X137275000Y-78950000D02*
X141150000Y-78950000D01*
X140450000Y-114950000D02*
X137275000Y-114950000D01*
X137050000Y-78950000D02*
X137275000Y-78950000D01*
X134000000Y-64000000D02*
X137050000Y-60950000D01*
X130400000Y-141400000D02*
X130400000Y-121600000D01*
X141150000Y-78950000D02*
X141200000Y-79000000D01*
X166080000Y-31050000D02*
X168620000Y-33590000D01*
X140200000Y-151200000D02*
X133700000Y-144700000D01*
X166000000Y-67000000D02*
X175400000Y-57600000D01*
X146400000Y-101600000D02*
X147800000Y-100200000D01*
X147800000Y-84200000D02*
X165000000Y-67000000D01*
X130400000Y-121600000D02*
X134000000Y-118000000D01*
X133700000Y-144700000D02*
X130400000Y-141400000D01*
X141150000Y-96950000D02*
X141200000Y-97000000D01*
X141200000Y-97000000D02*
X141200000Y-114200000D01*
X171600000Y-34800000D02*
X169830000Y-34800000D01*
X137275000Y-60950000D02*
X141150000Y-60950000D01*
X137723060Y-154891511D02*
X140200000Y-152414571D01*
X175400000Y-57600000D02*
X175400000Y-38600000D01*
X137723060Y-154891511D02*
X137708489Y-154891511D01*
X137275000Y-96950000D02*
X141150000Y-96950000D01*
X165000000Y-67000000D02*
X166000000Y-67000000D01*
X137050000Y-96950000D02*
X137275000Y-96950000D01*
X141200000Y-61000000D02*
X141200000Y-79000000D01*
X169830000Y-34800000D02*
X168620000Y-33590000D01*
X134000000Y-100000000D02*
X137050000Y-96950000D01*
X137050000Y-114950000D02*
X137275000Y-114950000D01*
X134000000Y-118000000D02*
X137050000Y-114950000D01*
X155920000Y-31050000D02*
X166080000Y-31050000D01*
X137600000Y-155000000D02*
X137600000Y-159400000D01*
X146400000Y-132000000D02*
X146400000Y-101600000D01*
X133700000Y-144700000D02*
X146400000Y-132000000D01*
X134000000Y-82000000D02*
X137050000Y-78950000D01*
X137050000Y-60950000D02*
X137275000Y-60950000D01*
X175400000Y-38600000D02*
X171600000Y-34800000D01*
X147800000Y-100200000D02*
X147800000Y-84200000D01*
X137708489Y-154891511D02*
X137600000Y-155000000D01*
X141200000Y-79000000D02*
X141200000Y-97000000D01*
X140200000Y-152414571D02*
X140200000Y-151200000D01*
X141150000Y-60950000D02*
X141200000Y-61000000D01*
%TO.N,COL 5*%
X46200000Y-97000000D02*
X46200000Y-115000000D01*
X42275000Y-114950000D02*
X46150000Y-114950000D01*
X46150000Y-78950000D02*
X46200000Y-79000000D01*
X55724511Y-64724511D02*
X60275489Y-64724511D01*
X39000000Y-64000000D02*
X42050000Y-60950000D01*
X42050000Y-96950000D02*
X42275000Y-96950000D01*
X42275000Y-132950000D02*
X46150000Y-132950000D01*
X171843291Y-47629189D02*
X172400000Y-48185898D01*
X42275000Y-60950000D02*
X46150000Y-60950000D01*
X168620000Y-46290000D02*
X169959189Y-47629189D01*
X55000000Y-64000000D02*
X55724511Y-64724511D01*
X79275489Y-64724511D02*
X80000000Y-64000000D01*
X46200000Y-115000000D02*
X46200000Y-133000000D01*
X98275489Y-64724511D02*
X99000000Y-64000000D01*
X42275000Y-78950000D02*
X46150000Y-78950000D01*
X42050000Y-60950000D02*
X42275000Y-60950000D01*
X131724511Y-64724511D02*
X135675489Y-64724511D01*
X46200000Y-133000000D02*
X46200000Y-134200000D01*
X60275489Y-64724511D02*
X61000000Y-64000000D01*
X172400000Y-55600000D02*
X164600000Y-63400000D01*
X112000000Y-64000000D02*
X112724511Y-64724511D01*
X164600000Y-63400000D02*
X144800000Y-63400000D01*
X155920000Y-43750000D02*
X166080000Y-43750000D01*
X131000000Y-64000000D02*
X131724511Y-64724511D01*
X112724511Y-64724511D02*
X117275489Y-64724511D01*
X172400000Y-48185898D02*
X172400000Y-55600000D01*
X74000000Y-64000000D02*
X74724511Y-64724511D01*
X42275000Y-96950000D02*
X46150000Y-96950000D01*
X93000000Y-64000000D02*
X93724511Y-64724511D01*
X117275489Y-64724511D02*
X118000000Y-64000000D01*
X42050000Y-78950000D02*
X42275000Y-78950000D01*
X42050000Y-114950000D02*
X42275000Y-114950000D01*
X46150000Y-132950000D02*
X46200000Y-133000000D01*
X39000000Y-118000000D02*
X42050000Y-114950000D01*
X135675489Y-64724511D02*
X137000000Y-63400000D01*
X39000000Y-100000000D02*
X42050000Y-96950000D01*
X166080000Y-43750000D02*
X168620000Y-46290000D01*
X46200000Y-79000000D02*
X46200000Y-97000000D01*
X169959189Y-47629189D02*
X171843291Y-47629189D01*
X74724511Y-64724511D02*
X79275489Y-64724511D01*
X46150000Y-60950000D02*
X46200000Y-61000000D01*
X39000000Y-136000000D02*
X42050000Y-132950000D01*
X42050000Y-132950000D02*
X42275000Y-132950000D01*
X39000000Y-82000000D02*
X42050000Y-78950000D01*
X46150000Y-96950000D02*
X46200000Y-97000000D01*
X46150000Y-114950000D02*
X46200000Y-115000000D01*
X46200000Y-61000000D02*
X46200000Y-79000000D01*
X93724511Y-64724511D02*
X98275489Y-64724511D01*
%TO.N,COL 4*%
X61275000Y-132950000D02*
X65150000Y-132950000D01*
X155920000Y-41210000D02*
X166080000Y-41210000D01*
X65200000Y-97000000D02*
X65200000Y-115000000D01*
X61275000Y-114950000D02*
X65150000Y-114950000D01*
X173000000Y-56000000D02*
X165000000Y-64000000D01*
X112000000Y-82000000D02*
X112724511Y-82724511D01*
X79275489Y-82724511D02*
X80000000Y-82000000D01*
X117275489Y-82724511D02*
X118000000Y-82000000D01*
X65200000Y-115000000D02*
X65200000Y-133000000D01*
X74000000Y-82000000D02*
X74724511Y-82724511D01*
X169870000Y-45000000D02*
X171600000Y-45000000D01*
X135675489Y-82724511D02*
X137000000Y-81400000D01*
X93000000Y-82000000D02*
X93724511Y-82724511D01*
X171600000Y-45000000D02*
X173000000Y-46400000D01*
X98275489Y-82724511D02*
X99000000Y-82000000D01*
X61275000Y-60950000D02*
X65150000Y-60950000D01*
X112724511Y-82724511D02*
X117275489Y-82724511D01*
X61275000Y-78950000D02*
X65150000Y-78950000D01*
X65150000Y-96950000D02*
X65200000Y-97000000D01*
X61275000Y-96950000D02*
X65150000Y-96950000D01*
X65200000Y-133000000D02*
X65200000Y-134200000D01*
X173000000Y-46400000D02*
X173000000Y-56000000D01*
X93724511Y-82724511D02*
X98275489Y-82724511D01*
X58000000Y-64000000D02*
X61050000Y-60950000D01*
X74724511Y-82724511D02*
X79275489Y-82724511D01*
X61050000Y-114950000D02*
X61275000Y-114950000D01*
X65150000Y-60950000D02*
X65200000Y-61000000D01*
X65200000Y-79000000D02*
X65200000Y-97000000D01*
X168620000Y-43750000D02*
X169870000Y-45000000D01*
X61050000Y-60950000D02*
X61275000Y-60950000D01*
X61050000Y-78950000D02*
X61275000Y-78950000D01*
X162200000Y-64000000D02*
X144800000Y-81400000D01*
X165000000Y-64000000D02*
X162200000Y-64000000D01*
X131724511Y-82724511D02*
X135675489Y-82724511D01*
X58000000Y-100000000D02*
X61050000Y-96950000D01*
X58000000Y-136000000D02*
X61050000Y-132950000D01*
X65150000Y-78950000D02*
X65200000Y-79000000D01*
X58000000Y-118000000D02*
X61050000Y-114950000D01*
X131000000Y-82000000D02*
X131724511Y-82724511D01*
X58000000Y-82000000D02*
X61050000Y-78950000D01*
X65200000Y-61000000D02*
X65200000Y-79000000D01*
X166080000Y-41210000D02*
X168620000Y-43750000D01*
X61050000Y-132950000D02*
X61275000Y-132950000D01*
X61050000Y-96950000D02*
X61275000Y-96950000D01*
X65150000Y-114950000D02*
X65200000Y-115000000D01*
X65150000Y-132950000D02*
X65200000Y-133000000D01*
%TO.N,COL 3*%
X84200000Y-61000000D02*
X84200000Y-79000000D01*
X166080000Y-38670000D02*
X168620000Y-41210000D01*
X171749189Y-42549189D02*
X169959189Y-42549189D01*
X135675489Y-100724511D02*
X137000000Y-99400000D01*
X80275000Y-60950000D02*
X84150000Y-60950000D01*
X80050000Y-78950000D02*
X80275000Y-78950000D01*
X80275000Y-132950000D02*
X84150000Y-132950000D01*
X80275000Y-78950000D02*
X84150000Y-78950000D01*
X173600000Y-56400000D02*
X173600000Y-44400000D01*
X84200000Y-97000000D02*
X84200000Y-115000000D01*
X144800000Y-82600000D02*
X162600000Y-64800000D01*
X80050000Y-60950000D02*
X80275000Y-60950000D01*
X155920000Y-38670000D02*
X166080000Y-38670000D01*
X84150000Y-60950000D02*
X84200000Y-61000000D01*
X112000000Y-100000000D02*
X112724511Y-100724511D01*
X84200000Y-79000000D02*
X84200000Y-97000000D01*
X80050000Y-114950000D02*
X80275000Y-114950000D01*
X93000000Y-100000000D02*
X93724511Y-100724511D01*
X169959189Y-42549189D02*
X168620000Y-41210000D01*
X98275489Y-100724511D02*
X99000000Y-100000000D01*
X165200000Y-64800000D02*
X173600000Y-56400000D01*
X77000000Y-118000000D02*
X80050000Y-114950000D01*
X131000000Y-100000000D02*
X131724511Y-100724511D01*
X80275000Y-96950000D02*
X84150000Y-96950000D01*
X80050000Y-96950000D02*
X80275000Y-96950000D01*
X84200000Y-133000000D02*
X84200000Y-134000000D01*
X112724511Y-100724511D02*
X117275489Y-100724511D01*
X162600000Y-64800000D02*
X165200000Y-64800000D01*
X144800000Y-99400000D02*
X144800000Y-82600000D01*
X131000000Y-100000000D02*
X131724511Y-100724511D01*
X77000000Y-64000000D02*
X80050000Y-60950000D01*
X84150000Y-78950000D02*
X84200000Y-79000000D01*
X77000000Y-136000000D02*
X80050000Y-132950000D01*
X84150000Y-96950000D02*
X84200000Y-97000000D01*
X84150000Y-132950000D02*
X84200000Y-133000000D01*
X80275000Y-114950000D02*
X84150000Y-114950000D01*
X80050000Y-132950000D02*
X80275000Y-132950000D01*
X84200000Y-115000000D02*
X84200000Y-133000000D01*
X84150000Y-114950000D02*
X84200000Y-115000000D01*
X93724511Y-100724511D02*
X98275489Y-100724511D01*
X173600000Y-44400000D02*
X171749189Y-42549189D01*
X77000000Y-82000000D02*
X80050000Y-78950000D01*
X117275489Y-100724511D02*
X118000000Y-100000000D01*
X77000000Y-100000000D02*
X80050000Y-96950000D01*
X131724511Y-100724511D02*
X135675489Y-100724511D01*
%TO.N,COL 1*%
X122200000Y-97000000D02*
X122200000Y-115000000D01*
X118275000Y-60950000D02*
X122150000Y-60950000D01*
X122150000Y-60950000D02*
X122200000Y-61000000D01*
X169890000Y-37400000D02*
X168620000Y-36130000D01*
X118050000Y-60950000D02*
X118275000Y-60950000D01*
X118275000Y-114950000D02*
X122150000Y-114950000D01*
X122200000Y-127200000D02*
X122200000Y-119400000D01*
X164200000Y-66200000D02*
X165800000Y-66200000D01*
X115000000Y-82000000D02*
X118050000Y-78950000D01*
X174800000Y-40505898D02*
X171694102Y-37400000D01*
X145600000Y-101200000D02*
X147000000Y-99800000D01*
X118275000Y-96950000D02*
X122150000Y-96950000D01*
X118050000Y-114950000D02*
X118275000Y-114950000D01*
X147000000Y-83400000D02*
X164200000Y-66200000D01*
X121600000Y-118800000D02*
X121000000Y-118800000D01*
X122200000Y-119400000D02*
X121600000Y-118800000D01*
X118050000Y-96950000D02*
X118275000Y-96950000D01*
X126723060Y-137891511D02*
X129200000Y-135414571D01*
X166080000Y-33590000D02*
X168620000Y-36130000D01*
X126723060Y-137891511D02*
X126708489Y-137891511D01*
X122200000Y-119400000D02*
X122200000Y-115000000D01*
X118275000Y-78950000D02*
X122150000Y-78950000D01*
X126600000Y-138000000D02*
X126600000Y-142400000D01*
X126708489Y-137891511D02*
X126600000Y-138000000D01*
X122200000Y-79000000D02*
X122200000Y-97000000D01*
X155920000Y-33590000D02*
X166080000Y-33590000D01*
X129200000Y-135414571D02*
X129200000Y-134200000D01*
X122150000Y-78950000D02*
X122200000Y-79000000D01*
X147000000Y-99800000D02*
X147000000Y-83400000D01*
X129200000Y-134200000D02*
X122200000Y-127200000D01*
X122150000Y-96950000D02*
X122200000Y-97000000D01*
X174800000Y-57200000D02*
X174800000Y-40505898D01*
X115000000Y-118000000D02*
X118050000Y-114950000D01*
X115000000Y-64000000D02*
X118050000Y-60950000D01*
X145600000Y-118200000D02*
X145600000Y-101200000D01*
X115000000Y-100000000D02*
X118050000Y-96950000D01*
X118050000Y-78950000D02*
X118275000Y-78950000D01*
X122150000Y-114950000D02*
X122200000Y-115000000D01*
X122200000Y-61000000D02*
X122200000Y-79000000D01*
X171694102Y-37400000D02*
X169890000Y-37400000D01*
X165800000Y-66200000D02*
X174800000Y-57200000D01*
%TO.N,COL 2*%
X99275000Y-60950000D02*
X103150000Y-60950000D01*
X103200000Y-79000000D02*
X103200000Y-97000000D01*
X146200000Y-99400000D02*
X146200000Y-82600000D01*
X99050000Y-96950000D02*
X99275000Y-96950000D01*
X96000000Y-100000000D02*
X99050000Y-96950000D01*
X96000000Y-118000000D02*
X99050000Y-114950000D01*
X103200000Y-133000000D02*
X103200000Y-134200000D01*
X103200000Y-97000000D02*
X103200000Y-115000000D01*
X99275000Y-132950000D02*
X103150000Y-132950000D01*
X174200000Y-56800000D02*
X174200000Y-42475898D01*
X103150000Y-114950000D02*
X103200000Y-115000000D01*
X99050000Y-78950000D02*
X99275000Y-78950000D01*
X99050000Y-132950000D02*
X99275000Y-132950000D01*
X117275489Y-118724511D02*
X118000000Y-118000000D01*
X169950000Y-40000000D02*
X168620000Y-38670000D01*
X99275000Y-96950000D02*
X103150000Y-96950000D01*
X103150000Y-60950000D02*
X103200000Y-61000000D01*
X171724102Y-40000000D02*
X169950000Y-40000000D01*
X103200000Y-115000000D02*
X103200000Y-133000000D01*
X112724511Y-118724511D02*
X117275489Y-118724511D01*
X155920000Y-36130000D02*
X166080000Y-36130000D01*
X96000000Y-64000000D02*
X99050000Y-60950000D01*
X96000000Y-136000000D02*
X99050000Y-132950000D01*
X99275000Y-114950000D02*
X103150000Y-114950000D01*
X165600000Y-65400000D02*
X174200000Y-56800000D01*
X163400000Y-65400000D02*
X165600000Y-65400000D01*
X103150000Y-78950000D02*
X103200000Y-79000000D01*
X112000000Y-118000000D02*
X112724511Y-118724511D01*
X144800000Y-117400000D02*
X144800000Y-100800000D01*
X144800000Y-100800000D02*
X146200000Y-99400000D01*
X103200000Y-61000000D02*
X103200000Y-79000000D01*
X99275000Y-78950000D02*
X103150000Y-78950000D01*
X146200000Y-82600000D02*
X163400000Y-65400000D01*
X99050000Y-60950000D02*
X99275000Y-60950000D01*
X96000000Y-82000000D02*
X99050000Y-78950000D01*
X99050000Y-114950000D02*
X99275000Y-114950000D01*
X103150000Y-132950000D02*
X103200000Y-133000000D01*
X174200000Y-42475898D02*
X171724102Y-40000000D01*
X103150000Y-96950000D02*
X103200000Y-97000000D01*
X166080000Y-36130000D02*
X168620000Y-38670000D01*
%TO.N,Net-(D1-Pad2)*%
X128797154Y-43310000D02*
X123998080Y-48109074D01*
X124150000Y-76750000D02*
X125725000Y-76750000D01*
X134000000Y-76000000D02*
X131375479Y-78624521D01*
X127599521Y-78624521D02*
X125725000Y-76750000D01*
X131375479Y-78624521D02*
X127599521Y-78624521D01*
X123998080Y-48109074D02*
X123998080Y-76598080D01*
X123998080Y-76598080D02*
X124150000Y-76750000D01*
X137000000Y-43310000D02*
X128797154Y-43310000D01*
%TO.N,I2C SDA*%
X153380000Y-51370000D02*
X151600000Y-53150000D01*
X151600000Y-53150000D02*
X151600000Y-58400000D01*
X166800000Y-73800000D02*
X166800000Y-76800000D01*
X166800000Y-70600000D02*
X167800000Y-71600000D01*
X164800000Y-69400000D02*
X166000000Y-70600000D01*
X167800000Y-71600000D02*
X167800000Y-72800000D01*
X151600000Y-59600000D02*
X154000000Y-62000000D01*
X167800000Y-72800000D02*
X166800000Y-73800000D01*
X151600000Y-58400000D02*
X151600000Y-59600000D01*
X166000000Y-70600000D02*
X166800000Y-70600000D01*
%TO.N,I2C SCL*%
X153380000Y-53910000D02*
X155569040Y-56099040D01*
X156000000Y-58200000D02*
X156000000Y-62000000D01*
X165400000Y-68400000D02*
X170800000Y-73800000D01*
X155569040Y-56099040D02*
X158100960Y-56099040D01*
X171160000Y-53240000D02*
X171160000Y-51370000D01*
X168300960Y-56099040D02*
X171160000Y-53240000D01*
X158100960Y-56099040D02*
X168300960Y-56099040D01*
X170800000Y-73800000D02*
X170800000Y-76800000D01*
X158100960Y-56099040D02*
X156000000Y-58200000D01*
%TO.N,LED*%
X155920000Y-46290000D02*
X166080000Y-46290000D01*
X41550000Y-123136804D02*
X41550000Y-123060000D01*
X166080000Y-46290000D02*
X168620000Y-48830000D01*
X36000000Y-124200000D02*
X40486804Y-124200000D01*
X40486804Y-124200000D02*
X41550000Y-123136804D01*
%TO.N,GND*%
X138450000Y-85450000D02*
X136660000Y-85450000D01*
X62450000Y-121450000D02*
X60660000Y-121450000D01*
X112000000Y-102400000D02*
X116666804Y-102400000D01*
X143000000Y-131200000D02*
X143000000Y-101600000D01*
X40666804Y-102400000D02*
X41550000Y-103283196D01*
X36000000Y-102400000D02*
X40666804Y-102400000D01*
X81450000Y-49450000D02*
X79660000Y-49450000D01*
X60550000Y-49283196D02*
X60550000Y-49560000D01*
X41660000Y-103450000D02*
X41550000Y-103560000D01*
X60660000Y-49450000D02*
X60550000Y-49560000D01*
X55000000Y-84400000D02*
X59666804Y-84400000D01*
X79550000Y-49283196D02*
X79550000Y-49560000D01*
X79660000Y-103450000D02*
X79550000Y-103560000D01*
X117660000Y-49450000D02*
X117550000Y-49560000D01*
X81450000Y-67450000D02*
X79660000Y-67450000D01*
X78666804Y-120400000D02*
X79550000Y-121283196D01*
X131000000Y-84400000D02*
X135666804Y-84400000D01*
X79660000Y-85450000D02*
X79550000Y-85560000D01*
X124400000Y-150400000D02*
X127504092Y-147295908D01*
X79550000Y-103283196D02*
X79550000Y-103560000D01*
X97666804Y-120400000D02*
X98550000Y-121283196D01*
X41550000Y-49283196D02*
X41550000Y-49560000D01*
X79550000Y-67283196D02*
X79550000Y-67560000D01*
X98660000Y-85450000D02*
X98550000Y-85560000D01*
X116664292Y-84399999D02*
X117547488Y-85283195D01*
X116666804Y-48400000D02*
X117550000Y-49283196D01*
X60550000Y-121283196D02*
X60550000Y-121560000D01*
X81450000Y-103450000D02*
X79660000Y-103450000D01*
X79660000Y-121450000D02*
X79550000Y-121560000D01*
X41660000Y-121450000D02*
X41550000Y-121560000D01*
X131000000Y-48400000D02*
X135666804Y-48400000D01*
X74000000Y-84400000D02*
X78666804Y-84400000D01*
X130422183Y-146084495D02*
X129156461Y-147350217D01*
X60660000Y-103450000D02*
X60550000Y-103560000D01*
X98660000Y-49450000D02*
X98550000Y-49560000D01*
X97666804Y-66400000D02*
X98550000Y-67283196D01*
X59666804Y-102400000D02*
X60550000Y-103283196D01*
X40666804Y-66400000D02*
X41550000Y-67283196D01*
X117550000Y-103283196D02*
X117550000Y-103560000D01*
X136550000Y-103283196D02*
X136550000Y-103560000D01*
X113400000Y-133400000D02*
X116504092Y-130295908D01*
X62450000Y-67450000D02*
X60660000Y-67450000D01*
X79550000Y-121283196D02*
X79550000Y-121560000D01*
X136550000Y-49283196D02*
X136550000Y-49560000D01*
X116666804Y-66400000D02*
X117550000Y-67283196D01*
X36000000Y-66400000D02*
X40666804Y-66400000D01*
X43450000Y-85450000D02*
X41660000Y-85450000D01*
X62450000Y-103450000D02*
X60660000Y-103450000D01*
X117660000Y-67450000D02*
X117550000Y-67560000D01*
X111997488Y-84399999D02*
X116664292Y-84399999D01*
X136550000Y-67283196D02*
X136550000Y-67560000D01*
X136660000Y-49450000D02*
X136550000Y-49560000D01*
X60550000Y-85283196D02*
X60550000Y-85560000D01*
X59666804Y-48400000D02*
X60550000Y-49283196D01*
X78666804Y-102400000D02*
X79550000Y-103283196D01*
X60660000Y-67450000D02*
X60550000Y-67560000D01*
X93000000Y-102400000D02*
X97666804Y-102400000D01*
X117547488Y-85283195D02*
X117547488Y-85559999D01*
X133000000Y-141200000D02*
X143000000Y-131200000D01*
X62450000Y-85450000D02*
X60660000Y-85450000D01*
X41550000Y-67283196D02*
X41550000Y-67560000D01*
X81450000Y-121450000D02*
X79660000Y-121450000D01*
X119447488Y-85449999D02*
X117657488Y-85449999D01*
X97666804Y-102400000D02*
X98550000Y-103283196D01*
X43450000Y-121450000D02*
X41660000Y-121450000D01*
X78666804Y-84400000D02*
X79550000Y-85283196D01*
X59666804Y-66400000D02*
X60550000Y-67283196D01*
X98550000Y-85283196D02*
X98550000Y-85560000D01*
X79660000Y-67450000D02*
X79550000Y-67560000D01*
X143000000Y-101600000D02*
X143000000Y-83600000D01*
X55000000Y-66400000D02*
X59666804Y-66400000D01*
X59666804Y-120400000D02*
X60550000Y-121283196D01*
X93000000Y-66400000D02*
X97666804Y-66400000D01*
X78666804Y-48400000D02*
X79550000Y-49283196D01*
X98550000Y-103283196D02*
X98550000Y-103560000D01*
X98550000Y-121283196D02*
X98550000Y-121560000D01*
X97666804Y-48400000D02*
X98550000Y-49283196D01*
X55000000Y-48400000D02*
X59666804Y-48400000D01*
X119450000Y-103450000D02*
X117660000Y-103450000D01*
X131000000Y-66400000D02*
X135666804Y-66400000D01*
X136660000Y-85450000D02*
X136550000Y-85560000D01*
X135666804Y-84400000D02*
X136550000Y-85283196D01*
X41550000Y-121283196D02*
X41550000Y-121560000D01*
X93000000Y-120400000D02*
X97666804Y-120400000D01*
X118102152Y-130295908D02*
X118156461Y-130350217D01*
X60550000Y-103283196D02*
X60550000Y-103560000D01*
X41550000Y-103283196D02*
X41550000Y-103560000D01*
X98660000Y-103450000D02*
X98550000Y-103560000D01*
X112000000Y-66400000D02*
X116666804Y-66400000D01*
X62450000Y-49450000D02*
X60660000Y-49450000D01*
X93000000Y-84400000D02*
X97666804Y-84400000D01*
X119422183Y-129084495D02*
X118156461Y-130350217D01*
X116504092Y-130295908D02*
X118102152Y-130295908D01*
X100450000Y-121450000D02*
X98660000Y-121450000D01*
X93000000Y-48400000D02*
X97666804Y-48400000D01*
X41550000Y-85283196D02*
X41550000Y-85560000D01*
X55000000Y-120400000D02*
X59666804Y-120400000D01*
X59666804Y-84400000D02*
X60550000Y-85283196D01*
X74000000Y-66400000D02*
X78666804Y-66400000D01*
X131000000Y-102400000D02*
X135666804Y-102400000D01*
X117660000Y-103450000D02*
X117550000Y-103560000D01*
X119450000Y-49450000D02*
X117660000Y-49450000D01*
X146324500Y-47600000D02*
X143000000Y-47600000D01*
X36000000Y-120400000D02*
X40666804Y-120400000D01*
X119422183Y-128928932D02*
X119422183Y-129084495D01*
X135666804Y-102400000D02*
X136550000Y-103283196D01*
X98660000Y-67450000D02*
X98550000Y-67560000D01*
X130422183Y-145928932D02*
X130422183Y-146084495D01*
X136660000Y-67450000D02*
X136550000Y-67560000D01*
X74000000Y-48400000D02*
X78666804Y-48400000D01*
X55000000Y-102400000D02*
X59666804Y-102400000D01*
X98550000Y-49283196D02*
X98550000Y-49560000D01*
X60660000Y-85450000D02*
X60550000Y-85560000D01*
X41660000Y-85450000D02*
X41550000Y-85560000D01*
X138450000Y-49450000D02*
X136660000Y-49450000D01*
X98550000Y-67283196D02*
X98550000Y-67560000D01*
X40666804Y-120400000D02*
X41550000Y-121283196D01*
X74000000Y-102400000D02*
X78666804Y-102400000D01*
X36000000Y-84400000D02*
X40666804Y-84400000D01*
X79550000Y-85283196D02*
X79550000Y-85560000D01*
X100450000Y-67450000D02*
X98660000Y-67450000D01*
X43450000Y-49450000D02*
X41660000Y-49450000D01*
X117657488Y-85449999D02*
X117547488Y-85559999D01*
X119450000Y-67450000D02*
X117660000Y-67450000D01*
X117550000Y-49283196D02*
X117550000Y-49560000D01*
X135666804Y-66400000D02*
X136550000Y-67283196D01*
X78666804Y-66400000D02*
X79550000Y-67283196D01*
X60550000Y-67283196D02*
X60550000Y-67560000D01*
X74000000Y-120400000D02*
X78666804Y-120400000D01*
X40666804Y-84400000D02*
X41550000Y-85283196D01*
X136660000Y-103450000D02*
X136550000Y-103560000D01*
X41660000Y-49450000D02*
X41550000Y-49560000D01*
X60660000Y-121450000D02*
X60550000Y-121560000D01*
X143000000Y-83600000D02*
X143000000Y-65600000D01*
X127504092Y-147295908D02*
X129102152Y-147295908D01*
X98660000Y-121450000D02*
X98550000Y-121560000D01*
X40666804Y-48400000D02*
X41550000Y-49283196D01*
X100450000Y-85450000D02*
X98660000Y-85450000D01*
X79660000Y-49450000D02*
X79550000Y-49560000D01*
X41660000Y-67450000D02*
X41550000Y-67560000D01*
X116666804Y-102400000D02*
X117550000Y-103283196D01*
X117550000Y-67283196D02*
X117550000Y-67560000D01*
X129102152Y-147295908D02*
X129156461Y-147350217D01*
X81450000Y-85450000D02*
X79660000Y-85450000D01*
X43450000Y-67450000D02*
X41660000Y-67450000D01*
X136550000Y-85283196D02*
X136550000Y-85560000D01*
X135666804Y-48400000D02*
X136550000Y-49283196D01*
X138450000Y-103450000D02*
X136660000Y-103450000D01*
X100450000Y-49450000D02*
X98660000Y-49450000D01*
X100450000Y-103450000D02*
X98660000Y-103450000D01*
X36000000Y-48400000D02*
X40666804Y-48400000D01*
X112000000Y-48400000D02*
X116666804Y-48400000D01*
X138450000Y-67450000D02*
X136660000Y-67450000D01*
X43450000Y-103450000D02*
X41660000Y-103450000D01*
X97666804Y-84400000D02*
X98550000Y-85283196D01*
%TO.N,Net-(SW0-Pad5)*%
X112135386Y-49560000D02*
X111275489Y-48700103D01*
X135486804Y-52200000D02*
X136550000Y-51136804D01*
X112450000Y-49560000D02*
X112135386Y-49560000D01*
X111275489Y-48099897D02*
X111699897Y-47675489D01*
X112575094Y-47950480D02*
X117550480Y-47950480D01*
X131000000Y-52200000D02*
X135486804Y-52200000D01*
X117550480Y-47950480D02*
X118000000Y-48400000D01*
X136550000Y-51136804D02*
X136550000Y-51060000D01*
X111275489Y-48700103D02*
X111275489Y-48099897D01*
X112300103Y-47675489D02*
X112575094Y-47950480D01*
X111699897Y-47675489D02*
X112300103Y-47675489D01*
%TO.N,5V*%
X92275489Y-105899897D02*
X92275489Y-106500103D01*
X112115386Y-51060000D02*
X111275489Y-51899897D01*
X55450000Y-87060000D02*
X55115386Y-87060000D01*
X142000000Y-106200000D02*
X142000000Y-88200000D01*
X128200000Y-69000000D02*
X128800000Y-69600000D01*
X41550480Y-52649520D02*
X42000000Y-52200000D01*
X55575094Y-124649520D02*
X60550480Y-124649520D01*
X124200000Y-154200000D02*
X125400000Y-154200000D01*
X72975592Y-123600000D02*
X73275489Y-123899897D01*
X35699897Y-70924511D02*
X36300103Y-70924511D01*
X92699897Y-106924511D02*
X93300103Y-106924511D01*
X73275489Y-124500103D02*
X73699897Y-124924511D01*
X131115386Y-105060000D02*
X130275489Y-105899897D01*
X98550480Y-88649520D02*
X99000000Y-88200000D01*
X111699897Y-70924511D02*
X112300103Y-70924511D01*
X112297591Y-88924510D02*
X112572582Y-88649519D01*
X118000000Y-70200000D02*
X118200000Y-70200000D01*
X55300103Y-106924511D02*
X55575094Y-106649520D01*
X52800000Y-87600000D02*
X53975592Y-87600000D01*
X137200000Y-106200000D02*
X138450000Y-104950000D01*
X54275489Y-88500103D02*
X54699897Y-88924511D01*
X35699897Y-106924511D02*
X36300103Y-106924511D01*
X73699897Y-52924511D02*
X74300103Y-52924511D01*
X99200000Y-124200000D02*
X100450000Y-122950000D01*
X92275489Y-51899897D02*
X92275489Y-52500103D01*
X74115386Y-51060000D02*
X73275489Y-51899897D01*
X61000000Y-70200000D02*
X61200000Y-70200000D01*
X112300103Y-106924511D02*
X112575094Y-106649520D01*
X54275489Y-70500103D02*
X54699897Y-70924511D01*
X80200000Y-106200000D02*
X81450000Y-104950000D01*
X137000000Y-106200000D02*
X137200000Y-106200000D01*
X61200000Y-52200000D02*
X62450000Y-50950000D01*
X127924511Y-153200000D02*
X131400000Y-149724511D01*
X115475489Y-135152510D02*
X115475489Y-136500103D01*
X55450000Y-69060000D02*
X55115386Y-69060000D01*
X112575094Y-106649520D02*
X117550480Y-106649520D01*
X115899897Y-136924511D02*
X116500103Y-136924511D01*
X80000000Y-88200000D02*
X80200000Y-88200000D01*
X36450000Y-87060000D02*
X36115386Y-87060000D01*
X98550480Y-52649520D02*
X99000000Y-52200000D01*
X99200000Y-106200000D02*
X100450000Y-104950000D01*
X128800000Y-87600000D02*
X129975592Y-87600000D01*
X131575094Y-88649520D02*
X136550480Y-88649520D01*
X118000000Y-52200000D02*
X118200000Y-52200000D01*
X36300103Y-88924511D02*
X36575094Y-88649520D01*
X54699897Y-52924511D02*
X55300103Y-52924511D01*
X74300103Y-106924511D02*
X74575094Y-106649520D01*
X71800000Y-123600000D02*
X72975592Y-123600000D01*
X92275489Y-69899897D02*
X92275489Y-70500103D01*
X73275489Y-106500103D02*
X73699897Y-106924511D01*
X61000000Y-124200000D02*
X61200000Y-124200000D01*
X129975592Y-69600000D02*
X130275489Y-69899897D01*
X54275489Y-124500103D02*
X54699897Y-124924511D01*
X131575094Y-70649520D02*
X136550480Y-70649520D01*
X80000000Y-106200000D02*
X80200000Y-106200000D01*
X74300103Y-52924511D02*
X74575094Y-52649520D01*
X79550480Y-124649520D02*
X80000000Y-124200000D01*
X55450000Y-51060000D02*
X55115386Y-51060000D01*
X131400000Y-149000000D02*
X131482843Y-148917157D01*
X74300103Y-88924511D02*
X74575094Y-88649520D01*
X90800000Y-51600000D02*
X91975592Y-51600000D01*
X128200000Y-87000000D02*
X128800000Y-87600000D01*
X109200000Y-105000000D02*
X109800000Y-105600000D01*
X33800000Y-123600000D02*
X34975592Y-123600000D01*
X73275489Y-69899897D02*
X73275489Y-70500103D01*
X93450000Y-51060000D02*
X93115386Y-51060000D01*
X55300103Y-70924511D02*
X55575094Y-70649520D01*
X93115386Y-123060000D02*
X92275489Y-123899897D01*
X109200000Y-69000000D02*
X109800000Y-69600000D01*
X74300103Y-124924511D02*
X74575094Y-124649520D01*
X131115386Y-69060000D02*
X130275489Y-69899897D01*
X33800000Y-51600000D02*
X34975592Y-51600000D01*
X120400000Y-132000000D02*
X120482843Y-131917157D01*
X131482843Y-148917157D02*
X131482843Y-146989592D01*
X61200000Y-88200000D02*
X62450000Y-86950000D01*
X71200000Y-105000000D02*
X71800000Y-105600000D01*
X54275489Y-106500103D02*
X54699897Y-106924511D01*
X54275489Y-105899897D02*
X54275489Y-106500103D01*
X90800000Y-105600000D02*
X91975592Y-105600000D01*
X111275489Y-106500103D02*
X111699897Y-106924511D01*
X127500103Y-153924511D02*
X127924511Y-153500103D01*
X54275489Y-123899897D02*
X54275489Y-124500103D01*
X98550480Y-106649520D02*
X99000000Y-106200000D01*
X61000000Y-88200000D02*
X61200000Y-88200000D01*
X98550480Y-124649520D02*
X99000000Y-124200000D01*
X80000000Y-70200000D02*
X80200000Y-70200000D01*
X91975592Y-105600000D02*
X92275489Y-105899897D01*
X36115386Y-69060000D02*
X35275489Y-69899897D01*
X53975592Y-87600000D02*
X54275489Y-87899897D01*
X117997488Y-88199999D02*
X118197488Y-88199999D01*
X93450000Y-69060000D02*
X93115386Y-69060000D01*
X137000000Y-88200000D02*
X137200000Y-88200000D01*
X93300103Y-52924511D02*
X93575094Y-52649520D01*
X111275489Y-69899897D02*
X111275489Y-70500103D01*
X54275489Y-51899897D02*
X54275489Y-52500103D01*
X36115386Y-105060000D02*
X35275489Y-105899897D01*
X90800000Y-123600000D02*
X91975592Y-123600000D01*
X73275489Y-105899897D02*
X73275489Y-106500103D01*
X61200000Y-124200000D02*
X62450000Y-122950000D01*
X111697385Y-88924510D02*
X112297591Y-88924510D01*
X131400000Y-149724511D02*
X131400000Y-149000000D01*
X131300103Y-52924511D02*
X131575094Y-52649520D01*
X36575094Y-70649520D02*
X41550480Y-70649520D01*
X112112874Y-87059999D02*
X111272977Y-87899896D01*
X109800000Y-69600000D02*
X110975592Y-69600000D01*
X41550480Y-106649520D02*
X42000000Y-106200000D01*
X73275489Y-70500103D02*
X73699897Y-70924511D01*
X111275489Y-70500103D02*
X111699897Y-70924511D01*
X61000000Y-52200000D02*
X61200000Y-52200000D01*
X73275489Y-88500103D02*
X73699897Y-88924511D01*
X117550480Y-106649520D02*
X118000000Y-106200000D01*
X131575094Y-52649520D02*
X136550480Y-52649520D01*
X130699897Y-70924511D02*
X131300103Y-70924511D01*
X35275489Y-51899897D02*
X35275489Y-52500103D01*
X120400000Y-132724511D02*
X120400000Y-132000000D01*
X74575094Y-88649520D02*
X79550480Y-88649520D01*
X74450000Y-105060000D02*
X74115386Y-105060000D01*
X112115386Y-105060000D02*
X111275489Y-105899897D01*
X92275489Y-70500103D02*
X92699897Y-70924511D01*
X130275489Y-87899897D02*
X130275489Y-88500103D01*
X142000000Y-130600000D02*
X142000000Y-106200000D01*
X120482843Y-131917157D02*
X120482843Y-129989592D01*
X109797488Y-87599999D02*
X110973080Y-87599999D01*
X36300103Y-70924511D02*
X36575094Y-70649520D01*
X99000000Y-52200000D02*
X99200000Y-52200000D01*
X99200000Y-88200000D02*
X100450000Y-86950000D01*
X52800000Y-51600000D02*
X53975592Y-51600000D01*
X42000000Y-106200000D02*
X42200000Y-106200000D01*
X111699897Y-106924511D02*
X112300103Y-106924511D01*
X33800000Y-105600000D02*
X34975592Y-105600000D01*
X93300103Y-88924511D02*
X93575094Y-88649520D01*
X136550480Y-88649520D02*
X137000000Y-88200000D01*
X55575094Y-88649520D02*
X60550480Y-88649520D01*
X73275489Y-51899897D02*
X73275489Y-52500103D01*
X109197488Y-86999999D02*
X109797488Y-87599999D01*
X74450000Y-51060000D02*
X74115386Y-51060000D01*
X90200000Y-123000000D02*
X90800000Y-123600000D01*
X34975592Y-105600000D02*
X35275489Y-105899897D01*
X137000000Y-52200000D02*
X137200000Y-52200000D01*
X55115386Y-87060000D02*
X54275489Y-87899897D01*
X110973080Y-87599999D02*
X111272977Y-87899896D01*
X34975592Y-51600000D02*
X35275489Y-51899897D01*
X92275489Y-106500103D02*
X92699897Y-106924511D01*
X55300103Y-124924511D02*
X55575094Y-124649520D01*
X93575094Y-88649520D02*
X98550480Y-88649520D01*
X129975592Y-105600000D02*
X130275489Y-105899897D01*
X110975592Y-105600000D02*
X111275489Y-105899897D01*
X112300103Y-52924511D02*
X112575094Y-52649520D01*
X126099897Y-153500103D02*
X126475489Y-153500103D01*
X118000000Y-106200000D02*
X118200000Y-106200000D01*
X91975592Y-87600000D02*
X92275489Y-87899897D01*
X90800000Y-87600000D02*
X91975592Y-87600000D01*
X73275489Y-87899897D02*
X73275489Y-88500103D01*
X71200000Y-51000000D02*
X71800000Y-51600000D01*
X93115386Y-69060000D02*
X92275489Y-69899897D01*
X117547968Y-88649519D02*
X117997488Y-88199999D01*
X99000000Y-88200000D02*
X99200000Y-88200000D01*
X74115386Y-69060000D02*
X73275489Y-69899897D01*
X111275489Y-105899897D02*
X111275489Y-106500103D01*
X136550480Y-106649520D02*
X137000000Y-106200000D01*
X55115386Y-123060000D02*
X54275489Y-123899897D01*
X42000000Y-52200000D02*
X42200000Y-52200000D01*
X131450000Y-69060000D02*
X131115386Y-69060000D01*
X93575094Y-124649520D02*
X98550480Y-124649520D01*
X71200000Y-123000000D02*
X71800000Y-123600000D01*
X52200000Y-87000000D02*
X52800000Y-87600000D01*
X52200000Y-105000000D02*
X52800000Y-105600000D01*
X93115386Y-87060000D02*
X92275489Y-87899897D01*
X79550480Y-52649520D02*
X80000000Y-52200000D01*
X74450000Y-69060000D02*
X74115386Y-69060000D01*
X118200000Y-52200000D02*
X119450000Y-50950000D01*
X73699897Y-124924511D02*
X74300103Y-124924511D01*
X72975592Y-105600000D02*
X73275489Y-105899897D01*
X93450000Y-87060000D02*
X93115386Y-87060000D01*
X36115386Y-87060000D02*
X35275489Y-87899897D01*
X116500103Y-136924511D02*
X116924511Y-136500103D01*
X41550480Y-88649520D02*
X42000000Y-88200000D01*
X52800000Y-69600000D02*
X53975592Y-69600000D01*
X35275489Y-124500103D02*
X35699897Y-124924511D01*
X129975592Y-51600000D02*
X130275489Y-51899897D01*
X99200000Y-70200000D02*
X100450000Y-68950000D01*
X55575094Y-52649520D02*
X60550480Y-52649520D01*
X80000000Y-124200000D02*
X80200000Y-124200000D01*
X118197488Y-88199999D02*
X119447488Y-86949999D01*
X136550480Y-70649520D02*
X137000000Y-70200000D01*
X130275489Y-88500103D02*
X130699897Y-88924511D01*
X33200000Y-105000000D02*
X33800000Y-105600000D01*
X92699897Y-70924511D02*
X93300103Y-70924511D01*
X130275489Y-52500103D02*
X130699897Y-52924511D01*
X126899897Y-153924511D02*
X127500103Y-153924511D01*
X71800000Y-105600000D02*
X72975592Y-105600000D01*
X42200000Y-70200000D02*
X43450000Y-68950000D01*
X131450000Y-105060000D02*
X131115386Y-105060000D01*
X71800000Y-51600000D02*
X72975592Y-51600000D01*
X115099897Y-136500103D02*
X115475489Y-136500103D01*
X93575094Y-70649520D02*
X98550480Y-70649520D01*
X42000000Y-88200000D02*
X42200000Y-88200000D01*
X55575094Y-70649520D02*
X60550480Y-70649520D01*
X33800000Y-69600000D02*
X34975592Y-69600000D01*
X42000000Y-70200000D02*
X42200000Y-70200000D01*
X93300103Y-124924511D02*
X93575094Y-124649520D01*
X35275489Y-105899897D02*
X35275489Y-106500103D01*
X142000000Y-52200000D02*
X145724500Y-52200000D01*
X80000000Y-52200000D02*
X80200000Y-52200000D01*
X74575094Y-124649520D02*
X79550480Y-124649520D01*
X71800000Y-69600000D02*
X72975592Y-69600000D01*
X92275489Y-87899897D02*
X92275489Y-88500103D01*
X55115386Y-51060000D02*
X54275489Y-51899897D01*
X111275489Y-51899897D02*
X111275489Y-52500103D01*
X93575094Y-52649520D02*
X98550480Y-52649520D01*
X61200000Y-106200000D02*
X62450000Y-104950000D01*
X35275489Y-123899897D02*
X35275489Y-124500103D01*
X90200000Y-51000000D02*
X90800000Y-51600000D01*
X53975592Y-69600000D02*
X54275489Y-69899897D01*
X80200000Y-88200000D02*
X81450000Y-86950000D01*
X36115386Y-123060000D02*
X35275489Y-123899897D01*
X55450000Y-105060000D02*
X55115386Y-105060000D01*
X130275489Y-70500103D02*
X130699897Y-70924511D01*
X33200000Y-87000000D02*
X33800000Y-87600000D01*
X111699897Y-52924511D02*
X112300103Y-52924511D01*
X128200000Y-105000000D02*
X128800000Y-105600000D01*
X92275489Y-52500103D02*
X92699897Y-52924511D01*
X54275489Y-87899897D02*
X54275489Y-88500103D01*
X36300103Y-52924511D02*
X36575094Y-52649520D01*
X36450000Y-69060000D02*
X36115386Y-69060000D01*
X126475489Y-152152510D02*
X126475489Y-153500103D01*
X80200000Y-70200000D02*
X81450000Y-68950000D01*
X54699897Y-106924511D02*
X55300103Y-106924511D01*
X72975592Y-51600000D02*
X73275489Y-51899897D01*
X128800000Y-51600000D02*
X129975592Y-51600000D01*
X127924511Y-153500103D02*
X127924511Y-153200000D01*
X52200000Y-69000000D02*
X52800000Y-69600000D01*
X137000000Y-70200000D02*
X137200000Y-70200000D01*
X34975592Y-69600000D02*
X35275489Y-69899897D01*
X99000000Y-124200000D02*
X99200000Y-124200000D01*
X35699897Y-88924511D02*
X36300103Y-88924511D01*
X111275489Y-52500103D02*
X111699897Y-52924511D01*
X114400000Y-137200000D02*
X115099897Y-136500103D01*
X42200000Y-52200000D02*
X43450000Y-50950000D01*
X112300103Y-70924511D02*
X112575094Y-70649520D01*
X71200000Y-69000000D02*
X71800000Y-69600000D01*
X74115386Y-105060000D02*
X73275489Y-105899897D01*
X116924511Y-136200000D02*
X120400000Y-132724511D01*
X112450000Y-51060000D02*
X112115386Y-51060000D01*
X98550480Y-70649520D02*
X99000000Y-70200000D01*
X92699897Y-52924511D02*
X93300103Y-52924511D01*
X35275489Y-52500103D02*
X35699897Y-52924511D01*
X117550480Y-52649520D02*
X118000000Y-52200000D01*
X142000000Y-52200000D02*
X142000000Y-70200000D01*
X73699897Y-88924511D02*
X74300103Y-88924511D01*
X42000000Y-124200000D02*
X42200000Y-124200000D01*
X74575094Y-106649520D02*
X79550480Y-106649520D01*
X55300103Y-52924511D02*
X55575094Y-52649520D01*
X36300103Y-124924511D02*
X36575094Y-124649520D01*
X91975592Y-69600000D02*
X92275489Y-69899897D01*
X91975592Y-123600000D02*
X92275489Y-123899897D01*
X128200000Y-51000000D02*
X128800000Y-51600000D01*
X60550480Y-70649520D02*
X61000000Y-70200000D01*
X41550480Y-124649520D02*
X42000000Y-124200000D01*
X115610877Y-135017122D02*
X115475489Y-135152510D01*
X92275489Y-124500103D02*
X92699897Y-124924511D01*
X93450000Y-123060000D02*
X93115386Y-123060000D01*
X93575094Y-106649520D02*
X98550480Y-106649520D01*
X112450000Y-105060000D02*
X112115386Y-105060000D01*
X74115386Y-123060000D02*
X73275489Y-123899897D01*
X42200000Y-124200000D02*
X43450000Y-122950000D01*
X61200000Y-70200000D02*
X62450000Y-68950000D01*
X33200000Y-69000000D02*
X33800000Y-69600000D01*
X110975592Y-69600000D02*
X111275489Y-69899897D01*
X54699897Y-124924511D02*
X55300103Y-124924511D01*
X52200000Y-123000000D02*
X52800000Y-123600000D01*
X131115386Y-51060000D02*
X130275489Y-51899897D01*
X36575094Y-88649520D02*
X41550480Y-88649520D01*
X36575094Y-52649520D02*
X41550480Y-52649520D01*
X130275489Y-106500103D02*
X130699897Y-106924511D01*
X99200000Y-52200000D02*
X100450000Y-50950000D01*
X55300103Y-88924511D02*
X55575094Y-88649520D01*
X53975592Y-51600000D02*
X54275489Y-51899897D01*
X99000000Y-106200000D02*
X99200000Y-106200000D01*
X137200000Y-52200000D02*
X138450000Y-50950000D01*
X55115386Y-105060000D02*
X54275489Y-105899897D01*
X126475489Y-153500103D02*
X126899897Y-153924511D01*
X93115386Y-51060000D02*
X92275489Y-51899897D01*
X34975592Y-87600000D02*
X35275489Y-87899897D01*
X36575094Y-106649520D02*
X41550480Y-106649520D01*
X92275489Y-123899897D02*
X92275489Y-124500103D01*
X109800000Y-105600000D02*
X110975592Y-105600000D01*
X74575094Y-52649520D02*
X79550480Y-52649520D01*
X112115386Y-69060000D02*
X111275489Y-69899897D01*
X115475489Y-136500103D02*
X115899897Y-136924511D01*
X52800000Y-105600000D02*
X53975592Y-105600000D01*
X36450000Y-123060000D02*
X36115386Y-123060000D01*
X35275489Y-70500103D02*
X35699897Y-70924511D01*
X116924511Y-136500103D02*
X116924511Y-136200000D01*
X109200000Y-51000000D02*
X109800000Y-51600000D01*
X93115386Y-105060000D02*
X92275489Y-105899897D01*
X137200000Y-88200000D02*
X138450000Y-86950000D01*
X36575094Y-124649520D02*
X41550480Y-124649520D01*
X110975592Y-51600000D02*
X111275489Y-51899897D01*
X130275489Y-69899897D02*
X130275489Y-70500103D01*
X112575094Y-70649520D02*
X117550480Y-70649520D01*
X130275489Y-105899897D02*
X130275489Y-106500103D01*
X126610877Y-152017122D02*
X126475489Y-152152510D01*
X54699897Y-70924511D02*
X55300103Y-70924511D01*
X112447488Y-87059999D02*
X112112874Y-87059999D01*
X93300103Y-70924511D02*
X93575094Y-70649520D01*
X55575094Y-106649520D02*
X60550480Y-106649520D01*
X131300103Y-70924511D02*
X131575094Y-70649520D01*
X91975592Y-51600000D02*
X92275489Y-51899897D01*
X54275489Y-52500103D02*
X54699897Y-52924511D01*
X33800000Y-87600000D02*
X34975592Y-87600000D01*
X33200000Y-51000000D02*
X33800000Y-51600000D01*
X73699897Y-106924511D02*
X74300103Y-106924511D01*
X111272977Y-87899896D02*
X111272977Y-88500102D01*
X128800000Y-105600000D02*
X129975592Y-105600000D01*
X118200000Y-70200000D02*
X119450000Y-68950000D01*
X35275489Y-88500103D02*
X35699897Y-88924511D01*
X90200000Y-69000000D02*
X90800000Y-69600000D01*
X125400000Y-154200000D02*
X126099897Y-153500103D01*
X128800000Y-69600000D02*
X129975592Y-69600000D01*
X35275489Y-106500103D02*
X35699897Y-106924511D01*
X130275489Y-51899897D02*
X130275489Y-52500103D01*
X60550480Y-52649520D02*
X61000000Y-52200000D01*
X74300103Y-70924511D02*
X74575094Y-70649520D01*
X36450000Y-105060000D02*
X36115386Y-105060000D01*
X109800000Y-51600000D02*
X110975592Y-51600000D01*
X90200000Y-87000000D02*
X90800000Y-87600000D01*
X52800000Y-123600000D02*
X53975592Y-123600000D01*
X117550480Y-70649520D02*
X118000000Y-70200000D01*
X93450000Y-105060000D02*
X93115386Y-105060000D01*
X73275489Y-123899897D02*
X73275489Y-124500103D01*
X92275489Y-88500103D02*
X92699897Y-88924511D01*
X131300103Y-88924511D02*
X131575094Y-88649520D01*
X136550480Y-52649520D02*
X137000000Y-52200000D01*
X34975592Y-123600000D02*
X35275489Y-123899897D01*
X61000000Y-106200000D02*
X61200000Y-106200000D01*
X73699897Y-70924511D02*
X74300103Y-70924511D01*
X136000000Y-136600000D02*
X142000000Y-130600000D01*
X52200000Y-51000000D02*
X52800000Y-51600000D01*
X131300103Y-106924511D02*
X131575094Y-106649520D01*
X112575094Y-52649520D02*
X117550480Y-52649520D01*
X71800000Y-87600000D02*
X72975592Y-87600000D01*
X36450000Y-51060000D02*
X36115386Y-51060000D01*
X131450000Y-51060000D02*
X131115386Y-51060000D01*
X53975592Y-105600000D02*
X54275489Y-105899897D01*
X129975592Y-87600000D02*
X130275489Y-87899897D01*
X113200000Y-137200000D02*
X114400000Y-137200000D01*
X72975592Y-87600000D02*
X73275489Y-87899897D01*
X74115386Y-87060000D02*
X73275489Y-87899897D01*
X79550480Y-70649520D02*
X80000000Y-70200000D01*
X55450000Y-123060000D02*
X55115386Y-123060000D01*
X131115386Y-87060000D02*
X130275489Y-87899897D01*
X35275489Y-87899897D02*
X35275489Y-88500103D01*
X131575094Y-106649520D02*
X136550480Y-106649520D01*
X42200000Y-88200000D02*
X43450000Y-86950000D01*
X41550480Y-70649520D02*
X42000000Y-70200000D01*
X74450000Y-123060000D02*
X74115386Y-123060000D01*
X92699897Y-88924511D02*
X93300103Y-88924511D01*
X79550480Y-88649520D02*
X80000000Y-88200000D01*
X35699897Y-52924511D02*
X36300103Y-52924511D01*
X130699897Y-52924511D02*
X131300103Y-52924511D01*
X33200000Y-123000000D02*
X33800000Y-123600000D01*
X112450000Y-69060000D02*
X112115386Y-69060000D01*
X35699897Y-124924511D02*
X36300103Y-124924511D01*
X90800000Y-69600000D02*
X91975592Y-69600000D01*
X112572582Y-88649519D02*
X117547968Y-88649519D01*
X35275489Y-69899897D02*
X35275489Y-70500103D01*
X130699897Y-106924511D02*
X131300103Y-106924511D01*
X53975592Y-123600000D02*
X54275489Y-123899897D01*
X54275489Y-69899897D02*
X54275489Y-70500103D01*
X36300103Y-106924511D02*
X36575094Y-106649520D01*
X118200000Y-106200000D02*
X119450000Y-104950000D01*
X137200000Y-70200000D02*
X138450000Y-68950000D01*
X79550480Y-106649520D02*
X80000000Y-106200000D01*
X142000000Y-88200000D02*
X142000000Y-70200000D01*
X54699897Y-88924511D02*
X55300103Y-88924511D01*
X55115386Y-69060000D02*
X54275489Y-69899897D01*
X130699897Y-88924511D02*
X131300103Y-88924511D01*
X92699897Y-124924511D02*
X93300103Y-124924511D01*
X60550480Y-124649520D02*
X61000000Y-124200000D01*
X42200000Y-106200000D02*
X43450000Y-104950000D01*
X72975592Y-69600000D02*
X73275489Y-69899897D01*
X71200000Y-87000000D02*
X71800000Y-87600000D01*
X60550480Y-106649520D02*
X61000000Y-106200000D01*
X74450000Y-87060000D02*
X74115386Y-87060000D01*
X60550480Y-88649520D02*
X61000000Y-88200000D01*
X80200000Y-124200000D02*
X81450000Y-122950000D01*
X73275489Y-52500103D02*
X73699897Y-52924511D01*
X90200000Y-105000000D02*
X90800000Y-105600000D01*
X93300103Y-106924511D02*
X93575094Y-106649520D01*
X74575094Y-70649520D02*
X79550480Y-70649520D01*
X131450000Y-87060000D02*
X131115386Y-87060000D01*
X80200000Y-52200000D02*
X81450000Y-50950000D01*
X111272977Y-88500102D02*
X111697385Y-88924510D01*
X36115386Y-51060000D02*
X35275489Y-51899897D01*
X99000000Y-70200000D02*
X99200000Y-70200000D01*
%TO.N,unconnected-(SW0-Pad3)*%
X131450000Y-49560000D02*
X131135386Y-49560000D01*
X131300103Y-47675489D02*
X131575094Y-47950480D01*
X130699897Y-47675489D02*
X131300103Y-47675489D01*
X131575094Y-47950480D02*
X136550480Y-47950480D01*
X130275489Y-48099897D02*
X130699897Y-47675489D01*
X131135386Y-49560000D02*
X130275489Y-48700103D01*
X136550480Y-47950480D02*
X137000000Y-48400000D01*
X130275489Y-48700103D02*
X130275489Y-48099897D01*
%TO.N,Net-(SW1-Pad3)*%
X130275489Y-66099897D02*
X130699897Y-65675489D01*
X131300103Y-65675489D02*
X131575094Y-65950480D01*
X131135386Y-67560000D02*
X130275489Y-66700103D01*
X131575094Y-65950480D02*
X135849520Y-65950480D01*
X36000000Y-52200000D02*
X40486804Y-52200000D01*
X130699897Y-65675489D02*
X131300103Y-65675489D01*
X41550000Y-51136804D02*
X41550000Y-51060000D01*
D24*
X137000000Y-64800000D02*
X135849520Y-65950480D01*
D23*
X40486804Y-52200000D02*
X41550000Y-51136804D01*
X130275489Y-66700103D02*
X130275489Y-66099897D01*
X131450000Y-67560000D02*
X131135386Y-67560000D01*
X135849520Y-65950480D02*
X136550480Y-65950480D01*
X136550480Y-65950480D02*
X137000000Y-66400000D01*
%TO.N,Net-(SW12-Pad3)*%
X136550000Y-87136804D02*
X136550000Y-87060000D01*
X135486804Y-88200000D02*
X136550000Y-87136804D01*
X112572582Y-83950479D02*
X117547968Y-83950479D01*
X111697385Y-83675488D02*
X112297591Y-83675488D01*
X111272977Y-84099896D02*
X111697385Y-83675488D01*
X131000000Y-88200000D02*
X135486804Y-88200000D01*
X111272977Y-84700102D02*
X111272977Y-84099896D01*
X112132874Y-85559999D02*
X111272977Y-84700102D01*
X112447488Y-85559999D02*
X112132874Y-85559999D01*
X112297591Y-83675488D02*
X112572582Y-83950479D01*
X117547968Y-83950479D02*
X117997488Y-84399999D01*
%TO.N,Net-(SW13-Pad3)*%
X112135386Y-103560000D02*
X111275489Y-102700103D01*
X131000000Y-106200000D02*
X135486804Y-106200000D01*
X111275489Y-102099897D02*
X111699897Y-101675489D01*
X136550000Y-105136804D02*
X136550000Y-105060000D01*
X112450000Y-103560000D02*
X112135386Y-103560000D01*
X112575094Y-101950480D02*
X117550480Y-101950480D01*
X112300103Y-101675489D02*
X112575094Y-101950480D01*
X111699897Y-101675489D02*
X112300103Y-101675489D01*
X135486804Y-106200000D02*
X136550000Y-105136804D01*
X111275489Y-102700103D02*
X111275489Y-102099897D01*
X117550480Y-101950480D02*
X118000000Y-102400000D01*
%TO.N,Net-(SW14-Pad3)*%
X114550217Y-133956461D02*
X114382167Y-134124511D01*
X114382167Y-134124511D02*
X113099897Y-134124511D01*
X130271431Y-150128569D02*
X130271431Y-148465186D01*
X113099897Y-132675489D02*
X113400000Y-132675489D01*
X112675489Y-133099897D02*
X113099897Y-132675489D01*
X127200000Y-153200000D02*
X130271431Y-150128569D01*
X116875489Y-129200000D02*
X117600000Y-129200000D01*
X130271431Y-148465186D02*
X130217122Y-148410877D01*
X112675489Y-133700103D02*
X112675489Y-133099897D01*
X113400000Y-132675489D02*
X116875489Y-129200000D01*
X113099897Y-134124511D02*
X112675489Y-133700103D01*
%TO.N,Net-(SW10-Pad5)*%
X93575094Y-47950480D02*
X98550480Y-47950480D01*
X117550000Y-51136804D02*
X117550000Y-51060000D01*
X93300103Y-47675489D02*
X93575094Y-47950480D01*
X112000000Y-52200000D02*
X116486804Y-52200000D01*
X93135386Y-49560000D02*
X92275489Y-48700103D01*
X93450000Y-49560000D02*
X93135386Y-49560000D01*
X92699897Y-47675489D02*
X93300103Y-47675489D01*
X92275489Y-48099897D02*
X92699897Y-47675489D01*
X98550480Y-47950480D02*
X99000000Y-48400000D01*
X92275489Y-48700103D02*
X92275489Y-48099897D01*
X116486804Y-52200000D02*
X117550000Y-51136804D01*
%TO.N,Net-(SW21-Pad5)*%
X73275489Y-66700103D02*
X73275489Y-66099897D01*
X97486804Y-70200000D02*
X98550000Y-69136804D01*
X73699897Y-65675489D02*
X74300103Y-65675489D01*
X98550000Y-69136804D02*
X98550000Y-69060000D01*
X73275489Y-66099897D02*
X73699897Y-65675489D01*
X74575094Y-65950480D02*
X79550480Y-65950480D01*
X93000000Y-70200000D02*
X97486804Y-70200000D01*
X74450000Y-67560000D02*
X74135386Y-67560000D01*
X79550480Y-65950480D02*
X80000000Y-66400000D01*
X74135386Y-67560000D02*
X73275489Y-66700103D01*
X74300103Y-65675489D02*
X74575094Y-65950480D01*
%TO.N,Net-(SW31-Pad5)*%
X55450000Y-67560000D02*
X55135386Y-67560000D01*
X54275489Y-66700103D02*
X54275489Y-66099897D01*
X78486804Y-70200000D02*
X79550000Y-69136804D01*
X79550000Y-69136804D02*
X79550000Y-69060000D01*
X74000000Y-70200000D02*
X78486804Y-70200000D01*
X60550480Y-65950480D02*
X61000000Y-66400000D01*
X54275489Y-66099897D02*
X54699897Y-65675489D01*
X55300103Y-65675489D02*
X55575094Y-65950480D01*
X55135386Y-67560000D02*
X54275489Y-66700103D01*
X54699897Y-65675489D02*
X55300103Y-65675489D01*
X55575094Y-65950480D02*
X60550480Y-65950480D01*
%TO.N,Net-(SW40-Pad5)*%
X36300103Y-47675489D02*
X36575094Y-47950480D01*
X36575094Y-47950480D02*
X41550480Y-47950480D01*
X59486804Y-52200000D02*
X60550000Y-51136804D01*
X36450000Y-49560000D02*
X36135386Y-49560000D01*
X60550000Y-51136804D02*
X60550000Y-51060000D01*
X35275489Y-48099897D02*
X35699897Y-47675489D01*
X35699897Y-47675489D02*
X36300103Y-47675489D01*
X35275489Y-48700103D02*
X35275489Y-48099897D01*
X36135386Y-49560000D02*
X35275489Y-48700103D01*
X55000000Y-52200000D02*
X59486804Y-52200000D01*
X41550480Y-47950480D02*
X42000000Y-48400000D01*
%TO.N,Net-(SW41-Pad5)*%
X35275489Y-66700103D02*
X35275489Y-66099897D01*
X55000000Y-70200000D02*
X59486804Y-70200000D01*
X36450000Y-67560000D02*
X36135386Y-67560000D01*
X60550000Y-69136804D02*
X60550000Y-69060000D01*
X35275489Y-66099897D02*
X35699897Y-65675489D01*
X59486804Y-70200000D02*
X60550000Y-69136804D01*
X36300103Y-65675489D02*
X36575094Y-65950480D01*
X36135386Y-67560000D02*
X35275489Y-66700103D01*
X41550480Y-65950480D02*
X42000000Y-66400000D01*
X35699897Y-65675489D02*
X36300103Y-65675489D01*
X36575094Y-65950480D02*
X41550480Y-65950480D01*
%TO.N,Net-(D0-Pad2)*%
X124449520Y-48293352D02*
X124449520Y-57474520D01*
X139490000Y-45310000D02*
X139400000Y-45400000D01*
X126800000Y-57675000D02*
X125725000Y-58750000D01*
X124449520Y-57474520D02*
X125725000Y-58750000D01*
X134000000Y-58000000D02*
X131375479Y-60624521D01*
X140000000Y-45310000D02*
X127432872Y-45310000D01*
X127599521Y-60624521D02*
X125725000Y-58750000D01*
X131375479Y-60624521D02*
X127599521Y-60624521D01*
X127432872Y-45310000D02*
X124449520Y-48293352D01*
%TO.N,Net-(D2-Pad2)*%
X134000000Y-41310000D02*
X130161436Y-41310000D01*
X134000000Y-94000000D02*
X131375479Y-96624521D01*
X123548560Y-47922876D02*
X123548560Y-94600000D01*
X123698560Y-94750000D02*
X125725000Y-94750000D01*
X131375479Y-96624521D02*
X127599521Y-96624521D01*
X123548560Y-94600000D02*
X123698560Y-94750000D01*
X130161436Y-41310000D02*
X123548560Y-47922876D01*
X127599521Y-96624521D02*
X125725000Y-94750000D01*
%TO.N,Net-(D3-Pad2)*%
X123099040Y-47736678D02*
X123099040Y-112600000D01*
X131000000Y-39310000D02*
X131000000Y-39835718D01*
X123099040Y-112600000D02*
X123249040Y-112750000D01*
X134000000Y-112000000D02*
X131375479Y-114624521D01*
X123249040Y-112750000D02*
X125725000Y-112750000D01*
X131000000Y-39835718D02*
X123099040Y-47736678D01*
X127599521Y-114624521D02*
X125725000Y-112750000D01*
X131375479Y-114624521D02*
X127599521Y-114624521D01*
%TO.N,Net-(D4-Pad2)*%
X129800000Y-134000000D02*
X122649520Y-126849520D01*
X128000342Y-161502959D02*
X130651316Y-161502959D01*
X129800000Y-142600000D02*
X129800000Y-134000000D01*
X128000342Y-161502959D02*
X120200000Y-153702617D01*
X122649520Y-126849520D02*
X122649520Y-56950480D01*
X120200000Y-152200000D02*
X129800000Y-142600000D01*
X128000000Y-39000000D02*
X128000000Y-37310000D01*
X122649520Y-47550480D02*
X128000000Y-42200000D01*
X128000000Y-42200000D02*
X128000000Y-39000000D01*
X122649520Y-56950480D02*
X122649520Y-47550480D01*
X120200000Y-153702617D02*
X120200000Y-152200000D01*
X122649520Y-56950480D02*
X122649520Y-56350480D01*
X130651316Y-161502959D02*
X133400000Y-158754275D01*
X133400000Y-158754275D02*
X133400000Y-155200000D01*
%TO.N,Net-(D10-Pad2)*%
X108432872Y-45310000D02*
X105449520Y-48293352D01*
X121000000Y-45310000D02*
X108432872Y-45310000D01*
X112375479Y-60624521D02*
X108599521Y-60624521D01*
X120490000Y-45310000D02*
X120400000Y-45400000D01*
X105448624Y-48292456D02*
X105448624Y-56648624D01*
X108599521Y-60624521D02*
X106725000Y-58750000D01*
X105448624Y-56648624D02*
X105448624Y-57473624D01*
X105448624Y-57473624D02*
X106724104Y-58749104D01*
X115000000Y-58000000D02*
X112375479Y-60624521D01*
%TO.N,Net-(D11-Pad2)*%
X104997184Y-76597184D02*
X105149104Y-76749104D01*
X105149104Y-76749104D02*
X106724104Y-76749104D01*
X112375479Y-78624521D02*
X108599521Y-78624521D01*
X108599521Y-78624521D02*
X106725000Y-76750000D01*
X104997184Y-61361467D02*
X104997184Y-76597184D01*
X118000000Y-43310000D02*
X109797154Y-43310000D01*
X109797154Y-43310000D02*
X105000000Y-48107154D01*
X104999104Y-48106258D02*
X104999104Y-61359547D01*
X104999104Y-61359547D02*
X104997184Y-61361467D01*
X115000000Y-76000000D02*
X112375479Y-78624521D01*
%TO.N,Net-(D12-Pad2)*%
X108599521Y-96624521D02*
X106725000Y-94750000D01*
X115000000Y-94000000D02*
X112375479Y-96624521D01*
X115000000Y-41310000D02*
X111161436Y-41310000D01*
X104547664Y-47921980D02*
X104547664Y-94599104D01*
X111161436Y-41310000D02*
X104548560Y-47922876D01*
X104697664Y-94749104D02*
X106724104Y-94749104D01*
X112375479Y-96624521D02*
X108599521Y-96624521D01*
X104547664Y-94599104D02*
X104697664Y-94749104D01*
%TO.N,Net-(D13-Pad2)*%
X104098144Y-47735782D02*
X104098144Y-112599104D01*
X112375479Y-114624521D02*
X108599521Y-114624521D01*
X104248144Y-112749104D02*
X106724104Y-112749104D01*
X115000000Y-112000000D02*
X112375479Y-114624521D01*
X104098144Y-112599104D02*
X104248144Y-112749104D01*
X112000000Y-39310000D02*
X112000000Y-39835718D01*
X112000000Y-39835718D02*
X104099040Y-47736678D01*
X108599521Y-114624521D02*
X106725000Y-112750000D01*
%TO.N,Net-(D14-Pad2)*%
X103648624Y-56949584D02*
X103648624Y-47549584D01*
X109000000Y-42200000D02*
X109000000Y-39000000D01*
X117000342Y-144502959D02*
X119651316Y-144502959D01*
X103649520Y-47550480D02*
X109000000Y-42200000D01*
X119651316Y-144502959D02*
X122400000Y-141754275D01*
X103649520Y-131152137D02*
X103649520Y-130599104D01*
X122400000Y-141754275D02*
X122400000Y-138200000D01*
X103648624Y-118751376D02*
X103648624Y-56949584D01*
X109000000Y-39000000D02*
X109000000Y-37310000D01*
X117000342Y-144502959D02*
X103649520Y-131152137D01*
X103648624Y-56949584D02*
X103648624Y-56349584D01*
X103648624Y-130599104D02*
X103648624Y-118751376D01*
%TO.N,Net-(D20-Pad2)*%
X93375479Y-60624521D02*
X89599521Y-60624521D01*
X86449520Y-48293352D02*
X86449520Y-56649520D01*
X86449520Y-56649520D02*
X86449520Y-57474520D01*
X96000000Y-58000000D02*
X93375479Y-60624521D01*
X102000000Y-45310000D02*
X89432872Y-45310000D01*
X89599521Y-60624521D02*
X87725000Y-58750000D01*
X86449520Y-57474520D02*
X87725000Y-58750000D01*
X101490000Y-45310000D02*
X101400000Y-45400000D01*
X89432872Y-45310000D02*
X86449520Y-48293352D01*
%TO.N,Net-(D21-Pad2)*%
X86000000Y-61360443D02*
X85998080Y-61362363D01*
X85998080Y-61362363D02*
X85998080Y-76598080D01*
X86000000Y-48107154D02*
X86000000Y-61360443D01*
X85998080Y-76598080D02*
X86150000Y-76750000D01*
X93375479Y-78624521D02*
X89599521Y-78624521D01*
X89599521Y-78624521D02*
X87725000Y-76750000D01*
X90797154Y-43310000D02*
X86000000Y-48107154D01*
X96000000Y-76000000D02*
X93375479Y-78624521D01*
X86150000Y-76750000D02*
X87725000Y-76750000D01*
X99000000Y-43310000D02*
X90797154Y-43310000D01*
%TO.N,Net-(D23-Pad2)*%
X85099040Y-47736678D02*
X85099040Y-112600000D01*
X85099040Y-112600000D02*
X85249040Y-112750000D01*
X96000000Y-112000000D02*
X93375479Y-114624521D01*
X93375479Y-114624521D02*
X89599521Y-114624521D01*
X93000000Y-39310000D02*
X93000000Y-39835718D01*
X93000000Y-39835718D02*
X85099040Y-47736678D01*
X85249040Y-112750000D02*
X87725000Y-112750000D01*
X89599521Y-114624521D02*
X87725000Y-112750000D01*
%TO.N,Net-(D30-Pad2)*%
X83000000Y-45310000D02*
X70432872Y-45310000D01*
X67447729Y-57471517D02*
X68723209Y-58746997D01*
X67447729Y-48290349D02*
X67447729Y-56646517D01*
X70432872Y-45310000D02*
X67449520Y-48293352D01*
X77000000Y-58000000D02*
X74375479Y-60624521D01*
X67447729Y-56646517D02*
X67447729Y-57471517D01*
X82490000Y-45310000D02*
X82400000Y-45400000D01*
X70599521Y-60624521D02*
X68725000Y-58750000D01*
X74375479Y-60624521D02*
X70599521Y-60624521D01*
%TO.N,Net-(D32-Pad2)*%
X66696769Y-94746997D02*
X68723209Y-94746997D01*
X66546769Y-94596997D02*
X66696769Y-94746997D01*
X77000000Y-94000000D02*
X74375479Y-96624521D01*
X66546769Y-47919873D02*
X66546769Y-94596997D01*
X77000000Y-41310000D02*
X73161436Y-41310000D01*
X74375479Y-96624521D02*
X70599521Y-96624521D01*
X70599521Y-96624521D02*
X68725000Y-94750000D01*
X73161436Y-41310000D02*
X66548560Y-47922876D01*
%TO.N,Net-(D33-Pad2)*%
X66097249Y-47733675D02*
X66097249Y-112596997D01*
X74000000Y-39835718D02*
X66099040Y-47736678D01*
X70599521Y-114624521D02*
X68725000Y-112750000D01*
X77000000Y-112000000D02*
X74375479Y-114624521D01*
X74375479Y-114624521D02*
X70599521Y-114624521D01*
X66247249Y-112746997D02*
X68723209Y-112746997D01*
X74000000Y-39310000D02*
X74000000Y-39835718D01*
X66097249Y-112596997D02*
X66247249Y-112746997D01*
%TO.N,Net-(D40-Pad2)*%
X63490000Y-45310000D02*
X63400000Y-45400000D01*
X64000000Y-45310000D02*
X51432872Y-45310000D01*
X48449520Y-56649520D02*
X48449520Y-57474520D01*
X51432872Y-45310000D02*
X48449520Y-48293352D01*
X49987500Y-59012500D02*
X51599521Y-60624521D01*
X55375479Y-60624521D02*
X58000000Y-58000000D01*
X49725000Y-58750000D02*
X49987500Y-59012500D01*
X48449520Y-48293352D02*
X48449520Y-56649520D01*
X48449520Y-57474520D02*
X49725000Y-58750000D01*
X51599521Y-60624521D02*
X55375479Y-60624521D01*
%TO.N,Net-(D41-Pad2)*%
X51599521Y-78624521D02*
X49725000Y-76750000D01*
X55375479Y-78624521D02*
X51599521Y-78624521D01*
X58000000Y-76000000D02*
X55375479Y-78624521D01*
X47998080Y-76598080D02*
X48150000Y-76750000D01*
X48000000Y-61360443D02*
X47998080Y-61362363D01*
X47998080Y-61362363D02*
X47998080Y-76598080D01*
X52797154Y-43310000D02*
X48000000Y-48107154D01*
X61000000Y-43310000D02*
X52797154Y-43310000D01*
X48150000Y-76750000D02*
X49725000Y-76750000D01*
X48000000Y-48107154D02*
X48000000Y-61360443D01*
%TO.N,Net-(D42-Pad2)*%
X55375479Y-96624521D02*
X51599521Y-96624521D01*
X58000000Y-41310000D02*
X54161436Y-41310000D01*
X58000000Y-94000000D02*
X55375479Y-96624521D01*
X47698560Y-94750000D02*
X49725000Y-94750000D01*
X47548560Y-94600000D02*
X47698560Y-94750000D01*
X47548560Y-47922876D02*
X47548560Y-94600000D01*
X51599521Y-96624521D02*
X49725000Y-94750000D01*
X54161436Y-41310000D02*
X47548560Y-47922876D01*
%TO.N,Net-(D43-Pad2)*%
X47099040Y-112600000D02*
X47249040Y-112750000D01*
X55375479Y-114624521D02*
X51599521Y-114624521D01*
X47249040Y-112750000D02*
X49725000Y-112750000D01*
X47099040Y-47736678D02*
X47099040Y-112600000D01*
X58000000Y-112000000D02*
X55375479Y-114624521D01*
X51599521Y-114624521D02*
X49725000Y-112750000D01*
X55000000Y-39310000D02*
X55000000Y-39835718D01*
X55000000Y-39835718D02*
X47099040Y-47736678D01*
%TO.N,Net-(D44-Pad2)*%
X52000000Y-39000000D02*
X52000000Y-37310000D01*
X46799520Y-130750000D02*
X46649520Y-130600000D01*
X51599521Y-132624521D02*
X49725000Y-130750000D01*
X58000000Y-130000000D02*
X55375479Y-132624521D01*
X46649520Y-130600000D02*
X46649520Y-56950480D01*
X46649520Y-56950480D02*
X46649520Y-47550480D01*
X55375479Y-132624521D02*
X51599521Y-132624521D01*
X49725000Y-130750000D02*
X46799520Y-130750000D01*
X52000000Y-42200000D02*
X52000000Y-39000000D01*
X46649520Y-56950480D02*
X46649520Y-56350480D01*
X46649520Y-47550480D02*
X52000000Y-42200000D01*
%TO.N,Net-(D50-Pad2)*%
X45000000Y-45310000D02*
X32432872Y-45310000D01*
X32432872Y-45310000D02*
X29449520Y-48293352D01*
X29449520Y-56649520D02*
X29449520Y-57474520D01*
X36375479Y-60624521D02*
X39000000Y-58000000D01*
X32599521Y-60624521D02*
X36375479Y-60624521D01*
X30725000Y-58750000D02*
X32599521Y-60624521D01*
X44490000Y-45310000D02*
X44400000Y-45400000D01*
X29449520Y-57474520D02*
X30725000Y-58750000D01*
X29449520Y-48293352D02*
X29449520Y-56649520D01*
%TO.N,Net-(D51-Pad2)*%
X29150000Y-76750000D02*
X30725000Y-76750000D01*
X28998080Y-61362363D02*
X28998080Y-76598080D01*
X36375479Y-78624521D02*
X32599521Y-78624521D01*
X28998080Y-76598080D02*
X29150000Y-76750000D01*
X33797154Y-43310000D02*
X29000000Y-48107154D01*
X29000000Y-61360443D02*
X28998080Y-61362363D01*
X29000000Y-48107154D02*
X29000000Y-61360443D01*
X32599521Y-78624521D02*
X30725000Y-76750000D01*
X42000000Y-43310000D02*
X33797154Y-43310000D01*
X39000000Y-76000000D02*
X36375479Y-78624521D01*
%TO.N,Net-(D52-Pad2)*%
X28548560Y-94600000D02*
X28698560Y-94750000D01*
X36375479Y-96624521D02*
X32599521Y-96624521D01*
X28698560Y-94750000D02*
X30725000Y-94750000D01*
X39000000Y-94000000D02*
X36375479Y-96624521D01*
X32599521Y-96624521D02*
X30725000Y-94750000D01*
X35161436Y-41310000D02*
X28548560Y-47922876D01*
X39000000Y-41310000D02*
X35161436Y-41310000D01*
X28548560Y-47922876D02*
X28548560Y-94600000D01*
%TO.N,Net-(D53-Pad2)*%
X36000000Y-39835718D02*
X28099040Y-47736678D01*
X28099040Y-47736678D02*
X28099040Y-112600000D01*
X28249040Y-112750000D02*
X30725000Y-112750000D01*
X36375479Y-114624521D02*
X32599521Y-114624521D01*
X28099040Y-112600000D02*
X28249040Y-112750000D01*
X39000000Y-112000000D02*
X36375479Y-114624521D01*
X32599521Y-114624521D02*
X30725000Y-112750000D01*
X36000000Y-39310000D02*
X36000000Y-39835718D01*
%TO.N,Net-(D54-Pad2)*%
X33000000Y-39000000D02*
X33000000Y-37310000D01*
X32599521Y-132624521D02*
X30725000Y-130750000D01*
X39000000Y-130000000D02*
X36375479Y-132624521D01*
X27799520Y-130750000D02*
X27649520Y-130600000D01*
X27649520Y-56950480D02*
X27649520Y-47550480D01*
X27649520Y-130600000D02*
X27649520Y-56950480D01*
X27649520Y-56950480D02*
X27649520Y-56350480D01*
X36375479Y-132624521D02*
X32599521Y-132624521D01*
X27649520Y-47550480D02*
X33000000Y-42200000D01*
X30725000Y-130750000D02*
X27799520Y-130750000D01*
X33000000Y-42200000D02*
X33000000Y-39000000D01*
%TO.N,Net-(SW1-Pad5)*%
X111275489Y-66099897D02*
X111699897Y-65675489D01*
X112135386Y-67560000D02*
X111275489Y-66700103D01*
X136550000Y-69136804D02*
X136550000Y-69060000D01*
X112575094Y-65950480D02*
X117550480Y-65950480D01*
X111699897Y-65675489D02*
X112300103Y-65675489D01*
X112300103Y-65675489D02*
X112575094Y-65950480D01*
X112450000Y-67560000D02*
X112135386Y-67560000D01*
X117550480Y-65950480D02*
X118000000Y-66400000D01*
X135486804Y-70200000D02*
X136550000Y-69136804D01*
X131000000Y-70200000D02*
X135486804Y-70200000D01*
X111275489Y-66700103D02*
X111275489Y-66099897D01*
D24*
%TO.N,Net-(SW2-Pad3)*%
X137000000Y-82800000D02*
X135849520Y-83950480D01*
D23*
X130275489Y-84099897D02*
X130699897Y-83675489D01*
X131450000Y-85560000D02*
X131135386Y-85560000D01*
X40486804Y-70200000D02*
X41550000Y-69136804D01*
D24*
X135849520Y-83950480D02*
X135649520Y-83950480D01*
D23*
X131575094Y-83950480D02*
X135649520Y-83950480D01*
X136550480Y-83950480D02*
X137000000Y-84400000D01*
X131300103Y-83675489D02*
X131575094Y-83950480D01*
X130275489Y-84700103D02*
X130275489Y-84099897D01*
X36000000Y-70200000D02*
X40486804Y-70200000D01*
X135649520Y-83950480D02*
X136550480Y-83950480D01*
X131135386Y-85560000D02*
X130275489Y-84700103D01*
X41550000Y-69136804D02*
X41550000Y-69060000D01*
X130699897Y-83675489D02*
X131300103Y-83675489D01*
%TO.N,Net-(SW3-Pad3)*%
X130275489Y-102700103D02*
X130275489Y-102099897D01*
X130275489Y-102099897D02*
X130699897Y-101675489D01*
X131450000Y-103560000D02*
X131135386Y-103560000D01*
X136550480Y-101950480D02*
X137000000Y-102400000D01*
D24*
X137000000Y-100800000D02*
X135849520Y-101950480D01*
X135849520Y-101950480D02*
X135550480Y-101950480D01*
D23*
X40486804Y-88200000D02*
X41550000Y-87136804D01*
X131135386Y-103560000D02*
X130275489Y-102700103D01*
X131575094Y-101950480D02*
X135550480Y-101950480D01*
X36000000Y-88200000D02*
X40486804Y-88200000D01*
X131300103Y-101675489D02*
X131575094Y-101950480D01*
X41550000Y-87136804D02*
X41550000Y-87060000D01*
X135550480Y-101950480D02*
X136550480Y-101950480D01*
X130699897Y-101675489D02*
X131300103Y-101675489D01*
%TO.N,Net-(SW4-Pad3)*%
X125382167Y-151124511D02*
X124099897Y-151124511D01*
X40486804Y-106200000D02*
X41550000Y-105136804D01*
X125550217Y-150956461D02*
X125382167Y-151124511D01*
X41550000Y-105136804D02*
X41550000Y-105060000D01*
X124099897Y-149675489D02*
X124400000Y-149675489D01*
X124400000Y-149675489D02*
X127875489Y-146200000D01*
X123675489Y-150700103D02*
X123675489Y-150099897D01*
X124099897Y-151124511D02*
X123675489Y-150700103D01*
X123675489Y-150099897D02*
X124099897Y-149675489D01*
X127875489Y-146200000D02*
X128600000Y-146200000D01*
X36000000Y-106200000D02*
X40486804Y-106200000D01*
%TO.N,Net-(SW11-Pad5)*%
X92275489Y-66700103D02*
X92275489Y-66099897D01*
X93135386Y-67560000D02*
X92275489Y-66700103D01*
X112000000Y-70200000D02*
X116486804Y-70200000D01*
X93575094Y-65950480D02*
X98550480Y-65950480D01*
X93450000Y-67560000D02*
X93135386Y-67560000D01*
X117550000Y-69136804D02*
X117550000Y-69060000D01*
X98550480Y-65950480D02*
X99000000Y-66400000D01*
X92275489Y-66099897D02*
X92699897Y-65675489D01*
X92699897Y-65675489D02*
X93300103Y-65675489D01*
X93300103Y-65675489D02*
X93575094Y-65950480D01*
X116486804Y-70200000D02*
X117550000Y-69136804D01*
%TO.N,Net-(SW12-Pad5)*%
X117547488Y-87136803D02*
X117547488Y-87059999D01*
X93450000Y-85560000D02*
X93135386Y-85560000D01*
X93135386Y-85560000D02*
X92275489Y-84700103D01*
X98550480Y-83950480D02*
X99000000Y-84400000D01*
X116484292Y-88199999D02*
X117547488Y-87136803D01*
X93575094Y-83950480D02*
X98550480Y-83950480D01*
X92275489Y-84700103D02*
X92275489Y-84099897D01*
X92275489Y-84099897D02*
X92699897Y-83675489D01*
X111997488Y-88199999D02*
X116484292Y-88199999D01*
X93300103Y-83675489D02*
X93575094Y-83950480D01*
X92699897Y-83675489D02*
X93300103Y-83675489D01*
%TO.N,Net-(SW13-Pad5)*%
X116486804Y-106200000D02*
X117550000Y-105136804D01*
X92275489Y-102700103D02*
X92275489Y-102099897D01*
X93135386Y-103560000D02*
X92275489Y-102700103D01*
X92699897Y-101675489D02*
X93300103Y-101675489D01*
X117550000Y-105136804D02*
X117550000Y-105060000D01*
X93575094Y-101950480D02*
X98550480Y-101950480D01*
X93300103Y-101675489D02*
X93575094Y-101950480D01*
X93450000Y-103560000D02*
X93135386Y-103560000D01*
X98550480Y-101950480D02*
X99000000Y-102400000D01*
X112000000Y-106200000D02*
X116486804Y-106200000D01*
X92275489Y-102099897D02*
X92699897Y-101675489D01*
%TO.N,Net-(SW14-Pad5)*%
X92699897Y-119675489D02*
X93300103Y-119675489D01*
X93135386Y-121560000D02*
X92275489Y-120700103D01*
X93300103Y-119675489D02*
X93575094Y-119950480D01*
X93575094Y-119950480D02*
X98550480Y-119950480D01*
X93450000Y-121560000D02*
X93135386Y-121560000D01*
X116200000Y-136200000D02*
X119271431Y-133128569D01*
X119271431Y-131465186D02*
X119217122Y-131410877D01*
X98550480Y-119950480D02*
X99000000Y-120400000D01*
X92275489Y-120700103D02*
X92275489Y-120099897D01*
X119271431Y-133128569D02*
X119271431Y-131465186D01*
X92275489Y-120099897D02*
X92699897Y-119675489D01*
%TO.N,Net-(SW20-Pad5)*%
X79550480Y-47950480D02*
X80000000Y-48400000D01*
X98550000Y-51136804D02*
X98550000Y-51060000D01*
X97486804Y-52200000D02*
X98550000Y-51136804D01*
X73699897Y-47675489D02*
X74300103Y-47675489D01*
X74135386Y-49560000D02*
X73275489Y-48700103D01*
X73275489Y-48099897D02*
X73699897Y-47675489D01*
X93000000Y-52200000D02*
X97486804Y-52200000D01*
X74450000Y-49560000D02*
X74135386Y-49560000D01*
X74300103Y-47675489D02*
X74575094Y-47950480D01*
X74575094Y-47950480D02*
X79550480Y-47950480D01*
X73275489Y-48700103D02*
X73275489Y-48099897D01*
%TO.N,Net-(SW22-Pad5)*%
X73275489Y-84700103D02*
X73275489Y-84099897D01*
X74135386Y-85560000D02*
X73275489Y-84700103D01*
X73275489Y-84099897D02*
X73699897Y-83675489D01*
X74575094Y-83950480D02*
X79550480Y-83950480D01*
X97486804Y-88200000D02*
X98550000Y-87136804D01*
X93000000Y-88200000D02*
X97486804Y-88200000D01*
X98550000Y-87136804D02*
X98550000Y-87060000D01*
X74450000Y-85560000D02*
X74135386Y-85560000D01*
X73699897Y-83675489D02*
X74300103Y-83675489D01*
X74300103Y-83675489D02*
X74575094Y-83950480D01*
X79550480Y-83950480D02*
X80000000Y-84400000D01*
%TO.N,Net-(SW23-Pad5)*%
X97486804Y-106200000D02*
X98550000Y-105136804D01*
X73275489Y-102700103D02*
X73275489Y-102099897D01*
X74135386Y-103560000D02*
X73275489Y-102700103D01*
X74450000Y-103560000D02*
X74135386Y-103560000D01*
X79550480Y-101950480D02*
X80000000Y-102400000D01*
X74300103Y-101675489D02*
X74575094Y-101950480D01*
X73699897Y-101675489D02*
X74300103Y-101675489D01*
X74575094Y-101950480D02*
X79550480Y-101950480D01*
X73275489Y-102099897D02*
X73699897Y-101675489D01*
X93000000Y-106200000D02*
X97486804Y-106200000D01*
X98550000Y-105136804D02*
X98550000Y-105060000D01*
%TO.N,Net-(SW24-Pad5)*%
X98550000Y-123136804D02*
X98550000Y-123060000D01*
X73275489Y-120099897D02*
X73699897Y-119675489D01*
X74135386Y-121560000D02*
X73275489Y-120700103D01*
X73699897Y-119675489D02*
X74300103Y-119675489D01*
X79550480Y-119950480D02*
X80000000Y-120400000D01*
X74575094Y-119950480D02*
X79550480Y-119950480D01*
X93000000Y-124200000D02*
X97486804Y-124200000D01*
X97486804Y-124200000D02*
X98550000Y-123136804D01*
X73275489Y-120700103D02*
X73275489Y-120099897D01*
X74450000Y-121560000D02*
X74135386Y-121560000D01*
X74300103Y-119675489D02*
X74575094Y-119950480D01*
%TO.N,Net-(SW30-Pad5)*%
X54275489Y-48099897D02*
X54699897Y-47675489D01*
X55575094Y-47950480D02*
X60550480Y-47950480D01*
X54699897Y-47675489D02*
X55300103Y-47675489D01*
X55135386Y-49560000D02*
X54275489Y-48700103D01*
X74000000Y-52200000D02*
X78486804Y-52200000D01*
X55300103Y-47675489D02*
X55575094Y-47950480D01*
X79550000Y-51136804D02*
X79550000Y-51060000D01*
X60550480Y-47950480D02*
X61000000Y-48400000D01*
X54275489Y-48700103D02*
X54275489Y-48099897D01*
X55450000Y-49560000D02*
X55135386Y-49560000D01*
X78486804Y-52200000D02*
X79550000Y-51136804D01*
%TO.N,Net-(SW32-Pad5)*%
X55300103Y-83675489D02*
X55575094Y-83950480D01*
X78486804Y-88200000D02*
X79550000Y-87136804D01*
X54275489Y-84700103D02*
X54275489Y-84099897D01*
X74000000Y-88200000D02*
X78486804Y-88200000D01*
X54275489Y-84099897D02*
X54699897Y-83675489D01*
X60550480Y-83950480D02*
X61000000Y-84400000D01*
X55450000Y-85560000D02*
X55135386Y-85560000D01*
X55135386Y-85560000D02*
X54275489Y-84700103D01*
X55575094Y-83950480D02*
X60550480Y-83950480D01*
X79550000Y-87136804D02*
X79550000Y-87060000D01*
X54699897Y-83675489D02*
X55300103Y-83675489D01*
%TO.N,Net-(SW33-Pad5)*%
X55300103Y-101675489D02*
X55575094Y-101950480D01*
X54275489Y-102099897D02*
X54699897Y-101675489D01*
X78486804Y-106200000D02*
X79550000Y-105136804D01*
X54699897Y-101675489D02*
X55300103Y-101675489D01*
X55575094Y-101950480D02*
X60550480Y-101950480D01*
X79550000Y-105136804D02*
X79550000Y-105060000D01*
X74000000Y-106200000D02*
X78486804Y-106200000D01*
X55135386Y-103560000D02*
X54275489Y-102700103D01*
X60550480Y-101950480D02*
X61000000Y-102400000D01*
X55450000Y-103560000D02*
X55135386Y-103560000D01*
X54275489Y-102700103D02*
X54275489Y-102099897D01*
%TO.N,Net-(SW34-Pad5)*%
X54699897Y-119675489D02*
X55300103Y-119675489D01*
X55135386Y-121560000D02*
X54275489Y-120700103D01*
X55450000Y-121560000D02*
X55135386Y-121560000D01*
X74000000Y-124200000D02*
X78486804Y-124200000D01*
X55575094Y-119950480D02*
X60550480Y-119950480D01*
X55300103Y-119675489D02*
X55575094Y-119950480D01*
X54275489Y-120099897D02*
X54699897Y-119675489D01*
X54275489Y-120700103D02*
X54275489Y-120099897D01*
X79550000Y-123136804D02*
X79550000Y-123060000D01*
X60550480Y-119950480D02*
X61000000Y-120400000D01*
X78486804Y-124200000D02*
X79550000Y-123136804D01*
%TO.N,Net-(SW42-Pad5)*%
X36135386Y-85560000D02*
X35275489Y-84700103D01*
X60550000Y-87136804D02*
X60550000Y-87060000D01*
X35275489Y-84700103D02*
X35275489Y-84099897D01*
X59486804Y-88200000D02*
X60550000Y-87136804D01*
X36450000Y-85560000D02*
X36135386Y-85560000D01*
X41550480Y-83950480D02*
X42000000Y-84400000D01*
X35699897Y-83675489D02*
X36300103Y-83675489D01*
X36300103Y-83675489D02*
X36575094Y-83950480D01*
X35275489Y-84099897D02*
X35699897Y-83675489D01*
X36575094Y-83950480D02*
X41550480Y-83950480D01*
X55000000Y-88200000D02*
X59486804Y-88200000D01*
%TO.N,Net-(SW43-Pad5)*%
X36300103Y-101675489D02*
X36575094Y-101950480D01*
X36450000Y-103560000D02*
X36135386Y-103560000D01*
X59486804Y-106200000D02*
X60550000Y-105136804D01*
X36135386Y-103560000D02*
X35275489Y-102700103D01*
X35275489Y-102700103D02*
X35275489Y-102099897D01*
X35699897Y-101675489D02*
X36300103Y-101675489D01*
X36575094Y-101950480D02*
X41550480Y-101950480D01*
X35275489Y-102099897D02*
X35699897Y-101675489D01*
X41550480Y-101950480D02*
X42000000Y-102400000D01*
X60550000Y-105136804D02*
X60550000Y-105060000D01*
X55000000Y-106200000D02*
X59486804Y-106200000D01*
%TO.N,Net-(SW44-Pad5)*%
X60550000Y-123136804D02*
X60550000Y-123060000D01*
X35699897Y-119675489D02*
X36300103Y-119675489D01*
X55000000Y-124200000D02*
X59486804Y-124200000D01*
X35275489Y-120700103D02*
X35275489Y-120099897D01*
X36575094Y-119950480D02*
X41550480Y-119950480D01*
X36450000Y-121560000D02*
X36135386Y-121560000D01*
X41550480Y-119950480D02*
X42000000Y-120400000D01*
X36300103Y-119675489D02*
X36575094Y-119950480D01*
X35275489Y-120099897D02*
X35699897Y-119675489D01*
X59486804Y-124200000D02*
X60550000Y-123136804D01*
X36135386Y-121560000D02*
X35275489Y-120700103D01*
%TD*%
M02*
