%TF.GenerationSoftware,KiCad,Pcbnew,(6.0.2)*%
%TF.CreationDate,2022-04-13T18:01:38+02:00*%
%TF.ProjectId,SPKB,53504b42-2e6b-4696-9361-645f70636258,rev?*%
%TF.SameCoordinates,Original*%
%TF.FileFunction,Profile,NP*%
%FSLAX46Y46*%
G04 Gerber Fmt 4.6, Leading zero omitted, Abs format (unit mm)*
G04 Created by KiCad (PCBNEW (6.0.2)) date 2022-04-13 18:01:38*
%MOMM*%
%LPD*%
G01*
G04 APERTURE LIST*
%TA.AperFunction,Profile*%
%ADD10C,0.100000*%
%TD*%
%TA.AperFunction,Profile*%
%ADD11C,0.120000*%
%TD*%
G04 APERTURE END LIST*
D10*
X163000000Y-123400000D02*
G75*
G03*
X163000000Y-123400000I-8000000J0D01*
G01*
X123400000Y-179200000D02*
X84200000Y-140000000D01*
X127200000Y-175400000D02*
X123400000Y-179200000D01*
X135200000Y-167400000D02*
X179200000Y-123400000D01*
X135200000Y-167400000D02*
X127200000Y-175400000D01*
X31600000Y-140000000D02*
X84200000Y-140000000D01*
X31600000Y-140000000D02*
X26000000Y-140000000D01*
X26000000Y-25000000D02*
X26000000Y-140000000D01*
X179200000Y-83000000D02*
X179200000Y-123400000D01*
X179200000Y-83000000D02*
X179200000Y-25000000D01*
X26000000Y-25000000D02*
X179200000Y-25000000D01*
D11*
%TO.C,SW20*%
X97700000Y-48810000D02*
X97700000Y-51810000D01*
X97700000Y-51810000D02*
X94300000Y-51810000D01*
X94300000Y-48810000D02*
X97700000Y-48810000D01*
X94300000Y-51810000D02*
X94300000Y-48810000D01*
%TO.C,SW22*%
X94300000Y-87810000D02*
X94300000Y-84810000D01*
X97700000Y-84810000D02*
X97700000Y-87810000D01*
X94300000Y-84810000D02*
X97700000Y-84810000D01*
X97700000Y-87810000D02*
X94300000Y-87810000D01*
%TO.C,SW0*%
X132300000Y-48810000D02*
X135700000Y-48810000D01*
X135700000Y-48810000D02*
X135700000Y-51810000D01*
X135700000Y-51810000D02*
X132300000Y-51810000D01*
X132300000Y-51810000D02*
X132300000Y-48810000D01*
%TO.C,SW21*%
X97700000Y-69810000D02*
X94300000Y-69810000D01*
X94300000Y-66810000D02*
X97700000Y-66810000D01*
X94300000Y-69810000D02*
X94300000Y-66810000D01*
X97700000Y-66810000D02*
X97700000Y-69810000D01*
%TO.C,SW52*%
X40700000Y-87810000D02*
X37300000Y-87810000D01*
X37300000Y-87810000D02*
X37300000Y-84810000D01*
X37300000Y-84810000D02*
X40700000Y-84810000D01*
X40700000Y-84810000D02*
X40700000Y-87810000D01*
%TO.C,SW54*%
X37300000Y-123810000D02*
X37300000Y-120810000D01*
X37300000Y-120810000D02*
X40700000Y-120810000D01*
X40700000Y-120810000D02*
X40700000Y-123810000D01*
X40700000Y-123810000D02*
X37300000Y-123810000D01*
%TO.C,SW34*%
X75300000Y-123810000D02*
X75300000Y-120810000D01*
X78700000Y-123810000D02*
X75300000Y-123810000D01*
X75300000Y-120810000D02*
X78700000Y-120810000D01*
X78700000Y-120810000D02*
X78700000Y-123810000D01*
%TO.C,SW50*%
X40700000Y-48810000D02*
X40700000Y-51810000D01*
X37300000Y-51810000D02*
X37300000Y-48810000D01*
X40700000Y-51810000D02*
X37300000Y-51810000D01*
X37300000Y-48810000D02*
X40700000Y-48810000D01*
%TO.C,SW13*%
X116700000Y-102810000D02*
X116700000Y-105810000D01*
X116700000Y-105810000D02*
X113300000Y-105810000D01*
X113300000Y-105810000D02*
X113300000Y-102810000D01*
X113300000Y-102810000D02*
X116700000Y-102810000D01*
%TO.C,SW32*%
X75300000Y-84810000D02*
X78700000Y-84810000D01*
X75300000Y-87810000D02*
X75300000Y-84810000D01*
X78700000Y-87810000D02*
X75300000Y-87810000D01*
X78700000Y-84810000D02*
X78700000Y-87810000D01*
%TO.C,SW41*%
X56300000Y-66810000D02*
X59700000Y-66810000D01*
X59700000Y-69810000D02*
X56300000Y-69810000D01*
X56300000Y-69810000D02*
X56300000Y-66810000D01*
X59700000Y-66810000D02*
X59700000Y-69810000D01*
%TO.C,SW44*%
X59700000Y-120810000D02*
X59700000Y-123810000D01*
X56300000Y-120810000D02*
X59700000Y-120810000D01*
X56300000Y-123810000D02*
X56300000Y-120810000D01*
X59700000Y-123810000D02*
X56300000Y-123810000D01*
%TO.C,SW11*%
X113300000Y-69810000D02*
X113300000Y-66810000D01*
X116700000Y-69810000D02*
X113300000Y-69810000D01*
X113300000Y-66810000D02*
X116700000Y-66810000D01*
X116700000Y-66810000D02*
X116700000Y-69810000D01*
%TO.C,SW42*%
X59700000Y-87810000D02*
X56300000Y-87810000D01*
X56300000Y-84810000D02*
X59700000Y-84810000D01*
X59700000Y-84810000D02*
X59700000Y-87810000D01*
X56300000Y-87810000D02*
X56300000Y-84810000D01*
%TO.C,SW3*%
X132300000Y-102810000D02*
X135700000Y-102810000D01*
X132300000Y-105810000D02*
X132300000Y-102810000D01*
X135700000Y-105810000D02*
X132300000Y-105810000D01*
X135700000Y-102810000D02*
X135700000Y-105810000D01*
%TO.C,SW24*%
X97700000Y-120810000D02*
X97700000Y-123810000D01*
X94300000Y-120810000D02*
X97700000Y-120810000D01*
X94300000Y-123810000D02*
X94300000Y-120810000D01*
X97700000Y-123810000D02*
X94300000Y-123810000D01*
%TO.C,SW14*%
X119146411Y-132542248D02*
X116742248Y-134946411D01*
X114620927Y-132825091D02*
X117025091Y-130420927D01*
X117025091Y-130420927D02*
X119146411Y-132542248D01*
X116742248Y-134946411D02*
X114620927Y-132825091D01*
%TO.C,SW33*%
X78700000Y-102810000D02*
X78700000Y-105810000D01*
X78700000Y-105810000D02*
X75300000Y-105810000D01*
X75300000Y-105810000D02*
X75300000Y-102810000D01*
X75300000Y-102810000D02*
X78700000Y-102810000D01*
%TO.C,SW1*%
X135700000Y-69810000D02*
X132300000Y-69810000D01*
X132300000Y-66810000D02*
X135700000Y-66810000D01*
X132300000Y-69810000D02*
X132300000Y-66810000D01*
X135700000Y-66810000D02*
X135700000Y-69810000D01*
%TO.C,SW23*%
X94300000Y-105810000D02*
X94300000Y-102810000D01*
X94300000Y-102810000D02*
X97700000Y-102810000D01*
X97700000Y-102810000D02*
X97700000Y-105810000D01*
X97700000Y-105810000D02*
X94300000Y-105810000D01*
%TO.C,SW30*%
X78700000Y-48810000D02*
X78700000Y-51810000D01*
X78700000Y-51810000D02*
X75300000Y-51810000D01*
X75300000Y-51810000D02*
X75300000Y-48810000D01*
X75300000Y-48810000D02*
X78700000Y-48810000D01*
%TO.C,SW4*%
X130146411Y-149542248D02*
X127742248Y-151946411D01*
X127742248Y-151946411D02*
X125620927Y-149825091D01*
X125620927Y-149825091D02*
X128025091Y-147420927D01*
X128025091Y-147420927D02*
X130146411Y-149542248D01*
%TO.C,SW43*%
X59700000Y-105810000D02*
X56300000Y-105810000D01*
X56300000Y-105810000D02*
X56300000Y-102810000D01*
X59700000Y-102810000D02*
X59700000Y-105810000D01*
X56300000Y-102810000D02*
X59700000Y-102810000D01*
%TO.C,SW2*%
X132300000Y-87810000D02*
X132300000Y-84810000D01*
X132300000Y-84810000D02*
X135700000Y-84810000D01*
X135700000Y-84810000D02*
X135700000Y-87810000D01*
X135700000Y-87810000D02*
X132300000Y-87810000D01*
%TO.C,SW12*%
X113300000Y-84810000D02*
X116700000Y-84810000D01*
X116700000Y-84810000D02*
X116700000Y-87810000D01*
X116700000Y-87810000D02*
X113300000Y-87810000D01*
X113300000Y-87810000D02*
X113300000Y-84810000D01*
%TO.C,SW31*%
X78700000Y-69810000D02*
X75300000Y-69810000D01*
X78700000Y-66810000D02*
X78700000Y-69810000D01*
X75300000Y-69810000D02*
X75300000Y-66810000D01*
X75300000Y-66810000D02*
X78700000Y-66810000D01*
%TO.C,SW51*%
X40700000Y-66810000D02*
X40700000Y-69810000D01*
X37300000Y-69810000D02*
X37300000Y-66810000D01*
X40700000Y-69810000D02*
X37300000Y-69810000D01*
X37300000Y-66810000D02*
X40700000Y-66810000D01*
%TO.C,SW40*%
X56300000Y-48810000D02*
X59700000Y-48810000D01*
X59700000Y-51810000D02*
X56300000Y-51810000D01*
X56300000Y-51810000D02*
X56300000Y-48810000D01*
X59700000Y-48810000D02*
X59700000Y-51810000D01*
%TO.C,SW10*%
X113300000Y-51810000D02*
X113300000Y-48810000D01*
X116700000Y-48810000D02*
X116700000Y-51810000D01*
X113300000Y-48810000D02*
X116700000Y-48810000D01*
X116700000Y-51810000D02*
X113300000Y-51810000D01*
%TO.C,SW53*%
X37300000Y-102810000D02*
X40700000Y-102810000D01*
X40700000Y-102810000D02*
X40700000Y-105810000D01*
X40700000Y-105810000D02*
X37300000Y-105810000D01*
X37300000Y-105810000D02*
X37300000Y-102810000D01*
%TD*%
M02*
