%FSLAX45Y45*%
G04 Gerber Fmt 4.5, Leading zero omitted, Abs format (unit mm)*
G04 Created by KiCad (PCBNEW (6.0.2)) date 2022-04-13 18:46:09*
%MOMM*%
%LPD*%
G01*
G04 APERTURE LIST*
%TA.AperFunction,Profile*%
%ADD10C,0.100000*%
%TD*%
%ADD11C,0.200000*%
%ADD12C,0.150000*%
%ADD13C,0.170180*%
%ADD14C,0.300000*%
%ADD15C,0.342900*%
G04 APERTURE END LIST*
D10*
X17920000Y-8300000D02*
X17920000Y-2500000D01*
X17920000Y-8300000D02*
X17920000Y-12340000D01*
X13520000Y-16740000D02*
X12720000Y-17540000D01*
X12340000Y-17920000D02*
X8420000Y-14000000D01*
X3160000Y-14000000D02*
X2600000Y-14000000D01*
X12720000Y-17540000D02*
X12340000Y-17920000D01*
X3160000Y-14000000D02*
X8420000Y-14000000D01*
X16300000Y-12340000D02*
G75*
G03*
X16300000Y-12340000I-800000J0D01*
G01*
X13520000Y-16740000D02*
X17920000Y-12340000D01*
X2600000Y-2500000D02*
X2600000Y-14000000D01*
X2600000Y-2500000D02*
X17920000Y-2500000D01*
D11*
D12*
X16765000Y-7375000D02*
X16915000Y-7525000D01*
X16915000Y-7375000D02*
X16765000Y-7525000D01*
X16765000Y-7835000D02*
X16915000Y-7985000D01*
X16915000Y-7835000D02*
X16765000Y-7985000D01*
X17465000Y-7375000D02*
X17615000Y-7525000D01*
X17615000Y-7375000D02*
X17465000Y-7525000D01*
X17465000Y-7835000D02*
X17615000Y-7985000D01*
X17615000Y-7835000D02*
X17465000Y-7985000D01*
D13*
X3435090Y-5500000D02*
G75*
G03*
X3435090Y-5500000I-85090J0D01*
G01*
X3435090Y-7300000D02*
G75*
G03*
X3435090Y-7300000I-85090J0D01*
G01*
X3435090Y-9100000D02*
G75*
G03*
X3435090Y-9100000I-85090J0D01*
G01*
X3435090Y-10900000D02*
G75*
G03*
X3435090Y-10900000I-85090J0D01*
G01*
X3435090Y-12700000D02*
G75*
G03*
X3435090Y-12700000I-85090J0D01*
G01*
X4535090Y-5500000D02*
G75*
G03*
X4535090Y-5500000I-85090J0D01*
G01*
X4535090Y-7300000D02*
G75*
G03*
X4535090Y-7300000I-85090J0D01*
G01*
X4535090Y-9100000D02*
G75*
G03*
X4535090Y-9100000I-85090J0D01*
G01*
X4535090Y-10900000D02*
G75*
G03*
X4535090Y-10900000I-85090J0D01*
G01*
X4535090Y-12700000D02*
G75*
G03*
X4535090Y-12700000I-85090J0D01*
G01*
X5335090Y-5500000D02*
G75*
G03*
X5335090Y-5500000I-85090J0D01*
G01*
X5335090Y-7300000D02*
G75*
G03*
X5335090Y-7300000I-85090J0D01*
G01*
X5335090Y-9100000D02*
G75*
G03*
X5335090Y-9100000I-85090J0D01*
G01*
X5335090Y-10900000D02*
G75*
G03*
X5335090Y-10900000I-85090J0D01*
G01*
X5335090Y-12700000D02*
G75*
G03*
X5335090Y-12700000I-85090J0D01*
G01*
X6435090Y-5500000D02*
G75*
G03*
X6435090Y-5500000I-85090J0D01*
G01*
X6435090Y-7300000D02*
G75*
G03*
X6435090Y-7300000I-85090J0D01*
G01*
X6435090Y-9100000D02*
G75*
G03*
X6435090Y-9100000I-85090J0D01*
G01*
X6435090Y-10900000D02*
G75*
G03*
X6435090Y-10900000I-85090J0D01*
G01*
X6435090Y-12700000D02*
G75*
G03*
X6435090Y-12700000I-85090J0D01*
G01*
X7235090Y-5500000D02*
G75*
G03*
X7235090Y-5500000I-85090J0D01*
G01*
X7235090Y-7300000D02*
G75*
G03*
X7235090Y-7300000I-85090J0D01*
G01*
X7235090Y-9100000D02*
G75*
G03*
X7235090Y-9100000I-85090J0D01*
G01*
X7235090Y-10900000D02*
G75*
G03*
X7235090Y-10900000I-85090J0D01*
G01*
X7235090Y-12700000D02*
G75*
G03*
X7235090Y-12700000I-85090J0D01*
G01*
X8335090Y-5500000D02*
G75*
G03*
X8335090Y-5500000I-85090J0D01*
G01*
X8335090Y-7300000D02*
G75*
G03*
X8335090Y-7300000I-85090J0D01*
G01*
X8335090Y-9100000D02*
G75*
G03*
X8335090Y-9100000I-85090J0D01*
G01*
X8335090Y-10900000D02*
G75*
G03*
X8335090Y-10900000I-85090J0D01*
G01*
X8335090Y-12700000D02*
G75*
G03*
X8335090Y-12700000I-85090J0D01*
G01*
X9135090Y-5500000D02*
G75*
G03*
X9135090Y-5500000I-85090J0D01*
G01*
X9135090Y-7300000D02*
G75*
G03*
X9135090Y-7300000I-85090J0D01*
G01*
X9135090Y-9100000D02*
G75*
G03*
X9135090Y-9100000I-85090J0D01*
G01*
X9135090Y-10900000D02*
G75*
G03*
X9135090Y-10900000I-85090J0D01*
G01*
X9135090Y-12700000D02*
G75*
G03*
X9135090Y-12700000I-85090J0D01*
G01*
X10235090Y-5500000D02*
G75*
G03*
X10235090Y-5500000I-85090J0D01*
G01*
X10235090Y-7300000D02*
G75*
G03*
X10235090Y-7300000I-85090J0D01*
G01*
X10235090Y-9100000D02*
G75*
G03*
X10235090Y-9100000I-85090J0D01*
G01*
X10235090Y-10900000D02*
G75*
G03*
X10235090Y-10900000I-85090J0D01*
G01*
X10235090Y-12700000D02*
G75*
G03*
X10235090Y-12700000I-85090J0D01*
G01*
X11035090Y-5500000D02*
G75*
G03*
X11035090Y-5500000I-85090J0D01*
G01*
X11035090Y-7300000D02*
G75*
G03*
X11035090Y-7300000I-85090J0D01*
G01*
X11035090Y-9100000D02*
G75*
G03*
X11035090Y-9100000I-85090J0D01*
G01*
X11035090Y-10900000D02*
G75*
G03*
X11035090Y-10900000I-85090J0D01*
G01*
X11716181Y-13988909D02*
G75*
G03*
X11716181Y-13988909I-85090J0D01*
G01*
X12135090Y-5500000D02*
G75*
G03*
X12135090Y-5500000I-85090J0D01*
G01*
X12135090Y-7300000D02*
G75*
G03*
X12135090Y-7300000I-85090J0D01*
G01*
X12135090Y-9100000D02*
G75*
G03*
X12135090Y-9100000I-85090J0D01*
G01*
X12135090Y-10900000D02*
G75*
G03*
X12135090Y-10900000I-85090J0D01*
G01*
X12493999Y-13211091D02*
G75*
G03*
X12493999Y-13211091I-85090J0D01*
G01*
X12816181Y-15688909D02*
G75*
G03*
X12816181Y-15688909I-85090J0D01*
G01*
X12935090Y-5500000D02*
G75*
G03*
X12935090Y-5500000I-85090J0D01*
G01*
X12935090Y-7300000D02*
G75*
G03*
X12935090Y-7300000I-85090J0D01*
G01*
X12935090Y-9100000D02*
G75*
G03*
X12935090Y-9100000I-85090J0D01*
G01*
X12935090Y-10900000D02*
G75*
G03*
X12935090Y-10900000I-85090J0D01*
G01*
X13593999Y-14911091D02*
G75*
G03*
X13593999Y-14911091I-85090J0D01*
G01*
X14035090Y-5500000D02*
G75*
G03*
X14035090Y-5500000I-85090J0D01*
G01*
X14035090Y-7300000D02*
G75*
G03*
X14035090Y-7300000I-85090J0D01*
G01*
X14035090Y-9100000D02*
G75*
G03*
X14035090Y-9100000I-85090J0D01*
G01*
X14035090Y-10900000D02*
G75*
G03*
X14035090Y-10900000I-85090J0D01*
G01*
D14*
X3400000Y-5725000D02*
X3400000Y-6025000D01*
X3250000Y-5875000D02*
X3550000Y-5875000D01*
X3400000Y-7525000D02*
X3400000Y-7825000D01*
X3250000Y-7675000D02*
X3550000Y-7675000D01*
X3400000Y-9325000D02*
X3400000Y-9625000D01*
X3250000Y-9475000D02*
X3550000Y-9475000D01*
X3400000Y-11125000D02*
X3400000Y-11425000D01*
X3250000Y-11275000D02*
X3550000Y-11275000D01*
X3400000Y-12925000D02*
X3400000Y-13225000D01*
X3250000Y-13075000D02*
X3550000Y-13075000D01*
X3900000Y-5945000D02*
X3900000Y-6245000D01*
X3750000Y-6095000D02*
X4050000Y-6095000D01*
X3900000Y-7745000D02*
X3900000Y-8045000D01*
X3750000Y-7895000D02*
X4050000Y-7895000D01*
X3900000Y-9545000D02*
X3900000Y-9845000D01*
X3750000Y-9695000D02*
X4050000Y-9695000D01*
X3900000Y-11345000D02*
X3900000Y-11645000D01*
X3750000Y-11495000D02*
X4050000Y-11495000D01*
X3900000Y-13145000D02*
X3900000Y-13445000D01*
X3750000Y-13295000D02*
X4050000Y-13295000D01*
X4400000Y-5725000D02*
X4400000Y-6025000D01*
X4250000Y-5875000D02*
X4550000Y-5875000D01*
X4400000Y-7525000D02*
X4400000Y-7825000D01*
X4250000Y-7675000D02*
X4550000Y-7675000D01*
X4400000Y-9325000D02*
X4400000Y-9625000D01*
X4250000Y-9475000D02*
X4550000Y-9475000D01*
X4400000Y-11125000D02*
X4400000Y-11425000D01*
X4250000Y-11275000D02*
X4550000Y-11275000D01*
X4400000Y-12925000D02*
X4400000Y-13225000D01*
X4250000Y-13075000D02*
X4550000Y-13075000D01*
X5300000Y-5725000D02*
X5300000Y-6025000D01*
X5150000Y-5875000D02*
X5450000Y-5875000D01*
X5300000Y-7525000D02*
X5300000Y-7825000D01*
X5150000Y-7675000D02*
X5450000Y-7675000D01*
X5300000Y-9325000D02*
X5300000Y-9625000D01*
X5150000Y-9475000D02*
X5450000Y-9475000D01*
X5300000Y-11125000D02*
X5300000Y-11425000D01*
X5150000Y-11275000D02*
X5450000Y-11275000D01*
X5300000Y-12925000D02*
X5300000Y-13225000D01*
X5150000Y-13075000D02*
X5450000Y-13075000D01*
X5800000Y-5945000D02*
X5800000Y-6245000D01*
X5650000Y-6095000D02*
X5950000Y-6095000D01*
X5800000Y-7745000D02*
X5800000Y-8045000D01*
X5650000Y-7895000D02*
X5950000Y-7895000D01*
X5800000Y-9545000D02*
X5800000Y-9845000D01*
X5650000Y-9695000D02*
X5950000Y-9695000D01*
X5800000Y-11345000D02*
X5800000Y-11645000D01*
X5650000Y-11495000D02*
X5950000Y-11495000D01*
X5800000Y-13145000D02*
X5800000Y-13445000D01*
X5650000Y-13295000D02*
X5950000Y-13295000D01*
X6300000Y-5725000D02*
X6300000Y-6025000D01*
X6150000Y-5875000D02*
X6450000Y-5875000D01*
X6300000Y-7525000D02*
X6300000Y-7825000D01*
X6150000Y-7675000D02*
X6450000Y-7675000D01*
X6300000Y-9325000D02*
X6300000Y-9625000D01*
X6150000Y-9475000D02*
X6450000Y-9475000D01*
X6300000Y-11125000D02*
X6300000Y-11425000D01*
X6150000Y-11275000D02*
X6450000Y-11275000D01*
X6300000Y-12925000D02*
X6300000Y-13225000D01*
X6150000Y-13075000D02*
X6450000Y-13075000D01*
X7200000Y-5725000D02*
X7200000Y-6025000D01*
X7050000Y-5875000D02*
X7350000Y-5875000D01*
X7200000Y-7525000D02*
X7200000Y-7825000D01*
X7050000Y-7675000D02*
X7350000Y-7675000D01*
X7200000Y-9325000D02*
X7200000Y-9625000D01*
X7050000Y-9475000D02*
X7350000Y-9475000D01*
X7200000Y-11125000D02*
X7200000Y-11425000D01*
X7050000Y-11275000D02*
X7350000Y-11275000D01*
X7200000Y-12925000D02*
X7200000Y-13225000D01*
X7050000Y-13075000D02*
X7350000Y-13075000D01*
X7700000Y-5945000D02*
X7700000Y-6245000D01*
X7550000Y-6095000D02*
X7850000Y-6095000D01*
X7700000Y-7745000D02*
X7700000Y-8045000D01*
X7550000Y-7895000D02*
X7850000Y-7895000D01*
X7700000Y-9545000D02*
X7700000Y-9845000D01*
X7550000Y-9695000D02*
X7850000Y-9695000D01*
X7700000Y-11345000D02*
X7700000Y-11645000D01*
X7550000Y-11495000D02*
X7850000Y-11495000D01*
X7700000Y-13145000D02*
X7700000Y-13445000D01*
X7550000Y-13295000D02*
X7850000Y-13295000D01*
X8200000Y-5725000D02*
X8200000Y-6025000D01*
X8050000Y-5875000D02*
X8350000Y-5875000D01*
X8200000Y-7525000D02*
X8200000Y-7825000D01*
X8050000Y-7675000D02*
X8350000Y-7675000D01*
X8200000Y-9325000D02*
X8200000Y-9625000D01*
X8050000Y-9475000D02*
X8350000Y-9475000D01*
X8200000Y-11125000D02*
X8200000Y-11425000D01*
X8050000Y-11275000D02*
X8350000Y-11275000D01*
X8200000Y-12925000D02*
X8200000Y-13225000D01*
X8050000Y-13075000D02*
X8350000Y-13075000D01*
X9100000Y-5725000D02*
X9100000Y-6025000D01*
X8950000Y-5875000D02*
X9250000Y-5875000D01*
X9100000Y-7525000D02*
X9100000Y-7825000D01*
X8950000Y-7675000D02*
X9250000Y-7675000D01*
X9100000Y-9325000D02*
X9100000Y-9625000D01*
X8950000Y-9475000D02*
X9250000Y-9475000D01*
X9100000Y-11125000D02*
X9100000Y-11425000D01*
X8950000Y-11275000D02*
X9250000Y-11275000D01*
X9100000Y-12925000D02*
X9100000Y-13225000D01*
X8950000Y-13075000D02*
X9250000Y-13075000D01*
X9600000Y-5945000D02*
X9600000Y-6245000D01*
X9450000Y-6095000D02*
X9750000Y-6095000D01*
X9600000Y-7745000D02*
X9600000Y-8045000D01*
X9450000Y-7895000D02*
X9750000Y-7895000D01*
X9600000Y-9545000D02*
X9600000Y-9845000D01*
X9450000Y-9695000D02*
X9750000Y-9695000D01*
X9600000Y-11345000D02*
X9600000Y-11645000D01*
X9450000Y-11495000D02*
X9750000Y-11495000D01*
X9600000Y-13145000D02*
X9600000Y-13445000D01*
X9450000Y-13295000D02*
X9750000Y-13295000D01*
X10100000Y-5725000D02*
X10100000Y-6025000D01*
X9950000Y-5875000D02*
X10250000Y-5875000D01*
X10100000Y-7525000D02*
X10100000Y-7825000D01*
X9950000Y-7675000D02*
X10250000Y-7675000D01*
X10100000Y-9325000D02*
X10100000Y-9625000D01*
X9950000Y-9475000D02*
X10250000Y-9475000D01*
X10100000Y-11125000D02*
X10100000Y-11425000D01*
X9950000Y-11275000D02*
X10250000Y-11275000D01*
X10100000Y-12925000D02*
X10100000Y-13225000D01*
X9950000Y-13075000D02*
X10250000Y-13075000D01*
X11000000Y-5725000D02*
X11000000Y-6025000D01*
X10850000Y-5875000D02*
X11150000Y-5875000D01*
X11000000Y-7525000D02*
X11000000Y-7825000D01*
X10850000Y-7675000D02*
X11150000Y-7675000D01*
X11000000Y-9325000D02*
X11000000Y-9625000D01*
X10850000Y-9475000D02*
X11150000Y-9475000D01*
X11000000Y-11125000D02*
X11000000Y-11425000D01*
X10850000Y-11275000D02*
X11150000Y-11275000D01*
X11500000Y-5945000D02*
X11500000Y-6245000D01*
X11350000Y-6095000D02*
X11650000Y-6095000D01*
X11500000Y-7745000D02*
X11500000Y-8045000D01*
X11350000Y-7895000D02*
X11650000Y-7895000D01*
X11500000Y-9545000D02*
X11500000Y-9845000D01*
X11350000Y-9695000D02*
X11650000Y-9695000D01*
X11500000Y-11345000D02*
X11500000Y-11645000D01*
X11350000Y-11495000D02*
X11650000Y-11495000D01*
X11931612Y-14068718D02*
X11931612Y-14368718D01*
X11781612Y-14218718D02*
X12081612Y-14218718D01*
X12000000Y-5725000D02*
X12000000Y-6025000D01*
X11850000Y-5875000D02*
X12150000Y-5875000D01*
X12000000Y-7525000D02*
X12000000Y-7825000D01*
X11850000Y-7675000D02*
X12150000Y-7675000D01*
X12000000Y-9325000D02*
X12000000Y-9625000D01*
X11850000Y-9475000D02*
X12150000Y-9475000D01*
X12000000Y-11125000D02*
X12000000Y-11425000D01*
X11850000Y-11275000D02*
X12150000Y-11275000D01*
X12440728Y-13870728D02*
X12440728Y-14170728D01*
X12290728Y-14020728D02*
X12590728Y-14020728D01*
X12638718Y-13361612D02*
X12638718Y-13661612D01*
X12488718Y-13511612D02*
X12788718Y-13511612D01*
X12900000Y-5725000D02*
X12900000Y-6025000D01*
X12750000Y-5875000D02*
X13050000Y-5875000D01*
X12900000Y-7525000D02*
X12900000Y-7825000D01*
X12750000Y-7675000D02*
X13050000Y-7675000D01*
X12900000Y-9325000D02*
X12900000Y-9625000D01*
X12750000Y-9475000D02*
X13050000Y-9475000D01*
X12900000Y-11125000D02*
X12900000Y-11425000D01*
X12750000Y-11275000D02*
X13050000Y-11275000D01*
X13031612Y-15768718D02*
X13031612Y-16068718D01*
X12881612Y-15918718D02*
X13181612Y-15918718D01*
X13400000Y-5945000D02*
X13400000Y-6245000D01*
X13250000Y-6095000D02*
X13550000Y-6095000D01*
X13400000Y-7745000D02*
X13400000Y-8045000D01*
X13250000Y-7895000D02*
X13550000Y-7895000D01*
X13400000Y-9545000D02*
X13400000Y-9845000D01*
X13250000Y-9695000D02*
X13550000Y-9695000D01*
X13400000Y-11345000D02*
X13400000Y-11645000D01*
X13250000Y-11495000D02*
X13550000Y-11495000D01*
X13540728Y-15570728D02*
X13540728Y-15870728D01*
X13390728Y-15720728D02*
X13690728Y-15720728D01*
X13738718Y-15061612D02*
X13738718Y-15361612D01*
X13588718Y-15211612D02*
X13888718Y-15211612D01*
X13900000Y-5725000D02*
X13900000Y-6025000D01*
X13750000Y-5875000D02*
X14050000Y-5875000D01*
X13900000Y-7525000D02*
X13900000Y-7825000D01*
X13750000Y-7675000D02*
X14050000Y-7675000D01*
X13900000Y-9325000D02*
X13900000Y-9625000D01*
X13750000Y-9475000D02*
X14050000Y-9475000D01*
X13900000Y-11125000D02*
X13900000Y-11425000D01*
X13750000Y-11275000D02*
X14050000Y-11275000D01*
D15*
X4021235Y-5621235D02*
X4021235Y-5378765D01*
X3778765Y-5378765D01*
X3778765Y-5621235D01*
X4021235Y-5621235D01*
X4021235Y-7421235D02*
X4021235Y-7178765D01*
X3778765Y-7178765D01*
X3778765Y-7421235D01*
X4021235Y-7421235D01*
X4021235Y-9221235D02*
X4021235Y-8978765D01*
X3778765Y-8978765D01*
X3778765Y-9221235D01*
X4021235Y-9221235D01*
X4021235Y-11021235D02*
X4021235Y-10778765D01*
X3778765Y-10778765D01*
X3778765Y-11021235D01*
X4021235Y-11021235D01*
X4021235Y-12821235D02*
X4021235Y-12578765D01*
X3778765Y-12578765D01*
X3778765Y-12821235D01*
X4021235Y-12821235D01*
X5921235Y-5621235D02*
X5921235Y-5378765D01*
X5678765Y-5378765D01*
X5678765Y-5621235D01*
X5921235Y-5621235D01*
X5921235Y-7421235D02*
X5921235Y-7178765D01*
X5678765Y-7178765D01*
X5678765Y-7421235D01*
X5921235Y-7421235D01*
X5921235Y-9221235D02*
X5921235Y-8978765D01*
X5678765Y-8978765D01*
X5678765Y-9221235D01*
X5921235Y-9221235D01*
X5921235Y-11021235D02*
X5921235Y-10778765D01*
X5678765Y-10778765D01*
X5678765Y-11021235D01*
X5921235Y-11021235D01*
X5921235Y-12821235D02*
X5921235Y-12578765D01*
X5678765Y-12578765D01*
X5678765Y-12821235D01*
X5921235Y-12821235D01*
X7821235Y-5621235D02*
X7821235Y-5378765D01*
X7578765Y-5378765D01*
X7578765Y-5621235D01*
X7821235Y-5621235D01*
X7821235Y-7421235D02*
X7821235Y-7178765D01*
X7578765Y-7178765D01*
X7578765Y-7421235D01*
X7821235Y-7421235D01*
X7821235Y-9221235D02*
X7821235Y-8978765D01*
X7578765Y-8978765D01*
X7578765Y-9221235D01*
X7821235Y-9221235D01*
X7821235Y-11021235D02*
X7821235Y-10778765D01*
X7578765Y-10778765D01*
X7578765Y-11021235D01*
X7821235Y-11021235D01*
X7821235Y-12821235D02*
X7821235Y-12578765D01*
X7578765Y-12578765D01*
X7578765Y-12821235D01*
X7821235Y-12821235D01*
X9721235Y-5621235D02*
X9721235Y-5378765D01*
X9478765Y-5378765D01*
X9478765Y-5621235D01*
X9721235Y-5621235D01*
X9721235Y-7421235D02*
X9721235Y-7178765D01*
X9478765Y-7178765D01*
X9478765Y-7421235D01*
X9721235Y-7421235D01*
X9721235Y-9221235D02*
X9721235Y-8978765D01*
X9478765Y-8978765D01*
X9478765Y-9221235D01*
X9721235Y-9221235D01*
X9721235Y-11021235D02*
X9721235Y-10778765D01*
X9478765Y-10778765D01*
X9478765Y-11021235D01*
X9721235Y-11021235D01*
X9721235Y-12821235D02*
X9721235Y-12578765D01*
X9478765Y-12578765D01*
X9478765Y-12821235D01*
X9721235Y-12821235D01*
X11621235Y-5621235D02*
X11621235Y-5378765D01*
X11378765Y-5378765D01*
X11378765Y-5621235D01*
X11621235Y-5621235D01*
X11621235Y-7421235D02*
X11621235Y-7178765D01*
X11378765Y-7178765D01*
X11378765Y-7421235D01*
X11621235Y-7421235D01*
X11621235Y-9221235D02*
X11621235Y-8978765D01*
X11378765Y-8978765D01*
X11378765Y-9221235D01*
X11621235Y-9221235D01*
X11621235Y-11021235D02*
X11621235Y-10778765D01*
X11378765Y-10778765D01*
X11378765Y-11021235D01*
X11621235Y-11021235D01*
X12141235Y-13721235D02*
X12141235Y-13478765D01*
X11898765Y-13478765D01*
X11898765Y-13721235D01*
X12141235Y-13721235D01*
X13241235Y-15421235D02*
X13241235Y-15178765D01*
X12998765Y-15178765D01*
X12998765Y-15421235D01*
X13241235Y-15421235D01*
X13521235Y-5621235D02*
X13521235Y-5378765D01*
X13278765Y-5378765D01*
X13278765Y-5621235D01*
X13521235Y-5621235D01*
X13521235Y-7421235D02*
X13521235Y-7178765D01*
X13278765Y-7178765D01*
X13278765Y-7421235D01*
X13521235Y-7421235D01*
X13521235Y-9221235D02*
X13521235Y-8978765D01*
X13278765Y-8978765D01*
X13278765Y-9221235D01*
X13521235Y-9221235D01*
X13521235Y-11021235D02*
X13521235Y-10778765D01*
X13278765Y-10778765D01*
X13278765Y-11021235D01*
X13521235Y-11021235D01*
D11*
X2852619Y-18235476D02*
X2852619Y-18035476D01*
X2900238Y-18035476D01*
X2928809Y-18045000D01*
X2947857Y-18064048D01*
X2957381Y-18083095D01*
X2966905Y-18121190D01*
X2966905Y-18149762D01*
X2957381Y-18187857D01*
X2947857Y-18206905D01*
X2928809Y-18225952D01*
X2900238Y-18235476D01*
X2852619Y-18235476D01*
X3052619Y-18235476D02*
X3052619Y-18102143D01*
X3052619Y-18140238D02*
X3062143Y-18121190D01*
X3071667Y-18111667D01*
X3090714Y-18102143D01*
X3109762Y-18102143D01*
X3176428Y-18235476D02*
X3176428Y-18102143D01*
X3176428Y-18035476D02*
X3166905Y-18045000D01*
X3176428Y-18054524D01*
X3185952Y-18045000D01*
X3176428Y-18035476D01*
X3176428Y-18054524D01*
X3300238Y-18235476D02*
X3281190Y-18225952D01*
X3271667Y-18206905D01*
X3271667Y-18035476D01*
X3405000Y-18235476D02*
X3385952Y-18225952D01*
X3376428Y-18206905D01*
X3376428Y-18035476D01*
X3633571Y-18235476D02*
X3633571Y-18035476D01*
X3700238Y-18178333D01*
X3766905Y-18035476D01*
X3766905Y-18235476D01*
X3947857Y-18235476D02*
X3947857Y-18130714D01*
X3938333Y-18111667D01*
X3919286Y-18102143D01*
X3881190Y-18102143D01*
X3862143Y-18111667D01*
X3947857Y-18225952D02*
X3928809Y-18235476D01*
X3881190Y-18235476D01*
X3862143Y-18225952D01*
X3852619Y-18206905D01*
X3852619Y-18187857D01*
X3862143Y-18168810D01*
X3881190Y-18159286D01*
X3928809Y-18159286D01*
X3947857Y-18149762D01*
X4043095Y-18102143D02*
X4043095Y-18302143D01*
X4043095Y-18111667D02*
X4062143Y-18102143D01*
X4100238Y-18102143D01*
X4119286Y-18111667D01*
X4128809Y-18121190D01*
X4138333Y-18140238D01*
X4138333Y-18197381D01*
X4128809Y-18216429D01*
X4119286Y-18225952D01*
X4100238Y-18235476D01*
X4062143Y-18235476D01*
X4043095Y-18225952D01*
X4224048Y-18216429D02*
X4233571Y-18225952D01*
X4224048Y-18235476D01*
X4214524Y-18225952D01*
X4224048Y-18216429D01*
X4224048Y-18235476D01*
X4224048Y-18111667D02*
X4233571Y-18121190D01*
X4224048Y-18130714D01*
X4214524Y-18121190D01*
X4224048Y-18111667D01*
X4224048Y-18130714D01*
D12*
X2445000Y-18490000D02*
X2595000Y-18640000D01*
X2595000Y-18490000D02*
X2445000Y-18640000D01*
D11*
X2957381Y-18655476D02*
X2843095Y-18655476D01*
X2900238Y-18655476D02*
X2900238Y-18455476D01*
X2881190Y-18484048D01*
X2862143Y-18503095D01*
X2843095Y-18512619D01*
X3043095Y-18636429D02*
X3052619Y-18645952D01*
X3043095Y-18655476D01*
X3033571Y-18645952D01*
X3043095Y-18636429D01*
X3043095Y-18655476D01*
X3233571Y-18455476D02*
X3138333Y-18455476D01*
X3128809Y-18550714D01*
X3138333Y-18541190D01*
X3157381Y-18531667D01*
X3205000Y-18531667D01*
X3224048Y-18541190D01*
X3233571Y-18550714D01*
X3243095Y-18569762D01*
X3243095Y-18617381D01*
X3233571Y-18636429D01*
X3224048Y-18645952D01*
X3205000Y-18655476D01*
X3157381Y-18655476D01*
X3138333Y-18645952D01*
X3128809Y-18636429D01*
X3366905Y-18455476D02*
X3385952Y-18455476D01*
X3405000Y-18465000D01*
X3414524Y-18474524D01*
X3424048Y-18493571D01*
X3433571Y-18531667D01*
X3433571Y-18579286D01*
X3424048Y-18617381D01*
X3414524Y-18636429D01*
X3405000Y-18645952D01*
X3385952Y-18655476D01*
X3366905Y-18655476D01*
X3347857Y-18645952D01*
X3338333Y-18636429D01*
X3328809Y-18617381D01*
X3319286Y-18579286D01*
X3319286Y-18531667D01*
X3328809Y-18493571D01*
X3338333Y-18474524D01*
X3347857Y-18465000D01*
X3366905Y-18455476D01*
X3557381Y-18455476D02*
X3576428Y-18455476D01*
X3595476Y-18465000D01*
X3605000Y-18474524D01*
X3614524Y-18493571D01*
X3624048Y-18531667D01*
X3624048Y-18579286D01*
X3614524Y-18617381D01*
X3605000Y-18636429D01*
X3595476Y-18645952D01*
X3576428Y-18655476D01*
X3557381Y-18655476D01*
X3538333Y-18645952D01*
X3528809Y-18636429D01*
X3519286Y-18617381D01*
X3509762Y-18579286D01*
X3509762Y-18531667D01*
X3519286Y-18493571D01*
X3528809Y-18474524D01*
X3538333Y-18465000D01*
X3557381Y-18455476D01*
X3709762Y-18655476D02*
X3709762Y-18522143D01*
X3709762Y-18541190D02*
X3719286Y-18531667D01*
X3738333Y-18522143D01*
X3766905Y-18522143D01*
X3785952Y-18531667D01*
X3795476Y-18550714D01*
X3795476Y-18655476D01*
X3795476Y-18550714D02*
X3805000Y-18531667D01*
X3824048Y-18522143D01*
X3852619Y-18522143D01*
X3871667Y-18531667D01*
X3881190Y-18550714D01*
X3881190Y-18655476D01*
X3976428Y-18655476D02*
X3976428Y-18522143D01*
X3976428Y-18541190D02*
X3985952Y-18531667D01*
X4005000Y-18522143D01*
X4033571Y-18522143D01*
X4052619Y-18531667D01*
X4062143Y-18550714D01*
X4062143Y-18655476D01*
X4062143Y-18550714D02*
X4071667Y-18531667D01*
X4090714Y-18522143D01*
X4119286Y-18522143D01*
X4138333Y-18531667D01*
X4147857Y-18550714D01*
X4147857Y-18655476D01*
X4538333Y-18445952D02*
X4366905Y-18703095D01*
X4795476Y-18455476D02*
X4814524Y-18455476D01*
X4833571Y-18465000D01*
X4843095Y-18474524D01*
X4852619Y-18493571D01*
X4862143Y-18531667D01*
X4862143Y-18579286D01*
X4852619Y-18617381D01*
X4843095Y-18636429D01*
X4833571Y-18645952D01*
X4814524Y-18655476D01*
X4795476Y-18655476D01*
X4776429Y-18645952D01*
X4766905Y-18636429D01*
X4757381Y-18617381D01*
X4747857Y-18579286D01*
X4747857Y-18531667D01*
X4757381Y-18493571D01*
X4766905Y-18474524D01*
X4776429Y-18465000D01*
X4795476Y-18455476D01*
X4947857Y-18636429D02*
X4957381Y-18645952D01*
X4947857Y-18655476D01*
X4938333Y-18645952D01*
X4947857Y-18636429D01*
X4947857Y-18655476D01*
X5081190Y-18455476D02*
X5100238Y-18455476D01*
X5119286Y-18465000D01*
X5128810Y-18474524D01*
X5138333Y-18493571D01*
X5147857Y-18531667D01*
X5147857Y-18579286D01*
X5138333Y-18617381D01*
X5128810Y-18636429D01*
X5119286Y-18645952D01*
X5100238Y-18655476D01*
X5081190Y-18655476D01*
X5062143Y-18645952D01*
X5052619Y-18636429D01*
X5043095Y-18617381D01*
X5033571Y-18579286D01*
X5033571Y-18531667D01*
X5043095Y-18493571D01*
X5052619Y-18474524D01*
X5062143Y-18465000D01*
X5081190Y-18455476D01*
X5328810Y-18455476D02*
X5233571Y-18455476D01*
X5224048Y-18550714D01*
X5233571Y-18541190D01*
X5252619Y-18531667D01*
X5300238Y-18531667D01*
X5319286Y-18541190D01*
X5328810Y-18550714D01*
X5338333Y-18569762D01*
X5338333Y-18617381D01*
X5328810Y-18636429D01*
X5319286Y-18645952D01*
X5300238Y-18655476D01*
X5252619Y-18655476D01*
X5233571Y-18645952D01*
X5224048Y-18636429D01*
X5433571Y-18655476D02*
X5471667Y-18655476D01*
X5490714Y-18645952D01*
X5500238Y-18636429D01*
X5519286Y-18607857D01*
X5528810Y-18569762D01*
X5528810Y-18493571D01*
X5519286Y-18474524D01*
X5509762Y-18465000D01*
X5490714Y-18455476D01*
X5452619Y-18455476D01*
X5433571Y-18465000D01*
X5424048Y-18474524D01*
X5414524Y-18493571D01*
X5414524Y-18541190D01*
X5424048Y-18560238D01*
X5433571Y-18569762D01*
X5452619Y-18579286D01*
X5490714Y-18579286D01*
X5509762Y-18569762D01*
X5519286Y-18560238D01*
X5528810Y-18541190D01*
X5719286Y-18655476D02*
X5605000Y-18655476D01*
X5662143Y-18655476D02*
X5662143Y-18455476D01*
X5643095Y-18484048D01*
X5624048Y-18503095D01*
X5605000Y-18512619D01*
X5795476Y-18455476D02*
X5795476Y-18493571D01*
X5871667Y-18455476D02*
X5871667Y-18493571D01*
X6166905Y-18731667D02*
X6157381Y-18722143D01*
X6138333Y-18693571D01*
X6128809Y-18674524D01*
X6119286Y-18645952D01*
X6109762Y-18598333D01*
X6109762Y-18560238D01*
X6119286Y-18512619D01*
X6128809Y-18484048D01*
X6138333Y-18465000D01*
X6157381Y-18436429D01*
X6166905Y-18426905D01*
X6328809Y-18522143D02*
X6328809Y-18655476D01*
X6281190Y-18445952D02*
X6233571Y-18588810D01*
X6357381Y-18588810D01*
X6585952Y-18655476D02*
X6585952Y-18455476D01*
X6671667Y-18655476D02*
X6671667Y-18550714D01*
X6662143Y-18531667D01*
X6643095Y-18522143D01*
X6614524Y-18522143D01*
X6595476Y-18531667D01*
X6585952Y-18541190D01*
X6795476Y-18655476D02*
X6776428Y-18645952D01*
X6766905Y-18636429D01*
X6757381Y-18617381D01*
X6757381Y-18560238D01*
X6766905Y-18541190D01*
X6776428Y-18531667D01*
X6795476Y-18522143D01*
X6824048Y-18522143D01*
X6843095Y-18531667D01*
X6852619Y-18541190D01*
X6862143Y-18560238D01*
X6862143Y-18617381D01*
X6852619Y-18636429D01*
X6843095Y-18645952D01*
X6824048Y-18655476D01*
X6795476Y-18655476D01*
X6976428Y-18655476D02*
X6957381Y-18645952D01*
X6947857Y-18626905D01*
X6947857Y-18455476D01*
X7128809Y-18645952D02*
X7109762Y-18655476D01*
X7071667Y-18655476D01*
X7052619Y-18645952D01*
X7043095Y-18626905D01*
X7043095Y-18550714D01*
X7052619Y-18531667D01*
X7071667Y-18522143D01*
X7109762Y-18522143D01*
X7128809Y-18531667D01*
X7138333Y-18550714D01*
X7138333Y-18569762D01*
X7043095Y-18588810D01*
X7214524Y-18645952D02*
X7233571Y-18655476D01*
X7271667Y-18655476D01*
X7290714Y-18645952D01*
X7300238Y-18626905D01*
X7300238Y-18617381D01*
X7290714Y-18598333D01*
X7271667Y-18588810D01*
X7243095Y-18588810D01*
X7224048Y-18579286D01*
X7214524Y-18560238D01*
X7214524Y-18550714D01*
X7224048Y-18531667D01*
X7243095Y-18522143D01*
X7271667Y-18522143D01*
X7290714Y-18531667D01*
X7366905Y-18731667D02*
X7376428Y-18722143D01*
X7395476Y-18693571D01*
X7405000Y-18674524D01*
X7414524Y-18645952D01*
X7424048Y-18598333D01*
X7424048Y-18560238D01*
X7414524Y-18512619D01*
X7405000Y-18484048D01*
X7395476Y-18465000D01*
X7376428Y-18436429D01*
X7366905Y-18426905D01*
X7728809Y-18731667D02*
X7719286Y-18722143D01*
X7700238Y-18693571D01*
X7690714Y-18674524D01*
X7681190Y-18645952D01*
X7671667Y-18598333D01*
X7671667Y-18560238D01*
X7681190Y-18512619D01*
X7690714Y-18484048D01*
X7700238Y-18465000D01*
X7719286Y-18436429D01*
X7728809Y-18426905D01*
X7805000Y-18522143D02*
X7805000Y-18655476D01*
X7805000Y-18541190D02*
X7814524Y-18531667D01*
X7833571Y-18522143D01*
X7862143Y-18522143D01*
X7881190Y-18531667D01*
X7890714Y-18550714D01*
X7890714Y-18655476D01*
X8014524Y-18655476D02*
X7995476Y-18645952D01*
X7985952Y-18636429D01*
X7976428Y-18617381D01*
X7976428Y-18560238D01*
X7985952Y-18541190D01*
X7995476Y-18531667D01*
X8014524Y-18522143D01*
X8043095Y-18522143D01*
X8062143Y-18531667D01*
X8071667Y-18541190D01*
X8081190Y-18560238D01*
X8081190Y-18617381D01*
X8071667Y-18636429D01*
X8062143Y-18645952D01*
X8043095Y-18655476D01*
X8014524Y-18655476D01*
X8138333Y-18522143D02*
X8214524Y-18522143D01*
X8166905Y-18455476D02*
X8166905Y-18626905D01*
X8176428Y-18645952D01*
X8195476Y-18655476D01*
X8214524Y-18655476D01*
X8433571Y-18522143D02*
X8433571Y-18722143D01*
X8433571Y-18531667D02*
X8452619Y-18522143D01*
X8490714Y-18522143D01*
X8509762Y-18531667D01*
X8519286Y-18541190D01*
X8528810Y-18560238D01*
X8528810Y-18617381D01*
X8519286Y-18636429D01*
X8509762Y-18645952D01*
X8490714Y-18655476D01*
X8452619Y-18655476D01*
X8433571Y-18645952D01*
X8643095Y-18655476D02*
X8624048Y-18645952D01*
X8614524Y-18626905D01*
X8614524Y-18455476D01*
X8805000Y-18655476D02*
X8805000Y-18550714D01*
X8795476Y-18531667D01*
X8776429Y-18522143D01*
X8738333Y-18522143D01*
X8719286Y-18531667D01*
X8805000Y-18645952D02*
X8785952Y-18655476D01*
X8738333Y-18655476D01*
X8719286Y-18645952D01*
X8709762Y-18626905D01*
X8709762Y-18607857D01*
X8719286Y-18588810D01*
X8738333Y-18579286D01*
X8785952Y-18579286D01*
X8805000Y-18569762D01*
X8871667Y-18522143D02*
X8947857Y-18522143D01*
X8900238Y-18455476D02*
X8900238Y-18626905D01*
X8909762Y-18645952D01*
X8928810Y-18655476D01*
X8947857Y-18655476D01*
X9090714Y-18645952D02*
X9071667Y-18655476D01*
X9033571Y-18655476D01*
X9014524Y-18645952D01*
X9005000Y-18626905D01*
X9005000Y-18550714D01*
X9014524Y-18531667D01*
X9033571Y-18522143D01*
X9071667Y-18522143D01*
X9090714Y-18531667D01*
X9100238Y-18550714D01*
X9100238Y-18569762D01*
X9005000Y-18588810D01*
X9271667Y-18655476D02*
X9271667Y-18455476D01*
X9271667Y-18645952D02*
X9252619Y-18655476D01*
X9214524Y-18655476D01*
X9195476Y-18645952D01*
X9185952Y-18636429D01*
X9176429Y-18617381D01*
X9176429Y-18560238D01*
X9185952Y-18541190D01*
X9195476Y-18531667D01*
X9214524Y-18522143D01*
X9252619Y-18522143D01*
X9271667Y-18531667D01*
X9347857Y-18731667D02*
X9357381Y-18722143D01*
X9376429Y-18693571D01*
X9385952Y-18674524D01*
X9395476Y-18645952D01*
X9405000Y-18598333D01*
X9405000Y-18560238D01*
X9395476Y-18512619D01*
X9385952Y-18484048D01*
X9376429Y-18465000D01*
X9357381Y-18436429D01*
X9347857Y-18426905D01*
D13*
X2595000Y-18835000D02*
G75*
G03*
X2595000Y-18835000I-85090J0D01*
G01*
D11*
X2957381Y-18925476D02*
X2843095Y-18925476D01*
X2900238Y-18925476D02*
X2900238Y-18725476D01*
X2881190Y-18754048D01*
X2862143Y-18773095D01*
X2843095Y-18782619D01*
X3043095Y-18906429D02*
X3052619Y-18915952D01*
X3043095Y-18925476D01*
X3033571Y-18915952D01*
X3043095Y-18906429D01*
X3043095Y-18925476D01*
X3119286Y-18725476D02*
X3252619Y-18725476D01*
X3166905Y-18925476D01*
X3366905Y-18725476D02*
X3385952Y-18725476D01*
X3405000Y-18735000D01*
X3414524Y-18744524D01*
X3424048Y-18763571D01*
X3433571Y-18801667D01*
X3433571Y-18849286D01*
X3424048Y-18887381D01*
X3414524Y-18906429D01*
X3405000Y-18915952D01*
X3385952Y-18925476D01*
X3366905Y-18925476D01*
X3347857Y-18915952D01*
X3338333Y-18906429D01*
X3328809Y-18887381D01*
X3319286Y-18849286D01*
X3319286Y-18801667D01*
X3328809Y-18763571D01*
X3338333Y-18744524D01*
X3347857Y-18735000D01*
X3366905Y-18725476D01*
X3509762Y-18744524D02*
X3519286Y-18735000D01*
X3538333Y-18725476D01*
X3585952Y-18725476D01*
X3605000Y-18735000D01*
X3614524Y-18744524D01*
X3624048Y-18763571D01*
X3624048Y-18782619D01*
X3614524Y-18811190D01*
X3500238Y-18925476D01*
X3624048Y-18925476D01*
X3709762Y-18925476D02*
X3709762Y-18792143D01*
X3709762Y-18811190D02*
X3719286Y-18801667D01*
X3738333Y-18792143D01*
X3766905Y-18792143D01*
X3785952Y-18801667D01*
X3795476Y-18820714D01*
X3795476Y-18925476D01*
X3795476Y-18820714D02*
X3805000Y-18801667D01*
X3824048Y-18792143D01*
X3852619Y-18792143D01*
X3871667Y-18801667D01*
X3881190Y-18820714D01*
X3881190Y-18925476D01*
X3976428Y-18925476D02*
X3976428Y-18792143D01*
X3976428Y-18811190D02*
X3985952Y-18801667D01*
X4005000Y-18792143D01*
X4033571Y-18792143D01*
X4052619Y-18801667D01*
X4062143Y-18820714D01*
X4062143Y-18925476D01*
X4062143Y-18820714D02*
X4071667Y-18801667D01*
X4090714Y-18792143D01*
X4119286Y-18792143D01*
X4138333Y-18801667D01*
X4147857Y-18820714D01*
X4147857Y-18925476D01*
X4538333Y-18715952D02*
X4366905Y-18973095D01*
X4795476Y-18725476D02*
X4814524Y-18725476D01*
X4833571Y-18735000D01*
X4843095Y-18744524D01*
X4852619Y-18763571D01*
X4862143Y-18801667D01*
X4862143Y-18849286D01*
X4852619Y-18887381D01*
X4843095Y-18906429D01*
X4833571Y-18915952D01*
X4814524Y-18925476D01*
X4795476Y-18925476D01*
X4776429Y-18915952D01*
X4766905Y-18906429D01*
X4757381Y-18887381D01*
X4747857Y-18849286D01*
X4747857Y-18801667D01*
X4757381Y-18763571D01*
X4766905Y-18744524D01*
X4776429Y-18735000D01*
X4795476Y-18725476D01*
X4947857Y-18906429D02*
X4957381Y-18915952D01*
X4947857Y-18925476D01*
X4938333Y-18915952D01*
X4947857Y-18906429D01*
X4947857Y-18925476D01*
X5081190Y-18725476D02*
X5100238Y-18725476D01*
X5119286Y-18735000D01*
X5128810Y-18744524D01*
X5138333Y-18763571D01*
X5147857Y-18801667D01*
X5147857Y-18849286D01*
X5138333Y-18887381D01*
X5128810Y-18906429D01*
X5119286Y-18915952D01*
X5100238Y-18925476D01*
X5081190Y-18925476D01*
X5062143Y-18915952D01*
X5052619Y-18906429D01*
X5043095Y-18887381D01*
X5033571Y-18849286D01*
X5033571Y-18801667D01*
X5043095Y-18763571D01*
X5052619Y-18744524D01*
X5062143Y-18735000D01*
X5081190Y-18725476D01*
X5319286Y-18725476D02*
X5281190Y-18725476D01*
X5262143Y-18735000D01*
X5252619Y-18744524D01*
X5233571Y-18773095D01*
X5224048Y-18811190D01*
X5224048Y-18887381D01*
X5233571Y-18906429D01*
X5243095Y-18915952D01*
X5262143Y-18925476D01*
X5300238Y-18925476D01*
X5319286Y-18915952D01*
X5328810Y-18906429D01*
X5338333Y-18887381D01*
X5338333Y-18839762D01*
X5328810Y-18820714D01*
X5319286Y-18811190D01*
X5300238Y-18801667D01*
X5262143Y-18801667D01*
X5243095Y-18811190D01*
X5233571Y-18820714D01*
X5224048Y-18839762D01*
X5405000Y-18725476D02*
X5538333Y-18725476D01*
X5452619Y-18925476D01*
X5652619Y-18725476D02*
X5671667Y-18725476D01*
X5690714Y-18735000D01*
X5700238Y-18744524D01*
X5709762Y-18763571D01*
X5719286Y-18801667D01*
X5719286Y-18849286D01*
X5709762Y-18887381D01*
X5700238Y-18906429D01*
X5690714Y-18915952D01*
X5671667Y-18925476D01*
X5652619Y-18925476D01*
X5633571Y-18915952D01*
X5624048Y-18906429D01*
X5614524Y-18887381D01*
X5605000Y-18849286D01*
X5605000Y-18801667D01*
X5614524Y-18763571D01*
X5624048Y-18744524D01*
X5633571Y-18735000D01*
X5652619Y-18725476D01*
X5795476Y-18725476D02*
X5795476Y-18763571D01*
X5871667Y-18725476D02*
X5871667Y-18763571D01*
X6166905Y-19001667D02*
X6157381Y-18992143D01*
X6138333Y-18963571D01*
X6128809Y-18944524D01*
X6119286Y-18915952D01*
X6109762Y-18868333D01*
X6109762Y-18830238D01*
X6119286Y-18782619D01*
X6128809Y-18754048D01*
X6138333Y-18735000D01*
X6157381Y-18706429D01*
X6166905Y-18696905D01*
X6328809Y-18725476D02*
X6290714Y-18725476D01*
X6271667Y-18735000D01*
X6262143Y-18744524D01*
X6243095Y-18773095D01*
X6233571Y-18811190D01*
X6233571Y-18887381D01*
X6243095Y-18906429D01*
X6252619Y-18915952D01*
X6271667Y-18925476D01*
X6309762Y-18925476D01*
X6328809Y-18915952D01*
X6338333Y-18906429D01*
X6347857Y-18887381D01*
X6347857Y-18839762D01*
X6338333Y-18820714D01*
X6328809Y-18811190D01*
X6309762Y-18801667D01*
X6271667Y-18801667D01*
X6252619Y-18811190D01*
X6243095Y-18820714D01*
X6233571Y-18839762D01*
X6471667Y-18725476D02*
X6490714Y-18725476D01*
X6509762Y-18735000D01*
X6519286Y-18744524D01*
X6528809Y-18763571D01*
X6538333Y-18801667D01*
X6538333Y-18849286D01*
X6528809Y-18887381D01*
X6519286Y-18906429D01*
X6509762Y-18915952D01*
X6490714Y-18925476D01*
X6471667Y-18925476D01*
X6452619Y-18915952D01*
X6443095Y-18906429D01*
X6433571Y-18887381D01*
X6424048Y-18849286D01*
X6424048Y-18801667D01*
X6433571Y-18763571D01*
X6443095Y-18744524D01*
X6452619Y-18735000D01*
X6471667Y-18725476D01*
X6776428Y-18925476D02*
X6776428Y-18725476D01*
X6862143Y-18925476D02*
X6862143Y-18820714D01*
X6852619Y-18801667D01*
X6833571Y-18792143D01*
X6805000Y-18792143D01*
X6785952Y-18801667D01*
X6776428Y-18811190D01*
X6985952Y-18925476D02*
X6966905Y-18915952D01*
X6957381Y-18906429D01*
X6947857Y-18887381D01*
X6947857Y-18830238D01*
X6957381Y-18811190D01*
X6966905Y-18801667D01*
X6985952Y-18792143D01*
X7014524Y-18792143D01*
X7033571Y-18801667D01*
X7043095Y-18811190D01*
X7052619Y-18830238D01*
X7052619Y-18887381D01*
X7043095Y-18906429D01*
X7033571Y-18915952D01*
X7014524Y-18925476D01*
X6985952Y-18925476D01*
X7166905Y-18925476D02*
X7147857Y-18915952D01*
X7138333Y-18896905D01*
X7138333Y-18725476D01*
X7319286Y-18915952D02*
X7300238Y-18925476D01*
X7262143Y-18925476D01*
X7243095Y-18915952D01*
X7233571Y-18896905D01*
X7233571Y-18820714D01*
X7243095Y-18801667D01*
X7262143Y-18792143D01*
X7300238Y-18792143D01*
X7319286Y-18801667D01*
X7328809Y-18820714D01*
X7328809Y-18839762D01*
X7233571Y-18858810D01*
X7405000Y-18915952D02*
X7424048Y-18925476D01*
X7462143Y-18925476D01*
X7481190Y-18915952D01*
X7490714Y-18896905D01*
X7490714Y-18887381D01*
X7481190Y-18868333D01*
X7462143Y-18858810D01*
X7433571Y-18858810D01*
X7414524Y-18849286D01*
X7405000Y-18830238D01*
X7405000Y-18820714D01*
X7414524Y-18801667D01*
X7433571Y-18792143D01*
X7462143Y-18792143D01*
X7481190Y-18801667D01*
X7557381Y-19001667D02*
X7566905Y-18992143D01*
X7585952Y-18963571D01*
X7595476Y-18944524D01*
X7605000Y-18915952D01*
X7614524Y-18868333D01*
X7614524Y-18830238D01*
X7605000Y-18782619D01*
X7595476Y-18754048D01*
X7585952Y-18735000D01*
X7566905Y-18706429D01*
X7557381Y-18696905D01*
X7919286Y-19001667D02*
X7909762Y-18992143D01*
X7890714Y-18963571D01*
X7881190Y-18944524D01*
X7871667Y-18915952D01*
X7862143Y-18868333D01*
X7862143Y-18830238D01*
X7871667Y-18782619D01*
X7881190Y-18754048D01*
X7890714Y-18735000D01*
X7909762Y-18706429D01*
X7919286Y-18696905D01*
X7995476Y-18792143D02*
X7995476Y-18925476D01*
X7995476Y-18811190D02*
X8005000Y-18801667D01*
X8024048Y-18792143D01*
X8052619Y-18792143D01*
X8071667Y-18801667D01*
X8081190Y-18820714D01*
X8081190Y-18925476D01*
X8205000Y-18925476D02*
X8185952Y-18915952D01*
X8176428Y-18906429D01*
X8166905Y-18887381D01*
X8166905Y-18830238D01*
X8176428Y-18811190D01*
X8185952Y-18801667D01*
X8205000Y-18792143D01*
X8233571Y-18792143D01*
X8252619Y-18801667D01*
X8262143Y-18811190D01*
X8271667Y-18830238D01*
X8271667Y-18887381D01*
X8262143Y-18906429D01*
X8252619Y-18915952D01*
X8233571Y-18925476D01*
X8205000Y-18925476D01*
X8328809Y-18792143D02*
X8405000Y-18792143D01*
X8357381Y-18725476D02*
X8357381Y-18896905D01*
X8366905Y-18915952D01*
X8385952Y-18925476D01*
X8405000Y-18925476D01*
X8624048Y-18792143D02*
X8624048Y-18992143D01*
X8624048Y-18801667D02*
X8643095Y-18792143D01*
X8681190Y-18792143D01*
X8700238Y-18801667D01*
X8709762Y-18811190D01*
X8719286Y-18830238D01*
X8719286Y-18887381D01*
X8709762Y-18906429D01*
X8700238Y-18915952D01*
X8681190Y-18925476D01*
X8643095Y-18925476D01*
X8624048Y-18915952D01*
X8833571Y-18925476D02*
X8814524Y-18915952D01*
X8805000Y-18896905D01*
X8805000Y-18725476D01*
X8995476Y-18925476D02*
X8995476Y-18820714D01*
X8985952Y-18801667D01*
X8966905Y-18792143D01*
X8928810Y-18792143D01*
X8909762Y-18801667D01*
X8995476Y-18915952D02*
X8976429Y-18925476D01*
X8928810Y-18925476D01*
X8909762Y-18915952D01*
X8900238Y-18896905D01*
X8900238Y-18877857D01*
X8909762Y-18858810D01*
X8928810Y-18849286D01*
X8976429Y-18849286D01*
X8995476Y-18839762D01*
X9062143Y-18792143D02*
X9138333Y-18792143D01*
X9090714Y-18725476D02*
X9090714Y-18896905D01*
X9100238Y-18915952D01*
X9119286Y-18925476D01*
X9138333Y-18925476D01*
X9281190Y-18915952D02*
X9262143Y-18925476D01*
X9224048Y-18925476D01*
X9205000Y-18915952D01*
X9195476Y-18896905D01*
X9195476Y-18820714D01*
X9205000Y-18801667D01*
X9224048Y-18792143D01*
X9262143Y-18792143D01*
X9281190Y-18801667D01*
X9290714Y-18820714D01*
X9290714Y-18839762D01*
X9195476Y-18858810D01*
X9462143Y-18925476D02*
X9462143Y-18725476D01*
X9462143Y-18915952D02*
X9443095Y-18925476D01*
X9405000Y-18925476D01*
X9385952Y-18915952D01*
X9376429Y-18906429D01*
X9366905Y-18887381D01*
X9366905Y-18830238D01*
X9376429Y-18811190D01*
X9385952Y-18801667D01*
X9405000Y-18792143D01*
X9443095Y-18792143D01*
X9462143Y-18801667D01*
X9538333Y-19001667D02*
X9547857Y-18992143D01*
X9566905Y-18963571D01*
X9576429Y-18944524D01*
X9585952Y-18915952D01*
X9595476Y-18868333D01*
X9595476Y-18830238D01*
X9585952Y-18782619D01*
X9576429Y-18754048D01*
X9566905Y-18735000D01*
X9547857Y-18706429D01*
X9538333Y-18696905D01*
X2495000Y-19025180D02*
X2495000Y-19225180D01*
X2395000Y-19125180D02*
X2595000Y-19125180D01*
X2833571Y-19015656D02*
X2957381Y-19015656D01*
X2890714Y-19091847D01*
X2919286Y-19091847D01*
X2938333Y-19101370D01*
X2947857Y-19110894D01*
X2957381Y-19129942D01*
X2957381Y-19177561D01*
X2947857Y-19196609D01*
X2938333Y-19206132D01*
X2919286Y-19215656D01*
X2862143Y-19215656D01*
X2843095Y-19206132D01*
X2833571Y-19196609D01*
X3043095Y-19196609D02*
X3052619Y-19206132D01*
X3043095Y-19215656D01*
X3033571Y-19206132D01*
X3043095Y-19196609D01*
X3043095Y-19215656D01*
X3176428Y-19015656D02*
X3195476Y-19015656D01*
X3214524Y-19025180D01*
X3224048Y-19034704D01*
X3233571Y-19053751D01*
X3243095Y-19091847D01*
X3243095Y-19139466D01*
X3233571Y-19177561D01*
X3224048Y-19196609D01*
X3214524Y-19206132D01*
X3195476Y-19215656D01*
X3176428Y-19215656D01*
X3157381Y-19206132D01*
X3147857Y-19196609D01*
X3138333Y-19177561D01*
X3128809Y-19139466D01*
X3128809Y-19091847D01*
X3138333Y-19053751D01*
X3147857Y-19034704D01*
X3157381Y-19025180D01*
X3176428Y-19015656D01*
X3366905Y-19015656D02*
X3385952Y-19015656D01*
X3405000Y-19025180D01*
X3414524Y-19034704D01*
X3424048Y-19053751D01*
X3433571Y-19091847D01*
X3433571Y-19139466D01*
X3424048Y-19177561D01*
X3414524Y-19196609D01*
X3405000Y-19206132D01*
X3385952Y-19215656D01*
X3366905Y-19215656D01*
X3347857Y-19206132D01*
X3338333Y-19196609D01*
X3328809Y-19177561D01*
X3319286Y-19139466D01*
X3319286Y-19091847D01*
X3328809Y-19053751D01*
X3338333Y-19034704D01*
X3347857Y-19025180D01*
X3366905Y-19015656D01*
X3557381Y-19015656D02*
X3576428Y-19015656D01*
X3595476Y-19025180D01*
X3605000Y-19034704D01*
X3614524Y-19053751D01*
X3624048Y-19091847D01*
X3624048Y-19139466D01*
X3614524Y-19177561D01*
X3605000Y-19196609D01*
X3595476Y-19206132D01*
X3576428Y-19215656D01*
X3557381Y-19215656D01*
X3538333Y-19206132D01*
X3528809Y-19196609D01*
X3519286Y-19177561D01*
X3509762Y-19139466D01*
X3509762Y-19091847D01*
X3519286Y-19053751D01*
X3528809Y-19034704D01*
X3538333Y-19025180D01*
X3557381Y-19015656D01*
X3709762Y-19215656D02*
X3709762Y-19082323D01*
X3709762Y-19101370D02*
X3719286Y-19091847D01*
X3738333Y-19082323D01*
X3766905Y-19082323D01*
X3785952Y-19091847D01*
X3795476Y-19110894D01*
X3795476Y-19215656D01*
X3795476Y-19110894D02*
X3805000Y-19091847D01*
X3824048Y-19082323D01*
X3852619Y-19082323D01*
X3871667Y-19091847D01*
X3881190Y-19110894D01*
X3881190Y-19215656D01*
X3976428Y-19215656D02*
X3976428Y-19082323D01*
X3976428Y-19101370D02*
X3985952Y-19091847D01*
X4005000Y-19082323D01*
X4033571Y-19082323D01*
X4052619Y-19091847D01*
X4062143Y-19110894D01*
X4062143Y-19215656D01*
X4062143Y-19110894D02*
X4071667Y-19091847D01*
X4090714Y-19082323D01*
X4119286Y-19082323D01*
X4138333Y-19091847D01*
X4147857Y-19110894D01*
X4147857Y-19215656D01*
X4538333Y-19006132D02*
X4366905Y-19263275D01*
X4795476Y-19015656D02*
X4814524Y-19015656D01*
X4833571Y-19025180D01*
X4843095Y-19034704D01*
X4852619Y-19053751D01*
X4862143Y-19091847D01*
X4862143Y-19139466D01*
X4852619Y-19177561D01*
X4843095Y-19196609D01*
X4833571Y-19206132D01*
X4814524Y-19215656D01*
X4795476Y-19215656D01*
X4776429Y-19206132D01*
X4766905Y-19196609D01*
X4757381Y-19177561D01*
X4747857Y-19139466D01*
X4747857Y-19091847D01*
X4757381Y-19053751D01*
X4766905Y-19034704D01*
X4776429Y-19025180D01*
X4795476Y-19015656D01*
X4947857Y-19196609D02*
X4957381Y-19206132D01*
X4947857Y-19215656D01*
X4938333Y-19206132D01*
X4947857Y-19196609D01*
X4947857Y-19215656D01*
X5147857Y-19215656D02*
X5033571Y-19215656D01*
X5090714Y-19215656D02*
X5090714Y-19015656D01*
X5071667Y-19044228D01*
X5052619Y-19063275D01*
X5033571Y-19072799D01*
X5338333Y-19215656D02*
X5224048Y-19215656D01*
X5281190Y-19215656D02*
X5281190Y-19015656D01*
X5262143Y-19044228D01*
X5243095Y-19063275D01*
X5224048Y-19072799D01*
X5452619Y-19101370D02*
X5433571Y-19091847D01*
X5424048Y-19082323D01*
X5414524Y-19063275D01*
X5414524Y-19053751D01*
X5424048Y-19034704D01*
X5433571Y-19025180D01*
X5452619Y-19015656D01*
X5490714Y-19015656D01*
X5509762Y-19025180D01*
X5519286Y-19034704D01*
X5528810Y-19053751D01*
X5528810Y-19063275D01*
X5519286Y-19082323D01*
X5509762Y-19091847D01*
X5490714Y-19101370D01*
X5452619Y-19101370D01*
X5433571Y-19110894D01*
X5424048Y-19120418D01*
X5414524Y-19139466D01*
X5414524Y-19177561D01*
X5424048Y-19196609D01*
X5433571Y-19206132D01*
X5452619Y-19215656D01*
X5490714Y-19215656D01*
X5509762Y-19206132D01*
X5519286Y-19196609D01*
X5528810Y-19177561D01*
X5528810Y-19139466D01*
X5519286Y-19120418D01*
X5509762Y-19110894D01*
X5490714Y-19101370D01*
X5719286Y-19215656D02*
X5605000Y-19215656D01*
X5662143Y-19215656D02*
X5662143Y-19015656D01*
X5643095Y-19044228D01*
X5624048Y-19063275D01*
X5605000Y-19072799D01*
X5795476Y-19015656D02*
X5795476Y-19053751D01*
X5871667Y-19015656D02*
X5871667Y-19053751D01*
X6166905Y-19291847D02*
X6157381Y-19282323D01*
X6138333Y-19253751D01*
X6128809Y-19234704D01*
X6119286Y-19206132D01*
X6109762Y-19158513D01*
X6109762Y-19120418D01*
X6119286Y-19072799D01*
X6128809Y-19044228D01*
X6138333Y-19025180D01*
X6157381Y-18996609D01*
X6166905Y-18987085D01*
X6252619Y-19215656D02*
X6290714Y-19215656D01*
X6309762Y-19206132D01*
X6319286Y-19196609D01*
X6338333Y-19168037D01*
X6347857Y-19129942D01*
X6347857Y-19053751D01*
X6338333Y-19034704D01*
X6328809Y-19025180D01*
X6309762Y-19015656D01*
X6271667Y-19015656D01*
X6252619Y-19025180D01*
X6243095Y-19034704D01*
X6233571Y-19053751D01*
X6233571Y-19101370D01*
X6243095Y-19120418D01*
X6252619Y-19129942D01*
X6271667Y-19139466D01*
X6309762Y-19139466D01*
X6328809Y-19129942D01*
X6338333Y-19120418D01*
X6347857Y-19101370D01*
X6471667Y-19015656D02*
X6490714Y-19015656D01*
X6509762Y-19025180D01*
X6519286Y-19034704D01*
X6528809Y-19053751D01*
X6538333Y-19091847D01*
X6538333Y-19139466D01*
X6528809Y-19177561D01*
X6519286Y-19196609D01*
X6509762Y-19206132D01*
X6490714Y-19215656D01*
X6471667Y-19215656D01*
X6452619Y-19206132D01*
X6443095Y-19196609D01*
X6433571Y-19177561D01*
X6424048Y-19139466D01*
X6424048Y-19091847D01*
X6433571Y-19053751D01*
X6443095Y-19034704D01*
X6452619Y-19025180D01*
X6471667Y-19015656D01*
X6776428Y-19215656D02*
X6776428Y-19015656D01*
X6862143Y-19215656D02*
X6862143Y-19110894D01*
X6852619Y-19091847D01*
X6833571Y-19082323D01*
X6805000Y-19082323D01*
X6785952Y-19091847D01*
X6776428Y-19101370D01*
X6985952Y-19215656D02*
X6966905Y-19206132D01*
X6957381Y-19196609D01*
X6947857Y-19177561D01*
X6947857Y-19120418D01*
X6957381Y-19101370D01*
X6966905Y-19091847D01*
X6985952Y-19082323D01*
X7014524Y-19082323D01*
X7033571Y-19091847D01*
X7043095Y-19101370D01*
X7052619Y-19120418D01*
X7052619Y-19177561D01*
X7043095Y-19196609D01*
X7033571Y-19206132D01*
X7014524Y-19215656D01*
X6985952Y-19215656D01*
X7166905Y-19215656D02*
X7147857Y-19206132D01*
X7138333Y-19187085D01*
X7138333Y-19015656D01*
X7319286Y-19206132D02*
X7300238Y-19215656D01*
X7262143Y-19215656D01*
X7243095Y-19206132D01*
X7233571Y-19187085D01*
X7233571Y-19110894D01*
X7243095Y-19091847D01*
X7262143Y-19082323D01*
X7300238Y-19082323D01*
X7319286Y-19091847D01*
X7328809Y-19110894D01*
X7328809Y-19129942D01*
X7233571Y-19148990D01*
X7405000Y-19206132D02*
X7424048Y-19215656D01*
X7462143Y-19215656D01*
X7481190Y-19206132D01*
X7490714Y-19187085D01*
X7490714Y-19177561D01*
X7481190Y-19158513D01*
X7462143Y-19148990D01*
X7433571Y-19148990D01*
X7414524Y-19139466D01*
X7405000Y-19120418D01*
X7405000Y-19110894D01*
X7414524Y-19091847D01*
X7433571Y-19082323D01*
X7462143Y-19082323D01*
X7481190Y-19091847D01*
X7557381Y-19291847D02*
X7566905Y-19282323D01*
X7585952Y-19253751D01*
X7595476Y-19234704D01*
X7605000Y-19206132D01*
X7614524Y-19158513D01*
X7614524Y-19120418D01*
X7605000Y-19072799D01*
X7595476Y-19044228D01*
X7585952Y-19025180D01*
X7566905Y-18996609D01*
X7557381Y-18987085D01*
X7919286Y-19291847D02*
X7909762Y-19282323D01*
X7890714Y-19253751D01*
X7881190Y-19234704D01*
X7871667Y-19206132D01*
X7862143Y-19158513D01*
X7862143Y-19120418D01*
X7871667Y-19072799D01*
X7881190Y-19044228D01*
X7890714Y-19025180D01*
X7909762Y-18996609D01*
X7919286Y-18987085D01*
X7995476Y-19082323D02*
X7995476Y-19215656D01*
X7995476Y-19101370D02*
X8005000Y-19091847D01*
X8024048Y-19082323D01*
X8052619Y-19082323D01*
X8071667Y-19091847D01*
X8081190Y-19110894D01*
X8081190Y-19215656D01*
X8205000Y-19215656D02*
X8185952Y-19206132D01*
X8176428Y-19196609D01*
X8166905Y-19177561D01*
X8166905Y-19120418D01*
X8176428Y-19101370D01*
X8185952Y-19091847D01*
X8205000Y-19082323D01*
X8233571Y-19082323D01*
X8252619Y-19091847D01*
X8262143Y-19101370D01*
X8271667Y-19120418D01*
X8271667Y-19177561D01*
X8262143Y-19196609D01*
X8252619Y-19206132D01*
X8233571Y-19215656D01*
X8205000Y-19215656D01*
X8328809Y-19082323D02*
X8405000Y-19082323D01*
X8357381Y-19015656D02*
X8357381Y-19187085D01*
X8366905Y-19206132D01*
X8385952Y-19215656D01*
X8405000Y-19215656D01*
X8624048Y-19082323D02*
X8624048Y-19282323D01*
X8624048Y-19091847D02*
X8643095Y-19082323D01*
X8681190Y-19082323D01*
X8700238Y-19091847D01*
X8709762Y-19101370D01*
X8719286Y-19120418D01*
X8719286Y-19177561D01*
X8709762Y-19196609D01*
X8700238Y-19206132D01*
X8681190Y-19215656D01*
X8643095Y-19215656D01*
X8624048Y-19206132D01*
X8833571Y-19215656D02*
X8814524Y-19206132D01*
X8805000Y-19187085D01*
X8805000Y-19015656D01*
X8995476Y-19215656D02*
X8995476Y-19110894D01*
X8985952Y-19091847D01*
X8966905Y-19082323D01*
X8928810Y-19082323D01*
X8909762Y-19091847D01*
X8995476Y-19206132D02*
X8976429Y-19215656D01*
X8928810Y-19215656D01*
X8909762Y-19206132D01*
X8900238Y-19187085D01*
X8900238Y-19168037D01*
X8909762Y-19148990D01*
X8928810Y-19139466D01*
X8976429Y-19139466D01*
X8995476Y-19129942D01*
X9062143Y-19082323D02*
X9138333Y-19082323D01*
X9090714Y-19015656D02*
X9090714Y-19187085D01*
X9100238Y-19206132D01*
X9119286Y-19215656D01*
X9138333Y-19215656D01*
X9281190Y-19206132D02*
X9262143Y-19215656D01*
X9224048Y-19215656D01*
X9205000Y-19206132D01*
X9195476Y-19187085D01*
X9195476Y-19110894D01*
X9205000Y-19091847D01*
X9224048Y-19082323D01*
X9262143Y-19082323D01*
X9281190Y-19091847D01*
X9290714Y-19110894D01*
X9290714Y-19129942D01*
X9195476Y-19148990D01*
X9462143Y-19215656D02*
X9462143Y-19015656D01*
X9462143Y-19206132D02*
X9443095Y-19215656D01*
X9405000Y-19215656D01*
X9385952Y-19206132D01*
X9376429Y-19196609D01*
X9366905Y-19177561D01*
X9366905Y-19120418D01*
X9376429Y-19101370D01*
X9385952Y-19091847D01*
X9405000Y-19082323D01*
X9443095Y-19082323D01*
X9462143Y-19091847D01*
X9538333Y-19291847D02*
X9547857Y-19282323D01*
X9566905Y-19253751D01*
X9576429Y-19234704D01*
X9585952Y-19206132D01*
X9595476Y-19158513D01*
X9595476Y-19120418D01*
X9585952Y-19072799D01*
X9576429Y-19044228D01*
X9566905Y-19025180D01*
X9547857Y-18996609D01*
X9538333Y-18987085D01*
X2565711Y-19515891D02*
X2565711Y-19374469D01*
X2424289Y-19374469D01*
X2424289Y-19515891D01*
X2565711Y-19515891D01*
X2833571Y-19335656D02*
X2957381Y-19335656D01*
X2890714Y-19411847D01*
X2919286Y-19411847D01*
X2938333Y-19421370D01*
X2947857Y-19430894D01*
X2957381Y-19449942D01*
X2957381Y-19497561D01*
X2947857Y-19516609D01*
X2938333Y-19526132D01*
X2919286Y-19535656D01*
X2862143Y-19535656D01*
X2843095Y-19526132D01*
X2833571Y-19516609D01*
X3043095Y-19516609D02*
X3052619Y-19526132D01*
X3043095Y-19535656D01*
X3033571Y-19526132D01*
X3043095Y-19516609D01*
X3043095Y-19535656D01*
X3224048Y-19402323D02*
X3224048Y-19535656D01*
X3176428Y-19326132D02*
X3128809Y-19468990D01*
X3252619Y-19468990D01*
X3319286Y-19354704D02*
X3328809Y-19345180D01*
X3347857Y-19335656D01*
X3395476Y-19335656D01*
X3414524Y-19345180D01*
X3424048Y-19354704D01*
X3433571Y-19373751D01*
X3433571Y-19392799D01*
X3424048Y-19421370D01*
X3309762Y-19535656D01*
X3433571Y-19535656D01*
X3528809Y-19535656D02*
X3566905Y-19535656D01*
X3585952Y-19526132D01*
X3595476Y-19516609D01*
X3614524Y-19488037D01*
X3624048Y-19449942D01*
X3624048Y-19373751D01*
X3614524Y-19354704D01*
X3605000Y-19345180D01*
X3585952Y-19335656D01*
X3547857Y-19335656D01*
X3528809Y-19345180D01*
X3519286Y-19354704D01*
X3509762Y-19373751D01*
X3509762Y-19421370D01*
X3519286Y-19440418D01*
X3528809Y-19449942D01*
X3547857Y-19459466D01*
X3585952Y-19459466D01*
X3605000Y-19449942D01*
X3614524Y-19440418D01*
X3624048Y-19421370D01*
X3709762Y-19535656D02*
X3709762Y-19402323D01*
X3709762Y-19421370D02*
X3719286Y-19411847D01*
X3738333Y-19402323D01*
X3766905Y-19402323D01*
X3785952Y-19411847D01*
X3795476Y-19430894D01*
X3795476Y-19535656D01*
X3795476Y-19430894D02*
X3805000Y-19411847D01*
X3824048Y-19402323D01*
X3852619Y-19402323D01*
X3871667Y-19411847D01*
X3881190Y-19430894D01*
X3881190Y-19535656D01*
X3976428Y-19535656D02*
X3976428Y-19402323D01*
X3976428Y-19421370D02*
X3985952Y-19411847D01*
X4005000Y-19402323D01*
X4033571Y-19402323D01*
X4052619Y-19411847D01*
X4062143Y-19430894D01*
X4062143Y-19535656D01*
X4062143Y-19430894D02*
X4071667Y-19411847D01*
X4090714Y-19402323D01*
X4119286Y-19402323D01*
X4138333Y-19411847D01*
X4147857Y-19430894D01*
X4147857Y-19535656D01*
X4538333Y-19326132D02*
X4366905Y-19583275D01*
X4795476Y-19335656D02*
X4814524Y-19335656D01*
X4833571Y-19345180D01*
X4843095Y-19354704D01*
X4852619Y-19373751D01*
X4862143Y-19411847D01*
X4862143Y-19459466D01*
X4852619Y-19497561D01*
X4843095Y-19516609D01*
X4833571Y-19526132D01*
X4814524Y-19535656D01*
X4795476Y-19535656D01*
X4776429Y-19526132D01*
X4766905Y-19516609D01*
X4757381Y-19497561D01*
X4747857Y-19459466D01*
X4747857Y-19411847D01*
X4757381Y-19373751D01*
X4766905Y-19354704D01*
X4776429Y-19345180D01*
X4795476Y-19335656D01*
X4947857Y-19516609D02*
X4957381Y-19526132D01*
X4947857Y-19535656D01*
X4938333Y-19526132D01*
X4947857Y-19516609D01*
X4947857Y-19535656D01*
X5147857Y-19535656D02*
X5033571Y-19535656D01*
X5090714Y-19535656D02*
X5090714Y-19335656D01*
X5071667Y-19364228D01*
X5052619Y-19383275D01*
X5033571Y-19392799D01*
X5214524Y-19335656D02*
X5338333Y-19335656D01*
X5271667Y-19411847D01*
X5300238Y-19411847D01*
X5319286Y-19421370D01*
X5328810Y-19430894D01*
X5338333Y-19449942D01*
X5338333Y-19497561D01*
X5328810Y-19516609D01*
X5319286Y-19526132D01*
X5300238Y-19535656D01*
X5243095Y-19535656D01*
X5224048Y-19526132D01*
X5214524Y-19516609D01*
X5519286Y-19335656D02*
X5424048Y-19335656D01*
X5414524Y-19430894D01*
X5424048Y-19421370D01*
X5443095Y-19411847D01*
X5490714Y-19411847D01*
X5509762Y-19421370D01*
X5519286Y-19430894D01*
X5528810Y-19449942D01*
X5528810Y-19497561D01*
X5519286Y-19516609D01*
X5509762Y-19526132D01*
X5490714Y-19535656D01*
X5443095Y-19535656D01*
X5424048Y-19526132D01*
X5414524Y-19516609D01*
X5652619Y-19335656D02*
X5671667Y-19335656D01*
X5690714Y-19345180D01*
X5700238Y-19354704D01*
X5709762Y-19373751D01*
X5719286Y-19411847D01*
X5719286Y-19459466D01*
X5709762Y-19497561D01*
X5700238Y-19516609D01*
X5690714Y-19526132D01*
X5671667Y-19535656D01*
X5652619Y-19535656D01*
X5633571Y-19526132D01*
X5624048Y-19516609D01*
X5614524Y-19497561D01*
X5605000Y-19459466D01*
X5605000Y-19411847D01*
X5614524Y-19373751D01*
X5624048Y-19354704D01*
X5633571Y-19345180D01*
X5652619Y-19335656D01*
X5795476Y-19335656D02*
X5795476Y-19373751D01*
X5871667Y-19335656D02*
X5871667Y-19373751D01*
X6166905Y-19611847D02*
X6157381Y-19602323D01*
X6138333Y-19573751D01*
X6128809Y-19554704D01*
X6119286Y-19526132D01*
X6109762Y-19478513D01*
X6109762Y-19440418D01*
X6119286Y-19392799D01*
X6128809Y-19364228D01*
X6138333Y-19345180D01*
X6157381Y-19316609D01*
X6166905Y-19307085D01*
X6224048Y-19335656D02*
X6347857Y-19335656D01*
X6281190Y-19411847D01*
X6309762Y-19411847D01*
X6328809Y-19421370D01*
X6338333Y-19430894D01*
X6347857Y-19449942D01*
X6347857Y-19497561D01*
X6338333Y-19516609D01*
X6328809Y-19526132D01*
X6309762Y-19535656D01*
X6252619Y-19535656D01*
X6233571Y-19526132D01*
X6224048Y-19516609D01*
X6471667Y-19335656D02*
X6490714Y-19335656D01*
X6509762Y-19345180D01*
X6519286Y-19354704D01*
X6528809Y-19373751D01*
X6538333Y-19411847D01*
X6538333Y-19459466D01*
X6528809Y-19497561D01*
X6519286Y-19516609D01*
X6509762Y-19526132D01*
X6490714Y-19535656D01*
X6471667Y-19535656D01*
X6452619Y-19526132D01*
X6443095Y-19516609D01*
X6433571Y-19497561D01*
X6424048Y-19459466D01*
X6424048Y-19411847D01*
X6433571Y-19373751D01*
X6443095Y-19354704D01*
X6452619Y-19345180D01*
X6471667Y-19335656D01*
X6776428Y-19535656D02*
X6776428Y-19335656D01*
X6862143Y-19535656D02*
X6862143Y-19430894D01*
X6852619Y-19411847D01*
X6833571Y-19402323D01*
X6805000Y-19402323D01*
X6785952Y-19411847D01*
X6776428Y-19421370D01*
X6985952Y-19535656D02*
X6966905Y-19526132D01*
X6957381Y-19516609D01*
X6947857Y-19497561D01*
X6947857Y-19440418D01*
X6957381Y-19421370D01*
X6966905Y-19411847D01*
X6985952Y-19402323D01*
X7014524Y-19402323D01*
X7033571Y-19411847D01*
X7043095Y-19421370D01*
X7052619Y-19440418D01*
X7052619Y-19497561D01*
X7043095Y-19516609D01*
X7033571Y-19526132D01*
X7014524Y-19535656D01*
X6985952Y-19535656D01*
X7166905Y-19535656D02*
X7147857Y-19526132D01*
X7138333Y-19507085D01*
X7138333Y-19335656D01*
X7319286Y-19526132D02*
X7300238Y-19535656D01*
X7262143Y-19535656D01*
X7243095Y-19526132D01*
X7233571Y-19507085D01*
X7233571Y-19430894D01*
X7243095Y-19411847D01*
X7262143Y-19402323D01*
X7300238Y-19402323D01*
X7319286Y-19411847D01*
X7328809Y-19430894D01*
X7328809Y-19449942D01*
X7233571Y-19468990D01*
X7405000Y-19526132D02*
X7424048Y-19535656D01*
X7462143Y-19535656D01*
X7481190Y-19526132D01*
X7490714Y-19507085D01*
X7490714Y-19497561D01*
X7481190Y-19478513D01*
X7462143Y-19468990D01*
X7433571Y-19468990D01*
X7414524Y-19459466D01*
X7405000Y-19440418D01*
X7405000Y-19430894D01*
X7414524Y-19411847D01*
X7433571Y-19402323D01*
X7462143Y-19402323D01*
X7481190Y-19411847D01*
X7557381Y-19611847D02*
X7566905Y-19602323D01*
X7585952Y-19573751D01*
X7595476Y-19554704D01*
X7605000Y-19526132D01*
X7614524Y-19478513D01*
X7614524Y-19440418D01*
X7605000Y-19392799D01*
X7595476Y-19364228D01*
X7585952Y-19345180D01*
X7566905Y-19316609D01*
X7557381Y-19307085D01*
X7919286Y-19611847D02*
X7909762Y-19602323D01*
X7890714Y-19573751D01*
X7881190Y-19554704D01*
X7871667Y-19526132D01*
X7862143Y-19478513D01*
X7862143Y-19440418D01*
X7871667Y-19392799D01*
X7881190Y-19364228D01*
X7890714Y-19345180D01*
X7909762Y-19316609D01*
X7919286Y-19307085D01*
X7995476Y-19402323D02*
X7995476Y-19535656D01*
X7995476Y-19421370D02*
X8005000Y-19411847D01*
X8024048Y-19402323D01*
X8052619Y-19402323D01*
X8071667Y-19411847D01*
X8081190Y-19430894D01*
X8081190Y-19535656D01*
X8205000Y-19535656D02*
X8185952Y-19526132D01*
X8176428Y-19516609D01*
X8166905Y-19497561D01*
X8166905Y-19440418D01*
X8176428Y-19421370D01*
X8185952Y-19411847D01*
X8205000Y-19402323D01*
X8233571Y-19402323D01*
X8252619Y-19411847D01*
X8262143Y-19421370D01*
X8271667Y-19440418D01*
X8271667Y-19497561D01*
X8262143Y-19516609D01*
X8252619Y-19526132D01*
X8233571Y-19535656D01*
X8205000Y-19535656D01*
X8328809Y-19402323D02*
X8405000Y-19402323D01*
X8357381Y-19335656D02*
X8357381Y-19507085D01*
X8366905Y-19526132D01*
X8385952Y-19535656D01*
X8405000Y-19535656D01*
X8624048Y-19402323D02*
X8624048Y-19602323D01*
X8624048Y-19411847D02*
X8643095Y-19402323D01*
X8681190Y-19402323D01*
X8700238Y-19411847D01*
X8709762Y-19421370D01*
X8719286Y-19440418D01*
X8719286Y-19497561D01*
X8709762Y-19516609D01*
X8700238Y-19526132D01*
X8681190Y-19535656D01*
X8643095Y-19535656D01*
X8624048Y-19526132D01*
X8833571Y-19535656D02*
X8814524Y-19526132D01*
X8805000Y-19507085D01*
X8805000Y-19335656D01*
X8995476Y-19535656D02*
X8995476Y-19430894D01*
X8985952Y-19411847D01*
X8966905Y-19402323D01*
X8928810Y-19402323D01*
X8909762Y-19411847D01*
X8995476Y-19526132D02*
X8976429Y-19535656D01*
X8928810Y-19535656D01*
X8909762Y-19526132D01*
X8900238Y-19507085D01*
X8900238Y-19488037D01*
X8909762Y-19468990D01*
X8928810Y-19459466D01*
X8976429Y-19459466D01*
X8995476Y-19449942D01*
X9062143Y-19402323D02*
X9138333Y-19402323D01*
X9090714Y-19335656D02*
X9090714Y-19507085D01*
X9100238Y-19526132D01*
X9119286Y-19535656D01*
X9138333Y-19535656D01*
X9281190Y-19526132D02*
X9262143Y-19535656D01*
X9224048Y-19535656D01*
X9205000Y-19526132D01*
X9195476Y-19507085D01*
X9195476Y-19430894D01*
X9205000Y-19411847D01*
X9224048Y-19402323D01*
X9262143Y-19402323D01*
X9281190Y-19411847D01*
X9290714Y-19430894D01*
X9290714Y-19449942D01*
X9195476Y-19468990D01*
X9462143Y-19535656D02*
X9462143Y-19335656D01*
X9462143Y-19526132D02*
X9443095Y-19535656D01*
X9405000Y-19535656D01*
X9385952Y-19526132D01*
X9376429Y-19516609D01*
X9366905Y-19497561D01*
X9366905Y-19440418D01*
X9376429Y-19421370D01*
X9385952Y-19411847D01*
X9405000Y-19402323D01*
X9443095Y-19402323D01*
X9462143Y-19411847D01*
X9538333Y-19611847D02*
X9547857Y-19602323D01*
X9566905Y-19573751D01*
X9576429Y-19554704D01*
X9585952Y-19526132D01*
X9595476Y-19478513D01*
X9595476Y-19440418D01*
X9585952Y-19392799D01*
X9576429Y-19364228D01*
X9566905Y-19345180D01*
X9547857Y-19316609D01*
X9538333Y-19307085D01*
M02*
