M48
; DRILL file {KiCad (6.0.2)} date Wed Apr 13 18:46:08 2022
; FORMAT={-:-/ absolute / metric / decimal}
; #@! TF.CreationDate,2022-04-13T18:46:08+02:00
; #@! TF.GenerationSoftware,Kicad,Pcbnew,(6.0.2)
; #@! TF.FileFunction,Plated,1,2,PTH
FMAT,2
METRIC
; #@! TA.AperFunction,Plated,PTH,ViaDrill
T1C0.400
; #@! TA.AperFunction,Plated,PTH,ComponentDrill
T2C0.800
; #@! TA.AperFunction,Plated,PTH,ComponentDrill
T3C0.900
; #@! TA.AperFunction,Plated,PTH,ComponentDrill
T4C1.092
%
G90
G05
T1
X33.2Y-51.0
X33.2Y-69.0
X33.2Y-87.0
X33.2Y-105.0
X33.2Y-123.0
X36.0Y-48.4
X36.0Y-52.2
X36.0Y-66.4
X36.0Y-70.2
X36.0Y-84.4
X36.0Y-88.2
X36.0Y-102.4
X36.0Y-106.2
X36.0Y-120.4
X36.0Y-124.2
X39.0Y-58.0
X39.0Y-64.0
X39.0Y-76.0
X39.0Y-82.0
X39.0Y-94.0
X39.0Y-100.0
X39.0Y-112.0
X39.0Y-118.0
X39.0Y-130.0
X39.0Y-136.0
X42.0Y-48.4
X42.0Y-52.2
X42.0Y-66.4
X42.0Y-70.2
X42.0Y-84.4
X42.0Y-88.2
X42.0Y-102.4
X42.0Y-106.2
X42.0Y-120.4
X42.0Y-124.2
X52.2Y-51.0
X52.2Y-69.0
X52.2Y-87.0
X52.2Y-105.0
X52.2Y-123.0
X55.0Y-48.4
X55.0Y-52.2
X55.0Y-64.0
X55.0Y-66.4
X55.0Y-70.2
X55.0Y-84.4
X55.0Y-88.2
X55.0Y-102.4
X55.0Y-106.2
X55.0Y-120.4
X55.0Y-124.2
X58.0Y-58.0
X58.0Y-64.0
X58.0Y-76.0
X58.0Y-82.0
X58.0Y-94.0
X58.0Y-100.0
X58.0Y-112.0
X58.0Y-118.0
X58.0Y-130.0
X58.0Y-136.0
X61.0Y-48.4
X61.0Y-52.2
X61.0Y-64.0
X61.0Y-66.4
X61.0Y-70.2
X61.0Y-84.4
X61.0Y-88.2
X61.0Y-102.4
X61.0Y-106.2
X61.0Y-120.4
X61.0Y-124.2
X71.2Y-51.0
X71.2Y-69.0
X71.2Y-87.0
X71.2Y-105.0
X71.2Y-123.0
X74.0Y-48.4
X74.0Y-52.2
X74.0Y-64.0
X74.0Y-66.4
X74.0Y-70.2
X74.0Y-82.0
X74.0Y-84.4
X74.0Y-88.2
X74.0Y-102.4
X74.0Y-106.2
X74.0Y-120.4
X74.0Y-124.2
X77.0Y-58.0
X77.0Y-64.0
X77.0Y-76.0
X77.0Y-82.0
X77.0Y-94.0
X77.0Y-100.0
X77.0Y-112.0
X77.0Y-118.0
X77.0Y-130.0
X77.0Y-136.0
X80.0Y-48.4
X80.0Y-52.2
X80.0Y-64.0
X80.0Y-66.4
X80.0Y-70.2
X80.0Y-82.0
X80.0Y-84.4
X80.0Y-88.2
X80.0Y-102.4
X80.0Y-106.2
X80.0Y-120.4
X80.0Y-124.2
X90.2Y-51.0
X90.2Y-69.0
X90.2Y-87.0
X90.2Y-105.0
X90.2Y-123.0
X93.0Y-48.4
X93.0Y-52.2
X93.0Y-64.0
X93.0Y-66.4
X93.0Y-70.2
X93.0Y-82.0
X93.0Y-84.4
X93.0Y-88.2
X93.0Y-100.0
X93.0Y-102.4
X93.0Y-106.2
X93.0Y-120.4
X93.0Y-124.2
X96.0Y-58.0
X96.0Y-64.0
X96.0Y-76.0
X96.0Y-82.0
X96.0Y-94.0
X96.0Y-100.0
X96.0Y-112.0
X96.0Y-118.0
X96.0Y-130.0
X96.0Y-136.0
X99.0Y-48.4
X99.0Y-52.2
X99.0Y-64.0
X99.0Y-66.4
X99.0Y-70.2
X99.0Y-82.0
X99.0Y-84.4
X99.0Y-88.2
X99.0Y-100.0
X99.0Y-102.4
X99.0Y-106.2
X99.0Y-120.4
X99.0Y-124.2
X109.197Y-87.0
X109.2Y-51.0
X109.2Y-69.0
X109.2Y-105.0
X111.997Y-84.4
X111.997Y-88.2
X112.0Y-48.4
X112.0Y-52.2
X112.0Y-64.0
X112.0Y-66.4
X112.0Y-70.2
X112.0Y-82.0
X112.0Y-100.0
X112.0Y-102.4
X112.0Y-106.2
X112.0Y-118.0
X113.2Y-137.2
X113.4Y-133.4
X115.0Y-58.0
X115.0Y-64.0
X115.0Y-76.0
X115.0Y-82.0
X115.0Y-94.0
X115.0Y-100.0
X115.0Y-112.0
X115.0Y-118.0
X116.2Y-136.2
X117.6Y-129.2
X117.997Y-84.4
X117.997Y-88.2
X118.0Y-48.4
X118.0Y-52.2
X118.0Y-64.0
X118.0Y-66.4
X118.0Y-70.2
X118.0Y-82.0
X118.0Y-100.0
X118.0Y-102.4
X118.0Y-106.2
X118.0Y-118.0
X120.4Y-132.0
X121.0Y-118.8
X122.4Y-138.2
X124.2Y-154.2
X124.4Y-150.4
X126.6Y-142.4
X127.2Y-153.2
X128.2Y-51.0
X128.2Y-69.0
X128.2Y-87.0
X128.2Y-105.0
X128.6Y-146.2
X131.0Y-48.4
X131.0Y-52.2
X131.0Y-64.0
X131.0Y-66.4
X131.0Y-70.2
X131.0Y-82.0
X131.0Y-84.4
X131.0Y-88.2
X131.0Y-100.0
X131.0Y-102.4
X131.0Y-106.2
X131.4Y-149.0
X133.0Y-141.2
X133.4Y-155.2
X134.0Y-58.0
X134.0Y-64.0
X134.0Y-76.0
X134.0Y-82.0
X134.0Y-94.0
X134.0Y-100.0
X134.0Y-112.0
X134.0Y-118.0
X136.0Y-136.6
X137.0Y-48.4
X137.0Y-52.2
X137.0Y-63.4
X137.0Y-64.8
X137.0Y-66.4
X137.0Y-70.2
X137.0Y-81.4
X137.0Y-82.8
X137.0Y-84.4
X137.0Y-88.2
X137.0Y-99.4
X137.0Y-100.8
X137.0Y-102.4
X137.0Y-106.2
X137.6Y-159.4
X142.0Y-52.2
X142.0Y-70.2
X142.0Y-88.2
X142.0Y-106.2
X143.0Y-47.6
X143.0Y-65.6
X143.0Y-83.6
X143.0Y-101.6
X144.8Y-63.4
X144.8Y-81.4
X144.8Y-99.4
X144.8Y-117.4
X145.6Y-118.2
X145.725Y-52.2
X146.325Y-47.6
X147.2Y-54.0
X147.2Y-61.6
X148.0Y-54.8
X148.0Y-62.4
X148.8Y-54.0
X148.8Y-61.6
X149.6Y-54.8
X149.6Y-62.4
X154.0Y-62.0
X156.0Y-62.0
X164.8Y-69.4
X165.4Y-68.4
T2
X33.0Y-29.69
X33.0Y-37.31
X36.0Y-31.69
X36.0Y-39.31
X39.0Y-33.69
X39.0Y-41.31
X42.0Y-35.69
X42.0Y-43.31
X45.0Y-37.69
X45.0Y-45.31
X52.0Y-29.69
X52.0Y-37.31
X55.0Y-31.69
X55.0Y-39.31
X58.0Y-33.69
X58.0Y-41.31
X61.0Y-35.69
X61.0Y-43.31
X64.0Y-37.69
X64.0Y-45.31
X71.0Y-29.69
X71.0Y-37.31
X74.0Y-31.69
X74.0Y-39.31
X77.0Y-33.69
X77.0Y-41.31
X80.0Y-35.69
X80.0Y-43.31
X83.0Y-37.69
X83.0Y-45.31
X90.0Y-29.69
X90.0Y-37.31
X93.0Y-31.69
X93.0Y-39.31
X96.0Y-33.69
X96.0Y-41.31
X99.0Y-35.69
X99.0Y-43.31
X102.0Y-37.69
X102.0Y-45.31
X109.0Y-29.69
X109.0Y-37.31
X112.0Y-31.69
X112.0Y-39.31
X115.0Y-33.69
X115.0Y-41.31
X118.0Y-35.69
X118.0Y-43.31
X121.0Y-37.69
X121.0Y-45.31
X128.0Y-29.69
X128.0Y-37.31
X131.0Y-31.69
X131.0Y-39.31
X134.0Y-33.69
X134.0Y-41.31
X137.0Y-35.69
X137.0Y-43.31
X140.0Y-37.69
X140.0Y-45.31
T4
X153.38Y-33.59
X153.38Y-36.13
X153.38Y-38.67
X153.38Y-41.21
X153.38Y-43.75
X153.38Y-46.29
X153.38Y-48.83
X153.38Y-51.37
X153.38Y-53.91
X154.0Y-92.0
X155.92Y-31.05
X155.92Y-33.59
X155.92Y-36.13
X155.92Y-38.67
X155.92Y-41.21
X155.92Y-43.75
X155.92Y-46.29
X155.92Y-48.83
X155.92Y-51.37
X155.92Y-53.91
X156.54Y-92.0
X158.46Y-51.37
X158.46Y-53.91
X159.08Y-92.0
X161.0Y-51.37
X161.0Y-53.91
X161.62Y-92.0
X163.54Y-51.37
X163.54Y-53.91
X164.16Y-92.0
X166.08Y-51.37
X166.08Y-53.91
X166.7Y-92.0
X168.62Y-33.59
X168.62Y-36.13
X168.62Y-38.67
X168.62Y-41.21
X168.62Y-43.75
X168.62Y-46.29
X168.62Y-48.83
X168.62Y-51.37
X168.62Y-53.91
X171.16Y-31.05
X171.16Y-33.59
X171.16Y-36.13
X171.16Y-38.67
X171.16Y-41.21
X171.16Y-43.75
X171.16Y-46.29
X171.16Y-48.83
X171.16Y-51.37
T3
X166.0Y-72.2G85X165.4Y-72.2
G05
X166.0Y-81.4G85X165.4Y-81.4
G05
X167.1Y-76.8G85X166.5Y-76.8
G05
X171.1Y-76.8G85X170.5Y-76.8
G05
X174.1Y-76.8G85X173.5Y-76.8
G05
T0
M30
