G04 #@! TF.GenerationSoftware,KiCad,Pcbnew,(6.0.2)*
G04 #@! TF.CreationDate,2022-04-13T18:46:02+02:00*
G04 #@! TF.ProjectId,SPKB,53504b42-2e6b-4696-9361-645f70636258,rev?*
G04 #@! TF.SameCoordinates,Original*
G04 #@! TF.FileFunction,Legend,Top*
G04 #@! TF.FilePolarity,Positive*
%FSLAX46Y46*%
G04 Gerber Fmt 4.6, Leading zero omitted, Abs format (unit mm)*
G04 Created by KiCad (PCBNEW (6.0.2)) date 2022-04-13 18:46:02*
%MOMM*%
%LPD*%
G01*
G04 APERTURE LIST*
G04 Aperture macros list*
%AMRoundRect*
0 Rectangle with rounded corners*
0 $1 Rounding radius*
0 $2 $3 $4 $5 $6 $7 $8 $9 X,Y pos of 4 corners*
0 Add a 4 corners polygon primitive as box body*
4,1,4,$2,$3,$4,$5,$6,$7,$8,$9,$2,$3,0*
0 Add four circle primitives for the rounded corners*
1,1,$1+$1,$2,$3*
1,1,$1+$1,$4,$5*
1,1,$1+$1,$6,$7*
1,1,$1+$1,$8,$9*
0 Add four rect primitives between the rounded corners*
20,1,$1+$1,$2,$3,$4,$5,0*
20,1,$1+$1,$4,$5,$6,$7,0*
20,1,$1+$1,$6,$7,$8,$9,0*
20,1,$1+$1,$8,$9,$2,$3,0*%
%AMRotRect*
0 Rectangle, with rotation*
0 The origin of the aperture is its center*
0 $1 length*
0 $2 width*
0 $3 Rotation angle, in degrees counterclockwise*
0 Add horizontal line*
21,1,$1,$2,0,0,$3*%
%AMOutline5P*
0 Free polygon, 5 corners , with rotation*
0 The origin of the aperture is its center*
0 number of corners: always 5*
0 $1 to $10 corner X, Y*
0 $11 Rotation angle, in degrees counterclockwise*
0 create outline with 5 corners*
4,1,5,$1,$2,$3,$4,$5,$6,$7,$8,$9,$10,$1,$2,$11*%
%AMOutline6P*
0 Free polygon, 6 corners , with rotation*
0 The origin of the aperture is its center*
0 number of corners: always 6*
0 $1 to $12 corner X, Y*
0 $13 Rotation angle, in degrees counterclockwise*
0 create outline with 6 corners*
4,1,6,$1,$2,$3,$4,$5,$6,$7,$8,$9,$10,$11,$12,$1,$2,$13*%
%AMOutline7P*
0 Free polygon, 7 corners , with rotation*
0 The origin of the aperture is its center*
0 number of corners: always 7*
0 $1 to $14 corner X, Y*
0 $15 Rotation angle, in degrees counterclockwise*
0 create outline with 7 corners*
4,1,7,$1,$2,$3,$4,$5,$6,$7,$8,$9,$10,$11,$12,$13,$14,$1,$2,$15*%
%AMOutline8P*
0 Free polygon, 8 corners , with rotation*
0 The origin of the aperture is its center*
0 number of corners: always 8*
0 $1 to $16 corner X, Y*
0 $17 Rotation angle, in degrees counterclockwise*
0 create outline with 8 corners*
4,1,8,$1,$2,$3,$4,$5,$6,$7,$8,$9,$10,$11,$12,$13,$14,$15,$16,$1,$2,$17*%
G04 Aperture macros list end*
%ADD10C,0.150000*%
%ADD11C,0.200000*%
%ADD12C,0.100000*%
%ADD13C,0.120000*%
%ADD14C,1.500000*%
%ADD15O,2.200000X1.600000*%
%ADD16C,3.000000*%
%ADD17C,1.701800*%
%ADD18C,3.429000*%
%ADD19Outline5P,-1.300000X0.130000X-0.130000X1.300000X1.300000X1.300000X1.300000X-1.300000X-1.300000X-1.300000X0.000000*%
%ADD20R,2.600000X2.600000*%
%ADD21RoundRect,0.205000X-0.645000X-0.205000X0.645000X-0.205000X0.645000X0.205000X-0.645000X0.205000X0*%
%ADD22R,1.700000X0.820000*%
%ADD23R,0.750000X0.800000*%
%ADD24R,1.600000X1.600000*%
%ADD25O,1.600000X1.600000*%
%ADD26C,1.752600*%
%ADD27Outline5P,-1.300000X0.130000X-0.130000X1.300000X1.300000X1.300000X1.300000X-1.300000X-1.300000X-1.300000X45.000000*%
%ADD28RotRect,2.600000X2.600000X45.000000*%
%ADD29RoundRect,0.205000X-0.311127X-0.601041X0.601041X0.311127X0.311127X0.601041X-0.601041X-0.311127X0*%
%ADD30RotRect,1.700000X0.820000X45.000000*%
%ADD31RotRect,0.800000X0.750000X315.000000*%
G04 APERTURE END LIST*
D10*
X168630952Y-73252380D02*
X168630952Y-72252380D01*
X169011904Y-72252380D01*
X169107142Y-72300000D01*
X169154761Y-72347619D01*
X169202380Y-72442857D01*
X169202380Y-72585714D01*
X169154761Y-72680952D01*
X169107142Y-72728571D01*
X169011904Y-72776190D01*
X168630952Y-72776190D01*
X169916666Y-72252380D02*
X169916666Y-72966666D01*
X169869047Y-73109523D01*
X169773809Y-73204761D01*
X169630952Y-73252380D01*
X169535714Y-73252380D01*
X170392857Y-72871428D02*
X171154761Y-72871428D01*
X171535714Y-72252380D02*
X172154761Y-72252380D01*
X171821428Y-72633333D01*
X171964285Y-72633333D01*
X172059523Y-72680952D01*
X172107142Y-72728571D01*
X172154761Y-72823809D01*
X172154761Y-73061904D01*
X172107142Y-73157142D01*
X172059523Y-73204761D01*
X171964285Y-73252380D01*
X171678571Y-73252380D01*
X171583333Y-73204761D01*
X171535714Y-73157142D01*
X172535714Y-72347619D02*
X172583333Y-72300000D01*
X172678571Y-72252380D01*
X172916666Y-72252380D01*
X173011904Y-72300000D01*
X173059523Y-72347619D01*
X173107142Y-72442857D01*
X173107142Y-72538095D01*
X173059523Y-72680952D01*
X172488095Y-73252380D01*
X173107142Y-73252380D01*
X173726190Y-72252380D02*
X173821428Y-72252380D01*
X173916666Y-72300000D01*
X173964285Y-72347619D01*
X174011904Y-72442857D01*
X174059523Y-72633333D01*
X174059523Y-72871428D01*
X174011904Y-73061904D01*
X173964285Y-73157142D01*
X173916666Y-73204761D01*
X173821428Y-73252380D01*
X173726190Y-73252380D01*
X173630952Y-73204761D01*
X173583333Y-73157142D01*
X173535714Y-73061904D01*
X173488095Y-72871428D01*
X173488095Y-72633333D01*
X173535714Y-72442857D01*
X173583333Y-72347619D01*
X173630952Y-72300000D01*
X173726190Y-72252380D01*
X174440476Y-72966666D02*
X174916666Y-72966666D01*
X174345238Y-73252380D02*
X174678571Y-72252380D01*
X175011904Y-73252380D01*
X94733333Y-52693333D02*
X94833333Y-52726666D01*
X95000000Y-52726666D01*
X95066666Y-52693333D01*
X95100000Y-52660000D01*
X95133333Y-52593333D01*
X95133333Y-52526666D01*
X95100000Y-52460000D01*
X95066666Y-52426666D01*
X95000000Y-52393333D01*
X94866666Y-52360000D01*
X94800000Y-52326666D01*
X94766666Y-52293333D01*
X94733333Y-52226666D01*
X94733333Y-52160000D01*
X94766666Y-52093333D01*
X94800000Y-52060000D01*
X94866666Y-52026666D01*
X95033333Y-52026666D01*
X95133333Y-52060000D01*
X95366666Y-52026666D02*
X95533333Y-52726666D01*
X95666666Y-52226666D01*
X95800000Y-52726666D01*
X95966666Y-52026666D01*
X96200000Y-52093333D02*
X96233333Y-52060000D01*
X96300000Y-52026666D01*
X96466666Y-52026666D01*
X96533333Y-52060000D01*
X96566666Y-52093333D01*
X96600000Y-52160000D01*
X96600000Y-52226666D01*
X96566666Y-52326666D01*
X96166666Y-52726666D01*
X96600000Y-52726666D01*
X97033333Y-52026666D02*
X97100000Y-52026666D01*
X97166666Y-52060000D01*
X97200000Y-52093333D01*
X97233333Y-52160000D01*
X97266666Y-52293333D01*
X97266666Y-52460000D01*
X97233333Y-52593333D01*
X97200000Y-52660000D01*
X97166666Y-52693333D01*
X97100000Y-52726666D01*
X97033333Y-52726666D01*
X96966666Y-52693333D01*
X96933333Y-52660000D01*
X96900000Y-52593333D01*
X96866666Y-52460000D01*
X96866666Y-52293333D01*
X96900000Y-52160000D01*
X96933333Y-52093333D01*
X96966666Y-52060000D01*
X97033333Y-52026666D01*
X89640476Y-53494761D02*
X89783333Y-53542380D01*
X90021428Y-53542380D01*
X90116666Y-53494761D01*
X90164285Y-53447142D01*
X90211904Y-53351904D01*
X90211904Y-53256666D01*
X90164285Y-53161428D01*
X90116666Y-53113809D01*
X90021428Y-53066190D01*
X89830952Y-53018571D01*
X89735714Y-52970952D01*
X89688095Y-52923333D01*
X89640476Y-52828095D01*
X89640476Y-52732857D01*
X89688095Y-52637619D01*
X89735714Y-52590000D01*
X89830952Y-52542380D01*
X90069047Y-52542380D01*
X90211904Y-52590000D01*
X90545238Y-52542380D02*
X90783333Y-53542380D01*
X90973809Y-52828095D01*
X91164285Y-53542380D01*
X91402380Y-52542380D01*
X91735714Y-52637619D02*
X91783333Y-52590000D01*
X91878571Y-52542380D01*
X92116666Y-52542380D01*
X92211904Y-52590000D01*
X92259523Y-52637619D01*
X92307142Y-52732857D01*
X92307142Y-52828095D01*
X92259523Y-52970952D01*
X91688095Y-53542380D01*
X92307142Y-53542380D01*
X92926190Y-52542380D02*
X93021428Y-52542380D01*
X93116666Y-52590000D01*
X93164285Y-52637619D01*
X93211904Y-52732857D01*
X93259523Y-52923333D01*
X93259523Y-53161428D01*
X93211904Y-53351904D01*
X93164285Y-53447142D01*
X93116666Y-53494761D01*
X93021428Y-53542380D01*
X92926190Y-53542380D01*
X92830952Y-53494761D01*
X92783333Y-53447142D01*
X92735714Y-53351904D01*
X92688095Y-53161428D01*
X92688095Y-52923333D01*
X92735714Y-52732857D01*
X92783333Y-52637619D01*
X92830952Y-52590000D01*
X92926190Y-52542380D01*
X94733333Y-88693333D02*
X94833333Y-88726666D01*
X95000000Y-88726666D01*
X95066666Y-88693333D01*
X95100000Y-88660000D01*
X95133333Y-88593333D01*
X95133333Y-88526666D01*
X95100000Y-88460000D01*
X95066666Y-88426666D01*
X95000000Y-88393333D01*
X94866666Y-88360000D01*
X94800000Y-88326666D01*
X94766666Y-88293333D01*
X94733333Y-88226666D01*
X94733333Y-88160000D01*
X94766666Y-88093333D01*
X94800000Y-88060000D01*
X94866666Y-88026666D01*
X95033333Y-88026666D01*
X95133333Y-88060000D01*
X95366666Y-88026666D02*
X95533333Y-88726666D01*
X95666666Y-88226666D01*
X95800000Y-88726666D01*
X95966666Y-88026666D01*
X96200000Y-88093333D02*
X96233333Y-88060000D01*
X96300000Y-88026666D01*
X96466666Y-88026666D01*
X96533333Y-88060000D01*
X96566666Y-88093333D01*
X96600000Y-88160000D01*
X96600000Y-88226666D01*
X96566666Y-88326666D01*
X96166666Y-88726666D01*
X96600000Y-88726666D01*
X96866666Y-88093333D02*
X96900000Y-88060000D01*
X96966666Y-88026666D01*
X97133333Y-88026666D01*
X97200000Y-88060000D01*
X97233333Y-88093333D01*
X97266666Y-88160000D01*
X97266666Y-88226666D01*
X97233333Y-88326666D01*
X96833333Y-88726666D01*
X97266666Y-88726666D01*
X89640476Y-89494761D02*
X89783333Y-89542380D01*
X90021428Y-89542380D01*
X90116666Y-89494761D01*
X90164285Y-89447142D01*
X90211904Y-89351904D01*
X90211904Y-89256666D01*
X90164285Y-89161428D01*
X90116666Y-89113809D01*
X90021428Y-89066190D01*
X89830952Y-89018571D01*
X89735714Y-88970952D01*
X89688095Y-88923333D01*
X89640476Y-88828095D01*
X89640476Y-88732857D01*
X89688095Y-88637619D01*
X89735714Y-88590000D01*
X89830952Y-88542380D01*
X90069047Y-88542380D01*
X90211904Y-88590000D01*
X90545238Y-88542380D02*
X90783333Y-89542380D01*
X90973809Y-88828095D01*
X91164285Y-89542380D01*
X91402380Y-88542380D01*
X91735714Y-88637619D02*
X91783333Y-88590000D01*
X91878571Y-88542380D01*
X92116666Y-88542380D01*
X92211904Y-88590000D01*
X92259523Y-88637619D01*
X92307142Y-88732857D01*
X92307142Y-88828095D01*
X92259523Y-88970952D01*
X91688095Y-89542380D01*
X92307142Y-89542380D01*
X92688095Y-88637619D02*
X92735714Y-88590000D01*
X92830952Y-88542380D01*
X93069047Y-88542380D01*
X93164285Y-88590000D01*
X93211904Y-88637619D01*
X93259523Y-88732857D01*
X93259523Y-88828095D01*
X93211904Y-88970952D01*
X92640476Y-89542380D01*
X93259523Y-89542380D01*
X133066666Y-52693333D02*
X133166666Y-52726666D01*
X133333333Y-52726666D01*
X133400000Y-52693333D01*
X133433333Y-52660000D01*
X133466666Y-52593333D01*
X133466666Y-52526666D01*
X133433333Y-52460000D01*
X133400000Y-52426666D01*
X133333333Y-52393333D01*
X133200000Y-52360000D01*
X133133333Y-52326666D01*
X133100000Y-52293333D01*
X133066666Y-52226666D01*
X133066666Y-52160000D01*
X133100000Y-52093333D01*
X133133333Y-52060000D01*
X133200000Y-52026666D01*
X133366666Y-52026666D01*
X133466666Y-52060000D01*
X133700000Y-52026666D02*
X133866666Y-52726666D01*
X134000000Y-52226666D01*
X134133333Y-52726666D01*
X134300000Y-52026666D01*
X134700000Y-52026666D02*
X134766666Y-52026666D01*
X134833333Y-52060000D01*
X134866666Y-52093333D01*
X134900000Y-52160000D01*
X134933333Y-52293333D01*
X134933333Y-52460000D01*
X134900000Y-52593333D01*
X134866666Y-52660000D01*
X134833333Y-52693333D01*
X134766666Y-52726666D01*
X134700000Y-52726666D01*
X134633333Y-52693333D01*
X134600000Y-52660000D01*
X134566666Y-52593333D01*
X134533333Y-52460000D01*
X134533333Y-52293333D01*
X134566666Y-52160000D01*
X134600000Y-52093333D01*
X134633333Y-52060000D01*
X134700000Y-52026666D01*
X128116666Y-53494761D02*
X128259523Y-53542380D01*
X128497619Y-53542380D01*
X128592857Y-53494761D01*
X128640476Y-53447142D01*
X128688095Y-53351904D01*
X128688095Y-53256666D01*
X128640476Y-53161428D01*
X128592857Y-53113809D01*
X128497619Y-53066190D01*
X128307142Y-53018571D01*
X128211904Y-52970952D01*
X128164285Y-52923333D01*
X128116666Y-52828095D01*
X128116666Y-52732857D01*
X128164285Y-52637619D01*
X128211904Y-52590000D01*
X128307142Y-52542380D01*
X128545238Y-52542380D01*
X128688095Y-52590000D01*
X129021428Y-52542380D02*
X129259523Y-53542380D01*
X129450000Y-52828095D01*
X129640476Y-53542380D01*
X129878571Y-52542380D01*
X130450000Y-52542380D02*
X130545238Y-52542380D01*
X130640476Y-52590000D01*
X130688095Y-52637619D01*
X130735714Y-52732857D01*
X130783333Y-52923333D01*
X130783333Y-53161428D01*
X130735714Y-53351904D01*
X130688095Y-53447142D01*
X130640476Y-53494761D01*
X130545238Y-53542380D01*
X130450000Y-53542380D01*
X130354761Y-53494761D01*
X130307142Y-53447142D01*
X130259523Y-53351904D01*
X130211904Y-53161428D01*
X130211904Y-52923333D01*
X130259523Y-52732857D01*
X130307142Y-52637619D01*
X130354761Y-52590000D01*
X130450000Y-52542380D01*
X94733333Y-70693333D02*
X94833333Y-70726666D01*
X95000000Y-70726666D01*
X95066666Y-70693333D01*
X95100000Y-70660000D01*
X95133333Y-70593333D01*
X95133333Y-70526666D01*
X95100000Y-70460000D01*
X95066666Y-70426666D01*
X95000000Y-70393333D01*
X94866666Y-70360000D01*
X94800000Y-70326666D01*
X94766666Y-70293333D01*
X94733333Y-70226666D01*
X94733333Y-70160000D01*
X94766666Y-70093333D01*
X94800000Y-70060000D01*
X94866666Y-70026666D01*
X95033333Y-70026666D01*
X95133333Y-70060000D01*
X95366666Y-70026666D02*
X95533333Y-70726666D01*
X95666666Y-70226666D01*
X95800000Y-70726666D01*
X95966666Y-70026666D01*
X96200000Y-70093333D02*
X96233333Y-70060000D01*
X96300000Y-70026666D01*
X96466666Y-70026666D01*
X96533333Y-70060000D01*
X96566666Y-70093333D01*
X96600000Y-70160000D01*
X96600000Y-70226666D01*
X96566666Y-70326666D01*
X96166666Y-70726666D01*
X96600000Y-70726666D01*
X97266666Y-70726666D02*
X96866666Y-70726666D01*
X97066666Y-70726666D02*
X97066666Y-70026666D01*
X97000000Y-70126666D01*
X96933333Y-70193333D01*
X96866666Y-70226666D01*
X89640476Y-71494761D02*
X89783333Y-71542380D01*
X90021428Y-71542380D01*
X90116666Y-71494761D01*
X90164285Y-71447142D01*
X90211904Y-71351904D01*
X90211904Y-71256666D01*
X90164285Y-71161428D01*
X90116666Y-71113809D01*
X90021428Y-71066190D01*
X89830952Y-71018571D01*
X89735714Y-70970952D01*
X89688095Y-70923333D01*
X89640476Y-70828095D01*
X89640476Y-70732857D01*
X89688095Y-70637619D01*
X89735714Y-70590000D01*
X89830952Y-70542380D01*
X90069047Y-70542380D01*
X90211904Y-70590000D01*
X90545238Y-70542380D02*
X90783333Y-71542380D01*
X90973809Y-70828095D01*
X91164285Y-71542380D01*
X91402380Y-70542380D01*
X91735714Y-70637619D02*
X91783333Y-70590000D01*
X91878571Y-70542380D01*
X92116666Y-70542380D01*
X92211904Y-70590000D01*
X92259523Y-70637619D01*
X92307142Y-70732857D01*
X92307142Y-70828095D01*
X92259523Y-70970952D01*
X91688095Y-71542380D01*
X92307142Y-71542380D01*
X93259523Y-71542380D02*
X92688095Y-71542380D01*
X92973809Y-71542380D02*
X92973809Y-70542380D01*
X92878571Y-70685238D01*
X92783333Y-70780476D01*
X92688095Y-70828095D01*
X37733333Y-88693333D02*
X37833333Y-88726666D01*
X38000000Y-88726666D01*
X38066666Y-88693333D01*
X38100000Y-88660000D01*
X38133333Y-88593333D01*
X38133333Y-88526666D01*
X38100000Y-88460000D01*
X38066666Y-88426666D01*
X38000000Y-88393333D01*
X37866666Y-88360000D01*
X37800000Y-88326666D01*
X37766666Y-88293333D01*
X37733333Y-88226666D01*
X37733333Y-88160000D01*
X37766666Y-88093333D01*
X37800000Y-88060000D01*
X37866666Y-88026666D01*
X38033333Y-88026666D01*
X38133333Y-88060000D01*
X38366666Y-88026666D02*
X38533333Y-88726666D01*
X38666666Y-88226666D01*
X38800000Y-88726666D01*
X38966666Y-88026666D01*
X39566666Y-88026666D02*
X39233333Y-88026666D01*
X39200000Y-88360000D01*
X39233333Y-88326666D01*
X39300000Y-88293333D01*
X39466666Y-88293333D01*
X39533333Y-88326666D01*
X39566666Y-88360000D01*
X39600000Y-88426666D01*
X39600000Y-88593333D01*
X39566666Y-88660000D01*
X39533333Y-88693333D01*
X39466666Y-88726666D01*
X39300000Y-88726666D01*
X39233333Y-88693333D01*
X39200000Y-88660000D01*
X39866666Y-88093333D02*
X39900000Y-88060000D01*
X39966666Y-88026666D01*
X40133333Y-88026666D01*
X40200000Y-88060000D01*
X40233333Y-88093333D01*
X40266666Y-88160000D01*
X40266666Y-88226666D01*
X40233333Y-88326666D01*
X39833333Y-88726666D01*
X40266666Y-88726666D01*
X32640476Y-89494761D02*
X32783333Y-89542380D01*
X33021428Y-89542380D01*
X33116666Y-89494761D01*
X33164285Y-89447142D01*
X33211904Y-89351904D01*
X33211904Y-89256666D01*
X33164285Y-89161428D01*
X33116666Y-89113809D01*
X33021428Y-89066190D01*
X32830952Y-89018571D01*
X32735714Y-88970952D01*
X32688095Y-88923333D01*
X32640476Y-88828095D01*
X32640476Y-88732857D01*
X32688095Y-88637619D01*
X32735714Y-88590000D01*
X32830952Y-88542380D01*
X33069047Y-88542380D01*
X33211904Y-88590000D01*
X33545238Y-88542380D02*
X33783333Y-89542380D01*
X33973809Y-88828095D01*
X34164285Y-89542380D01*
X34402380Y-88542380D01*
X35259523Y-88542380D02*
X34783333Y-88542380D01*
X34735714Y-89018571D01*
X34783333Y-88970952D01*
X34878571Y-88923333D01*
X35116666Y-88923333D01*
X35211904Y-88970952D01*
X35259523Y-89018571D01*
X35307142Y-89113809D01*
X35307142Y-89351904D01*
X35259523Y-89447142D01*
X35211904Y-89494761D01*
X35116666Y-89542380D01*
X34878571Y-89542380D01*
X34783333Y-89494761D01*
X34735714Y-89447142D01*
X35688095Y-88637619D02*
X35735714Y-88590000D01*
X35830952Y-88542380D01*
X36069047Y-88542380D01*
X36164285Y-88590000D01*
X36211904Y-88637619D01*
X36259523Y-88732857D01*
X36259523Y-88828095D01*
X36211904Y-88970952D01*
X35640476Y-89542380D01*
X36259523Y-89542380D01*
X114572380Y-36714285D02*
X113572380Y-36714285D01*
X113572380Y-36476190D01*
X113620000Y-36333333D01*
X113715238Y-36238095D01*
X113810476Y-36190476D01*
X114000952Y-36142857D01*
X114143809Y-36142857D01*
X114334285Y-36190476D01*
X114429523Y-36238095D01*
X114524761Y-36333333D01*
X114572380Y-36476190D01*
X114572380Y-36714285D01*
X114572380Y-35190476D02*
X114572380Y-35761904D01*
X114572380Y-35476190D02*
X113572380Y-35476190D01*
X113715238Y-35571428D01*
X113810476Y-35666666D01*
X113858095Y-35761904D01*
X113572380Y-34857142D02*
X113572380Y-34238095D01*
X113953333Y-34571428D01*
X113953333Y-34428571D01*
X114000952Y-34333333D01*
X114048571Y-34285714D01*
X114143809Y-34238095D01*
X114381904Y-34238095D01*
X114477142Y-34285714D01*
X114524761Y-34333333D01*
X114572380Y-34428571D01*
X114572380Y-34714285D01*
X114524761Y-34809523D01*
X114477142Y-34857142D01*
X114252380Y-31951904D02*
X113252380Y-31951904D01*
X114252380Y-31380476D02*
X113680952Y-31809047D01*
X113252380Y-31380476D02*
X113823809Y-31951904D01*
X37733333Y-124693333D02*
X37833333Y-124726666D01*
X38000000Y-124726666D01*
X38066666Y-124693333D01*
X38100000Y-124660000D01*
X38133333Y-124593333D01*
X38133333Y-124526666D01*
X38100000Y-124460000D01*
X38066666Y-124426666D01*
X38000000Y-124393333D01*
X37866666Y-124360000D01*
X37800000Y-124326666D01*
X37766666Y-124293333D01*
X37733333Y-124226666D01*
X37733333Y-124160000D01*
X37766666Y-124093333D01*
X37800000Y-124060000D01*
X37866666Y-124026666D01*
X38033333Y-124026666D01*
X38133333Y-124060000D01*
X38366666Y-124026666D02*
X38533333Y-124726666D01*
X38666666Y-124226666D01*
X38800000Y-124726666D01*
X38966666Y-124026666D01*
X39566666Y-124026666D02*
X39233333Y-124026666D01*
X39200000Y-124360000D01*
X39233333Y-124326666D01*
X39300000Y-124293333D01*
X39466666Y-124293333D01*
X39533333Y-124326666D01*
X39566666Y-124360000D01*
X39600000Y-124426666D01*
X39600000Y-124593333D01*
X39566666Y-124660000D01*
X39533333Y-124693333D01*
X39466666Y-124726666D01*
X39300000Y-124726666D01*
X39233333Y-124693333D01*
X39200000Y-124660000D01*
X40200000Y-124260000D02*
X40200000Y-124726666D01*
X40033333Y-123993333D02*
X39866666Y-124493333D01*
X40300000Y-124493333D01*
X32640476Y-125494761D02*
X32783333Y-125542380D01*
X33021428Y-125542380D01*
X33116666Y-125494761D01*
X33164285Y-125447142D01*
X33211904Y-125351904D01*
X33211904Y-125256666D01*
X33164285Y-125161428D01*
X33116666Y-125113809D01*
X33021428Y-125066190D01*
X32830952Y-125018571D01*
X32735714Y-124970952D01*
X32688095Y-124923333D01*
X32640476Y-124828095D01*
X32640476Y-124732857D01*
X32688095Y-124637619D01*
X32735714Y-124590000D01*
X32830952Y-124542380D01*
X33069047Y-124542380D01*
X33211904Y-124590000D01*
X33545238Y-124542380D02*
X33783333Y-125542380D01*
X33973809Y-124828095D01*
X34164285Y-125542380D01*
X34402380Y-124542380D01*
X35259523Y-124542380D02*
X34783333Y-124542380D01*
X34735714Y-125018571D01*
X34783333Y-124970952D01*
X34878571Y-124923333D01*
X35116666Y-124923333D01*
X35211904Y-124970952D01*
X35259523Y-125018571D01*
X35307142Y-125113809D01*
X35307142Y-125351904D01*
X35259523Y-125447142D01*
X35211904Y-125494761D01*
X35116666Y-125542380D01*
X34878571Y-125542380D01*
X34783333Y-125494761D01*
X34735714Y-125447142D01*
X36164285Y-124875714D02*
X36164285Y-125542380D01*
X35926190Y-124494761D02*
X35688095Y-125209047D01*
X36307142Y-125209047D01*
X75733333Y-124693333D02*
X75833333Y-124726666D01*
X76000000Y-124726666D01*
X76066666Y-124693333D01*
X76100000Y-124660000D01*
X76133333Y-124593333D01*
X76133333Y-124526666D01*
X76100000Y-124460000D01*
X76066666Y-124426666D01*
X76000000Y-124393333D01*
X75866666Y-124360000D01*
X75800000Y-124326666D01*
X75766666Y-124293333D01*
X75733333Y-124226666D01*
X75733333Y-124160000D01*
X75766666Y-124093333D01*
X75800000Y-124060000D01*
X75866666Y-124026666D01*
X76033333Y-124026666D01*
X76133333Y-124060000D01*
X76366666Y-124026666D02*
X76533333Y-124726666D01*
X76666666Y-124226666D01*
X76800000Y-124726666D01*
X76966666Y-124026666D01*
X77166666Y-124026666D02*
X77600000Y-124026666D01*
X77366666Y-124293333D01*
X77466666Y-124293333D01*
X77533333Y-124326666D01*
X77566666Y-124360000D01*
X77600000Y-124426666D01*
X77600000Y-124593333D01*
X77566666Y-124660000D01*
X77533333Y-124693333D01*
X77466666Y-124726666D01*
X77266666Y-124726666D01*
X77200000Y-124693333D01*
X77166666Y-124660000D01*
X78200000Y-124260000D02*
X78200000Y-124726666D01*
X78033333Y-123993333D02*
X77866666Y-124493333D01*
X78300000Y-124493333D01*
X70640476Y-125494761D02*
X70783333Y-125542380D01*
X71021428Y-125542380D01*
X71116666Y-125494761D01*
X71164285Y-125447142D01*
X71211904Y-125351904D01*
X71211904Y-125256666D01*
X71164285Y-125161428D01*
X71116666Y-125113809D01*
X71021428Y-125066190D01*
X70830952Y-125018571D01*
X70735714Y-124970952D01*
X70688095Y-124923333D01*
X70640476Y-124828095D01*
X70640476Y-124732857D01*
X70688095Y-124637619D01*
X70735714Y-124590000D01*
X70830952Y-124542380D01*
X71069047Y-124542380D01*
X71211904Y-124590000D01*
X71545238Y-124542380D02*
X71783333Y-125542380D01*
X71973809Y-124828095D01*
X72164285Y-125542380D01*
X72402380Y-124542380D01*
X72688095Y-124542380D02*
X73307142Y-124542380D01*
X72973809Y-124923333D01*
X73116666Y-124923333D01*
X73211904Y-124970952D01*
X73259523Y-125018571D01*
X73307142Y-125113809D01*
X73307142Y-125351904D01*
X73259523Y-125447142D01*
X73211904Y-125494761D01*
X73116666Y-125542380D01*
X72830952Y-125542380D01*
X72735714Y-125494761D01*
X72688095Y-125447142D01*
X74164285Y-124875714D02*
X74164285Y-125542380D01*
X73926190Y-124494761D02*
X73688095Y-125209047D01*
X74307142Y-125209047D01*
X37733333Y-52693333D02*
X37833333Y-52726666D01*
X38000000Y-52726666D01*
X38066666Y-52693333D01*
X38100000Y-52660000D01*
X38133333Y-52593333D01*
X38133333Y-52526666D01*
X38100000Y-52460000D01*
X38066666Y-52426666D01*
X38000000Y-52393333D01*
X37866666Y-52360000D01*
X37800000Y-52326666D01*
X37766666Y-52293333D01*
X37733333Y-52226666D01*
X37733333Y-52160000D01*
X37766666Y-52093333D01*
X37800000Y-52060000D01*
X37866666Y-52026666D01*
X38033333Y-52026666D01*
X38133333Y-52060000D01*
X38366666Y-52026666D02*
X38533333Y-52726666D01*
X38666666Y-52226666D01*
X38800000Y-52726666D01*
X38966666Y-52026666D01*
X39566666Y-52026666D02*
X39233333Y-52026666D01*
X39200000Y-52360000D01*
X39233333Y-52326666D01*
X39300000Y-52293333D01*
X39466666Y-52293333D01*
X39533333Y-52326666D01*
X39566666Y-52360000D01*
X39600000Y-52426666D01*
X39600000Y-52593333D01*
X39566666Y-52660000D01*
X39533333Y-52693333D01*
X39466666Y-52726666D01*
X39300000Y-52726666D01*
X39233333Y-52693333D01*
X39200000Y-52660000D01*
X40033333Y-52026666D02*
X40100000Y-52026666D01*
X40166666Y-52060000D01*
X40200000Y-52093333D01*
X40233333Y-52160000D01*
X40266666Y-52293333D01*
X40266666Y-52460000D01*
X40233333Y-52593333D01*
X40200000Y-52660000D01*
X40166666Y-52693333D01*
X40100000Y-52726666D01*
X40033333Y-52726666D01*
X39966666Y-52693333D01*
X39933333Y-52660000D01*
X39900000Y-52593333D01*
X39866666Y-52460000D01*
X39866666Y-52293333D01*
X39900000Y-52160000D01*
X39933333Y-52093333D01*
X39966666Y-52060000D01*
X40033333Y-52026666D01*
X32640476Y-53494761D02*
X32783333Y-53542380D01*
X33021428Y-53542380D01*
X33116666Y-53494761D01*
X33164285Y-53447142D01*
X33211904Y-53351904D01*
X33211904Y-53256666D01*
X33164285Y-53161428D01*
X33116666Y-53113809D01*
X33021428Y-53066190D01*
X32830952Y-53018571D01*
X32735714Y-52970952D01*
X32688095Y-52923333D01*
X32640476Y-52828095D01*
X32640476Y-52732857D01*
X32688095Y-52637619D01*
X32735714Y-52590000D01*
X32830952Y-52542380D01*
X33069047Y-52542380D01*
X33211904Y-52590000D01*
X33545238Y-52542380D02*
X33783333Y-53542380D01*
X33973809Y-52828095D01*
X34164285Y-53542380D01*
X34402380Y-52542380D01*
X35259523Y-52542380D02*
X34783333Y-52542380D01*
X34735714Y-53018571D01*
X34783333Y-52970952D01*
X34878571Y-52923333D01*
X35116666Y-52923333D01*
X35211904Y-52970952D01*
X35259523Y-53018571D01*
X35307142Y-53113809D01*
X35307142Y-53351904D01*
X35259523Y-53447142D01*
X35211904Y-53494761D01*
X35116666Y-53542380D01*
X34878571Y-53542380D01*
X34783333Y-53494761D01*
X34735714Y-53447142D01*
X35926190Y-52542380D02*
X36021428Y-52542380D01*
X36116666Y-52590000D01*
X36164285Y-52637619D01*
X36211904Y-52732857D01*
X36259523Y-52923333D01*
X36259523Y-53161428D01*
X36211904Y-53351904D01*
X36164285Y-53447142D01*
X36116666Y-53494761D01*
X36021428Y-53542380D01*
X35926190Y-53542380D01*
X35830952Y-53494761D01*
X35783333Y-53447142D01*
X35735714Y-53351904D01*
X35688095Y-53161428D01*
X35688095Y-52923333D01*
X35735714Y-52732857D01*
X35783333Y-52637619D01*
X35830952Y-52590000D01*
X35926190Y-52542380D01*
X82572380Y-40714285D02*
X81572380Y-40714285D01*
X81572380Y-40476190D01*
X81620000Y-40333333D01*
X81715238Y-40238095D01*
X81810476Y-40190476D01*
X82000952Y-40142857D01*
X82143809Y-40142857D01*
X82334285Y-40190476D01*
X82429523Y-40238095D01*
X82524761Y-40333333D01*
X82572380Y-40476190D01*
X82572380Y-40714285D01*
X81572380Y-39809523D02*
X81572380Y-39190476D01*
X81953333Y-39523809D01*
X81953333Y-39380952D01*
X82000952Y-39285714D01*
X82048571Y-39238095D01*
X82143809Y-39190476D01*
X82381904Y-39190476D01*
X82477142Y-39238095D01*
X82524761Y-39285714D01*
X82572380Y-39380952D01*
X82572380Y-39666666D01*
X82524761Y-39761904D01*
X82477142Y-39809523D01*
X82572380Y-38238095D02*
X82572380Y-38809523D01*
X82572380Y-38523809D02*
X81572380Y-38523809D01*
X81715238Y-38619047D01*
X81810476Y-38714285D01*
X81858095Y-38809523D01*
X82252380Y-35951904D02*
X81252380Y-35951904D01*
X82252380Y-35380476D02*
X81680952Y-35809047D01*
X81252380Y-35380476D02*
X81823809Y-35951904D01*
X66572380Y-42714285D02*
X65572380Y-42714285D01*
X65572380Y-42476190D01*
X65620000Y-42333333D01*
X65715238Y-42238095D01*
X65810476Y-42190476D01*
X66000952Y-42142857D01*
X66143809Y-42142857D01*
X66334285Y-42190476D01*
X66429523Y-42238095D01*
X66524761Y-42333333D01*
X66572380Y-42476190D01*
X66572380Y-42714285D01*
X65905714Y-41285714D02*
X66572380Y-41285714D01*
X65524761Y-41523809D02*
X66239047Y-41761904D01*
X66239047Y-41142857D01*
X65572380Y-40571428D02*
X65572380Y-40476190D01*
X65620000Y-40380952D01*
X65667619Y-40333333D01*
X65762857Y-40285714D01*
X65953333Y-40238095D01*
X66191428Y-40238095D01*
X66381904Y-40285714D01*
X66477142Y-40333333D01*
X66524761Y-40380952D01*
X66572380Y-40476190D01*
X66572380Y-40571428D01*
X66524761Y-40666666D01*
X66477142Y-40714285D01*
X66381904Y-40761904D01*
X66191428Y-40809523D01*
X65953333Y-40809523D01*
X65762857Y-40761904D01*
X65667619Y-40714285D01*
X65620000Y-40666666D01*
X65572380Y-40571428D01*
X66252380Y-37951904D02*
X65252380Y-37951904D01*
X66252380Y-37380476D02*
X65680952Y-37809047D01*
X65252380Y-37380476D02*
X65823809Y-37951904D01*
X73572380Y-34714285D02*
X72572380Y-34714285D01*
X72572380Y-34476190D01*
X72620000Y-34333333D01*
X72715238Y-34238095D01*
X72810476Y-34190476D01*
X73000952Y-34142857D01*
X73143809Y-34142857D01*
X73334285Y-34190476D01*
X73429523Y-34238095D01*
X73524761Y-34333333D01*
X73572380Y-34476190D01*
X73572380Y-34714285D01*
X72572380Y-33809523D02*
X72572380Y-33190476D01*
X72953333Y-33523809D01*
X72953333Y-33380952D01*
X73000952Y-33285714D01*
X73048571Y-33238095D01*
X73143809Y-33190476D01*
X73381904Y-33190476D01*
X73477142Y-33238095D01*
X73524761Y-33285714D01*
X73572380Y-33380952D01*
X73572380Y-33666666D01*
X73524761Y-33761904D01*
X73477142Y-33809523D01*
X72905714Y-32333333D02*
X73572380Y-32333333D01*
X72524761Y-32571428D02*
X73239047Y-32809523D01*
X73239047Y-32190476D01*
X73252380Y-29951904D02*
X72252380Y-29951904D01*
X73252380Y-29380476D02*
X72680952Y-29809047D01*
X72252380Y-29380476D02*
X72823809Y-29951904D01*
X104572380Y-42714285D02*
X103572380Y-42714285D01*
X103572380Y-42476190D01*
X103620000Y-42333333D01*
X103715238Y-42238095D01*
X103810476Y-42190476D01*
X104000952Y-42142857D01*
X104143809Y-42142857D01*
X104334285Y-42190476D01*
X104429523Y-42238095D01*
X104524761Y-42333333D01*
X104572380Y-42476190D01*
X104572380Y-42714285D01*
X103667619Y-41761904D02*
X103620000Y-41714285D01*
X103572380Y-41619047D01*
X103572380Y-41380952D01*
X103620000Y-41285714D01*
X103667619Y-41238095D01*
X103762857Y-41190476D01*
X103858095Y-41190476D01*
X104000952Y-41238095D01*
X104572380Y-41809523D01*
X104572380Y-41190476D01*
X103572380Y-40571428D02*
X103572380Y-40476190D01*
X103620000Y-40380952D01*
X103667619Y-40333333D01*
X103762857Y-40285714D01*
X103953333Y-40238095D01*
X104191428Y-40238095D01*
X104381904Y-40285714D01*
X104477142Y-40333333D01*
X104524761Y-40380952D01*
X104572380Y-40476190D01*
X104572380Y-40571428D01*
X104524761Y-40666666D01*
X104477142Y-40714285D01*
X104381904Y-40761904D01*
X104191428Y-40809523D01*
X103953333Y-40809523D01*
X103762857Y-40761904D01*
X103667619Y-40714285D01*
X103620000Y-40666666D01*
X103572380Y-40571428D01*
X104252380Y-37951904D02*
X103252380Y-37951904D01*
X104252380Y-37380476D02*
X103680952Y-37809047D01*
X103252380Y-37380476D02*
X103823809Y-37951904D01*
X113733333Y-106693333D02*
X113833333Y-106726666D01*
X114000000Y-106726666D01*
X114066666Y-106693333D01*
X114100000Y-106660000D01*
X114133333Y-106593333D01*
X114133333Y-106526666D01*
X114100000Y-106460000D01*
X114066666Y-106426666D01*
X114000000Y-106393333D01*
X113866666Y-106360000D01*
X113800000Y-106326666D01*
X113766666Y-106293333D01*
X113733333Y-106226666D01*
X113733333Y-106160000D01*
X113766666Y-106093333D01*
X113800000Y-106060000D01*
X113866666Y-106026666D01*
X114033333Y-106026666D01*
X114133333Y-106060000D01*
X114366666Y-106026666D02*
X114533333Y-106726666D01*
X114666666Y-106226666D01*
X114800000Y-106726666D01*
X114966666Y-106026666D01*
X115600000Y-106726666D02*
X115200000Y-106726666D01*
X115400000Y-106726666D02*
X115400000Y-106026666D01*
X115333333Y-106126666D01*
X115266666Y-106193333D01*
X115200000Y-106226666D01*
X115833333Y-106026666D02*
X116266666Y-106026666D01*
X116033333Y-106293333D01*
X116133333Y-106293333D01*
X116200000Y-106326666D01*
X116233333Y-106360000D01*
X116266666Y-106426666D01*
X116266666Y-106593333D01*
X116233333Y-106660000D01*
X116200000Y-106693333D01*
X116133333Y-106726666D01*
X115933333Y-106726666D01*
X115866666Y-106693333D01*
X115833333Y-106660000D01*
X108640476Y-107494761D02*
X108783333Y-107542380D01*
X109021428Y-107542380D01*
X109116666Y-107494761D01*
X109164285Y-107447142D01*
X109211904Y-107351904D01*
X109211904Y-107256666D01*
X109164285Y-107161428D01*
X109116666Y-107113809D01*
X109021428Y-107066190D01*
X108830952Y-107018571D01*
X108735714Y-106970952D01*
X108688095Y-106923333D01*
X108640476Y-106828095D01*
X108640476Y-106732857D01*
X108688095Y-106637619D01*
X108735714Y-106590000D01*
X108830952Y-106542380D01*
X109069047Y-106542380D01*
X109211904Y-106590000D01*
X109545238Y-106542380D02*
X109783333Y-107542380D01*
X109973809Y-106828095D01*
X110164285Y-107542380D01*
X110402380Y-106542380D01*
X111307142Y-107542380D02*
X110735714Y-107542380D01*
X111021428Y-107542380D02*
X111021428Y-106542380D01*
X110926190Y-106685238D01*
X110830952Y-106780476D01*
X110735714Y-106828095D01*
X111640476Y-106542380D02*
X112259523Y-106542380D01*
X111926190Y-106923333D01*
X112069047Y-106923333D01*
X112164285Y-106970952D01*
X112211904Y-107018571D01*
X112259523Y-107113809D01*
X112259523Y-107351904D01*
X112211904Y-107447142D01*
X112164285Y-107494761D01*
X112069047Y-107542380D01*
X111783333Y-107542380D01*
X111688095Y-107494761D01*
X111640476Y-107447142D01*
X139572380Y-40238095D02*
X138572380Y-40238095D01*
X138572380Y-40000000D01*
X138620000Y-39857142D01*
X138715238Y-39761904D01*
X138810476Y-39714285D01*
X139000952Y-39666666D01*
X139143809Y-39666666D01*
X139334285Y-39714285D01*
X139429523Y-39761904D01*
X139524761Y-39857142D01*
X139572380Y-40000000D01*
X139572380Y-40238095D01*
X139572380Y-38714285D02*
X139572380Y-39285714D01*
X139572380Y-39000000D02*
X138572380Y-39000000D01*
X138715238Y-39095238D01*
X138810476Y-39190476D01*
X138858095Y-39285714D01*
X139252380Y-35951904D02*
X138252380Y-35951904D01*
X139252380Y-35380476D02*
X138680952Y-35809047D01*
X138252380Y-35380476D02*
X138823809Y-35951904D01*
X75733333Y-88693333D02*
X75833333Y-88726666D01*
X76000000Y-88726666D01*
X76066666Y-88693333D01*
X76100000Y-88660000D01*
X76133333Y-88593333D01*
X76133333Y-88526666D01*
X76100000Y-88460000D01*
X76066666Y-88426666D01*
X76000000Y-88393333D01*
X75866666Y-88360000D01*
X75800000Y-88326666D01*
X75766666Y-88293333D01*
X75733333Y-88226666D01*
X75733333Y-88160000D01*
X75766666Y-88093333D01*
X75800000Y-88060000D01*
X75866666Y-88026666D01*
X76033333Y-88026666D01*
X76133333Y-88060000D01*
X76366666Y-88026666D02*
X76533333Y-88726666D01*
X76666666Y-88226666D01*
X76800000Y-88726666D01*
X76966666Y-88026666D01*
X77166666Y-88026666D02*
X77600000Y-88026666D01*
X77366666Y-88293333D01*
X77466666Y-88293333D01*
X77533333Y-88326666D01*
X77566666Y-88360000D01*
X77600000Y-88426666D01*
X77600000Y-88593333D01*
X77566666Y-88660000D01*
X77533333Y-88693333D01*
X77466666Y-88726666D01*
X77266666Y-88726666D01*
X77200000Y-88693333D01*
X77166666Y-88660000D01*
X77866666Y-88093333D02*
X77900000Y-88060000D01*
X77966666Y-88026666D01*
X78133333Y-88026666D01*
X78200000Y-88060000D01*
X78233333Y-88093333D01*
X78266666Y-88160000D01*
X78266666Y-88226666D01*
X78233333Y-88326666D01*
X77833333Y-88726666D01*
X78266666Y-88726666D01*
X70640476Y-89494761D02*
X70783333Y-89542380D01*
X71021428Y-89542380D01*
X71116666Y-89494761D01*
X71164285Y-89447142D01*
X71211904Y-89351904D01*
X71211904Y-89256666D01*
X71164285Y-89161428D01*
X71116666Y-89113809D01*
X71021428Y-89066190D01*
X70830952Y-89018571D01*
X70735714Y-88970952D01*
X70688095Y-88923333D01*
X70640476Y-88828095D01*
X70640476Y-88732857D01*
X70688095Y-88637619D01*
X70735714Y-88590000D01*
X70830952Y-88542380D01*
X71069047Y-88542380D01*
X71211904Y-88590000D01*
X71545238Y-88542380D02*
X71783333Y-89542380D01*
X71973809Y-88828095D01*
X72164285Y-89542380D01*
X72402380Y-88542380D01*
X72688095Y-88542380D02*
X73307142Y-88542380D01*
X72973809Y-88923333D01*
X73116666Y-88923333D01*
X73211904Y-88970952D01*
X73259523Y-89018571D01*
X73307142Y-89113809D01*
X73307142Y-89351904D01*
X73259523Y-89447142D01*
X73211904Y-89494761D01*
X73116666Y-89542380D01*
X72830952Y-89542380D01*
X72735714Y-89494761D01*
X72688095Y-89447142D01*
X73688095Y-88637619D02*
X73735714Y-88590000D01*
X73830952Y-88542380D01*
X74069047Y-88542380D01*
X74164285Y-88590000D01*
X74211904Y-88637619D01*
X74259523Y-88732857D01*
X74259523Y-88828095D01*
X74211904Y-88970952D01*
X73640476Y-89542380D01*
X74259523Y-89542380D01*
X111572380Y-34714285D02*
X110572380Y-34714285D01*
X110572380Y-34476190D01*
X110620000Y-34333333D01*
X110715238Y-34238095D01*
X110810476Y-34190476D01*
X111000952Y-34142857D01*
X111143809Y-34142857D01*
X111334285Y-34190476D01*
X111429523Y-34238095D01*
X111524761Y-34333333D01*
X111572380Y-34476190D01*
X111572380Y-34714285D01*
X111572380Y-33190476D02*
X111572380Y-33761904D01*
X111572380Y-33476190D02*
X110572380Y-33476190D01*
X110715238Y-33571428D01*
X110810476Y-33666666D01*
X110858095Y-33761904D01*
X110905714Y-32333333D02*
X111572380Y-32333333D01*
X110524761Y-32571428D02*
X111239047Y-32809523D01*
X111239047Y-32190476D01*
X111252380Y-29951904D02*
X110252380Y-29951904D01*
X111252380Y-29380476D02*
X110680952Y-29809047D01*
X110252380Y-29380476D02*
X110823809Y-29951904D01*
X142572380Y-42238095D02*
X141572380Y-42238095D01*
X141572380Y-42000000D01*
X141620000Y-41857142D01*
X141715238Y-41761904D01*
X141810476Y-41714285D01*
X142000952Y-41666666D01*
X142143809Y-41666666D01*
X142334285Y-41714285D01*
X142429523Y-41761904D01*
X142524761Y-41857142D01*
X142572380Y-42000000D01*
X142572380Y-42238095D01*
X141572380Y-41047619D02*
X141572380Y-40952380D01*
X141620000Y-40857142D01*
X141667619Y-40809523D01*
X141762857Y-40761904D01*
X141953333Y-40714285D01*
X142191428Y-40714285D01*
X142381904Y-40761904D01*
X142477142Y-40809523D01*
X142524761Y-40857142D01*
X142572380Y-40952380D01*
X142572380Y-41047619D01*
X142524761Y-41142857D01*
X142477142Y-41190476D01*
X142381904Y-41238095D01*
X142191428Y-41285714D01*
X141953333Y-41285714D01*
X141762857Y-41238095D01*
X141667619Y-41190476D01*
X141620000Y-41142857D01*
X141572380Y-41047619D01*
X142252380Y-37951904D02*
X141252380Y-37951904D01*
X142252380Y-37380476D02*
X141680952Y-37809047D01*
X141252380Y-37380476D02*
X141823809Y-37951904D01*
X56733333Y-70693333D02*
X56833333Y-70726666D01*
X57000000Y-70726666D01*
X57066666Y-70693333D01*
X57100000Y-70660000D01*
X57133333Y-70593333D01*
X57133333Y-70526666D01*
X57100000Y-70460000D01*
X57066666Y-70426666D01*
X57000000Y-70393333D01*
X56866666Y-70360000D01*
X56800000Y-70326666D01*
X56766666Y-70293333D01*
X56733333Y-70226666D01*
X56733333Y-70160000D01*
X56766666Y-70093333D01*
X56800000Y-70060000D01*
X56866666Y-70026666D01*
X57033333Y-70026666D01*
X57133333Y-70060000D01*
X57366666Y-70026666D02*
X57533333Y-70726666D01*
X57666666Y-70226666D01*
X57800000Y-70726666D01*
X57966666Y-70026666D01*
X58533333Y-70260000D02*
X58533333Y-70726666D01*
X58366666Y-69993333D02*
X58200000Y-70493333D01*
X58633333Y-70493333D01*
X59266666Y-70726666D02*
X58866666Y-70726666D01*
X59066666Y-70726666D02*
X59066666Y-70026666D01*
X59000000Y-70126666D01*
X58933333Y-70193333D01*
X58866666Y-70226666D01*
X51640476Y-71494761D02*
X51783333Y-71542380D01*
X52021428Y-71542380D01*
X52116666Y-71494761D01*
X52164285Y-71447142D01*
X52211904Y-71351904D01*
X52211904Y-71256666D01*
X52164285Y-71161428D01*
X52116666Y-71113809D01*
X52021428Y-71066190D01*
X51830952Y-71018571D01*
X51735714Y-70970952D01*
X51688095Y-70923333D01*
X51640476Y-70828095D01*
X51640476Y-70732857D01*
X51688095Y-70637619D01*
X51735714Y-70590000D01*
X51830952Y-70542380D01*
X52069047Y-70542380D01*
X52211904Y-70590000D01*
X52545238Y-70542380D02*
X52783333Y-71542380D01*
X52973809Y-70828095D01*
X53164285Y-71542380D01*
X53402380Y-70542380D01*
X54211904Y-70875714D02*
X54211904Y-71542380D01*
X53973809Y-70494761D02*
X53735714Y-71209047D01*
X54354761Y-71209047D01*
X55259523Y-71542380D02*
X54688095Y-71542380D01*
X54973809Y-71542380D02*
X54973809Y-70542380D01*
X54878571Y-70685238D01*
X54783333Y-70780476D01*
X54688095Y-70828095D01*
X136572380Y-38238095D02*
X135572380Y-38238095D01*
X135572380Y-38000000D01*
X135620000Y-37857142D01*
X135715238Y-37761904D01*
X135810476Y-37714285D01*
X136000952Y-37666666D01*
X136143809Y-37666666D01*
X136334285Y-37714285D01*
X136429523Y-37761904D01*
X136524761Y-37857142D01*
X136572380Y-38000000D01*
X136572380Y-38238095D01*
X135667619Y-37285714D02*
X135620000Y-37238095D01*
X135572380Y-37142857D01*
X135572380Y-36904761D01*
X135620000Y-36809523D01*
X135667619Y-36761904D01*
X135762857Y-36714285D01*
X135858095Y-36714285D01*
X136000952Y-36761904D01*
X136572380Y-37333333D01*
X136572380Y-36714285D01*
X136252380Y-33951904D02*
X135252380Y-33951904D01*
X136252380Y-33380476D02*
X135680952Y-33809047D01*
X135252380Y-33380476D02*
X135823809Y-33951904D01*
X63572380Y-40714285D02*
X62572380Y-40714285D01*
X62572380Y-40476190D01*
X62620000Y-40333333D01*
X62715238Y-40238095D01*
X62810476Y-40190476D01*
X63000952Y-40142857D01*
X63143809Y-40142857D01*
X63334285Y-40190476D01*
X63429523Y-40238095D01*
X63524761Y-40333333D01*
X63572380Y-40476190D01*
X63572380Y-40714285D01*
X62905714Y-39285714D02*
X63572380Y-39285714D01*
X62524761Y-39523809D02*
X63239047Y-39761904D01*
X63239047Y-39142857D01*
X63572380Y-38238095D02*
X63572380Y-38809523D01*
X63572380Y-38523809D02*
X62572380Y-38523809D01*
X62715238Y-38619047D01*
X62810476Y-38714285D01*
X62858095Y-38809523D01*
X63252380Y-35951904D02*
X62252380Y-35951904D01*
X63252380Y-35380476D02*
X62680952Y-35809047D01*
X62252380Y-35380476D02*
X62823809Y-35951904D01*
X156206666Y-86952380D02*
X156206666Y-87666666D01*
X156159047Y-87809523D01*
X156063809Y-87904761D01*
X155920952Y-87952380D01*
X155825714Y-87952380D01*
X157206666Y-87952380D02*
X156635238Y-87952380D01*
X156920952Y-87952380D02*
X156920952Y-86952380D01*
X156825714Y-87095238D01*
X156730476Y-87190476D01*
X156635238Y-87238095D01*
X38572380Y-36714285D02*
X37572380Y-36714285D01*
X37572380Y-36476190D01*
X37620000Y-36333333D01*
X37715238Y-36238095D01*
X37810476Y-36190476D01*
X38000952Y-36142857D01*
X38143809Y-36142857D01*
X38334285Y-36190476D01*
X38429523Y-36238095D01*
X38524761Y-36333333D01*
X38572380Y-36476190D01*
X38572380Y-36714285D01*
X37572380Y-35238095D02*
X37572380Y-35714285D01*
X38048571Y-35761904D01*
X38000952Y-35714285D01*
X37953333Y-35619047D01*
X37953333Y-35380952D01*
X38000952Y-35285714D01*
X38048571Y-35238095D01*
X38143809Y-35190476D01*
X38381904Y-35190476D01*
X38477142Y-35238095D01*
X38524761Y-35285714D01*
X38572380Y-35380952D01*
X38572380Y-35619047D01*
X38524761Y-35714285D01*
X38477142Y-35761904D01*
X37572380Y-34857142D02*
X37572380Y-34238095D01*
X37953333Y-34571428D01*
X37953333Y-34428571D01*
X38000952Y-34333333D01*
X38048571Y-34285714D01*
X38143809Y-34238095D01*
X38381904Y-34238095D01*
X38477142Y-34285714D01*
X38524761Y-34333333D01*
X38572380Y-34428571D01*
X38572380Y-34714285D01*
X38524761Y-34809523D01*
X38477142Y-34857142D01*
X38252380Y-31951904D02*
X37252380Y-31951904D01*
X38252380Y-31380476D02*
X37680952Y-31809047D01*
X37252380Y-31380476D02*
X37823809Y-31951904D01*
X56733333Y-124693333D02*
X56833333Y-124726666D01*
X57000000Y-124726666D01*
X57066666Y-124693333D01*
X57100000Y-124660000D01*
X57133333Y-124593333D01*
X57133333Y-124526666D01*
X57100000Y-124460000D01*
X57066666Y-124426666D01*
X57000000Y-124393333D01*
X56866666Y-124360000D01*
X56800000Y-124326666D01*
X56766666Y-124293333D01*
X56733333Y-124226666D01*
X56733333Y-124160000D01*
X56766666Y-124093333D01*
X56800000Y-124060000D01*
X56866666Y-124026666D01*
X57033333Y-124026666D01*
X57133333Y-124060000D01*
X57366666Y-124026666D02*
X57533333Y-124726666D01*
X57666666Y-124226666D01*
X57800000Y-124726666D01*
X57966666Y-124026666D01*
X58533333Y-124260000D02*
X58533333Y-124726666D01*
X58366666Y-123993333D02*
X58200000Y-124493333D01*
X58633333Y-124493333D01*
X59200000Y-124260000D02*
X59200000Y-124726666D01*
X59033333Y-123993333D02*
X58866666Y-124493333D01*
X59300000Y-124493333D01*
X51640476Y-125494761D02*
X51783333Y-125542380D01*
X52021428Y-125542380D01*
X52116666Y-125494761D01*
X52164285Y-125447142D01*
X52211904Y-125351904D01*
X52211904Y-125256666D01*
X52164285Y-125161428D01*
X52116666Y-125113809D01*
X52021428Y-125066190D01*
X51830952Y-125018571D01*
X51735714Y-124970952D01*
X51688095Y-124923333D01*
X51640476Y-124828095D01*
X51640476Y-124732857D01*
X51688095Y-124637619D01*
X51735714Y-124590000D01*
X51830952Y-124542380D01*
X52069047Y-124542380D01*
X52211904Y-124590000D01*
X52545238Y-124542380D02*
X52783333Y-125542380D01*
X52973809Y-124828095D01*
X53164285Y-125542380D01*
X53402380Y-124542380D01*
X54211904Y-124875714D02*
X54211904Y-125542380D01*
X53973809Y-124494761D02*
X53735714Y-125209047D01*
X54354761Y-125209047D01*
X55164285Y-124875714D02*
X55164285Y-125542380D01*
X54926190Y-124494761D02*
X54688095Y-125209047D01*
X55307142Y-125209047D01*
X133572380Y-36238095D02*
X132572380Y-36238095D01*
X132572380Y-36000000D01*
X132620000Y-35857142D01*
X132715238Y-35761904D01*
X132810476Y-35714285D01*
X133000952Y-35666666D01*
X133143809Y-35666666D01*
X133334285Y-35714285D01*
X133429523Y-35761904D01*
X133524761Y-35857142D01*
X133572380Y-36000000D01*
X133572380Y-36238095D01*
X132572380Y-35333333D02*
X132572380Y-34714285D01*
X132953333Y-35047619D01*
X132953333Y-34904761D01*
X133000952Y-34809523D01*
X133048571Y-34761904D01*
X133143809Y-34714285D01*
X133381904Y-34714285D01*
X133477142Y-34761904D01*
X133524761Y-34809523D01*
X133572380Y-34904761D01*
X133572380Y-35190476D01*
X133524761Y-35285714D01*
X133477142Y-35333333D01*
X133252380Y-31951904D02*
X132252380Y-31951904D01*
X133252380Y-31380476D02*
X132680952Y-31809047D01*
X132252380Y-31380476D02*
X132823809Y-31951904D01*
X113733333Y-70693333D02*
X113833333Y-70726666D01*
X114000000Y-70726666D01*
X114066666Y-70693333D01*
X114100000Y-70660000D01*
X114133333Y-70593333D01*
X114133333Y-70526666D01*
X114100000Y-70460000D01*
X114066666Y-70426666D01*
X114000000Y-70393333D01*
X113866666Y-70360000D01*
X113800000Y-70326666D01*
X113766666Y-70293333D01*
X113733333Y-70226666D01*
X113733333Y-70160000D01*
X113766666Y-70093333D01*
X113800000Y-70060000D01*
X113866666Y-70026666D01*
X114033333Y-70026666D01*
X114133333Y-70060000D01*
X114366666Y-70026666D02*
X114533333Y-70726666D01*
X114666666Y-70226666D01*
X114800000Y-70726666D01*
X114966666Y-70026666D01*
X115600000Y-70726666D02*
X115200000Y-70726666D01*
X115400000Y-70726666D02*
X115400000Y-70026666D01*
X115333333Y-70126666D01*
X115266666Y-70193333D01*
X115200000Y-70226666D01*
X116266666Y-70726666D02*
X115866666Y-70726666D01*
X116066666Y-70726666D02*
X116066666Y-70026666D01*
X116000000Y-70126666D01*
X115933333Y-70193333D01*
X115866666Y-70226666D01*
X108640476Y-71494761D02*
X108783333Y-71542380D01*
X109021428Y-71542380D01*
X109116666Y-71494761D01*
X109164285Y-71447142D01*
X109211904Y-71351904D01*
X109211904Y-71256666D01*
X109164285Y-71161428D01*
X109116666Y-71113809D01*
X109021428Y-71066190D01*
X108830952Y-71018571D01*
X108735714Y-70970952D01*
X108688095Y-70923333D01*
X108640476Y-70828095D01*
X108640476Y-70732857D01*
X108688095Y-70637619D01*
X108735714Y-70590000D01*
X108830952Y-70542380D01*
X109069047Y-70542380D01*
X109211904Y-70590000D01*
X109545238Y-70542380D02*
X109783333Y-71542380D01*
X109973809Y-70828095D01*
X110164285Y-71542380D01*
X110402380Y-70542380D01*
X111307142Y-71542380D02*
X110735714Y-71542380D01*
X111021428Y-71542380D02*
X111021428Y-70542380D01*
X110926190Y-70685238D01*
X110830952Y-70780476D01*
X110735714Y-70828095D01*
X112259523Y-71542380D02*
X111688095Y-71542380D01*
X111973809Y-71542380D02*
X111973809Y-70542380D01*
X111878571Y-70685238D01*
X111783333Y-70780476D01*
X111688095Y-70828095D01*
X35572380Y-34714285D02*
X34572380Y-34714285D01*
X34572380Y-34476190D01*
X34620000Y-34333333D01*
X34715238Y-34238095D01*
X34810476Y-34190476D01*
X35000952Y-34142857D01*
X35143809Y-34142857D01*
X35334285Y-34190476D01*
X35429523Y-34238095D01*
X35524761Y-34333333D01*
X35572380Y-34476190D01*
X35572380Y-34714285D01*
X34572380Y-33238095D02*
X34572380Y-33714285D01*
X35048571Y-33761904D01*
X35000952Y-33714285D01*
X34953333Y-33619047D01*
X34953333Y-33380952D01*
X35000952Y-33285714D01*
X35048571Y-33238095D01*
X35143809Y-33190476D01*
X35381904Y-33190476D01*
X35477142Y-33238095D01*
X35524761Y-33285714D01*
X35572380Y-33380952D01*
X35572380Y-33619047D01*
X35524761Y-33714285D01*
X35477142Y-33761904D01*
X34905714Y-32333333D02*
X35572380Y-32333333D01*
X34524761Y-32571428D02*
X35239047Y-32809523D01*
X35239047Y-32190476D01*
X35252380Y-29951904D02*
X34252380Y-29951904D01*
X35252380Y-29380476D02*
X34680952Y-29809047D01*
X34252380Y-29380476D02*
X34823809Y-29951904D01*
X56733333Y-88693333D02*
X56833333Y-88726666D01*
X57000000Y-88726666D01*
X57066666Y-88693333D01*
X57100000Y-88660000D01*
X57133333Y-88593333D01*
X57133333Y-88526666D01*
X57100000Y-88460000D01*
X57066666Y-88426666D01*
X57000000Y-88393333D01*
X56866666Y-88360000D01*
X56800000Y-88326666D01*
X56766666Y-88293333D01*
X56733333Y-88226666D01*
X56733333Y-88160000D01*
X56766666Y-88093333D01*
X56800000Y-88060000D01*
X56866666Y-88026666D01*
X57033333Y-88026666D01*
X57133333Y-88060000D01*
X57366666Y-88026666D02*
X57533333Y-88726666D01*
X57666666Y-88226666D01*
X57800000Y-88726666D01*
X57966666Y-88026666D01*
X58533333Y-88260000D02*
X58533333Y-88726666D01*
X58366666Y-87993333D02*
X58200000Y-88493333D01*
X58633333Y-88493333D01*
X58866666Y-88093333D02*
X58900000Y-88060000D01*
X58966666Y-88026666D01*
X59133333Y-88026666D01*
X59200000Y-88060000D01*
X59233333Y-88093333D01*
X59266666Y-88160000D01*
X59266666Y-88226666D01*
X59233333Y-88326666D01*
X58833333Y-88726666D01*
X59266666Y-88726666D01*
X51640476Y-89494761D02*
X51783333Y-89542380D01*
X52021428Y-89542380D01*
X52116666Y-89494761D01*
X52164285Y-89447142D01*
X52211904Y-89351904D01*
X52211904Y-89256666D01*
X52164285Y-89161428D01*
X52116666Y-89113809D01*
X52021428Y-89066190D01*
X51830952Y-89018571D01*
X51735714Y-88970952D01*
X51688095Y-88923333D01*
X51640476Y-88828095D01*
X51640476Y-88732857D01*
X51688095Y-88637619D01*
X51735714Y-88590000D01*
X51830952Y-88542380D01*
X52069047Y-88542380D01*
X52211904Y-88590000D01*
X52545238Y-88542380D02*
X52783333Y-89542380D01*
X52973809Y-88828095D01*
X53164285Y-89542380D01*
X53402380Y-88542380D01*
X54211904Y-88875714D02*
X54211904Y-89542380D01*
X53973809Y-88494761D02*
X53735714Y-89209047D01*
X54354761Y-89209047D01*
X54688095Y-88637619D02*
X54735714Y-88590000D01*
X54830952Y-88542380D01*
X55069047Y-88542380D01*
X55164285Y-88590000D01*
X55211904Y-88637619D01*
X55259523Y-88732857D01*
X55259523Y-88828095D01*
X55211904Y-88970952D01*
X54640476Y-89542380D01*
X55259523Y-89542380D01*
X133066666Y-106693333D02*
X133166666Y-106726666D01*
X133333333Y-106726666D01*
X133400000Y-106693333D01*
X133433333Y-106660000D01*
X133466666Y-106593333D01*
X133466666Y-106526666D01*
X133433333Y-106460000D01*
X133400000Y-106426666D01*
X133333333Y-106393333D01*
X133200000Y-106360000D01*
X133133333Y-106326666D01*
X133100000Y-106293333D01*
X133066666Y-106226666D01*
X133066666Y-106160000D01*
X133100000Y-106093333D01*
X133133333Y-106060000D01*
X133200000Y-106026666D01*
X133366666Y-106026666D01*
X133466666Y-106060000D01*
X133700000Y-106026666D02*
X133866666Y-106726666D01*
X134000000Y-106226666D01*
X134133333Y-106726666D01*
X134300000Y-106026666D01*
X134500000Y-106026666D02*
X134933333Y-106026666D01*
X134700000Y-106293333D01*
X134800000Y-106293333D01*
X134866666Y-106326666D01*
X134900000Y-106360000D01*
X134933333Y-106426666D01*
X134933333Y-106593333D01*
X134900000Y-106660000D01*
X134866666Y-106693333D01*
X134800000Y-106726666D01*
X134600000Y-106726666D01*
X134533333Y-106693333D01*
X134500000Y-106660000D01*
X128116666Y-107494761D02*
X128259523Y-107542380D01*
X128497619Y-107542380D01*
X128592857Y-107494761D01*
X128640476Y-107447142D01*
X128688095Y-107351904D01*
X128688095Y-107256666D01*
X128640476Y-107161428D01*
X128592857Y-107113809D01*
X128497619Y-107066190D01*
X128307142Y-107018571D01*
X128211904Y-106970952D01*
X128164285Y-106923333D01*
X128116666Y-106828095D01*
X128116666Y-106732857D01*
X128164285Y-106637619D01*
X128211904Y-106590000D01*
X128307142Y-106542380D01*
X128545238Y-106542380D01*
X128688095Y-106590000D01*
X129021428Y-106542380D02*
X129259523Y-107542380D01*
X129450000Y-106828095D01*
X129640476Y-107542380D01*
X129878571Y-106542380D01*
X130164285Y-106542380D02*
X130783333Y-106542380D01*
X130450000Y-106923333D01*
X130592857Y-106923333D01*
X130688095Y-106970952D01*
X130735714Y-107018571D01*
X130783333Y-107113809D01*
X130783333Y-107351904D01*
X130735714Y-107447142D01*
X130688095Y-107494761D01*
X130592857Y-107542380D01*
X130307142Y-107542380D01*
X130211904Y-107494761D01*
X130164285Y-107447142D01*
X92572380Y-34714285D02*
X91572380Y-34714285D01*
X91572380Y-34476190D01*
X91620000Y-34333333D01*
X91715238Y-34238095D01*
X91810476Y-34190476D01*
X92000952Y-34142857D01*
X92143809Y-34142857D01*
X92334285Y-34190476D01*
X92429523Y-34238095D01*
X92524761Y-34333333D01*
X92572380Y-34476190D01*
X92572380Y-34714285D01*
X91667619Y-33761904D02*
X91620000Y-33714285D01*
X91572380Y-33619047D01*
X91572380Y-33380952D01*
X91620000Y-33285714D01*
X91667619Y-33238095D01*
X91762857Y-33190476D01*
X91858095Y-33190476D01*
X92000952Y-33238095D01*
X92572380Y-33809523D01*
X92572380Y-33190476D01*
X91905714Y-32333333D02*
X92572380Y-32333333D01*
X91524761Y-32571428D02*
X92239047Y-32809523D01*
X92239047Y-32190476D01*
X92252380Y-29951904D02*
X91252380Y-29951904D01*
X92252380Y-29380476D02*
X91680952Y-29809047D01*
X91252380Y-29380476D02*
X91823809Y-29951904D01*
X57572380Y-36714285D02*
X56572380Y-36714285D01*
X56572380Y-36476190D01*
X56620000Y-36333333D01*
X56715238Y-36238095D01*
X56810476Y-36190476D01*
X57000952Y-36142857D01*
X57143809Y-36142857D01*
X57334285Y-36190476D01*
X57429523Y-36238095D01*
X57524761Y-36333333D01*
X57572380Y-36476190D01*
X57572380Y-36714285D01*
X56905714Y-35285714D02*
X57572380Y-35285714D01*
X56524761Y-35523809D02*
X57239047Y-35761904D01*
X57239047Y-35142857D01*
X56572380Y-34857142D02*
X56572380Y-34238095D01*
X56953333Y-34571428D01*
X56953333Y-34428571D01*
X57000952Y-34333333D01*
X57048571Y-34285714D01*
X57143809Y-34238095D01*
X57381904Y-34238095D01*
X57477142Y-34285714D01*
X57524761Y-34333333D01*
X57572380Y-34428571D01*
X57572380Y-34714285D01*
X57524761Y-34809523D01*
X57477142Y-34857142D01*
X57252380Y-31951904D02*
X56252380Y-31951904D01*
X57252380Y-31380476D02*
X56680952Y-31809047D01*
X56252380Y-31380476D02*
X56823809Y-31951904D01*
X117572380Y-38714285D02*
X116572380Y-38714285D01*
X116572380Y-38476190D01*
X116620000Y-38333333D01*
X116715238Y-38238095D01*
X116810476Y-38190476D01*
X117000952Y-38142857D01*
X117143809Y-38142857D01*
X117334285Y-38190476D01*
X117429523Y-38238095D01*
X117524761Y-38333333D01*
X117572380Y-38476190D01*
X117572380Y-38714285D01*
X117572380Y-37190476D02*
X117572380Y-37761904D01*
X117572380Y-37476190D02*
X116572380Y-37476190D01*
X116715238Y-37571428D01*
X116810476Y-37666666D01*
X116858095Y-37761904D01*
X116667619Y-36809523D02*
X116620000Y-36761904D01*
X116572380Y-36666666D01*
X116572380Y-36428571D01*
X116620000Y-36333333D01*
X116667619Y-36285714D01*
X116762857Y-36238095D01*
X116858095Y-36238095D01*
X117000952Y-36285714D01*
X117572380Y-36857142D01*
X117572380Y-36238095D01*
X117252380Y-33951904D02*
X116252380Y-33951904D01*
X117252380Y-33380476D02*
X116680952Y-33809047D01*
X116252380Y-33380476D02*
X116823809Y-33951904D01*
X130572380Y-34238095D02*
X129572380Y-34238095D01*
X129572380Y-34000000D01*
X129620000Y-33857142D01*
X129715238Y-33761904D01*
X129810476Y-33714285D01*
X130000952Y-33666666D01*
X130143809Y-33666666D01*
X130334285Y-33714285D01*
X130429523Y-33761904D01*
X130524761Y-33857142D01*
X130572380Y-34000000D01*
X130572380Y-34238095D01*
X129905714Y-32809523D02*
X130572380Y-32809523D01*
X129524761Y-33047619D02*
X130239047Y-33285714D01*
X130239047Y-32666666D01*
X130252380Y-29951904D02*
X129252380Y-29951904D01*
X130252380Y-29380476D02*
X129680952Y-29809047D01*
X129252380Y-29380476D02*
X129823809Y-29951904D01*
X94733333Y-124693333D02*
X94833333Y-124726666D01*
X95000000Y-124726666D01*
X95066666Y-124693333D01*
X95100000Y-124660000D01*
X95133333Y-124593333D01*
X95133333Y-124526666D01*
X95100000Y-124460000D01*
X95066666Y-124426666D01*
X95000000Y-124393333D01*
X94866666Y-124360000D01*
X94800000Y-124326666D01*
X94766666Y-124293333D01*
X94733333Y-124226666D01*
X94733333Y-124160000D01*
X94766666Y-124093333D01*
X94800000Y-124060000D01*
X94866666Y-124026666D01*
X95033333Y-124026666D01*
X95133333Y-124060000D01*
X95366666Y-124026666D02*
X95533333Y-124726666D01*
X95666666Y-124226666D01*
X95800000Y-124726666D01*
X95966666Y-124026666D01*
X96200000Y-124093333D02*
X96233333Y-124060000D01*
X96300000Y-124026666D01*
X96466666Y-124026666D01*
X96533333Y-124060000D01*
X96566666Y-124093333D01*
X96600000Y-124160000D01*
X96600000Y-124226666D01*
X96566666Y-124326666D01*
X96166666Y-124726666D01*
X96600000Y-124726666D01*
X97200000Y-124260000D02*
X97200000Y-124726666D01*
X97033333Y-123993333D02*
X96866666Y-124493333D01*
X97300000Y-124493333D01*
X89640476Y-125494761D02*
X89783333Y-125542380D01*
X90021428Y-125542380D01*
X90116666Y-125494761D01*
X90164285Y-125447142D01*
X90211904Y-125351904D01*
X90211904Y-125256666D01*
X90164285Y-125161428D01*
X90116666Y-125113809D01*
X90021428Y-125066190D01*
X89830952Y-125018571D01*
X89735714Y-124970952D01*
X89688095Y-124923333D01*
X89640476Y-124828095D01*
X89640476Y-124732857D01*
X89688095Y-124637619D01*
X89735714Y-124590000D01*
X89830952Y-124542380D01*
X90069047Y-124542380D01*
X90211904Y-124590000D01*
X90545238Y-124542380D02*
X90783333Y-125542380D01*
X90973809Y-124828095D01*
X91164285Y-125542380D01*
X91402380Y-124542380D01*
X91735714Y-124637619D02*
X91783333Y-124590000D01*
X91878571Y-124542380D01*
X92116666Y-124542380D01*
X92211904Y-124590000D01*
X92259523Y-124637619D01*
X92307142Y-124732857D01*
X92307142Y-124828095D01*
X92259523Y-124970952D01*
X91688095Y-125542380D01*
X92307142Y-125542380D01*
X93164285Y-124875714D02*
X93164285Y-125542380D01*
X92926190Y-124494761D02*
X92688095Y-125209047D01*
X93307142Y-125209047D01*
X117673271Y-135264608D02*
X117767552Y-135217468D01*
X117885403Y-135099616D01*
X117908973Y-135028906D01*
X117908973Y-134981765D01*
X117885403Y-134911055D01*
X117838262Y-134863914D01*
X117767552Y-134840344D01*
X117720411Y-134840344D01*
X117649701Y-134863914D01*
X117531849Y-134934625D01*
X117461139Y-134958195D01*
X117413998Y-134958195D01*
X117343288Y-134934625D01*
X117296147Y-134887484D01*
X117272577Y-134816774D01*
X117272577Y-134769633D01*
X117296147Y-134698923D01*
X117413998Y-134581071D01*
X117508279Y-134533931D01*
X117649701Y-134345369D02*
X118262526Y-134722493D01*
X118003254Y-134274659D01*
X118451088Y-134533931D01*
X118073965Y-133921105D01*
X119016774Y-133968246D02*
X118733931Y-134251088D01*
X118875352Y-134109667D02*
X118380378Y-133614692D01*
X118403948Y-133732543D01*
X118403948Y-133826824D01*
X118380378Y-133897535D01*
X119111055Y-133213998D02*
X119441038Y-133543982D01*
X118804642Y-133143288D02*
X119040344Y-133614692D01*
X119346757Y-133308279D01*
X114638773Y-139432498D02*
X114773460Y-139365154D01*
X114941819Y-139196796D01*
X114975490Y-139095780D01*
X114975490Y-139028437D01*
X114941819Y-138927422D01*
X114874475Y-138860078D01*
X114773460Y-138826406D01*
X114706116Y-138826406D01*
X114605101Y-138860078D01*
X114436742Y-138961093D01*
X114335727Y-138994765D01*
X114268384Y-138994765D01*
X114167368Y-138961093D01*
X114100025Y-138893750D01*
X114066353Y-138792735D01*
X114066353Y-138725391D01*
X114100025Y-138624376D01*
X114268384Y-138456017D01*
X114403071Y-138388674D01*
X114605101Y-138119300D02*
X115480567Y-138658048D01*
X115110177Y-138018284D01*
X115749941Y-138388674D01*
X115211193Y-137513208D01*
X116558063Y-137580552D02*
X116154002Y-137984613D01*
X116356032Y-137782582D02*
X115648925Y-137075475D01*
X115682597Y-137243834D01*
X115682597Y-137378521D01*
X115648925Y-137479536D01*
X116692750Y-136503056D02*
X117164154Y-136974460D01*
X116255017Y-136402040D02*
X116591734Y-137075475D01*
X117029467Y-136637743D01*
X54572380Y-34714285D02*
X53572380Y-34714285D01*
X53572380Y-34476190D01*
X53620000Y-34333333D01*
X53715238Y-34238095D01*
X53810476Y-34190476D01*
X54000952Y-34142857D01*
X54143809Y-34142857D01*
X54334285Y-34190476D01*
X54429523Y-34238095D01*
X54524761Y-34333333D01*
X54572380Y-34476190D01*
X54572380Y-34714285D01*
X53905714Y-33285714D02*
X54572380Y-33285714D01*
X53524761Y-33523809D02*
X54239047Y-33761904D01*
X54239047Y-33142857D01*
X53905714Y-32333333D02*
X54572380Y-32333333D01*
X53524761Y-32571428D02*
X54239047Y-32809523D01*
X54239047Y-32190476D01*
X54252380Y-29951904D02*
X53252380Y-29951904D01*
X54252380Y-29380476D02*
X53680952Y-29809047D01*
X53252380Y-29380476D02*
X53823809Y-29951904D01*
X85572380Y-42714285D02*
X84572380Y-42714285D01*
X84572380Y-42476190D01*
X84620000Y-42333333D01*
X84715238Y-42238095D01*
X84810476Y-42190476D01*
X85000952Y-42142857D01*
X85143809Y-42142857D01*
X85334285Y-42190476D01*
X85429523Y-42238095D01*
X85524761Y-42333333D01*
X85572380Y-42476190D01*
X85572380Y-42714285D01*
X84572380Y-41809523D02*
X84572380Y-41190476D01*
X84953333Y-41523809D01*
X84953333Y-41380952D01*
X85000952Y-41285714D01*
X85048571Y-41238095D01*
X85143809Y-41190476D01*
X85381904Y-41190476D01*
X85477142Y-41238095D01*
X85524761Y-41285714D01*
X85572380Y-41380952D01*
X85572380Y-41666666D01*
X85524761Y-41761904D01*
X85477142Y-41809523D01*
X84572380Y-40571428D02*
X84572380Y-40476190D01*
X84620000Y-40380952D01*
X84667619Y-40333333D01*
X84762857Y-40285714D01*
X84953333Y-40238095D01*
X85191428Y-40238095D01*
X85381904Y-40285714D01*
X85477142Y-40333333D01*
X85524761Y-40380952D01*
X85572380Y-40476190D01*
X85572380Y-40571428D01*
X85524761Y-40666666D01*
X85477142Y-40714285D01*
X85381904Y-40761904D01*
X85191428Y-40809523D01*
X84953333Y-40809523D01*
X84762857Y-40761904D01*
X84667619Y-40714285D01*
X84620000Y-40666666D01*
X84572380Y-40571428D01*
X85252380Y-37951904D02*
X84252380Y-37951904D01*
X85252380Y-37380476D02*
X84680952Y-37809047D01*
X84252380Y-37380476D02*
X84823809Y-37951904D01*
X123572380Y-42714285D02*
X122572380Y-42714285D01*
X122572380Y-42476190D01*
X122620000Y-42333333D01*
X122715238Y-42238095D01*
X122810476Y-42190476D01*
X123000952Y-42142857D01*
X123143809Y-42142857D01*
X123334285Y-42190476D01*
X123429523Y-42238095D01*
X123524761Y-42333333D01*
X123572380Y-42476190D01*
X123572380Y-42714285D01*
X123572380Y-41190476D02*
X123572380Y-41761904D01*
X123572380Y-41476190D02*
X122572380Y-41476190D01*
X122715238Y-41571428D01*
X122810476Y-41666666D01*
X122858095Y-41761904D01*
X122572380Y-40571428D02*
X122572380Y-40476190D01*
X122620000Y-40380952D01*
X122667619Y-40333333D01*
X122762857Y-40285714D01*
X122953333Y-40238095D01*
X123191428Y-40238095D01*
X123381904Y-40285714D01*
X123477142Y-40333333D01*
X123524761Y-40380952D01*
X123572380Y-40476190D01*
X123572380Y-40571428D01*
X123524761Y-40666666D01*
X123477142Y-40714285D01*
X123381904Y-40761904D01*
X123191428Y-40809523D01*
X122953333Y-40809523D01*
X122762857Y-40761904D01*
X122667619Y-40714285D01*
X122620000Y-40666666D01*
X122572380Y-40571428D01*
X123252380Y-37951904D02*
X122252380Y-37951904D01*
X123252380Y-37380476D02*
X122680952Y-37809047D01*
X122252380Y-37380476D02*
X122823809Y-37951904D01*
X60572380Y-38714285D02*
X59572380Y-38714285D01*
X59572380Y-38476190D01*
X59620000Y-38333333D01*
X59715238Y-38238095D01*
X59810476Y-38190476D01*
X60000952Y-38142857D01*
X60143809Y-38142857D01*
X60334285Y-38190476D01*
X60429523Y-38238095D01*
X60524761Y-38333333D01*
X60572380Y-38476190D01*
X60572380Y-38714285D01*
X59905714Y-37285714D02*
X60572380Y-37285714D01*
X59524761Y-37523809D02*
X60239047Y-37761904D01*
X60239047Y-37142857D01*
X59667619Y-36809523D02*
X59620000Y-36761904D01*
X59572380Y-36666666D01*
X59572380Y-36428571D01*
X59620000Y-36333333D01*
X59667619Y-36285714D01*
X59762857Y-36238095D01*
X59858095Y-36238095D01*
X60000952Y-36285714D01*
X60572380Y-36857142D01*
X60572380Y-36238095D01*
X60252380Y-33951904D02*
X59252380Y-33951904D01*
X60252380Y-33380476D02*
X59680952Y-33809047D01*
X59252380Y-33380476D02*
X59823809Y-33951904D01*
X75733333Y-106693333D02*
X75833333Y-106726666D01*
X76000000Y-106726666D01*
X76066666Y-106693333D01*
X76100000Y-106660000D01*
X76133333Y-106593333D01*
X76133333Y-106526666D01*
X76100000Y-106460000D01*
X76066666Y-106426666D01*
X76000000Y-106393333D01*
X75866666Y-106360000D01*
X75800000Y-106326666D01*
X75766666Y-106293333D01*
X75733333Y-106226666D01*
X75733333Y-106160000D01*
X75766666Y-106093333D01*
X75800000Y-106060000D01*
X75866666Y-106026666D01*
X76033333Y-106026666D01*
X76133333Y-106060000D01*
X76366666Y-106026666D02*
X76533333Y-106726666D01*
X76666666Y-106226666D01*
X76800000Y-106726666D01*
X76966666Y-106026666D01*
X77166666Y-106026666D02*
X77600000Y-106026666D01*
X77366666Y-106293333D01*
X77466666Y-106293333D01*
X77533333Y-106326666D01*
X77566666Y-106360000D01*
X77600000Y-106426666D01*
X77600000Y-106593333D01*
X77566666Y-106660000D01*
X77533333Y-106693333D01*
X77466666Y-106726666D01*
X77266666Y-106726666D01*
X77200000Y-106693333D01*
X77166666Y-106660000D01*
X77833333Y-106026666D02*
X78266666Y-106026666D01*
X78033333Y-106293333D01*
X78133333Y-106293333D01*
X78200000Y-106326666D01*
X78233333Y-106360000D01*
X78266666Y-106426666D01*
X78266666Y-106593333D01*
X78233333Y-106660000D01*
X78200000Y-106693333D01*
X78133333Y-106726666D01*
X77933333Y-106726666D01*
X77866666Y-106693333D01*
X77833333Y-106660000D01*
X70640476Y-107494761D02*
X70783333Y-107542380D01*
X71021428Y-107542380D01*
X71116666Y-107494761D01*
X71164285Y-107447142D01*
X71211904Y-107351904D01*
X71211904Y-107256666D01*
X71164285Y-107161428D01*
X71116666Y-107113809D01*
X71021428Y-107066190D01*
X70830952Y-107018571D01*
X70735714Y-106970952D01*
X70688095Y-106923333D01*
X70640476Y-106828095D01*
X70640476Y-106732857D01*
X70688095Y-106637619D01*
X70735714Y-106590000D01*
X70830952Y-106542380D01*
X71069047Y-106542380D01*
X71211904Y-106590000D01*
X71545238Y-106542380D02*
X71783333Y-107542380D01*
X71973809Y-106828095D01*
X72164285Y-107542380D01*
X72402380Y-106542380D01*
X72688095Y-106542380D02*
X73307142Y-106542380D01*
X72973809Y-106923333D01*
X73116666Y-106923333D01*
X73211904Y-106970952D01*
X73259523Y-107018571D01*
X73307142Y-107113809D01*
X73307142Y-107351904D01*
X73259523Y-107447142D01*
X73211904Y-107494761D01*
X73116666Y-107542380D01*
X72830952Y-107542380D01*
X72735714Y-107494761D01*
X72688095Y-107447142D01*
X73640476Y-106542380D02*
X74259523Y-106542380D01*
X73926190Y-106923333D01*
X74069047Y-106923333D01*
X74164285Y-106970952D01*
X74211904Y-107018571D01*
X74259523Y-107113809D01*
X74259523Y-107351904D01*
X74211904Y-107447142D01*
X74164285Y-107494761D01*
X74069047Y-107542380D01*
X73783333Y-107542380D01*
X73688095Y-107494761D01*
X73640476Y-107447142D01*
X44572380Y-40714285D02*
X43572380Y-40714285D01*
X43572380Y-40476190D01*
X43620000Y-40333333D01*
X43715238Y-40238095D01*
X43810476Y-40190476D01*
X44000952Y-40142857D01*
X44143809Y-40142857D01*
X44334285Y-40190476D01*
X44429523Y-40238095D01*
X44524761Y-40333333D01*
X44572380Y-40476190D01*
X44572380Y-40714285D01*
X43572380Y-39238095D02*
X43572380Y-39714285D01*
X44048571Y-39761904D01*
X44000952Y-39714285D01*
X43953333Y-39619047D01*
X43953333Y-39380952D01*
X44000952Y-39285714D01*
X44048571Y-39238095D01*
X44143809Y-39190476D01*
X44381904Y-39190476D01*
X44477142Y-39238095D01*
X44524761Y-39285714D01*
X44572380Y-39380952D01*
X44572380Y-39619047D01*
X44524761Y-39714285D01*
X44477142Y-39761904D01*
X44572380Y-38238095D02*
X44572380Y-38809523D01*
X44572380Y-38523809D02*
X43572380Y-38523809D01*
X43715238Y-38619047D01*
X43810476Y-38714285D01*
X43858095Y-38809523D01*
X44252380Y-35951904D02*
X43252380Y-35951904D01*
X44252380Y-35380476D02*
X43680952Y-35809047D01*
X43252380Y-35380476D02*
X43823809Y-35951904D01*
X133066666Y-70693333D02*
X133166666Y-70726666D01*
X133333333Y-70726666D01*
X133400000Y-70693333D01*
X133433333Y-70660000D01*
X133466666Y-70593333D01*
X133466666Y-70526666D01*
X133433333Y-70460000D01*
X133400000Y-70426666D01*
X133333333Y-70393333D01*
X133200000Y-70360000D01*
X133133333Y-70326666D01*
X133100000Y-70293333D01*
X133066666Y-70226666D01*
X133066666Y-70160000D01*
X133100000Y-70093333D01*
X133133333Y-70060000D01*
X133200000Y-70026666D01*
X133366666Y-70026666D01*
X133466666Y-70060000D01*
X133700000Y-70026666D02*
X133866666Y-70726666D01*
X134000000Y-70226666D01*
X134133333Y-70726666D01*
X134300000Y-70026666D01*
X134933333Y-70726666D02*
X134533333Y-70726666D01*
X134733333Y-70726666D02*
X134733333Y-70026666D01*
X134666666Y-70126666D01*
X134600000Y-70193333D01*
X134533333Y-70226666D01*
X128116666Y-71494761D02*
X128259523Y-71542380D01*
X128497619Y-71542380D01*
X128592857Y-71494761D01*
X128640476Y-71447142D01*
X128688095Y-71351904D01*
X128688095Y-71256666D01*
X128640476Y-71161428D01*
X128592857Y-71113809D01*
X128497619Y-71066190D01*
X128307142Y-71018571D01*
X128211904Y-70970952D01*
X128164285Y-70923333D01*
X128116666Y-70828095D01*
X128116666Y-70732857D01*
X128164285Y-70637619D01*
X128211904Y-70590000D01*
X128307142Y-70542380D01*
X128545238Y-70542380D01*
X128688095Y-70590000D01*
X129021428Y-70542380D02*
X129259523Y-71542380D01*
X129450000Y-70828095D01*
X129640476Y-71542380D01*
X129878571Y-70542380D01*
X130783333Y-71542380D02*
X130211904Y-71542380D01*
X130497619Y-71542380D02*
X130497619Y-70542380D01*
X130402380Y-70685238D01*
X130307142Y-70780476D01*
X130211904Y-70828095D01*
X94733333Y-106693333D02*
X94833333Y-106726666D01*
X95000000Y-106726666D01*
X95066666Y-106693333D01*
X95100000Y-106660000D01*
X95133333Y-106593333D01*
X95133333Y-106526666D01*
X95100000Y-106460000D01*
X95066666Y-106426666D01*
X95000000Y-106393333D01*
X94866666Y-106360000D01*
X94800000Y-106326666D01*
X94766666Y-106293333D01*
X94733333Y-106226666D01*
X94733333Y-106160000D01*
X94766666Y-106093333D01*
X94800000Y-106060000D01*
X94866666Y-106026666D01*
X95033333Y-106026666D01*
X95133333Y-106060000D01*
X95366666Y-106026666D02*
X95533333Y-106726666D01*
X95666666Y-106226666D01*
X95800000Y-106726666D01*
X95966666Y-106026666D01*
X96200000Y-106093333D02*
X96233333Y-106060000D01*
X96300000Y-106026666D01*
X96466666Y-106026666D01*
X96533333Y-106060000D01*
X96566666Y-106093333D01*
X96600000Y-106160000D01*
X96600000Y-106226666D01*
X96566666Y-106326666D01*
X96166666Y-106726666D01*
X96600000Y-106726666D01*
X96833333Y-106026666D02*
X97266666Y-106026666D01*
X97033333Y-106293333D01*
X97133333Y-106293333D01*
X97200000Y-106326666D01*
X97233333Y-106360000D01*
X97266666Y-106426666D01*
X97266666Y-106593333D01*
X97233333Y-106660000D01*
X97200000Y-106693333D01*
X97133333Y-106726666D01*
X96933333Y-106726666D01*
X96866666Y-106693333D01*
X96833333Y-106660000D01*
X89640476Y-107494761D02*
X89783333Y-107542380D01*
X90021428Y-107542380D01*
X90116666Y-107494761D01*
X90164285Y-107447142D01*
X90211904Y-107351904D01*
X90211904Y-107256666D01*
X90164285Y-107161428D01*
X90116666Y-107113809D01*
X90021428Y-107066190D01*
X89830952Y-107018571D01*
X89735714Y-106970952D01*
X89688095Y-106923333D01*
X89640476Y-106828095D01*
X89640476Y-106732857D01*
X89688095Y-106637619D01*
X89735714Y-106590000D01*
X89830952Y-106542380D01*
X90069047Y-106542380D01*
X90211904Y-106590000D01*
X90545238Y-106542380D02*
X90783333Y-107542380D01*
X90973809Y-106828095D01*
X91164285Y-107542380D01*
X91402380Y-106542380D01*
X91735714Y-106637619D02*
X91783333Y-106590000D01*
X91878571Y-106542380D01*
X92116666Y-106542380D01*
X92211904Y-106590000D01*
X92259523Y-106637619D01*
X92307142Y-106732857D01*
X92307142Y-106828095D01*
X92259523Y-106970952D01*
X91688095Y-107542380D01*
X92307142Y-107542380D01*
X92640476Y-106542380D02*
X93259523Y-106542380D01*
X92926190Y-106923333D01*
X93069047Y-106923333D01*
X93164285Y-106970952D01*
X93211904Y-107018571D01*
X93259523Y-107113809D01*
X93259523Y-107351904D01*
X93211904Y-107447142D01*
X93164285Y-107494761D01*
X93069047Y-107542380D01*
X92783333Y-107542380D01*
X92688095Y-107494761D01*
X92640476Y-107447142D01*
X75733333Y-52693333D02*
X75833333Y-52726666D01*
X76000000Y-52726666D01*
X76066666Y-52693333D01*
X76100000Y-52660000D01*
X76133333Y-52593333D01*
X76133333Y-52526666D01*
X76100000Y-52460000D01*
X76066666Y-52426666D01*
X76000000Y-52393333D01*
X75866666Y-52360000D01*
X75800000Y-52326666D01*
X75766666Y-52293333D01*
X75733333Y-52226666D01*
X75733333Y-52160000D01*
X75766666Y-52093333D01*
X75800000Y-52060000D01*
X75866666Y-52026666D01*
X76033333Y-52026666D01*
X76133333Y-52060000D01*
X76366666Y-52026666D02*
X76533333Y-52726666D01*
X76666666Y-52226666D01*
X76800000Y-52726666D01*
X76966666Y-52026666D01*
X77166666Y-52026666D02*
X77600000Y-52026666D01*
X77366666Y-52293333D01*
X77466666Y-52293333D01*
X77533333Y-52326666D01*
X77566666Y-52360000D01*
X77600000Y-52426666D01*
X77600000Y-52593333D01*
X77566666Y-52660000D01*
X77533333Y-52693333D01*
X77466666Y-52726666D01*
X77266666Y-52726666D01*
X77200000Y-52693333D01*
X77166666Y-52660000D01*
X78033333Y-52026666D02*
X78100000Y-52026666D01*
X78166666Y-52060000D01*
X78200000Y-52093333D01*
X78233333Y-52160000D01*
X78266666Y-52293333D01*
X78266666Y-52460000D01*
X78233333Y-52593333D01*
X78200000Y-52660000D01*
X78166666Y-52693333D01*
X78100000Y-52726666D01*
X78033333Y-52726666D01*
X77966666Y-52693333D01*
X77933333Y-52660000D01*
X77900000Y-52593333D01*
X77866666Y-52460000D01*
X77866666Y-52293333D01*
X77900000Y-52160000D01*
X77933333Y-52093333D01*
X77966666Y-52060000D01*
X78033333Y-52026666D01*
X70640476Y-53494761D02*
X70783333Y-53542380D01*
X71021428Y-53542380D01*
X71116666Y-53494761D01*
X71164285Y-53447142D01*
X71211904Y-53351904D01*
X71211904Y-53256666D01*
X71164285Y-53161428D01*
X71116666Y-53113809D01*
X71021428Y-53066190D01*
X70830952Y-53018571D01*
X70735714Y-52970952D01*
X70688095Y-52923333D01*
X70640476Y-52828095D01*
X70640476Y-52732857D01*
X70688095Y-52637619D01*
X70735714Y-52590000D01*
X70830952Y-52542380D01*
X71069047Y-52542380D01*
X71211904Y-52590000D01*
X71545238Y-52542380D02*
X71783333Y-53542380D01*
X71973809Y-52828095D01*
X72164285Y-53542380D01*
X72402380Y-52542380D01*
X72688095Y-52542380D02*
X73307142Y-52542380D01*
X72973809Y-52923333D01*
X73116666Y-52923333D01*
X73211904Y-52970952D01*
X73259523Y-53018571D01*
X73307142Y-53113809D01*
X73307142Y-53351904D01*
X73259523Y-53447142D01*
X73211904Y-53494761D01*
X73116666Y-53542380D01*
X72830952Y-53542380D01*
X72735714Y-53494761D01*
X72688095Y-53447142D01*
X73926190Y-52542380D02*
X74021428Y-52542380D01*
X74116666Y-52590000D01*
X74164285Y-52637619D01*
X74211904Y-52732857D01*
X74259523Y-52923333D01*
X74259523Y-53161428D01*
X74211904Y-53351904D01*
X74164285Y-53447142D01*
X74116666Y-53494761D01*
X74021428Y-53542380D01*
X73926190Y-53542380D01*
X73830952Y-53494761D01*
X73783333Y-53447142D01*
X73735714Y-53351904D01*
X73688095Y-53161428D01*
X73688095Y-52923333D01*
X73735714Y-52732857D01*
X73783333Y-52637619D01*
X73830952Y-52590000D01*
X73926190Y-52542380D01*
X120572380Y-40714285D02*
X119572380Y-40714285D01*
X119572380Y-40476190D01*
X119620000Y-40333333D01*
X119715238Y-40238095D01*
X119810476Y-40190476D01*
X120000952Y-40142857D01*
X120143809Y-40142857D01*
X120334285Y-40190476D01*
X120429523Y-40238095D01*
X120524761Y-40333333D01*
X120572380Y-40476190D01*
X120572380Y-40714285D01*
X120572380Y-39190476D02*
X120572380Y-39761904D01*
X120572380Y-39476190D02*
X119572380Y-39476190D01*
X119715238Y-39571428D01*
X119810476Y-39666666D01*
X119858095Y-39761904D01*
X120572380Y-38238095D02*
X120572380Y-38809523D01*
X120572380Y-38523809D02*
X119572380Y-38523809D01*
X119715238Y-38619047D01*
X119810476Y-38714285D01*
X119858095Y-38809523D01*
X120252380Y-35951904D02*
X119252380Y-35951904D01*
X120252380Y-35380476D02*
X119680952Y-35809047D01*
X119252380Y-35380476D02*
X119823809Y-35951904D01*
X128908973Y-152028906D02*
X129003254Y-151981765D01*
X129121105Y-151863914D01*
X129144675Y-151793203D01*
X129144675Y-151746063D01*
X129121105Y-151675352D01*
X129073965Y-151628212D01*
X129003254Y-151604642D01*
X128956114Y-151604642D01*
X128885403Y-151628212D01*
X128767552Y-151698923D01*
X128696841Y-151722493D01*
X128649701Y-151722493D01*
X128578990Y-151698923D01*
X128531849Y-151651782D01*
X128508279Y-151581071D01*
X128508279Y-151533931D01*
X128531849Y-151463220D01*
X128649701Y-151345369D01*
X128743982Y-151298229D01*
X128885403Y-151109667D02*
X129498229Y-151486791D01*
X129238956Y-151038956D01*
X129686791Y-151298229D01*
X129309667Y-150685403D01*
X129875352Y-150449701D02*
X130205336Y-150779684D01*
X129568939Y-150378990D02*
X129804642Y-150850394D01*
X130111055Y-150543982D01*
X125975490Y-156095780D02*
X126110177Y-156028437D01*
X126278536Y-155860078D01*
X126312208Y-155759063D01*
X126312208Y-155691719D01*
X126278536Y-155590704D01*
X126211193Y-155523361D01*
X126110177Y-155489689D01*
X126042834Y-155489689D01*
X125941819Y-155523361D01*
X125773460Y-155624376D01*
X125672445Y-155658048D01*
X125605101Y-155658048D01*
X125504086Y-155624376D01*
X125436742Y-155557032D01*
X125403071Y-155456017D01*
X125403071Y-155388674D01*
X125436742Y-155287658D01*
X125605101Y-155119300D01*
X125739788Y-155051956D01*
X125941819Y-154782582D02*
X126817284Y-155321330D01*
X126446895Y-154681567D01*
X127086658Y-155051956D01*
X126547910Y-154176491D01*
X127356032Y-153839773D02*
X127827437Y-154311178D01*
X126918299Y-153738758D02*
X127255017Y-154412193D01*
X127692750Y-153974460D01*
X56733333Y-106693333D02*
X56833333Y-106726666D01*
X57000000Y-106726666D01*
X57066666Y-106693333D01*
X57100000Y-106660000D01*
X57133333Y-106593333D01*
X57133333Y-106526666D01*
X57100000Y-106460000D01*
X57066666Y-106426666D01*
X57000000Y-106393333D01*
X56866666Y-106360000D01*
X56800000Y-106326666D01*
X56766666Y-106293333D01*
X56733333Y-106226666D01*
X56733333Y-106160000D01*
X56766666Y-106093333D01*
X56800000Y-106060000D01*
X56866666Y-106026666D01*
X57033333Y-106026666D01*
X57133333Y-106060000D01*
X57366666Y-106026666D02*
X57533333Y-106726666D01*
X57666666Y-106226666D01*
X57800000Y-106726666D01*
X57966666Y-106026666D01*
X58533333Y-106260000D02*
X58533333Y-106726666D01*
X58366666Y-105993333D02*
X58200000Y-106493333D01*
X58633333Y-106493333D01*
X58833333Y-106026666D02*
X59266666Y-106026666D01*
X59033333Y-106293333D01*
X59133333Y-106293333D01*
X59200000Y-106326666D01*
X59233333Y-106360000D01*
X59266666Y-106426666D01*
X59266666Y-106593333D01*
X59233333Y-106660000D01*
X59200000Y-106693333D01*
X59133333Y-106726666D01*
X58933333Y-106726666D01*
X58866666Y-106693333D01*
X58833333Y-106660000D01*
X51640476Y-107494761D02*
X51783333Y-107542380D01*
X52021428Y-107542380D01*
X52116666Y-107494761D01*
X52164285Y-107447142D01*
X52211904Y-107351904D01*
X52211904Y-107256666D01*
X52164285Y-107161428D01*
X52116666Y-107113809D01*
X52021428Y-107066190D01*
X51830952Y-107018571D01*
X51735714Y-106970952D01*
X51688095Y-106923333D01*
X51640476Y-106828095D01*
X51640476Y-106732857D01*
X51688095Y-106637619D01*
X51735714Y-106590000D01*
X51830952Y-106542380D01*
X52069047Y-106542380D01*
X52211904Y-106590000D01*
X52545238Y-106542380D02*
X52783333Y-107542380D01*
X52973809Y-106828095D01*
X53164285Y-107542380D01*
X53402380Y-106542380D01*
X54211904Y-106875714D02*
X54211904Y-107542380D01*
X53973809Y-106494761D02*
X53735714Y-107209047D01*
X54354761Y-107209047D01*
X54640476Y-106542380D02*
X55259523Y-106542380D01*
X54926190Y-106923333D01*
X55069047Y-106923333D01*
X55164285Y-106970952D01*
X55211904Y-107018571D01*
X55259523Y-107113809D01*
X55259523Y-107351904D01*
X55211904Y-107447142D01*
X55164285Y-107494761D01*
X55069047Y-107542380D01*
X54783333Y-107542380D01*
X54688095Y-107494761D01*
X54640476Y-107447142D01*
X133066666Y-88693333D02*
X133166666Y-88726666D01*
X133333333Y-88726666D01*
X133400000Y-88693333D01*
X133433333Y-88660000D01*
X133466666Y-88593333D01*
X133466666Y-88526666D01*
X133433333Y-88460000D01*
X133400000Y-88426666D01*
X133333333Y-88393333D01*
X133200000Y-88360000D01*
X133133333Y-88326666D01*
X133100000Y-88293333D01*
X133066666Y-88226666D01*
X133066666Y-88160000D01*
X133100000Y-88093333D01*
X133133333Y-88060000D01*
X133200000Y-88026666D01*
X133366666Y-88026666D01*
X133466666Y-88060000D01*
X133700000Y-88026666D02*
X133866666Y-88726666D01*
X134000000Y-88226666D01*
X134133333Y-88726666D01*
X134300000Y-88026666D01*
X134533333Y-88093333D02*
X134566666Y-88060000D01*
X134633333Y-88026666D01*
X134800000Y-88026666D01*
X134866666Y-88060000D01*
X134900000Y-88093333D01*
X134933333Y-88160000D01*
X134933333Y-88226666D01*
X134900000Y-88326666D01*
X134500000Y-88726666D01*
X134933333Y-88726666D01*
X128116666Y-89494761D02*
X128259523Y-89542380D01*
X128497619Y-89542380D01*
X128592857Y-89494761D01*
X128640476Y-89447142D01*
X128688095Y-89351904D01*
X128688095Y-89256666D01*
X128640476Y-89161428D01*
X128592857Y-89113809D01*
X128497619Y-89066190D01*
X128307142Y-89018571D01*
X128211904Y-88970952D01*
X128164285Y-88923333D01*
X128116666Y-88828095D01*
X128116666Y-88732857D01*
X128164285Y-88637619D01*
X128211904Y-88590000D01*
X128307142Y-88542380D01*
X128545238Y-88542380D01*
X128688095Y-88590000D01*
X129021428Y-88542380D02*
X129259523Y-89542380D01*
X129450000Y-88828095D01*
X129640476Y-89542380D01*
X129878571Y-88542380D01*
X130211904Y-88637619D02*
X130259523Y-88590000D01*
X130354761Y-88542380D01*
X130592857Y-88542380D01*
X130688095Y-88590000D01*
X130735714Y-88637619D01*
X130783333Y-88732857D01*
X130783333Y-88828095D01*
X130735714Y-88970952D01*
X130164285Y-89542380D01*
X130783333Y-89542380D01*
X113733333Y-88693333D02*
X113833333Y-88726666D01*
X114000000Y-88726666D01*
X114066666Y-88693333D01*
X114100000Y-88660000D01*
X114133333Y-88593333D01*
X114133333Y-88526666D01*
X114100000Y-88460000D01*
X114066666Y-88426666D01*
X114000000Y-88393333D01*
X113866666Y-88360000D01*
X113800000Y-88326666D01*
X113766666Y-88293333D01*
X113733333Y-88226666D01*
X113733333Y-88160000D01*
X113766666Y-88093333D01*
X113800000Y-88060000D01*
X113866666Y-88026666D01*
X114033333Y-88026666D01*
X114133333Y-88060000D01*
X114366666Y-88026666D02*
X114533333Y-88726666D01*
X114666666Y-88226666D01*
X114800000Y-88726666D01*
X114966666Y-88026666D01*
X115600000Y-88726666D02*
X115200000Y-88726666D01*
X115400000Y-88726666D02*
X115400000Y-88026666D01*
X115333333Y-88126666D01*
X115266666Y-88193333D01*
X115200000Y-88226666D01*
X115866666Y-88093333D02*
X115900000Y-88060000D01*
X115966666Y-88026666D01*
X116133333Y-88026666D01*
X116200000Y-88060000D01*
X116233333Y-88093333D01*
X116266666Y-88160000D01*
X116266666Y-88226666D01*
X116233333Y-88326666D01*
X115833333Y-88726666D01*
X116266666Y-88726666D01*
X108640476Y-89494761D02*
X108783333Y-89542380D01*
X109021428Y-89542380D01*
X109116666Y-89494761D01*
X109164285Y-89447142D01*
X109211904Y-89351904D01*
X109211904Y-89256666D01*
X109164285Y-89161428D01*
X109116666Y-89113809D01*
X109021428Y-89066190D01*
X108830952Y-89018571D01*
X108735714Y-88970952D01*
X108688095Y-88923333D01*
X108640476Y-88828095D01*
X108640476Y-88732857D01*
X108688095Y-88637619D01*
X108735714Y-88590000D01*
X108830952Y-88542380D01*
X109069047Y-88542380D01*
X109211904Y-88590000D01*
X109545238Y-88542380D02*
X109783333Y-89542380D01*
X109973809Y-88828095D01*
X110164285Y-89542380D01*
X110402380Y-88542380D01*
X111307142Y-89542380D02*
X110735714Y-89542380D01*
X111021428Y-89542380D02*
X111021428Y-88542380D01*
X110926190Y-88685238D01*
X110830952Y-88780476D01*
X110735714Y-88828095D01*
X111688095Y-88637619D02*
X111735714Y-88590000D01*
X111830952Y-88542380D01*
X112069047Y-88542380D01*
X112164285Y-88590000D01*
X112211904Y-88637619D01*
X112259523Y-88732857D01*
X112259523Y-88828095D01*
X112211904Y-88970952D01*
X111640476Y-89542380D01*
X112259523Y-89542380D01*
X101572380Y-40714285D02*
X100572380Y-40714285D01*
X100572380Y-40476190D01*
X100620000Y-40333333D01*
X100715238Y-40238095D01*
X100810476Y-40190476D01*
X101000952Y-40142857D01*
X101143809Y-40142857D01*
X101334285Y-40190476D01*
X101429523Y-40238095D01*
X101524761Y-40333333D01*
X101572380Y-40476190D01*
X101572380Y-40714285D01*
X100667619Y-39761904D02*
X100620000Y-39714285D01*
X100572380Y-39619047D01*
X100572380Y-39380952D01*
X100620000Y-39285714D01*
X100667619Y-39238095D01*
X100762857Y-39190476D01*
X100858095Y-39190476D01*
X101000952Y-39238095D01*
X101572380Y-39809523D01*
X101572380Y-39190476D01*
X101572380Y-38238095D02*
X101572380Y-38809523D01*
X101572380Y-38523809D02*
X100572380Y-38523809D01*
X100715238Y-38619047D01*
X100810476Y-38714285D01*
X100858095Y-38809523D01*
X101252380Y-35951904D02*
X100252380Y-35951904D01*
X101252380Y-35380476D02*
X100680952Y-35809047D01*
X100252380Y-35380476D02*
X100823809Y-35951904D01*
X151238095Y-26952380D02*
X151238095Y-27761904D01*
X151285714Y-27857142D01*
X151333333Y-27904761D01*
X151428571Y-27952380D01*
X151619047Y-27952380D01*
X151714285Y-27904761D01*
X151761904Y-27857142D01*
X151809523Y-27761904D01*
X151809523Y-26952380D01*
X152809523Y-27952380D02*
X152238095Y-27952380D01*
X152523809Y-27952380D02*
X152523809Y-26952380D01*
X152428571Y-27095238D01*
X152333333Y-27190476D01*
X152238095Y-27238095D01*
X98572380Y-38714285D02*
X97572380Y-38714285D01*
X97572380Y-38476190D01*
X97620000Y-38333333D01*
X97715238Y-38238095D01*
X97810476Y-38190476D01*
X98000952Y-38142857D01*
X98143809Y-38142857D01*
X98334285Y-38190476D01*
X98429523Y-38238095D01*
X98524761Y-38333333D01*
X98572380Y-38476190D01*
X98572380Y-38714285D01*
X97667619Y-37761904D02*
X97620000Y-37714285D01*
X97572380Y-37619047D01*
X97572380Y-37380952D01*
X97620000Y-37285714D01*
X97667619Y-37238095D01*
X97762857Y-37190476D01*
X97858095Y-37190476D01*
X98000952Y-37238095D01*
X98572380Y-37809523D01*
X98572380Y-37190476D01*
X97667619Y-36809523D02*
X97620000Y-36761904D01*
X97572380Y-36666666D01*
X97572380Y-36428571D01*
X97620000Y-36333333D01*
X97667619Y-36285714D01*
X97762857Y-36238095D01*
X97858095Y-36238095D01*
X98000952Y-36285714D01*
X98572380Y-36857142D01*
X98572380Y-36238095D01*
X98252380Y-33951904D02*
X97252380Y-33951904D01*
X98252380Y-33380476D02*
X97680952Y-33809047D01*
X97252380Y-33380476D02*
X97823809Y-33951904D01*
X75733333Y-70693333D02*
X75833333Y-70726666D01*
X76000000Y-70726666D01*
X76066666Y-70693333D01*
X76100000Y-70660000D01*
X76133333Y-70593333D01*
X76133333Y-70526666D01*
X76100000Y-70460000D01*
X76066666Y-70426666D01*
X76000000Y-70393333D01*
X75866666Y-70360000D01*
X75800000Y-70326666D01*
X75766666Y-70293333D01*
X75733333Y-70226666D01*
X75733333Y-70160000D01*
X75766666Y-70093333D01*
X75800000Y-70060000D01*
X75866666Y-70026666D01*
X76033333Y-70026666D01*
X76133333Y-70060000D01*
X76366666Y-70026666D02*
X76533333Y-70726666D01*
X76666666Y-70226666D01*
X76800000Y-70726666D01*
X76966666Y-70026666D01*
X77166666Y-70026666D02*
X77600000Y-70026666D01*
X77366666Y-70293333D01*
X77466666Y-70293333D01*
X77533333Y-70326666D01*
X77566666Y-70360000D01*
X77600000Y-70426666D01*
X77600000Y-70593333D01*
X77566666Y-70660000D01*
X77533333Y-70693333D01*
X77466666Y-70726666D01*
X77266666Y-70726666D01*
X77200000Y-70693333D01*
X77166666Y-70660000D01*
X78266666Y-70726666D02*
X77866666Y-70726666D01*
X78066666Y-70726666D02*
X78066666Y-70026666D01*
X78000000Y-70126666D01*
X77933333Y-70193333D01*
X77866666Y-70226666D01*
X70640476Y-71494761D02*
X70783333Y-71542380D01*
X71021428Y-71542380D01*
X71116666Y-71494761D01*
X71164285Y-71447142D01*
X71211904Y-71351904D01*
X71211904Y-71256666D01*
X71164285Y-71161428D01*
X71116666Y-71113809D01*
X71021428Y-71066190D01*
X70830952Y-71018571D01*
X70735714Y-70970952D01*
X70688095Y-70923333D01*
X70640476Y-70828095D01*
X70640476Y-70732857D01*
X70688095Y-70637619D01*
X70735714Y-70590000D01*
X70830952Y-70542380D01*
X71069047Y-70542380D01*
X71211904Y-70590000D01*
X71545238Y-70542380D02*
X71783333Y-71542380D01*
X71973809Y-70828095D01*
X72164285Y-71542380D01*
X72402380Y-70542380D01*
X72688095Y-70542380D02*
X73307142Y-70542380D01*
X72973809Y-70923333D01*
X73116666Y-70923333D01*
X73211904Y-70970952D01*
X73259523Y-71018571D01*
X73307142Y-71113809D01*
X73307142Y-71351904D01*
X73259523Y-71447142D01*
X73211904Y-71494761D01*
X73116666Y-71542380D01*
X72830952Y-71542380D01*
X72735714Y-71494761D01*
X72688095Y-71447142D01*
X74259523Y-71542380D02*
X73688095Y-71542380D01*
X73973809Y-71542380D02*
X73973809Y-70542380D01*
X73878571Y-70685238D01*
X73783333Y-70780476D01*
X73688095Y-70828095D01*
X37733333Y-70693333D02*
X37833333Y-70726666D01*
X38000000Y-70726666D01*
X38066666Y-70693333D01*
X38100000Y-70660000D01*
X38133333Y-70593333D01*
X38133333Y-70526666D01*
X38100000Y-70460000D01*
X38066666Y-70426666D01*
X38000000Y-70393333D01*
X37866666Y-70360000D01*
X37800000Y-70326666D01*
X37766666Y-70293333D01*
X37733333Y-70226666D01*
X37733333Y-70160000D01*
X37766666Y-70093333D01*
X37800000Y-70060000D01*
X37866666Y-70026666D01*
X38033333Y-70026666D01*
X38133333Y-70060000D01*
X38366666Y-70026666D02*
X38533333Y-70726666D01*
X38666666Y-70226666D01*
X38800000Y-70726666D01*
X38966666Y-70026666D01*
X39566666Y-70026666D02*
X39233333Y-70026666D01*
X39200000Y-70360000D01*
X39233333Y-70326666D01*
X39300000Y-70293333D01*
X39466666Y-70293333D01*
X39533333Y-70326666D01*
X39566666Y-70360000D01*
X39600000Y-70426666D01*
X39600000Y-70593333D01*
X39566666Y-70660000D01*
X39533333Y-70693333D01*
X39466666Y-70726666D01*
X39300000Y-70726666D01*
X39233333Y-70693333D01*
X39200000Y-70660000D01*
X40266666Y-70726666D02*
X39866666Y-70726666D01*
X40066666Y-70726666D02*
X40066666Y-70026666D01*
X40000000Y-70126666D01*
X39933333Y-70193333D01*
X39866666Y-70226666D01*
X32640476Y-71494761D02*
X32783333Y-71542380D01*
X33021428Y-71542380D01*
X33116666Y-71494761D01*
X33164285Y-71447142D01*
X33211904Y-71351904D01*
X33211904Y-71256666D01*
X33164285Y-71161428D01*
X33116666Y-71113809D01*
X33021428Y-71066190D01*
X32830952Y-71018571D01*
X32735714Y-70970952D01*
X32688095Y-70923333D01*
X32640476Y-70828095D01*
X32640476Y-70732857D01*
X32688095Y-70637619D01*
X32735714Y-70590000D01*
X32830952Y-70542380D01*
X33069047Y-70542380D01*
X33211904Y-70590000D01*
X33545238Y-70542380D02*
X33783333Y-71542380D01*
X33973809Y-70828095D01*
X34164285Y-71542380D01*
X34402380Y-70542380D01*
X35259523Y-70542380D02*
X34783333Y-70542380D01*
X34735714Y-71018571D01*
X34783333Y-70970952D01*
X34878571Y-70923333D01*
X35116666Y-70923333D01*
X35211904Y-70970952D01*
X35259523Y-71018571D01*
X35307142Y-71113809D01*
X35307142Y-71351904D01*
X35259523Y-71447142D01*
X35211904Y-71494761D01*
X35116666Y-71542380D01*
X34878571Y-71542380D01*
X34783333Y-71494761D01*
X34735714Y-71447142D01*
X36259523Y-71542380D02*
X35688095Y-71542380D01*
X35973809Y-71542380D02*
X35973809Y-70542380D01*
X35878571Y-70685238D01*
X35783333Y-70780476D01*
X35688095Y-70828095D01*
X56733333Y-52693333D02*
X56833333Y-52726666D01*
X57000000Y-52726666D01*
X57066666Y-52693333D01*
X57100000Y-52660000D01*
X57133333Y-52593333D01*
X57133333Y-52526666D01*
X57100000Y-52460000D01*
X57066666Y-52426666D01*
X57000000Y-52393333D01*
X56866666Y-52360000D01*
X56800000Y-52326666D01*
X56766666Y-52293333D01*
X56733333Y-52226666D01*
X56733333Y-52160000D01*
X56766666Y-52093333D01*
X56800000Y-52060000D01*
X56866666Y-52026666D01*
X57033333Y-52026666D01*
X57133333Y-52060000D01*
X57366666Y-52026666D02*
X57533333Y-52726666D01*
X57666666Y-52226666D01*
X57800000Y-52726666D01*
X57966666Y-52026666D01*
X58533333Y-52260000D02*
X58533333Y-52726666D01*
X58366666Y-51993333D02*
X58200000Y-52493333D01*
X58633333Y-52493333D01*
X59033333Y-52026666D02*
X59100000Y-52026666D01*
X59166666Y-52060000D01*
X59200000Y-52093333D01*
X59233333Y-52160000D01*
X59266666Y-52293333D01*
X59266666Y-52460000D01*
X59233333Y-52593333D01*
X59200000Y-52660000D01*
X59166666Y-52693333D01*
X59100000Y-52726666D01*
X59033333Y-52726666D01*
X58966666Y-52693333D01*
X58933333Y-52660000D01*
X58900000Y-52593333D01*
X58866666Y-52460000D01*
X58866666Y-52293333D01*
X58900000Y-52160000D01*
X58933333Y-52093333D01*
X58966666Y-52060000D01*
X59033333Y-52026666D01*
X51640476Y-53494761D02*
X51783333Y-53542380D01*
X52021428Y-53542380D01*
X52116666Y-53494761D01*
X52164285Y-53447142D01*
X52211904Y-53351904D01*
X52211904Y-53256666D01*
X52164285Y-53161428D01*
X52116666Y-53113809D01*
X52021428Y-53066190D01*
X51830952Y-53018571D01*
X51735714Y-52970952D01*
X51688095Y-52923333D01*
X51640476Y-52828095D01*
X51640476Y-52732857D01*
X51688095Y-52637619D01*
X51735714Y-52590000D01*
X51830952Y-52542380D01*
X52069047Y-52542380D01*
X52211904Y-52590000D01*
X52545238Y-52542380D02*
X52783333Y-53542380D01*
X52973809Y-52828095D01*
X53164285Y-53542380D01*
X53402380Y-52542380D01*
X54211904Y-52875714D02*
X54211904Y-53542380D01*
X53973809Y-52494761D02*
X53735714Y-53209047D01*
X54354761Y-53209047D01*
X54926190Y-52542380D02*
X55021428Y-52542380D01*
X55116666Y-52590000D01*
X55164285Y-52637619D01*
X55211904Y-52732857D01*
X55259523Y-52923333D01*
X55259523Y-53161428D01*
X55211904Y-53351904D01*
X55164285Y-53447142D01*
X55116666Y-53494761D01*
X55021428Y-53542380D01*
X54926190Y-53542380D01*
X54830952Y-53494761D01*
X54783333Y-53447142D01*
X54735714Y-53351904D01*
X54688095Y-53161428D01*
X54688095Y-52923333D01*
X54735714Y-52732857D01*
X54783333Y-52637619D01*
X54830952Y-52590000D01*
X54926190Y-52542380D01*
X47572380Y-42714285D02*
X46572380Y-42714285D01*
X46572380Y-42476190D01*
X46620000Y-42333333D01*
X46715238Y-42238095D01*
X46810476Y-42190476D01*
X47000952Y-42142857D01*
X47143809Y-42142857D01*
X47334285Y-42190476D01*
X47429523Y-42238095D01*
X47524761Y-42333333D01*
X47572380Y-42476190D01*
X47572380Y-42714285D01*
X46572380Y-41238095D02*
X46572380Y-41714285D01*
X47048571Y-41761904D01*
X47000952Y-41714285D01*
X46953333Y-41619047D01*
X46953333Y-41380952D01*
X47000952Y-41285714D01*
X47048571Y-41238095D01*
X47143809Y-41190476D01*
X47381904Y-41190476D01*
X47477142Y-41238095D01*
X47524761Y-41285714D01*
X47572380Y-41380952D01*
X47572380Y-41619047D01*
X47524761Y-41714285D01*
X47477142Y-41761904D01*
X46572380Y-40571428D02*
X46572380Y-40476190D01*
X46620000Y-40380952D01*
X46667619Y-40333333D01*
X46762857Y-40285714D01*
X46953333Y-40238095D01*
X47191428Y-40238095D01*
X47381904Y-40285714D01*
X47477142Y-40333333D01*
X47524761Y-40380952D01*
X47572380Y-40476190D01*
X47572380Y-40571428D01*
X47524761Y-40666666D01*
X47477142Y-40714285D01*
X47381904Y-40761904D01*
X47191428Y-40809523D01*
X46953333Y-40809523D01*
X46762857Y-40761904D01*
X46667619Y-40714285D01*
X46620000Y-40666666D01*
X46572380Y-40571428D01*
X47252380Y-37951904D02*
X46252380Y-37951904D01*
X47252380Y-37380476D02*
X46680952Y-37809047D01*
X46252380Y-37380476D02*
X46823809Y-37951904D01*
X79572380Y-38714285D02*
X78572380Y-38714285D01*
X78572380Y-38476190D01*
X78620000Y-38333333D01*
X78715238Y-38238095D01*
X78810476Y-38190476D01*
X79000952Y-38142857D01*
X79143809Y-38142857D01*
X79334285Y-38190476D01*
X79429523Y-38238095D01*
X79524761Y-38333333D01*
X79572380Y-38476190D01*
X79572380Y-38714285D01*
X78572380Y-37809523D02*
X78572380Y-37190476D01*
X78953333Y-37523809D01*
X78953333Y-37380952D01*
X79000952Y-37285714D01*
X79048571Y-37238095D01*
X79143809Y-37190476D01*
X79381904Y-37190476D01*
X79477142Y-37238095D01*
X79524761Y-37285714D01*
X79572380Y-37380952D01*
X79572380Y-37666666D01*
X79524761Y-37761904D01*
X79477142Y-37809523D01*
X78667619Y-36809523D02*
X78620000Y-36761904D01*
X78572380Y-36666666D01*
X78572380Y-36428571D01*
X78620000Y-36333333D01*
X78667619Y-36285714D01*
X78762857Y-36238095D01*
X78858095Y-36238095D01*
X79000952Y-36285714D01*
X79572380Y-36857142D01*
X79572380Y-36238095D01*
X79252380Y-33951904D02*
X78252380Y-33951904D01*
X79252380Y-33380476D02*
X78680952Y-33809047D01*
X78252380Y-33380476D02*
X78823809Y-33951904D01*
X113733333Y-52693333D02*
X113833333Y-52726666D01*
X114000000Y-52726666D01*
X114066666Y-52693333D01*
X114100000Y-52660000D01*
X114133333Y-52593333D01*
X114133333Y-52526666D01*
X114100000Y-52460000D01*
X114066666Y-52426666D01*
X114000000Y-52393333D01*
X113866666Y-52360000D01*
X113800000Y-52326666D01*
X113766666Y-52293333D01*
X113733333Y-52226666D01*
X113733333Y-52160000D01*
X113766666Y-52093333D01*
X113800000Y-52060000D01*
X113866666Y-52026666D01*
X114033333Y-52026666D01*
X114133333Y-52060000D01*
X114366666Y-52026666D02*
X114533333Y-52726666D01*
X114666666Y-52226666D01*
X114800000Y-52726666D01*
X114966666Y-52026666D01*
X115600000Y-52726666D02*
X115200000Y-52726666D01*
X115400000Y-52726666D02*
X115400000Y-52026666D01*
X115333333Y-52126666D01*
X115266666Y-52193333D01*
X115200000Y-52226666D01*
X116033333Y-52026666D02*
X116100000Y-52026666D01*
X116166666Y-52060000D01*
X116200000Y-52093333D01*
X116233333Y-52160000D01*
X116266666Y-52293333D01*
X116266666Y-52460000D01*
X116233333Y-52593333D01*
X116200000Y-52660000D01*
X116166666Y-52693333D01*
X116100000Y-52726666D01*
X116033333Y-52726666D01*
X115966666Y-52693333D01*
X115933333Y-52660000D01*
X115900000Y-52593333D01*
X115866666Y-52460000D01*
X115866666Y-52293333D01*
X115900000Y-52160000D01*
X115933333Y-52093333D01*
X115966666Y-52060000D01*
X116033333Y-52026666D01*
X108640476Y-53494761D02*
X108783333Y-53542380D01*
X109021428Y-53542380D01*
X109116666Y-53494761D01*
X109164285Y-53447142D01*
X109211904Y-53351904D01*
X109211904Y-53256666D01*
X109164285Y-53161428D01*
X109116666Y-53113809D01*
X109021428Y-53066190D01*
X108830952Y-53018571D01*
X108735714Y-52970952D01*
X108688095Y-52923333D01*
X108640476Y-52828095D01*
X108640476Y-52732857D01*
X108688095Y-52637619D01*
X108735714Y-52590000D01*
X108830952Y-52542380D01*
X109069047Y-52542380D01*
X109211904Y-52590000D01*
X109545238Y-52542380D02*
X109783333Y-53542380D01*
X109973809Y-52828095D01*
X110164285Y-53542380D01*
X110402380Y-52542380D01*
X111307142Y-53542380D02*
X110735714Y-53542380D01*
X111021428Y-53542380D02*
X111021428Y-52542380D01*
X110926190Y-52685238D01*
X110830952Y-52780476D01*
X110735714Y-52828095D01*
X111926190Y-52542380D02*
X112021428Y-52542380D01*
X112116666Y-52590000D01*
X112164285Y-52637619D01*
X112211904Y-52732857D01*
X112259523Y-52923333D01*
X112259523Y-53161428D01*
X112211904Y-53351904D01*
X112164285Y-53447142D01*
X112116666Y-53494761D01*
X112021428Y-53542380D01*
X111926190Y-53542380D01*
X111830952Y-53494761D01*
X111783333Y-53447142D01*
X111735714Y-53351904D01*
X111688095Y-53161428D01*
X111688095Y-52923333D01*
X111735714Y-52732857D01*
X111783333Y-52637619D01*
X111830952Y-52590000D01*
X111926190Y-52542380D01*
X76572380Y-36714285D02*
X75572380Y-36714285D01*
X75572380Y-36476190D01*
X75620000Y-36333333D01*
X75715238Y-36238095D01*
X75810476Y-36190476D01*
X76000952Y-36142857D01*
X76143809Y-36142857D01*
X76334285Y-36190476D01*
X76429523Y-36238095D01*
X76524761Y-36333333D01*
X76572380Y-36476190D01*
X76572380Y-36714285D01*
X75572380Y-35809523D02*
X75572380Y-35190476D01*
X75953333Y-35523809D01*
X75953333Y-35380952D01*
X76000952Y-35285714D01*
X76048571Y-35238095D01*
X76143809Y-35190476D01*
X76381904Y-35190476D01*
X76477142Y-35238095D01*
X76524761Y-35285714D01*
X76572380Y-35380952D01*
X76572380Y-35666666D01*
X76524761Y-35761904D01*
X76477142Y-35809523D01*
X75572380Y-34857142D02*
X75572380Y-34238095D01*
X75953333Y-34571428D01*
X75953333Y-34428571D01*
X76000952Y-34333333D01*
X76048571Y-34285714D01*
X76143809Y-34238095D01*
X76381904Y-34238095D01*
X76477142Y-34285714D01*
X76524761Y-34333333D01*
X76572380Y-34428571D01*
X76572380Y-34714285D01*
X76524761Y-34809523D01*
X76477142Y-34857142D01*
X76252380Y-31951904D02*
X75252380Y-31951904D01*
X76252380Y-31380476D02*
X75680952Y-31809047D01*
X75252380Y-31380476D02*
X75823809Y-31951904D01*
X37733333Y-106693333D02*
X37833333Y-106726666D01*
X38000000Y-106726666D01*
X38066666Y-106693333D01*
X38100000Y-106660000D01*
X38133333Y-106593333D01*
X38133333Y-106526666D01*
X38100000Y-106460000D01*
X38066666Y-106426666D01*
X38000000Y-106393333D01*
X37866666Y-106360000D01*
X37800000Y-106326666D01*
X37766666Y-106293333D01*
X37733333Y-106226666D01*
X37733333Y-106160000D01*
X37766666Y-106093333D01*
X37800000Y-106060000D01*
X37866666Y-106026666D01*
X38033333Y-106026666D01*
X38133333Y-106060000D01*
X38366666Y-106026666D02*
X38533333Y-106726666D01*
X38666666Y-106226666D01*
X38800000Y-106726666D01*
X38966666Y-106026666D01*
X39566666Y-106026666D02*
X39233333Y-106026666D01*
X39200000Y-106360000D01*
X39233333Y-106326666D01*
X39300000Y-106293333D01*
X39466666Y-106293333D01*
X39533333Y-106326666D01*
X39566666Y-106360000D01*
X39600000Y-106426666D01*
X39600000Y-106593333D01*
X39566666Y-106660000D01*
X39533333Y-106693333D01*
X39466666Y-106726666D01*
X39300000Y-106726666D01*
X39233333Y-106693333D01*
X39200000Y-106660000D01*
X39833333Y-106026666D02*
X40266666Y-106026666D01*
X40033333Y-106293333D01*
X40133333Y-106293333D01*
X40200000Y-106326666D01*
X40233333Y-106360000D01*
X40266666Y-106426666D01*
X40266666Y-106593333D01*
X40233333Y-106660000D01*
X40200000Y-106693333D01*
X40133333Y-106726666D01*
X39933333Y-106726666D01*
X39866666Y-106693333D01*
X39833333Y-106660000D01*
X32640476Y-107494761D02*
X32783333Y-107542380D01*
X33021428Y-107542380D01*
X33116666Y-107494761D01*
X33164285Y-107447142D01*
X33211904Y-107351904D01*
X33211904Y-107256666D01*
X33164285Y-107161428D01*
X33116666Y-107113809D01*
X33021428Y-107066190D01*
X32830952Y-107018571D01*
X32735714Y-106970952D01*
X32688095Y-106923333D01*
X32640476Y-106828095D01*
X32640476Y-106732857D01*
X32688095Y-106637619D01*
X32735714Y-106590000D01*
X32830952Y-106542380D01*
X33069047Y-106542380D01*
X33211904Y-106590000D01*
X33545238Y-106542380D02*
X33783333Y-107542380D01*
X33973809Y-106828095D01*
X34164285Y-107542380D01*
X34402380Y-106542380D01*
X35259523Y-106542380D02*
X34783333Y-106542380D01*
X34735714Y-107018571D01*
X34783333Y-106970952D01*
X34878571Y-106923333D01*
X35116666Y-106923333D01*
X35211904Y-106970952D01*
X35259523Y-107018571D01*
X35307142Y-107113809D01*
X35307142Y-107351904D01*
X35259523Y-107447142D01*
X35211904Y-107494761D01*
X35116666Y-107542380D01*
X34878571Y-107542380D01*
X34783333Y-107494761D01*
X34735714Y-107447142D01*
X35640476Y-106542380D02*
X36259523Y-106542380D01*
X35926190Y-106923333D01*
X36069047Y-106923333D01*
X36164285Y-106970952D01*
X36211904Y-107018571D01*
X36259523Y-107113809D01*
X36259523Y-107351904D01*
X36211904Y-107447142D01*
X36164285Y-107494761D01*
X36069047Y-107542380D01*
X35783333Y-107542380D01*
X35688095Y-107494761D01*
X35640476Y-107447142D01*
X95572380Y-36714285D02*
X94572380Y-36714285D01*
X94572380Y-36476190D01*
X94620000Y-36333333D01*
X94715238Y-36238095D01*
X94810476Y-36190476D01*
X95000952Y-36142857D01*
X95143809Y-36142857D01*
X95334285Y-36190476D01*
X95429523Y-36238095D01*
X95524761Y-36333333D01*
X95572380Y-36476190D01*
X95572380Y-36714285D01*
X94667619Y-35761904D02*
X94620000Y-35714285D01*
X94572380Y-35619047D01*
X94572380Y-35380952D01*
X94620000Y-35285714D01*
X94667619Y-35238095D01*
X94762857Y-35190476D01*
X94858095Y-35190476D01*
X95000952Y-35238095D01*
X95572380Y-35809523D01*
X95572380Y-35190476D01*
X94572380Y-34857142D02*
X94572380Y-34238095D01*
X94953333Y-34571428D01*
X94953333Y-34428571D01*
X95000952Y-34333333D01*
X95048571Y-34285714D01*
X95143809Y-34238095D01*
X95381904Y-34238095D01*
X95477142Y-34285714D01*
X95524761Y-34333333D01*
X95572380Y-34428571D01*
X95572380Y-34714285D01*
X95524761Y-34809523D01*
X95477142Y-34857142D01*
X95252380Y-31951904D02*
X94252380Y-31951904D01*
X95252380Y-31380476D02*
X94680952Y-31809047D01*
X94252380Y-31380476D02*
X94823809Y-31951904D01*
X41572380Y-38714285D02*
X40572380Y-38714285D01*
X40572380Y-38476190D01*
X40620000Y-38333333D01*
X40715238Y-38238095D01*
X40810476Y-38190476D01*
X41000952Y-38142857D01*
X41143809Y-38142857D01*
X41334285Y-38190476D01*
X41429523Y-38238095D01*
X41524761Y-38333333D01*
X41572380Y-38476190D01*
X41572380Y-38714285D01*
X40572380Y-37238095D02*
X40572380Y-37714285D01*
X41048571Y-37761904D01*
X41000952Y-37714285D01*
X40953333Y-37619047D01*
X40953333Y-37380952D01*
X41000952Y-37285714D01*
X41048571Y-37238095D01*
X41143809Y-37190476D01*
X41381904Y-37190476D01*
X41477142Y-37238095D01*
X41524761Y-37285714D01*
X41572380Y-37380952D01*
X41572380Y-37619047D01*
X41524761Y-37714285D01*
X41477142Y-37761904D01*
X40667619Y-36809523D02*
X40620000Y-36761904D01*
X40572380Y-36666666D01*
X40572380Y-36428571D01*
X40620000Y-36333333D01*
X40667619Y-36285714D01*
X40762857Y-36238095D01*
X40858095Y-36238095D01*
X41000952Y-36285714D01*
X41572380Y-36857142D01*
X41572380Y-36238095D01*
X41252380Y-33951904D02*
X40252380Y-33951904D01*
X41252380Y-33380476D02*
X40680952Y-33809047D01*
X40252380Y-33380476D02*
X40823809Y-33951904D01*
X179000000Y-77300000D02*
X179000000Y-71700000D01*
X177000000Y-71700000D02*
X179000000Y-71700000D01*
X177000000Y-77300000D02*
X179000000Y-77300000D01*
X177000000Y-71450000D02*
X164900000Y-71450000D01*
X177000000Y-77550000D02*
X164900000Y-77550000D01*
X164900000Y-77550000D02*
X164900000Y-71450000D01*
X177000000Y-77550000D02*
X177000000Y-71450000D01*
X103000000Y-61000000D02*
X103000000Y-62000000D01*
X103000000Y-61200000D02*
X98500000Y-61200000D01*
X102000000Y-48000000D02*
X103000000Y-48000000D01*
X103000000Y-62000000D02*
X102000000Y-62000000D01*
X94000000Y-59200000D02*
X94500000Y-58700000D01*
X98500000Y-56500000D02*
X103000000Y-56500000D01*
X94000000Y-62700000D02*
X94500000Y-63200000D01*
D11*
X91000000Y-48850000D02*
X92100000Y-48850000D01*
D10*
X94500000Y-58700000D02*
X97000000Y-58700000D01*
D11*
X92100000Y-51550000D02*
X91000000Y-51550000D01*
D10*
X103000000Y-60600000D02*
X103000000Y-61200000D01*
X103000000Y-56500000D02*
X103000000Y-57000000D01*
X98000000Y-61700000D02*
X98000000Y-62700000D01*
X90000000Y-62000000D02*
X89000000Y-62000000D01*
D11*
X92100000Y-48850000D02*
X92100000Y-51550000D01*
D10*
X98500000Y-57200000D02*
X98500000Y-56500000D01*
X89000000Y-49000000D02*
X89000000Y-48000000D01*
D11*
X91000000Y-51550000D02*
X91000000Y-48850000D01*
D10*
X97500000Y-63200000D02*
X98000000Y-62700000D01*
X89000000Y-62000000D02*
X89000000Y-61000000D01*
X94500000Y-63200000D02*
X97500000Y-63200000D01*
X89000000Y-48000000D02*
X90000000Y-48000000D01*
X103000000Y-48000000D02*
X103000000Y-49000000D01*
X97000000Y-58700000D02*
G75*
G03*
X98500000Y-57200000I-1J1500001D01*
G01*
X98500000Y-61200000D02*
G75*
G03*
X98000000Y-61700000I1J-500001D01*
G01*
D12*
X98800000Y-48910000D02*
X98200000Y-48910000D01*
X98200000Y-48910000D02*
X98200000Y-48310000D01*
X98200000Y-48310000D02*
X98800000Y-48910000D01*
G36*
X98800000Y-48910000D02*
G01*
X98200000Y-48910000D01*
X98200000Y-48310000D01*
X98800000Y-48910000D01*
G37*
X98800000Y-48910000D02*
X98200000Y-48910000D01*
X98200000Y-48310000D01*
X98800000Y-48910000D01*
D10*
X103000000Y-97000000D02*
X103000000Y-98000000D01*
X103000000Y-97200000D02*
X98500000Y-97200000D01*
X102000000Y-84000000D02*
X103000000Y-84000000D01*
X103000000Y-98000000D02*
X102000000Y-98000000D01*
X94000000Y-95200000D02*
X94500000Y-94700000D01*
X98500000Y-92500000D02*
X103000000Y-92500000D01*
X94000000Y-98700000D02*
X94500000Y-99200000D01*
D11*
X91000000Y-84850000D02*
X92100000Y-84850000D01*
D10*
X94500000Y-94700000D02*
X97000000Y-94700000D01*
D11*
X92100000Y-87550000D02*
X91000000Y-87550000D01*
D10*
X103000000Y-96600000D02*
X103000000Y-97200000D01*
X103000000Y-92500000D02*
X103000000Y-93000000D01*
X98000000Y-97700000D02*
X98000000Y-98700000D01*
X90000000Y-98000000D02*
X89000000Y-98000000D01*
D11*
X92100000Y-84850000D02*
X92100000Y-87550000D01*
D10*
X98500000Y-93200000D02*
X98500000Y-92500000D01*
X89000000Y-85000000D02*
X89000000Y-84000000D01*
D11*
X91000000Y-87550000D02*
X91000000Y-84850000D01*
D10*
X97500000Y-99200000D02*
X98000000Y-98700000D01*
X89000000Y-98000000D02*
X89000000Y-97000000D01*
X94500000Y-99200000D02*
X97500000Y-99200000D01*
X89000000Y-84000000D02*
X90000000Y-84000000D01*
X103000000Y-84000000D02*
X103000000Y-85000000D01*
X97000000Y-94700000D02*
G75*
G03*
X98500000Y-93200000I-1J1500001D01*
G01*
X98500000Y-97200000D02*
G75*
G03*
X98000000Y-97700000I1J-500001D01*
G01*
D12*
X98800000Y-84910000D02*
X98200000Y-84910000D01*
X98200000Y-84910000D02*
X98200000Y-84310000D01*
X98200000Y-84310000D02*
X98800000Y-84910000D01*
G36*
X98800000Y-84910000D02*
G01*
X98200000Y-84910000D01*
X98200000Y-84310000D01*
X98800000Y-84910000D01*
G37*
X98800000Y-84910000D02*
X98200000Y-84910000D01*
X98200000Y-84310000D01*
X98800000Y-84910000D01*
D10*
X141000000Y-61000000D02*
X141000000Y-62000000D01*
X141000000Y-61200000D02*
X136500000Y-61200000D01*
X140000000Y-48000000D02*
X141000000Y-48000000D01*
X141000000Y-62000000D02*
X140000000Y-62000000D01*
X132000000Y-59200000D02*
X132500000Y-58700000D01*
X136500000Y-56500000D02*
X141000000Y-56500000D01*
X132000000Y-62700000D02*
X132500000Y-63200000D01*
D11*
X129000000Y-48850000D02*
X130100000Y-48850000D01*
D10*
X132500000Y-58700000D02*
X135000000Y-58700000D01*
D11*
X130100000Y-51550000D02*
X129000000Y-51550000D01*
D10*
X141000000Y-60600000D02*
X141000000Y-61200000D01*
X141000000Y-56500000D02*
X141000000Y-57000000D01*
X136000000Y-61700000D02*
X136000000Y-62700000D01*
X128000000Y-62000000D02*
X127000000Y-62000000D01*
D11*
X130100000Y-48850000D02*
X130100000Y-51550000D01*
D10*
X136500000Y-57200000D02*
X136500000Y-56500000D01*
X127000000Y-49000000D02*
X127000000Y-48000000D01*
D11*
X129000000Y-51550000D02*
X129000000Y-48850000D01*
D10*
X135500000Y-63200000D02*
X136000000Y-62700000D01*
X127000000Y-62000000D02*
X127000000Y-61000000D01*
X132500000Y-63200000D02*
X135500000Y-63200000D01*
X127000000Y-48000000D02*
X128000000Y-48000000D01*
X141000000Y-48000000D02*
X141000000Y-49000000D01*
X135000000Y-58700000D02*
G75*
G03*
X136500000Y-57200000I-1J1500001D01*
G01*
X136500000Y-61200000D02*
G75*
G03*
X136000000Y-61700000I1J-500001D01*
G01*
D12*
X136800000Y-48910000D02*
X136200000Y-48910000D01*
X136200000Y-48910000D02*
X136200000Y-48310000D01*
X136200000Y-48310000D02*
X136800000Y-48910000D01*
G36*
X136800000Y-48910000D02*
G01*
X136200000Y-48910000D01*
X136200000Y-48310000D01*
X136800000Y-48910000D01*
G37*
X136800000Y-48910000D02*
X136200000Y-48910000D01*
X136200000Y-48310000D01*
X136800000Y-48910000D01*
D10*
X103000000Y-79000000D02*
X103000000Y-80000000D01*
X103000000Y-79200000D02*
X98500000Y-79200000D01*
X102000000Y-66000000D02*
X103000000Y-66000000D01*
X103000000Y-80000000D02*
X102000000Y-80000000D01*
X94000000Y-77200000D02*
X94500000Y-76700000D01*
X98500000Y-74500000D02*
X103000000Y-74500000D01*
X94000000Y-80700000D02*
X94500000Y-81200000D01*
D11*
X91000000Y-66850000D02*
X92100000Y-66850000D01*
D10*
X94500000Y-76700000D02*
X97000000Y-76700000D01*
D11*
X92100000Y-69550000D02*
X91000000Y-69550000D01*
D10*
X103000000Y-78600000D02*
X103000000Y-79200000D01*
X103000000Y-74500000D02*
X103000000Y-75000000D01*
X98000000Y-79700000D02*
X98000000Y-80700000D01*
X90000000Y-80000000D02*
X89000000Y-80000000D01*
D11*
X92100000Y-66850000D02*
X92100000Y-69550000D01*
D10*
X98500000Y-75200000D02*
X98500000Y-74500000D01*
X89000000Y-67000000D02*
X89000000Y-66000000D01*
D11*
X91000000Y-69550000D02*
X91000000Y-66850000D01*
D10*
X97500000Y-81200000D02*
X98000000Y-80700000D01*
X89000000Y-80000000D02*
X89000000Y-79000000D01*
X94500000Y-81200000D02*
X97500000Y-81200000D01*
X89000000Y-66000000D02*
X90000000Y-66000000D01*
X103000000Y-66000000D02*
X103000000Y-67000000D01*
X97000000Y-76700000D02*
G75*
G03*
X98500000Y-75200000I-1J1500001D01*
G01*
X98500000Y-79200000D02*
G75*
G03*
X98000000Y-79700000I1J-500001D01*
G01*
D12*
X98800000Y-66910000D02*
X98200000Y-66910000D01*
X98200000Y-66910000D02*
X98200000Y-66310000D01*
X98200000Y-66310000D02*
X98800000Y-66910000D01*
G36*
X98800000Y-66910000D02*
G01*
X98200000Y-66910000D01*
X98200000Y-66310000D01*
X98800000Y-66910000D01*
G37*
X98800000Y-66910000D02*
X98200000Y-66910000D01*
X98200000Y-66310000D01*
X98800000Y-66910000D01*
D10*
X46000000Y-97000000D02*
X46000000Y-98000000D01*
X46000000Y-97200000D02*
X41500000Y-97200000D01*
X45000000Y-84000000D02*
X46000000Y-84000000D01*
X46000000Y-98000000D02*
X45000000Y-98000000D01*
X37000000Y-95200000D02*
X37500000Y-94700000D01*
X41500000Y-92500000D02*
X46000000Y-92500000D01*
X37000000Y-98700000D02*
X37500000Y-99200000D01*
D11*
X34000000Y-84850000D02*
X35100000Y-84850000D01*
D10*
X37500000Y-94700000D02*
X40000000Y-94700000D01*
D11*
X35100000Y-87550000D02*
X34000000Y-87550000D01*
D10*
X46000000Y-96600000D02*
X46000000Y-97200000D01*
X46000000Y-92500000D02*
X46000000Y-93000000D01*
X41000000Y-97700000D02*
X41000000Y-98700000D01*
X33000000Y-98000000D02*
X32000000Y-98000000D01*
D11*
X35100000Y-84850000D02*
X35100000Y-87550000D01*
D10*
X41500000Y-93200000D02*
X41500000Y-92500000D01*
X32000000Y-85000000D02*
X32000000Y-84000000D01*
D11*
X34000000Y-87550000D02*
X34000000Y-84850000D01*
D10*
X40500000Y-99200000D02*
X41000000Y-98700000D01*
X32000000Y-98000000D02*
X32000000Y-97000000D01*
X37500000Y-99200000D02*
X40500000Y-99200000D01*
X32000000Y-84000000D02*
X33000000Y-84000000D01*
X46000000Y-84000000D02*
X46000000Y-85000000D01*
X40000000Y-94700000D02*
G75*
G03*
X41500000Y-93200000I-1J1500001D01*
G01*
X41500000Y-97200000D02*
G75*
G03*
X41000000Y-97700000I1J-500001D01*
G01*
D12*
X41800000Y-84910000D02*
X41200000Y-84910000D01*
X41200000Y-84910000D02*
X41200000Y-84310000D01*
X41200000Y-84310000D02*
X41800000Y-84910000D01*
G36*
X41800000Y-84910000D02*
G01*
X41200000Y-84910000D01*
X41200000Y-84310000D01*
X41800000Y-84910000D01*
G37*
X41800000Y-84910000D02*
X41200000Y-84910000D01*
X41200000Y-84310000D01*
X41800000Y-84910000D01*
D13*
X113120000Y-37620000D02*
X113120000Y-33380000D01*
X113120000Y-34100000D02*
X110880000Y-34100000D01*
X113120000Y-33980000D02*
X110880000Y-33980000D01*
X110880000Y-37620000D02*
X113120000Y-37620000D01*
X113120000Y-34220000D02*
X110880000Y-34220000D01*
X112000000Y-32730000D02*
X112000000Y-33380000D01*
X113120000Y-33380000D02*
X110880000Y-33380000D01*
X110880000Y-33380000D02*
X110880000Y-37620000D01*
X112000000Y-38270000D02*
X112000000Y-37620000D01*
D10*
X46000000Y-133000000D02*
X46000000Y-134000000D01*
X46000000Y-133200000D02*
X41500000Y-133200000D01*
X45000000Y-120000000D02*
X46000000Y-120000000D01*
X46000000Y-134000000D02*
X45000000Y-134000000D01*
X37000000Y-131200000D02*
X37500000Y-130700000D01*
X41500000Y-128500000D02*
X46000000Y-128500000D01*
X37000000Y-134700000D02*
X37500000Y-135200000D01*
D11*
X34000000Y-120850000D02*
X35100000Y-120850000D01*
D10*
X37500000Y-130700000D02*
X40000000Y-130700000D01*
D11*
X35100000Y-123550000D02*
X34000000Y-123550000D01*
D10*
X46000000Y-132600000D02*
X46000000Y-133200000D01*
X46000000Y-128500000D02*
X46000000Y-129000000D01*
X41000000Y-133700000D02*
X41000000Y-134700000D01*
X33000000Y-134000000D02*
X32000000Y-134000000D01*
D11*
X35100000Y-120850000D02*
X35100000Y-123550000D01*
D10*
X41500000Y-129200000D02*
X41500000Y-128500000D01*
X32000000Y-121000000D02*
X32000000Y-120000000D01*
D11*
X34000000Y-123550000D02*
X34000000Y-120850000D01*
D10*
X40500000Y-135200000D02*
X41000000Y-134700000D01*
X32000000Y-134000000D02*
X32000000Y-133000000D01*
X37500000Y-135200000D02*
X40500000Y-135200000D01*
X32000000Y-120000000D02*
X33000000Y-120000000D01*
X46000000Y-120000000D02*
X46000000Y-121000000D01*
X40000000Y-130700000D02*
G75*
G03*
X41500000Y-129200000I-1J1500001D01*
G01*
X41500000Y-133200000D02*
G75*
G03*
X41000000Y-133700000I1J-500001D01*
G01*
D12*
X41800000Y-120910000D02*
X41200000Y-120910000D01*
X41200000Y-120910000D02*
X41200000Y-120310000D01*
X41200000Y-120310000D02*
X41800000Y-120910000D01*
G36*
X41800000Y-120910000D02*
G01*
X41200000Y-120910000D01*
X41200000Y-120310000D01*
X41800000Y-120910000D01*
G37*
X41800000Y-120910000D02*
X41200000Y-120910000D01*
X41200000Y-120310000D01*
X41800000Y-120910000D01*
D10*
X84000000Y-133000000D02*
X84000000Y-134000000D01*
X84000000Y-133200000D02*
X79500000Y-133200000D01*
X83000000Y-120000000D02*
X84000000Y-120000000D01*
X84000000Y-134000000D02*
X83000000Y-134000000D01*
X75000000Y-131200000D02*
X75500000Y-130700000D01*
X79500000Y-128500000D02*
X84000000Y-128500000D01*
X75000000Y-134700000D02*
X75500000Y-135200000D01*
D11*
X72000000Y-120850000D02*
X73100000Y-120850000D01*
D10*
X75500000Y-130700000D02*
X78000000Y-130700000D01*
D11*
X73100000Y-123550000D02*
X72000000Y-123550000D01*
D10*
X84000000Y-132600000D02*
X84000000Y-133200000D01*
X84000000Y-128500000D02*
X84000000Y-129000000D01*
X79000000Y-133700000D02*
X79000000Y-134700000D01*
X71000000Y-134000000D02*
X70000000Y-134000000D01*
D11*
X73100000Y-120850000D02*
X73100000Y-123550000D01*
D10*
X79500000Y-129200000D02*
X79500000Y-128500000D01*
X70000000Y-121000000D02*
X70000000Y-120000000D01*
D11*
X72000000Y-123550000D02*
X72000000Y-120850000D01*
D10*
X78500000Y-135200000D02*
X79000000Y-134700000D01*
X70000000Y-134000000D02*
X70000000Y-133000000D01*
X75500000Y-135200000D02*
X78500000Y-135200000D01*
X70000000Y-120000000D02*
X71000000Y-120000000D01*
X84000000Y-120000000D02*
X84000000Y-121000000D01*
X78000000Y-130700000D02*
G75*
G03*
X79500000Y-129200000I-1J1500001D01*
G01*
X79500000Y-133200000D02*
G75*
G03*
X79000000Y-133700000I1J-500001D01*
G01*
D12*
X79800000Y-120910000D02*
X79200000Y-120910000D01*
X79200000Y-120910000D02*
X79200000Y-120310000D01*
X79200000Y-120310000D02*
X79800000Y-120910000D01*
G36*
X79800000Y-120910000D02*
G01*
X79200000Y-120910000D01*
X79200000Y-120310000D01*
X79800000Y-120910000D01*
G37*
X79800000Y-120910000D02*
X79200000Y-120910000D01*
X79200000Y-120310000D01*
X79800000Y-120910000D01*
D10*
X46000000Y-61000000D02*
X46000000Y-62000000D01*
X46000000Y-61200000D02*
X41500000Y-61200000D01*
X45000000Y-48000000D02*
X46000000Y-48000000D01*
X46000000Y-62000000D02*
X45000000Y-62000000D01*
X37000000Y-59200000D02*
X37500000Y-58700000D01*
X41500000Y-56500000D02*
X46000000Y-56500000D01*
X37000000Y-62700000D02*
X37500000Y-63200000D01*
D11*
X34000000Y-48850000D02*
X35100000Y-48850000D01*
D10*
X37500000Y-58700000D02*
X40000000Y-58700000D01*
D11*
X35100000Y-51550000D02*
X34000000Y-51550000D01*
D10*
X46000000Y-60600000D02*
X46000000Y-61200000D01*
X46000000Y-56500000D02*
X46000000Y-57000000D01*
X41000000Y-61700000D02*
X41000000Y-62700000D01*
X33000000Y-62000000D02*
X32000000Y-62000000D01*
D11*
X35100000Y-48850000D02*
X35100000Y-51550000D01*
D10*
X41500000Y-57200000D02*
X41500000Y-56500000D01*
X32000000Y-49000000D02*
X32000000Y-48000000D01*
D11*
X34000000Y-51550000D02*
X34000000Y-48850000D01*
D10*
X40500000Y-63200000D02*
X41000000Y-62700000D01*
X32000000Y-62000000D02*
X32000000Y-61000000D01*
X37500000Y-63200000D02*
X40500000Y-63200000D01*
X32000000Y-48000000D02*
X33000000Y-48000000D01*
X46000000Y-48000000D02*
X46000000Y-49000000D01*
X40000000Y-58700000D02*
G75*
G03*
X41500000Y-57200000I-1J1500001D01*
G01*
X41500000Y-61200000D02*
G75*
G03*
X41000000Y-61700000I1J-500001D01*
G01*
D12*
X41800000Y-48910000D02*
X41200000Y-48910000D01*
X41200000Y-48910000D02*
X41200000Y-48310000D01*
X41200000Y-48310000D02*
X41800000Y-48910000D01*
G36*
X41800000Y-48910000D02*
G01*
X41200000Y-48910000D01*
X41200000Y-48310000D01*
X41800000Y-48910000D01*
G37*
X41800000Y-48910000D02*
X41200000Y-48910000D01*
X41200000Y-48310000D01*
X41800000Y-48910000D01*
D13*
X81120000Y-41620000D02*
X81120000Y-37380000D01*
X81120000Y-38100000D02*
X78880000Y-38100000D01*
X81120000Y-37980000D02*
X78880000Y-37980000D01*
X78880000Y-41620000D02*
X81120000Y-41620000D01*
X81120000Y-38220000D02*
X78880000Y-38220000D01*
X80000000Y-36730000D02*
X80000000Y-37380000D01*
X81120000Y-37380000D02*
X78880000Y-37380000D01*
X78880000Y-37380000D02*
X78880000Y-41620000D01*
X80000000Y-42270000D02*
X80000000Y-41620000D01*
X65120000Y-43620000D02*
X65120000Y-39380000D01*
X65120000Y-40100000D02*
X62880000Y-40100000D01*
X65120000Y-39980000D02*
X62880000Y-39980000D01*
X62880000Y-43620000D02*
X65120000Y-43620000D01*
X65120000Y-40220000D02*
X62880000Y-40220000D01*
X64000000Y-38730000D02*
X64000000Y-39380000D01*
X65120000Y-39380000D02*
X62880000Y-39380000D01*
X62880000Y-39380000D02*
X62880000Y-43620000D01*
X64000000Y-44270000D02*
X64000000Y-43620000D01*
X72120000Y-35620000D02*
X72120000Y-31380000D01*
X72120000Y-32100000D02*
X69880000Y-32100000D01*
X72120000Y-31980000D02*
X69880000Y-31980000D01*
X69880000Y-35620000D02*
X72120000Y-35620000D01*
X72120000Y-32220000D02*
X69880000Y-32220000D01*
X71000000Y-30730000D02*
X71000000Y-31380000D01*
X72120000Y-31380000D02*
X69880000Y-31380000D01*
X69880000Y-31380000D02*
X69880000Y-35620000D01*
X71000000Y-36270000D02*
X71000000Y-35620000D01*
X103120000Y-43620000D02*
X103120000Y-39380000D01*
X103120000Y-40100000D02*
X100880000Y-40100000D01*
X103120000Y-39980000D02*
X100880000Y-39980000D01*
X100880000Y-43620000D02*
X103120000Y-43620000D01*
X103120000Y-40220000D02*
X100880000Y-40220000D01*
X102000000Y-38730000D02*
X102000000Y-39380000D01*
X103120000Y-39380000D02*
X100880000Y-39380000D01*
X100880000Y-39380000D02*
X100880000Y-43620000D01*
X102000000Y-44270000D02*
X102000000Y-43620000D01*
D10*
X122000000Y-115000000D02*
X122000000Y-116000000D01*
X122000000Y-115200000D02*
X117500000Y-115200000D01*
X121000000Y-102000000D02*
X122000000Y-102000000D01*
X122000000Y-116000000D02*
X121000000Y-116000000D01*
X113000000Y-113200000D02*
X113500000Y-112700000D01*
X117500000Y-110500000D02*
X122000000Y-110500000D01*
X113000000Y-116700000D02*
X113500000Y-117200000D01*
D11*
X110000000Y-102850000D02*
X111100000Y-102850000D01*
D10*
X113500000Y-112700000D02*
X116000000Y-112700000D01*
D11*
X111100000Y-105550000D02*
X110000000Y-105550000D01*
D10*
X122000000Y-114600000D02*
X122000000Y-115200000D01*
X122000000Y-110500000D02*
X122000000Y-111000000D01*
X117000000Y-115700000D02*
X117000000Y-116700000D01*
X109000000Y-116000000D02*
X108000000Y-116000000D01*
D11*
X111100000Y-102850000D02*
X111100000Y-105550000D01*
D10*
X117500000Y-111200000D02*
X117500000Y-110500000D01*
X108000000Y-103000000D02*
X108000000Y-102000000D01*
D11*
X110000000Y-105550000D02*
X110000000Y-102850000D01*
D10*
X116500000Y-117200000D02*
X117000000Y-116700000D01*
X108000000Y-116000000D02*
X108000000Y-115000000D01*
X113500000Y-117200000D02*
X116500000Y-117200000D01*
X108000000Y-102000000D02*
X109000000Y-102000000D01*
X122000000Y-102000000D02*
X122000000Y-103000000D01*
X116000000Y-112700000D02*
G75*
G03*
X117500000Y-111200000I-1J1500001D01*
G01*
X117500000Y-115200000D02*
G75*
G03*
X117000000Y-115700000I1J-500001D01*
G01*
D12*
X117800000Y-102910000D02*
X117200000Y-102910000D01*
X117200000Y-102910000D02*
X117200000Y-102310000D01*
X117200000Y-102310000D02*
X117800000Y-102910000D01*
G36*
X117800000Y-102910000D02*
G01*
X117200000Y-102910000D01*
X117200000Y-102310000D01*
X117800000Y-102910000D01*
G37*
X117800000Y-102910000D02*
X117200000Y-102910000D01*
X117200000Y-102310000D01*
X117800000Y-102910000D01*
D13*
X138120000Y-41620000D02*
X138120000Y-37380000D01*
X138120000Y-38100000D02*
X135880000Y-38100000D01*
X138120000Y-37980000D02*
X135880000Y-37980000D01*
X135880000Y-41620000D02*
X138120000Y-41620000D01*
X138120000Y-38220000D02*
X135880000Y-38220000D01*
X137000000Y-36730000D02*
X137000000Y-37380000D01*
X138120000Y-37380000D02*
X135880000Y-37380000D01*
X135880000Y-37380000D02*
X135880000Y-41620000D01*
X137000000Y-42270000D02*
X137000000Y-41620000D01*
D10*
X84000000Y-97000000D02*
X84000000Y-98000000D01*
X84000000Y-97200000D02*
X79500000Y-97200000D01*
X83000000Y-84000000D02*
X84000000Y-84000000D01*
X84000000Y-98000000D02*
X83000000Y-98000000D01*
X75000000Y-95200000D02*
X75500000Y-94700000D01*
X79500000Y-92500000D02*
X84000000Y-92500000D01*
X75000000Y-98700000D02*
X75500000Y-99200000D01*
D11*
X72000000Y-84850000D02*
X73100000Y-84850000D01*
D10*
X75500000Y-94700000D02*
X78000000Y-94700000D01*
D11*
X73100000Y-87550000D02*
X72000000Y-87550000D01*
D10*
X84000000Y-96600000D02*
X84000000Y-97200000D01*
X84000000Y-92500000D02*
X84000000Y-93000000D01*
X79000000Y-97700000D02*
X79000000Y-98700000D01*
X71000000Y-98000000D02*
X70000000Y-98000000D01*
D11*
X73100000Y-84850000D02*
X73100000Y-87550000D01*
D10*
X79500000Y-93200000D02*
X79500000Y-92500000D01*
X70000000Y-85000000D02*
X70000000Y-84000000D01*
D11*
X72000000Y-87550000D02*
X72000000Y-84850000D01*
D10*
X78500000Y-99200000D02*
X79000000Y-98700000D01*
X70000000Y-98000000D02*
X70000000Y-97000000D01*
X75500000Y-99200000D02*
X78500000Y-99200000D01*
X70000000Y-84000000D02*
X71000000Y-84000000D01*
X84000000Y-84000000D02*
X84000000Y-85000000D01*
X78000000Y-94700000D02*
G75*
G03*
X79500000Y-93200000I-1J1500001D01*
G01*
X79500000Y-97200000D02*
G75*
G03*
X79000000Y-97700000I1J-500001D01*
G01*
D12*
X79800000Y-84910000D02*
X79200000Y-84910000D01*
X79200000Y-84910000D02*
X79200000Y-84310000D01*
X79200000Y-84310000D02*
X79800000Y-84910000D01*
G36*
X79800000Y-84910000D02*
G01*
X79200000Y-84910000D01*
X79200000Y-84310000D01*
X79800000Y-84910000D01*
G37*
X79800000Y-84910000D02*
X79200000Y-84910000D01*
X79200000Y-84310000D01*
X79800000Y-84910000D01*
D13*
X110120000Y-35620000D02*
X110120000Y-31380000D01*
X110120000Y-32100000D02*
X107880000Y-32100000D01*
X110120000Y-31980000D02*
X107880000Y-31980000D01*
X107880000Y-35620000D02*
X110120000Y-35620000D01*
X110120000Y-32220000D02*
X107880000Y-32220000D01*
X109000000Y-30730000D02*
X109000000Y-31380000D01*
X110120000Y-31380000D02*
X107880000Y-31380000D01*
X107880000Y-31380000D02*
X107880000Y-35620000D01*
X109000000Y-36270000D02*
X109000000Y-35620000D01*
X141120000Y-43620000D02*
X141120000Y-39380000D01*
X141120000Y-40100000D02*
X138880000Y-40100000D01*
X141120000Y-39980000D02*
X138880000Y-39980000D01*
X138880000Y-43620000D02*
X141120000Y-43620000D01*
X141120000Y-40220000D02*
X138880000Y-40220000D01*
X140000000Y-38730000D02*
X140000000Y-39380000D01*
X141120000Y-39380000D02*
X138880000Y-39380000D01*
X138880000Y-39380000D02*
X138880000Y-43620000D01*
X140000000Y-44270000D02*
X140000000Y-43620000D01*
D10*
X65000000Y-79000000D02*
X65000000Y-80000000D01*
X65000000Y-79200000D02*
X60500000Y-79200000D01*
X64000000Y-66000000D02*
X65000000Y-66000000D01*
X65000000Y-80000000D02*
X64000000Y-80000000D01*
X56000000Y-77200000D02*
X56500000Y-76700000D01*
X60500000Y-74500000D02*
X65000000Y-74500000D01*
X56000000Y-80700000D02*
X56500000Y-81200000D01*
D11*
X53000000Y-66850000D02*
X54100000Y-66850000D01*
D10*
X56500000Y-76700000D02*
X59000000Y-76700000D01*
D11*
X54100000Y-69550000D02*
X53000000Y-69550000D01*
D10*
X65000000Y-78600000D02*
X65000000Y-79200000D01*
X65000000Y-74500000D02*
X65000000Y-75000000D01*
X60000000Y-79700000D02*
X60000000Y-80700000D01*
X52000000Y-80000000D02*
X51000000Y-80000000D01*
D11*
X54100000Y-66850000D02*
X54100000Y-69550000D01*
D10*
X60500000Y-75200000D02*
X60500000Y-74500000D01*
X51000000Y-67000000D02*
X51000000Y-66000000D01*
D11*
X53000000Y-69550000D02*
X53000000Y-66850000D01*
D10*
X59500000Y-81200000D02*
X60000000Y-80700000D01*
X51000000Y-80000000D02*
X51000000Y-79000000D01*
X56500000Y-81200000D02*
X59500000Y-81200000D01*
X51000000Y-66000000D02*
X52000000Y-66000000D01*
X65000000Y-66000000D02*
X65000000Y-67000000D01*
X59000000Y-76700000D02*
G75*
G03*
X60500000Y-75200000I-1J1500001D01*
G01*
X60500000Y-79200000D02*
G75*
G03*
X60000000Y-79700000I1J-500001D01*
G01*
D12*
X60800000Y-66910000D02*
X60200000Y-66910000D01*
X60200000Y-66910000D02*
X60200000Y-66310000D01*
X60200000Y-66310000D02*
X60800000Y-66910000D01*
G36*
X60800000Y-66910000D02*
G01*
X60200000Y-66910000D01*
X60200000Y-66310000D01*
X60800000Y-66910000D01*
G37*
X60800000Y-66910000D02*
X60200000Y-66910000D01*
X60200000Y-66310000D01*
X60800000Y-66910000D01*
D13*
X135120000Y-39620000D02*
X135120000Y-35380000D01*
X135120000Y-36100000D02*
X132880000Y-36100000D01*
X135120000Y-35980000D02*
X132880000Y-35980000D01*
X132880000Y-39620000D02*
X135120000Y-39620000D01*
X135120000Y-36220000D02*
X132880000Y-36220000D01*
X134000000Y-34730000D02*
X134000000Y-35380000D01*
X135120000Y-35380000D02*
X132880000Y-35380000D01*
X132880000Y-35380000D02*
X132880000Y-39620000D01*
X134000000Y-40270000D02*
X134000000Y-39620000D01*
X62120000Y-41620000D02*
X62120000Y-37380000D01*
X62120000Y-38100000D02*
X59880000Y-38100000D01*
X62120000Y-37980000D02*
X59880000Y-37980000D01*
X59880000Y-41620000D02*
X62120000Y-41620000D01*
X62120000Y-38220000D02*
X59880000Y-38220000D01*
X61000000Y-36730000D02*
X61000000Y-37380000D01*
X62120000Y-37380000D02*
X59880000Y-37380000D01*
X59880000Y-37380000D02*
X59880000Y-41620000D01*
X61000000Y-42270000D02*
X61000000Y-41620000D01*
X37120000Y-37620000D02*
X37120000Y-33380000D01*
X37120000Y-34100000D02*
X34880000Y-34100000D01*
X37120000Y-33980000D02*
X34880000Y-33980000D01*
X34880000Y-37620000D02*
X37120000Y-37620000D01*
X37120000Y-34220000D02*
X34880000Y-34220000D01*
X36000000Y-32730000D02*
X36000000Y-33380000D01*
X37120000Y-33380000D02*
X34880000Y-33380000D01*
X34880000Y-33380000D02*
X34880000Y-37620000D01*
X36000000Y-38270000D02*
X36000000Y-37620000D01*
D10*
X65000000Y-133000000D02*
X65000000Y-134000000D01*
X65000000Y-133200000D02*
X60500000Y-133200000D01*
X64000000Y-120000000D02*
X65000000Y-120000000D01*
X65000000Y-134000000D02*
X64000000Y-134000000D01*
X56000000Y-131200000D02*
X56500000Y-130700000D01*
X60500000Y-128500000D02*
X65000000Y-128500000D01*
X56000000Y-134700000D02*
X56500000Y-135200000D01*
D11*
X53000000Y-120850000D02*
X54100000Y-120850000D01*
D10*
X56500000Y-130700000D02*
X59000000Y-130700000D01*
D11*
X54100000Y-123550000D02*
X53000000Y-123550000D01*
D10*
X65000000Y-132600000D02*
X65000000Y-133200000D01*
X65000000Y-128500000D02*
X65000000Y-129000000D01*
X60000000Y-133700000D02*
X60000000Y-134700000D01*
X52000000Y-134000000D02*
X51000000Y-134000000D01*
D11*
X54100000Y-120850000D02*
X54100000Y-123550000D01*
D10*
X60500000Y-129200000D02*
X60500000Y-128500000D01*
X51000000Y-121000000D02*
X51000000Y-120000000D01*
D11*
X53000000Y-123550000D02*
X53000000Y-120850000D01*
D10*
X59500000Y-135200000D02*
X60000000Y-134700000D01*
X51000000Y-134000000D02*
X51000000Y-133000000D01*
X56500000Y-135200000D02*
X59500000Y-135200000D01*
X51000000Y-120000000D02*
X52000000Y-120000000D01*
X65000000Y-120000000D02*
X65000000Y-121000000D01*
X59000000Y-130700000D02*
G75*
G03*
X60500000Y-129200000I-1J1500001D01*
G01*
X60500000Y-133200000D02*
G75*
G03*
X60000000Y-133700000I1J-500001D01*
G01*
D12*
X60800000Y-120910000D02*
X60200000Y-120910000D01*
X60200000Y-120910000D02*
X60200000Y-120310000D01*
X60200000Y-120310000D02*
X60800000Y-120910000D01*
G36*
X60800000Y-120910000D02*
G01*
X60200000Y-120910000D01*
X60200000Y-120310000D01*
X60800000Y-120910000D01*
G37*
X60800000Y-120910000D02*
X60200000Y-120910000D01*
X60200000Y-120310000D01*
X60800000Y-120910000D01*
D13*
X132120000Y-37620000D02*
X132120000Y-33380000D01*
X132120000Y-34100000D02*
X129880000Y-34100000D01*
X132120000Y-33980000D02*
X129880000Y-33980000D01*
X129880000Y-37620000D02*
X132120000Y-37620000D01*
X132120000Y-34220000D02*
X129880000Y-34220000D01*
X131000000Y-32730000D02*
X131000000Y-33380000D01*
X132120000Y-33380000D02*
X129880000Y-33380000D01*
X129880000Y-33380000D02*
X129880000Y-37620000D01*
X131000000Y-38270000D02*
X131000000Y-37620000D01*
D10*
X122000000Y-79000000D02*
X122000000Y-80000000D01*
X122000000Y-79200000D02*
X117500000Y-79200000D01*
X121000000Y-66000000D02*
X122000000Y-66000000D01*
X122000000Y-80000000D02*
X121000000Y-80000000D01*
X113000000Y-77200000D02*
X113500000Y-76700000D01*
X117500000Y-74500000D02*
X122000000Y-74500000D01*
X113000000Y-80700000D02*
X113500000Y-81200000D01*
D11*
X110000000Y-66850000D02*
X111100000Y-66850000D01*
D10*
X113500000Y-76700000D02*
X116000000Y-76700000D01*
D11*
X111100000Y-69550000D02*
X110000000Y-69550000D01*
D10*
X122000000Y-78600000D02*
X122000000Y-79200000D01*
X122000000Y-74500000D02*
X122000000Y-75000000D01*
X117000000Y-79700000D02*
X117000000Y-80700000D01*
X109000000Y-80000000D02*
X108000000Y-80000000D01*
D11*
X111100000Y-66850000D02*
X111100000Y-69550000D01*
D10*
X117500000Y-75200000D02*
X117500000Y-74500000D01*
X108000000Y-67000000D02*
X108000000Y-66000000D01*
D11*
X110000000Y-69550000D02*
X110000000Y-66850000D01*
D10*
X116500000Y-81200000D02*
X117000000Y-80700000D01*
X108000000Y-80000000D02*
X108000000Y-79000000D01*
X113500000Y-81200000D02*
X116500000Y-81200000D01*
X108000000Y-66000000D02*
X109000000Y-66000000D01*
X122000000Y-66000000D02*
X122000000Y-67000000D01*
X116000000Y-76700000D02*
G75*
G03*
X117500000Y-75200000I-1J1500001D01*
G01*
X117500000Y-79200000D02*
G75*
G03*
X117000000Y-79700000I1J-500001D01*
G01*
D12*
X117800000Y-66910000D02*
X117200000Y-66910000D01*
X117200000Y-66910000D02*
X117200000Y-66310000D01*
X117200000Y-66310000D02*
X117800000Y-66910000D01*
G36*
X117800000Y-66910000D02*
G01*
X117200000Y-66910000D01*
X117200000Y-66310000D01*
X117800000Y-66910000D01*
G37*
X117800000Y-66910000D02*
X117200000Y-66910000D01*
X117200000Y-66310000D01*
X117800000Y-66910000D01*
D13*
X34120000Y-35620000D02*
X34120000Y-31380000D01*
X34120000Y-32100000D02*
X31880000Y-32100000D01*
X34120000Y-31980000D02*
X31880000Y-31980000D01*
X31880000Y-35620000D02*
X34120000Y-35620000D01*
X34120000Y-32220000D02*
X31880000Y-32220000D01*
X33000000Y-30730000D02*
X33000000Y-31380000D01*
X34120000Y-31380000D02*
X31880000Y-31380000D01*
X31880000Y-31380000D02*
X31880000Y-35620000D01*
X33000000Y-36270000D02*
X33000000Y-35620000D01*
D10*
X65000000Y-97000000D02*
X65000000Y-98000000D01*
X65000000Y-97200000D02*
X60500000Y-97200000D01*
X64000000Y-84000000D02*
X65000000Y-84000000D01*
X65000000Y-98000000D02*
X64000000Y-98000000D01*
X56000000Y-95200000D02*
X56500000Y-94700000D01*
X60500000Y-92500000D02*
X65000000Y-92500000D01*
X56000000Y-98700000D02*
X56500000Y-99200000D01*
D11*
X53000000Y-84850000D02*
X54100000Y-84850000D01*
D10*
X56500000Y-94700000D02*
X59000000Y-94700000D01*
D11*
X54100000Y-87550000D02*
X53000000Y-87550000D01*
D10*
X65000000Y-96600000D02*
X65000000Y-97200000D01*
X65000000Y-92500000D02*
X65000000Y-93000000D01*
X60000000Y-97700000D02*
X60000000Y-98700000D01*
X52000000Y-98000000D02*
X51000000Y-98000000D01*
D11*
X54100000Y-84850000D02*
X54100000Y-87550000D01*
D10*
X60500000Y-93200000D02*
X60500000Y-92500000D01*
X51000000Y-85000000D02*
X51000000Y-84000000D01*
D11*
X53000000Y-87550000D02*
X53000000Y-84850000D01*
D10*
X59500000Y-99200000D02*
X60000000Y-98700000D01*
X51000000Y-98000000D02*
X51000000Y-97000000D01*
X56500000Y-99200000D02*
X59500000Y-99200000D01*
X51000000Y-84000000D02*
X52000000Y-84000000D01*
X65000000Y-84000000D02*
X65000000Y-85000000D01*
X59000000Y-94700000D02*
G75*
G03*
X60500000Y-93200000I-1J1500001D01*
G01*
X60500000Y-97200000D02*
G75*
G03*
X60000000Y-97700000I1J-500001D01*
G01*
D12*
X60800000Y-84910000D02*
X60200000Y-84910000D01*
X60200000Y-84910000D02*
X60200000Y-84310000D01*
X60200000Y-84310000D02*
X60800000Y-84910000D01*
G36*
X60800000Y-84910000D02*
G01*
X60200000Y-84910000D01*
X60200000Y-84310000D01*
X60800000Y-84910000D01*
G37*
X60800000Y-84910000D02*
X60200000Y-84910000D01*
X60200000Y-84310000D01*
X60800000Y-84910000D01*
D10*
X141000000Y-115000000D02*
X141000000Y-116000000D01*
X141000000Y-115200000D02*
X136500000Y-115200000D01*
X140000000Y-102000000D02*
X141000000Y-102000000D01*
X141000000Y-116000000D02*
X140000000Y-116000000D01*
X132000000Y-113200000D02*
X132500000Y-112700000D01*
X136500000Y-110500000D02*
X141000000Y-110500000D01*
X132000000Y-116700000D02*
X132500000Y-117200000D01*
D11*
X129000000Y-102850000D02*
X130100000Y-102850000D01*
D10*
X132500000Y-112700000D02*
X135000000Y-112700000D01*
D11*
X130100000Y-105550000D02*
X129000000Y-105550000D01*
D10*
X141000000Y-114600000D02*
X141000000Y-115200000D01*
X141000000Y-110500000D02*
X141000000Y-111000000D01*
X136000000Y-115700000D02*
X136000000Y-116700000D01*
X128000000Y-116000000D02*
X127000000Y-116000000D01*
D11*
X130100000Y-102850000D02*
X130100000Y-105550000D01*
D10*
X136500000Y-111200000D02*
X136500000Y-110500000D01*
X127000000Y-103000000D02*
X127000000Y-102000000D01*
D11*
X129000000Y-105550000D02*
X129000000Y-102850000D01*
D10*
X135500000Y-117200000D02*
X136000000Y-116700000D01*
X127000000Y-116000000D02*
X127000000Y-115000000D01*
X132500000Y-117200000D02*
X135500000Y-117200000D01*
X127000000Y-102000000D02*
X128000000Y-102000000D01*
X141000000Y-102000000D02*
X141000000Y-103000000D01*
X135000000Y-112700000D02*
G75*
G03*
X136500000Y-111200000I-1J1500001D01*
G01*
X136500000Y-115200000D02*
G75*
G03*
X136000000Y-115700000I1J-500001D01*
G01*
D12*
X136800000Y-102910000D02*
X136200000Y-102910000D01*
X136200000Y-102910000D02*
X136200000Y-102310000D01*
X136200000Y-102310000D02*
X136800000Y-102910000D01*
G36*
X136800000Y-102910000D02*
G01*
X136200000Y-102910000D01*
X136200000Y-102310000D01*
X136800000Y-102910000D01*
G37*
X136800000Y-102910000D02*
X136200000Y-102910000D01*
X136200000Y-102310000D01*
X136800000Y-102910000D01*
D13*
X91120000Y-35620000D02*
X91120000Y-31380000D01*
X91120000Y-32100000D02*
X88880000Y-32100000D01*
X91120000Y-31980000D02*
X88880000Y-31980000D01*
X88880000Y-35620000D02*
X91120000Y-35620000D01*
X91120000Y-32220000D02*
X88880000Y-32220000D01*
X90000000Y-30730000D02*
X90000000Y-31380000D01*
X91120000Y-31380000D02*
X88880000Y-31380000D01*
X88880000Y-31380000D02*
X88880000Y-35620000D01*
X90000000Y-36270000D02*
X90000000Y-35620000D01*
X56120000Y-37620000D02*
X56120000Y-33380000D01*
X56120000Y-34100000D02*
X53880000Y-34100000D01*
X56120000Y-33980000D02*
X53880000Y-33980000D01*
X53880000Y-37620000D02*
X56120000Y-37620000D01*
X56120000Y-34220000D02*
X53880000Y-34220000D01*
X55000000Y-32730000D02*
X55000000Y-33380000D01*
X56120000Y-33380000D02*
X53880000Y-33380000D01*
X53880000Y-33380000D02*
X53880000Y-37620000D01*
X55000000Y-38270000D02*
X55000000Y-37620000D01*
X116120000Y-39620000D02*
X116120000Y-35380000D01*
X116120000Y-36100000D02*
X113880000Y-36100000D01*
X116120000Y-35980000D02*
X113880000Y-35980000D01*
X113880000Y-39620000D02*
X116120000Y-39620000D01*
X116120000Y-36220000D02*
X113880000Y-36220000D01*
X115000000Y-34730000D02*
X115000000Y-35380000D01*
X116120000Y-35380000D02*
X113880000Y-35380000D01*
X113880000Y-35380000D02*
X113880000Y-39620000D01*
X115000000Y-40270000D02*
X115000000Y-39620000D01*
X129120000Y-35620000D02*
X129120000Y-31380000D01*
X129120000Y-32100000D02*
X126880000Y-32100000D01*
X129120000Y-31980000D02*
X126880000Y-31980000D01*
X126880000Y-35620000D02*
X129120000Y-35620000D01*
X129120000Y-32220000D02*
X126880000Y-32220000D01*
X128000000Y-30730000D02*
X128000000Y-31380000D01*
X129120000Y-31380000D02*
X126880000Y-31380000D01*
X126880000Y-31380000D02*
X126880000Y-35620000D01*
X128000000Y-36270000D02*
X128000000Y-35620000D01*
D10*
X103000000Y-133000000D02*
X103000000Y-134000000D01*
X103000000Y-133200000D02*
X98500000Y-133200000D01*
X102000000Y-120000000D02*
X103000000Y-120000000D01*
X103000000Y-134000000D02*
X102000000Y-134000000D01*
X94000000Y-131200000D02*
X94500000Y-130700000D01*
X98500000Y-128500000D02*
X103000000Y-128500000D01*
X94000000Y-134700000D02*
X94500000Y-135200000D01*
D11*
X91000000Y-120850000D02*
X92100000Y-120850000D01*
D10*
X94500000Y-130700000D02*
X97000000Y-130700000D01*
D11*
X92100000Y-123550000D02*
X91000000Y-123550000D01*
D10*
X103000000Y-132600000D02*
X103000000Y-133200000D01*
X103000000Y-128500000D02*
X103000000Y-129000000D01*
X98000000Y-133700000D02*
X98000000Y-134700000D01*
X90000000Y-134000000D02*
X89000000Y-134000000D01*
D11*
X92100000Y-120850000D02*
X92100000Y-123550000D01*
D10*
X98500000Y-129200000D02*
X98500000Y-128500000D01*
X89000000Y-121000000D02*
X89000000Y-120000000D01*
D11*
X91000000Y-123550000D02*
X91000000Y-120850000D01*
D10*
X97500000Y-135200000D02*
X98000000Y-134700000D01*
X89000000Y-134000000D02*
X89000000Y-133000000D01*
X94500000Y-135200000D02*
X97500000Y-135200000D01*
X89000000Y-120000000D02*
X90000000Y-120000000D01*
X103000000Y-120000000D02*
X103000000Y-121000000D01*
X97000000Y-130700000D02*
G75*
G03*
X98500000Y-129200000I-1J1500001D01*
G01*
X98500000Y-133200000D02*
G75*
G03*
X98000000Y-133700000I1J-500001D01*
G01*
D12*
X98800000Y-120910000D02*
X98200000Y-120910000D01*
X98200000Y-120910000D02*
X98200000Y-120310000D01*
X98200000Y-120310000D02*
X98800000Y-120910000D01*
G36*
X98800000Y-120910000D02*
G01*
X98200000Y-120910000D01*
X98200000Y-120310000D01*
X98800000Y-120910000D01*
G37*
X98800000Y-120910000D02*
X98200000Y-120910000D01*
X98200000Y-120310000D01*
X98800000Y-120910000D01*
D10*
X129392388Y-135292893D02*
X130099495Y-136000000D01*
X129533810Y-135434315D02*
X126351829Y-138616295D01*
X119492893Y-126807612D02*
X120200000Y-126100505D01*
X130099495Y-136000000D02*
X129392388Y-136707107D01*
X121755635Y-140384062D02*
X121755635Y-139676955D01*
X123028427Y-135292893D02*
X126210408Y-132110913D01*
X124230509Y-142858936D02*
X124937615Y-142858936D01*
D11*
X112315759Y-135186827D02*
X113093577Y-134409010D01*
D10*
X121755635Y-139676955D02*
X123523402Y-137909188D01*
D11*
X115002765Y-136318198D02*
X114224948Y-137096016D01*
D10*
X129109545Y-135010051D02*
X129533810Y-135434315D01*
X126210408Y-132110913D02*
X126563961Y-132464466D01*
X126351829Y-139323402D02*
X127058936Y-140030509D01*
X120907107Y-145192388D02*
X120200000Y-145899495D01*
D11*
X113093577Y-134409010D02*
X115002765Y-136318198D01*
D10*
X123523402Y-135787868D02*
X123028427Y-135292893D01*
X111007612Y-136707107D02*
X110300505Y-136000000D01*
D11*
X114224948Y-137096016D02*
X112315759Y-135186827D01*
D10*
X127058936Y-140737615D02*
X127058936Y-140030509D01*
X120200000Y-145899495D02*
X119492893Y-145192388D01*
X124937615Y-142858936D02*
X127058936Y-140737615D01*
X110300505Y-136000000D02*
X111007612Y-135292893D01*
X120200000Y-126100505D02*
X120907107Y-126807612D01*
X123523402Y-137909188D02*
G75*
G03*
X123523402Y-135787868I-1060662J1060660D01*
G01*
X126351828Y-138616294D02*
G75*
G03*
X126351829Y-139323402I353556J-353554D01*
G01*
D12*
X117873619Y-129713821D02*
X117449355Y-130138085D01*
X117449355Y-130138085D02*
X117025091Y-129713821D01*
X117025091Y-129713821D02*
X117873619Y-129713821D01*
G36*
X117449355Y-130138085D02*
G01*
X117025091Y-129713821D01*
X117873619Y-129713821D01*
X117449355Y-130138085D01*
G37*
X117449355Y-130138085D02*
X117025091Y-129713821D01*
X117873619Y-129713821D01*
X117449355Y-130138085D01*
D13*
X53120000Y-35620000D02*
X53120000Y-31380000D01*
X53120000Y-32100000D02*
X50880000Y-32100000D01*
X53120000Y-31980000D02*
X50880000Y-31980000D01*
X50880000Y-35620000D02*
X53120000Y-35620000D01*
X53120000Y-32220000D02*
X50880000Y-32220000D01*
X52000000Y-30730000D02*
X52000000Y-31380000D01*
X53120000Y-31380000D02*
X50880000Y-31380000D01*
X50880000Y-31380000D02*
X50880000Y-35620000D01*
X52000000Y-36270000D02*
X52000000Y-35620000D01*
X84120000Y-43620000D02*
X84120000Y-39380000D01*
X84120000Y-40100000D02*
X81880000Y-40100000D01*
X84120000Y-39980000D02*
X81880000Y-39980000D01*
X81880000Y-43620000D02*
X84120000Y-43620000D01*
X84120000Y-40220000D02*
X81880000Y-40220000D01*
X83000000Y-38730000D02*
X83000000Y-39380000D01*
X84120000Y-39380000D02*
X81880000Y-39380000D01*
X81880000Y-39380000D02*
X81880000Y-43620000D01*
X83000000Y-44270000D02*
X83000000Y-43620000D01*
X122120000Y-43620000D02*
X122120000Y-39380000D01*
X122120000Y-40100000D02*
X119880000Y-40100000D01*
X122120000Y-39980000D02*
X119880000Y-39980000D01*
X119880000Y-43620000D02*
X122120000Y-43620000D01*
X122120000Y-40220000D02*
X119880000Y-40220000D01*
X121000000Y-38730000D02*
X121000000Y-39380000D01*
X122120000Y-39380000D02*
X119880000Y-39380000D01*
X119880000Y-39380000D02*
X119880000Y-43620000D01*
X121000000Y-44270000D02*
X121000000Y-43620000D01*
X59120000Y-39620000D02*
X59120000Y-35380000D01*
X59120000Y-36100000D02*
X56880000Y-36100000D01*
X59120000Y-35980000D02*
X56880000Y-35980000D01*
X56880000Y-39620000D02*
X59120000Y-39620000D01*
X59120000Y-36220000D02*
X56880000Y-36220000D01*
X58000000Y-34730000D02*
X58000000Y-35380000D01*
X59120000Y-35380000D02*
X56880000Y-35380000D01*
X56880000Y-35380000D02*
X56880000Y-39620000D01*
X58000000Y-40270000D02*
X58000000Y-39620000D01*
D10*
X84000000Y-115000000D02*
X84000000Y-116000000D01*
X84000000Y-115200000D02*
X79500000Y-115200000D01*
X83000000Y-102000000D02*
X84000000Y-102000000D01*
X84000000Y-116000000D02*
X83000000Y-116000000D01*
X75000000Y-113200000D02*
X75500000Y-112700000D01*
X79500000Y-110500000D02*
X84000000Y-110500000D01*
X75000000Y-116700000D02*
X75500000Y-117200000D01*
D11*
X72000000Y-102850000D02*
X73100000Y-102850000D01*
D10*
X75500000Y-112700000D02*
X78000000Y-112700000D01*
D11*
X73100000Y-105550000D02*
X72000000Y-105550000D01*
D10*
X84000000Y-114600000D02*
X84000000Y-115200000D01*
X84000000Y-110500000D02*
X84000000Y-111000000D01*
X79000000Y-115700000D02*
X79000000Y-116700000D01*
X71000000Y-116000000D02*
X70000000Y-116000000D01*
D11*
X73100000Y-102850000D02*
X73100000Y-105550000D01*
D10*
X79500000Y-111200000D02*
X79500000Y-110500000D01*
X70000000Y-103000000D02*
X70000000Y-102000000D01*
D11*
X72000000Y-105550000D02*
X72000000Y-102850000D01*
D10*
X78500000Y-117200000D02*
X79000000Y-116700000D01*
X70000000Y-116000000D02*
X70000000Y-115000000D01*
X75500000Y-117200000D02*
X78500000Y-117200000D01*
X70000000Y-102000000D02*
X71000000Y-102000000D01*
X84000000Y-102000000D02*
X84000000Y-103000000D01*
X78000000Y-112700000D02*
G75*
G03*
X79500000Y-111200000I-1J1500001D01*
G01*
X79500000Y-115200000D02*
G75*
G03*
X79000000Y-115700000I1J-500001D01*
G01*
D12*
X79800000Y-102910000D02*
X79200000Y-102910000D01*
X79200000Y-102910000D02*
X79200000Y-102310000D01*
X79200000Y-102310000D02*
X79800000Y-102910000D01*
G36*
X79800000Y-102910000D02*
G01*
X79200000Y-102910000D01*
X79200000Y-102310000D01*
X79800000Y-102910000D01*
G37*
X79800000Y-102910000D02*
X79200000Y-102910000D01*
X79200000Y-102310000D01*
X79800000Y-102910000D01*
D13*
X43120000Y-41620000D02*
X43120000Y-37380000D01*
X43120000Y-38100000D02*
X40880000Y-38100000D01*
X43120000Y-37980000D02*
X40880000Y-37980000D01*
X40880000Y-41620000D02*
X43120000Y-41620000D01*
X43120000Y-38220000D02*
X40880000Y-38220000D01*
X42000000Y-36730000D02*
X42000000Y-37380000D01*
X43120000Y-37380000D02*
X40880000Y-37380000D01*
X40880000Y-37380000D02*
X40880000Y-41620000D01*
X42000000Y-42270000D02*
X42000000Y-41620000D01*
D10*
X141000000Y-79000000D02*
X141000000Y-80000000D01*
X141000000Y-79200000D02*
X136500000Y-79200000D01*
X140000000Y-66000000D02*
X141000000Y-66000000D01*
X141000000Y-80000000D02*
X140000000Y-80000000D01*
X132000000Y-77200000D02*
X132500000Y-76700000D01*
X136500000Y-74500000D02*
X141000000Y-74500000D01*
X132000000Y-80700000D02*
X132500000Y-81200000D01*
D11*
X129000000Y-66850000D02*
X130100000Y-66850000D01*
D10*
X132500000Y-76700000D02*
X135000000Y-76700000D01*
D11*
X130100000Y-69550000D02*
X129000000Y-69550000D01*
D10*
X141000000Y-78600000D02*
X141000000Y-79200000D01*
X141000000Y-74500000D02*
X141000000Y-75000000D01*
X136000000Y-79700000D02*
X136000000Y-80700000D01*
X128000000Y-80000000D02*
X127000000Y-80000000D01*
D11*
X130100000Y-66850000D02*
X130100000Y-69550000D01*
D10*
X136500000Y-75200000D02*
X136500000Y-74500000D01*
X127000000Y-67000000D02*
X127000000Y-66000000D01*
D11*
X129000000Y-69550000D02*
X129000000Y-66850000D01*
D10*
X135500000Y-81200000D02*
X136000000Y-80700000D01*
X127000000Y-80000000D02*
X127000000Y-79000000D01*
X132500000Y-81200000D02*
X135500000Y-81200000D01*
X127000000Y-66000000D02*
X128000000Y-66000000D01*
X141000000Y-66000000D02*
X141000000Y-67000000D01*
X135000000Y-76700000D02*
G75*
G03*
X136500000Y-75200000I-1J1500001D01*
G01*
X136500000Y-79200000D02*
G75*
G03*
X136000000Y-79700000I1J-500001D01*
G01*
D12*
X136800000Y-66910000D02*
X136200000Y-66910000D01*
X136200000Y-66910000D02*
X136200000Y-66310000D01*
X136200000Y-66310000D02*
X136800000Y-66910000D01*
G36*
X136800000Y-66910000D02*
G01*
X136200000Y-66910000D01*
X136200000Y-66310000D01*
X136800000Y-66910000D01*
G37*
X136800000Y-66910000D02*
X136200000Y-66910000D01*
X136200000Y-66310000D01*
X136800000Y-66910000D01*
D10*
X103000000Y-115000000D02*
X103000000Y-116000000D01*
X103000000Y-115200000D02*
X98500000Y-115200000D01*
X102000000Y-102000000D02*
X103000000Y-102000000D01*
X103000000Y-116000000D02*
X102000000Y-116000000D01*
X94000000Y-113200000D02*
X94500000Y-112700000D01*
X98500000Y-110500000D02*
X103000000Y-110500000D01*
X94000000Y-116700000D02*
X94500000Y-117200000D01*
D11*
X91000000Y-102850000D02*
X92100000Y-102850000D01*
D10*
X94500000Y-112700000D02*
X97000000Y-112700000D01*
D11*
X92100000Y-105550000D02*
X91000000Y-105550000D01*
D10*
X103000000Y-114600000D02*
X103000000Y-115200000D01*
X103000000Y-110500000D02*
X103000000Y-111000000D01*
X98000000Y-115700000D02*
X98000000Y-116700000D01*
X90000000Y-116000000D02*
X89000000Y-116000000D01*
D11*
X92100000Y-102850000D02*
X92100000Y-105550000D01*
D10*
X98500000Y-111200000D02*
X98500000Y-110500000D01*
X89000000Y-103000000D02*
X89000000Y-102000000D01*
D11*
X91000000Y-105550000D02*
X91000000Y-102850000D01*
D10*
X97500000Y-117200000D02*
X98000000Y-116700000D01*
X89000000Y-116000000D02*
X89000000Y-115000000D01*
X94500000Y-117200000D02*
X97500000Y-117200000D01*
X89000000Y-102000000D02*
X90000000Y-102000000D01*
X103000000Y-102000000D02*
X103000000Y-103000000D01*
X97000000Y-112700000D02*
G75*
G03*
X98500000Y-111200000I-1J1500001D01*
G01*
X98500000Y-115200000D02*
G75*
G03*
X98000000Y-115700000I1J-500001D01*
G01*
D12*
X98800000Y-102910000D02*
X98200000Y-102910000D01*
X98200000Y-102910000D02*
X98200000Y-102310000D01*
X98200000Y-102310000D02*
X98800000Y-102910000D01*
G36*
X98800000Y-102910000D02*
G01*
X98200000Y-102910000D01*
X98200000Y-102310000D01*
X98800000Y-102910000D01*
G37*
X98800000Y-102910000D02*
X98200000Y-102910000D01*
X98200000Y-102310000D01*
X98800000Y-102910000D01*
D10*
X84000000Y-61000000D02*
X84000000Y-62000000D01*
X84000000Y-61200000D02*
X79500000Y-61200000D01*
X83000000Y-48000000D02*
X84000000Y-48000000D01*
X84000000Y-62000000D02*
X83000000Y-62000000D01*
X75000000Y-59200000D02*
X75500000Y-58700000D01*
X79500000Y-56500000D02*
X84000000Y-56500000D01*
X75000000Y-62700000D02*
X75500000Y-63200000D01*
D11*
X72000000Y-48850000D02*
X73100000Y-48850000D01*
D10*
X75500000Y-58700000D02*
X78000000Y-58700000D01*
D11*
X73100000Y-51550000D02*
X72000000Y-51550000D01*
D10*
X84000000Y-60600000D02*
X84000000Y-61200000D01*
X84000000Y-56500000D02*
X84000000Y-57000000D01*
X79000000Y-61700000D02*
X79000000Y-62700000D01*
X71000000Y-62000000D02*
X70000000Y-62000000D01*
D11*
X73100000Y-48850000D02*
X73100000Y-51550000D01*
D10*
X79500000Y-57200000D02*
X79500000Y-56500000D01*
X70000000Y-49000000D02*
X70000000Y-48000000D01*
D11*
X72000000Y-51550000D02*
X72000000Y-48850000D01*
D10*
X78500000Y-63200000D02*
X79000000Y-62700000D01*
X70000000Y-62000000D02*
X70000000Y-61000000D01*
X75500000Y-63200000D02*
X78500000Y-63200000D01*
X70000000Y-48000000D02*
X71000000Y-48000000D01*
X84000000Y-48000000D02*
X84000000Y-49000000D01*
X78000000Y-58700000D02*
G75*
G03*
X79500000Y-57200000I-1J1500001D01*
G01*
X79500000Y-61200000D02*
G75*
G03*
X79000000Y-61700000I1J-500001D01*
G01*
D12*
X79800000Y-48910000D02*
X79200000Y-48910000D01*
X79200000Y-48910000D02*
X79200000Y-48310000D01*
X79200000Y-48310000D02*
X79800000Y-48910000D01*
G36*
X79800000Y-48910000D02*
G01*
X79200000Y-48910000D01*
X79200000Y-48310000D01*
X79800000Y-48910000D01*
G37*
X79800000Y-48910000D02*
X79200000Y-48910000D01*
X79200000Y-48310000D01*
X79800000Y-48910000D01*
D13*
X119120000Y-41620000D02*
X119120000Y-37380000D01*
X119120000Y-38100000D02*
X116880000Y-38100000D01*
X119120000Y-37980000D02*
X116880000Y-37980000D01*
X116880000Y-41620000D02*
X119120000Y-41620000D01*
X119120000Y-38220000D02*
X116880000Y-38220000D01*
X118000000Y-36730000D02*
X118000000Y-37380000D01*
X119120000Y-37380000D02*
X116880000Y-37380000D01*
X116880000Y-37380000D02*
X116880000Y-41620000D01*
X118000000Y-42270000D02*
X118000000Y-41620000D01*
D10*
X140392388Y-152292893D02*
X141099495Y-153000000D01*
X140533810Y-152434315D02*
X137351829Y-155616295D01*
X130492893Y-143807612D02*
X131200000Y-143100505D01*
X141099495Y-153000000D02*
X140392388Y-153707107D01*
X132755635Y-157384062D02*
X132755635Y-156676955D01*
X134028427Y-152292893D02*
X137210408Y-149110913D01*
X135230509Y-159858936D02*
X135937615Y-159858936D01*
D11*
X123315759Y-152186827D02*
X124093577Y-151409010D01*
D10*
X132755635Y-156676955D02*
X134523402Y-154909188D01*
D11*
X126002765Y-153318198D02*
X125224948Y-154096016D01*
D10*
X140109545Y-152010051D02*
X140533810Y-152434315D01*
X137210408Y-149110913D02*
X137563961Y-149464466D01*
X137351829Y-156323402D02*
X138058936Y-157030509D01*
X131907107Y-162192388D02*
X131200000Y-162899495D01*
D11*
X124093577Y-151409010D02*
X126002765Y-153318198D01*
D10*
X134523402Y-152787868D02*
X134028427Y-152292893D01*
X122007612Y-153707107D02*
X121300505Y-153000000D01*
D11*
X125224948Y-154096016D02*
X123315759Y-152186827D01*
D10*
X138058936Y-157737615D02*
X138058936Y-157030509D01*
X131200000Y-162899495D02*
X130492893Y-162192388D01*
X135937615Y-159858936D02*
X138058936Y-157737615D01*
X121300505Y-153000000D02*
X122007612Y-152292893D01*
X131200000Y-143100505D02*
X131907107Y-143807612D01*
X134523402Y-154909188D02*
G75*
G03*
X134523402Y-152787868I-1060662J1060660D01*
G01*
X137351828Y-155616294D02*
G75*
G03*
X137351829Y-156323402I353556J-353554D01*
G01*
D12*
X128873619Y-146713821D02*
X128449355Y-147138085D01*
X128449355Y-147138085D02*
X128025091Y-146713821D01*
X128025091Y-146713821D02*
X128873619Y-146713821D01*
G36*
X128449355Y-147138085D02*
G01*
X128025091Y-146713821D01*
X128873619Y-146713821D01*
X128449355Y-147138085D01*
G37*
X128449355Y-147138085D02*
X128025091Y-146713821D01*
X128873619Y-146713821D01*
X128449355Y-147138085D01*
D10*
X65000000Y-115000000D02*
X65000000Y-116000000D01*
X65000000Y-115200000D02*
X60500000Y-115200000D01*
X64000000Y-102000000D02*
X65000000Y-102000000D01*
X65000000Y-116000000D02*
X64000000Y-116000000D01*
X56000000Y-113200000D02*
X56500000Y-112700000D01*
X60500000Y-110500000D02*
X65000000Y-110500000D01*
X56000000Y-116700000D02*
X56500000Y-117200000D01*
D11*
X53000000Y-102850000D02*
X54100000Y-102850000D01*
D10*
X56500000Y-112700000D02*
X59000000Y-112700000D01*
D11*
X54100000Y-105550000D02*
X53000000Y-105550000D01*
D10*
X65000000Y-114600000D02*
X65000000Y-115200000D01*
X65000000Y-110500000D02*
X65000000Y-111000000D01*
X60000000Y-115700000D02*
X60000000Y-116700000D01*
X52000000Y-116000000D02*
X51000000Y-116000000D01*
D11*
X54100000Y-102850000D02*
X54100000Y-105550000D01*
D10*
X60500000Y-111200000D02*
X60500000Y-110500000D01*
X51000000Y-103000000D02*
X51000000Y-102000000D01*
D11*
X53000000Y-105550000D02*
X53000000Y-102850000D01*
D10*
X59500000Y-117200000D02*
X60000000Y-116700000D01*
X51000000Y-116000000D02*
X51000000Y-115000000D01*
X56500000Y-117200000D02*
X59500000Y-117200000D01*
X51000000Y-102000000D02*
X52000000Y-102000000D01*
X65000000Y-102000000D02*
X65000000Y-103000000D01*
X59000000Y-112700000D02*
G75*
G03*
X60500000Y-111200000I-1J1500001D01*
G01*
X60500000Y-115200000D02*
G75*
G03*
X60000000Y-115700000I1J-500001D01*
G01*
D12*
X60800000Y-102910000D02*
X60200000Y-102910000D01*
X60200000Y-102910000D02*
X60200000Y-102310000D01*
X60200000Y-102310000D02*
X60800000Y-102910000D01*
G36*
X60800000Y-102910000D02*
G01*
X60200000Y-102910000D01*
X60200000Y-102310000D01*
X60800000Y-102910000D01*
G37*
X60800000Y-102910000D02*
X60200000Y-102910000D01*
X60200000Y-102310000D01*
X60800000Y-102910000D01*
D10*
X141000000Y-97000000D02*
X141000000Y-98000000D01*
X141000000Y-97200000D02*
X136500000Y-97200000D01*
X140000000Y-84000000D02*
X141000000Y-84000000D01*
X141000000Y-98000000D02*
X140000000Y-98000000D01*
X132000000Y-95200000D02*
X132500000Y-94700000D01*
X136500000Y-92500000D02*
X141000000Y-92500000D01*
X132000000Y-98700000D02*
X132500000Y-99200000D01*
D11*
X129000000Y-84850000D02*
X130100000Y-84850000D01*
D10*
X132500000Y-94700000D02*
X135000000Y-94700000D01*
D11*
X130100000Y-87550000D02*
X129000000Y-87550000D01*
D10*
X141000000Y-96600000D02*
X141000000Y-97200000D01*
X141000000Y-92500000D02*
X141000000Y-93000000D01*
X136000000Y-97700000D02*
X136000000Y-98700000D01*
X128000000Y-98000000D02*
X127000000Y-98000000D01*
D11*
X130100000Y-84850000D02*
X130100000Y-87550000D01*
D10*
X136500000Y-93200000D02*
X136500000Y-92500000D01*
X127000000Y-85000000D02*
X127000000Y-84000000D01*
D11*
X129000000Y-87550000D02*
X129000000Y-84850000D01*
D10*
X135500000Y-99200000D02*
X136000000Y-98700000D01*
X127000000Y-98000000D02*
X127000000Y-97000000D01*
X132500000Y-99200000D02*
X135500000Y-99200000D01*
X127000000Y-84000000D02*
X128000000Y-84000000D01*
X141000000Y-84000000D02*
X141000000Y-85000000D01*
X135000000Y-94700000D02*
G75*
G03*
X136500000Y-93200000I-1J1500001D01*
G01*
X136500000Y-97200000D02*
G75*
G03*
X136000000Y-97700000I1J-500001D01*
G01*
D12*
X136800000Y-84910000D02*
X136200000Y-84910000D01*
X136200000Y-84910000D02*
X136200000Y-84310000D01*
X136200000Y-84310000D02*
X136800000Y-84910000D01*
G36*
X136800000Y-84910000D02*
G01*
X136200000Y-84910000D01*
X136200000Y-84310000D01*
X136800000Y-84910000D01*
G37*
X136800000Y-84910000D02*
X136200000Y-84910000D01*
X136200000Y-84310000D01*
X136800000Y-84910000D01*
D10*
X122000000Y-97000000D02*
X122000000Y-98000000D01*
X122000000Y-97200000D02*
X117500000Y-97200000D01*
X121000000Y-84000000D02*
X122000000Y-84000000D01*
X122000000Y-98000000D02*
X121000000Y-98000000D01*
X113000000Y-95200000D02*
X113500000Y-94700000D01*
X117500000Y-92500000D02*
X122000000Y-92500000D01*
X113000000Y-98700000D02*
X113500000Y-99200000D01*
D11*
X110000000Y-84850000D02*
X111100000Y-84850000D01*
D10*
X113500000Y-94700000D02*
X116000000Y-94700000D01*
D11*
X111100000Y-87550000D02*
X110000000Y-87550000D01*
D10*
X122000000Y-96600000D02*
X122000000Y-97200000D01*
X122000000Y-92500000D02*
X122000000Y-93000000D01*
X117000000Y-97700000D02*
X117000000Y-98700000D01*
X109000000Y-98000000D02*
X108000000Y-98000000D01*
D11*
X111100000Y-84850000D02*
X111100000Y-87550000D01*
D10*
X117500000Y-93200000D02*
X117500000Y-92500000D01*
X108000000Y-85000000D02*
X108000000Y-84000000D01*
D11*
X110000000Y-87550000D02*
X110000000Y-84850000D01*
D10*
X116500000Y-99200000D02*
X117000000Y-98700000D01*
X108000000Y-98000000D02*
X108000000Y-97000000D01*
X113500000Y-99200000D02*
X116500000Y-99200000D01*
X108000000Y-84000000D02*
X109000000Y-84000000D01*
X122000000Y-84000000D02*
X122000000Y-85000000D01*
X116000000Y-94700000D02*
G75*
G03*
X117500000Y-93200000I-1J1500001D01*
G01*
X117500000Y-97200000D02*
G75*
G03*
X117000000Y-97700000I1J-500001D01*
G01*
D12*
X117800000Y-84910000D02*
X117200000Y-84910000D01*
X117200000Y-84910000D02*
X117200000Y-84310000D01*
X117200000Y-84310000D02*
X117800000Y-84910000D01*
G36*
X117800000Y-84910000D02*
G01*
X117200000Y-84910000D01*
X117200000Y-84310000D01*
X117800000Y-84910000D01*
G37*
X117800000Y-84910000D02*
X117200000Y-84910000D01*
X117200000Y-84310000D01*
X117800000Y-84910000D01*
D13*
X100120000Y-41620000D02*
X100120000Y-37380000D01*
X100120000Y-38100000D02*
X97880000Y-38100000D01*
X100120000Y-37980000D02*
X97880000Y-37980000D01*
X97880000Y-41620000D02*
X100120000Y-41620000D01*
X100120000Y-38220000D02*
X97880000Y-38220000D01*
X99000000Y-36730000D02*
X99000000Y-37380000D01*
X100120000Y-37380000D02*
X97880000Y-37380000D01*
X97880000Y-37380000D02*
X97880000Y-41620000D01*
X99000000Y-42270000D02*
X99000000Y-41620000D01*
X152000000Y-32000000D02*
X170000000Y-32000000D01*
X170000000Y-32000000D02*
X170000000Y-55500000D01*
X170000000Y-55500000D02*
X152000000Y-55500000D01*
X152000000Y-55500000D02*
X152000000Y-32000000D01*
X97120000Y-39620000D02*
X97120000Y-35380000D01*
X97120000Y-36100000D02*
X94880000Y-36100000D01*
X97120000Y-35980000D02*
X94880000Y-35980000D01*
X94880000Y-39620000D02*
X97120000Y-39620000D01*
X97120000Y-36220000D02*
X94880000Y-36220000D01*
X96000000Y-34730000D02*
X96000000Y-35380000D01*
X97120000Y-35380000D02*
X94880000Y-35380000D01*
X94880000Y-35380000D02*
X94880000Y-39620000D01*
X96000000Y-40270000D02*
X96000000Y-39620000D01*
D10*
X84000000Y-79000000D02*
X84000000Y-80000000D01*
X84000000Y-79200000D02*
X79500000Y-79200000D01*
X83000000Y-66000000D02*
X84000000Y-66000000D01*
X84000000Y-80000000D02*
X83000000Y-80000000D01*
X75000000Y-77200000D02*
X75500000Y-76700000D01*
X79500000Y-74500000D02*
X84000000Y-74500000D01*
X75000000Y-80700000D02*
X75500000Y-81200000D01*
D11*
X72000000Y-66850000D02*
X73100000Y-66850000D01*
D10*
X75500000Y-76700000D02*
X78000000Y-76700000D01*
D11*
X73100000Y-69550000D02*
X72000000Y-69550000D01*
D10*
X84000000Y-78600000D02*
X84000000Y-79200000D01*
X84000000Y-74500000D02*
X84000000Y-75000000D01*
X79000000Y-79700000D02*
X79000000Y-80700000D01*
X71000000Y-80000000D02*
X70000000Y-80000000D01*
D11*
X73100000Y-66850000D02*
X73100000Y-69550000D01*
D10*
X79500000Y-75200000D02*
X79500000Y-74500000D01*
X70000000Y-67000000D02*
X70000000Y-66000000D01*
D11*
X72000000Y-69550000D02*
X72000000Y-66850000D01*
D10*
X78500000Y-81200000D02*
X79000000Y-80700000D01*
X70000000Y-80000000D02*
X70000000Y-79000000D01*
X75500000Y-81200000D02*
X78500000Y-81200000D01*
X70000000Y-66000000D02*
X71000000Y-66000000D01*
X84000000Y-66000000D02*
X84000000Y-67000000D01*
X78000000Y-76700000D02*
G75*
G03*
X79500000Y-75200000I-1J1500001D01*
G01*
X79500000Y-79200000D02*
G75*
G03*
X79000000Y-79700000I1J-500001D01*
G01*
D12*
X79800000Y-66910000D02*
X79200000Y-66910000D01*
X79200000Y-66910000D02*
X79200000Y-66310000D01*
X79200000Y-66310000D02*
X79800000Y-66910000D01*
G36*
X79800000Y-66910000D02*
G01*
X79200000Y-66910000D01*
X79200000Y-66310000D01*
X79800000Y-66910000D01*
G37*
X79800000Y-66910000D02*
X79200000Y-66910000D01*
X79200000Y-66310000D01*
X79800000Y-66910000D01*
D10*
X46000000Y-79000000D02*
X46000000Y-80000000D01*
X46000000Y-79200000D02*
X41500000Y-79200000D01*
X45000000Y-66000000D02*
X46000000Y-66000000D01*
X46000000Y-80000000D02*
X45000000Y-80000000D01*
X37000000Y-77200000D02*
X37500000Y-76700000D01*
X41500000Y-74500000D02*
X46000000Y-74500000D01*
X37000000Y-80700000D02*
X37500000Y-81200000D01*
D11*
X34000000Y-66850000D02*
X35100000Y-66850000D01*
D10*
X37500000Y-76700000D02*
X40000000Y-76700000D01*
D11*
X35100000Y-69550000D02*
X34000000Y-69550000D01*
D10*
X46000000Y-78600000D02*
X46000000Y-79200000D01*
X46000000Y-74500000D02*
X46000000Y-75000000D01*
X41000000Y-79700000D02*
X41000000Y-80700000D01*
X33000000Y-80000000D02*
X32000000Y-80000000D01*
D11*
X35100000Y-66850000D02*
X35100000Y-69550000D01*
D10*
X41500000Y-75200000D02*
X41500000Y-74500000D01*
X32000000Y-67000000D02*
X32000000Y-66000000D01*
D11*
X34000000Y-69550000D02*
X34000000Y-66850000D01*
D10*
X40500000Y-81200000D02*
X41000000Y-80700000D01*
X32000000Y-80000000D02*
X32000000Y-79000000D01*
X37500000Y-81200000D02*
X40500000Y-81200000D01*
X32000000Y-66000000D02*
X33000000Y-66000000D01*
X46000000Y-66000000D02*
X46000000Y-67000000D01*
X40000000Y-76700000D02*
G75*
G03*
X41500000Y-75200000I-1J1500001D01*
G01*
X41500000Y-79200000D02*
G75*
G03*
X41000000Y-79700000I1J-500001D01*
G01*
D12*
X41800000Y-66910000D02*
X41200000Y-66910000D01*
X41200000Y-66910000D02*
X41200000Y-66310000D01*
X41200000Y-66310000D02*
X41800000Y-66910000D01*
G36*
X41800000Y-66910000D02*
G01*
X41200000Y-66910000D01*
X41200000Y-66310000D01*
X41800000Y-66910000D01*
G37*
X41800000Y-66910000D02*
X41200000Y-66910000D01*
X41200000Y-66310000D01*
X41800000Y-66910000D01*
D10*
X65000000Y-61000000D02*
X65000000Y-62000000D01*
X65000000Y-61200000D02*
X60500000Y-61200000D01*
X64000000Y-48000000D02*
X65000000Y-48000000D01*
X65000000Y-62000000D02*
X64000000Y-62000000D01*
X56000000Y-59200000D02*
X56500000Y-58700000D01*
X60500000Y-56500000D02*
X65000000Y-56500000D01*
X56000000Y-62700000D02*
X56500000Y-63200000D01*
D11*
X53000000Y-48850000D02*
X54100000Y-48850000D01*
D10*
X56500000Y-58700000D02*
X59000000Y-58700000D01*
D11*
X54100000Y-51550000D02*
X53000000Y-51550000D01*
D10*
X65000000Y-60600000D02*
X65000000Y-61200000D01*
X65000000Y-56500000D02*
X65000000Y-57000000D01*
X60000000Y-61700000D02*
X60000000Y-62700000D01*
X52000000Y-62000000D02*
X51000000Y-62000000D01*
D11*
X54100000Y-48850000D02*
X54100000Y-51550000D01*
D10*
X60500000Y-57200000D02*
X60500000Y-56500000D01*
X51000000Y-49000000D02*
X51000000Y-48000000D01*
D11*
X53000000Y-51550000D02*
X53000000Y-48850000D01*
D10*
X59500000Y-63200000D02*
X60000000Y-62700000D01*
X51000000Y-62000000D02*
X51000000Y-61000000D01*
X56500000Y-63200000D02*
X59500000Y-63200000D01*
X51000000Y-48000000D02*
X52000000Y-48000000D01*
X65000000Y-48000000D02*
X65000000Y-49000000D01*
X59000000Y-58700000D02*
G75*
G03*
X60500000Y-57200000I-1J1500001D01*
G01*
X60500000Y-61200000D02*
G75*
G03*
X60000000Y-61700000I1J-500001D01*
G01*
D12*
X60800000Y-48910000D02*
X60200000Y-48910000D01*
X60200000Y-48910000D02*
X60200000Y-48310000D01*
X60200000Y-48310000D02*
X60800000Y-48910000D01*
G36*
X60800000Y-48910000D02*
G01*
X60200000Y-48910000D01*
X60200000Y-48310000D01*
X60800000Y-48910000D01*
G37*
X60800000Y-48910000D02*
X60200000Y-48910000D01*
X60200000Y-48310000D01*
X60800000Y-48910000D01*
D13*
X46120000Y-43620000D02*
X46120000Y-39380000D01*
X46120000Y-40100000D02*
X43880000Y-40100000D01*
X46120000Y-39980000D02*
X43880000Y-39980000D01*
X43880000Y-43620000D02*
X46120000Y-43620000D01*
X46120000Y-40220000D02*
X43880000Y-40220000D01*
X45000000Y-38730000D02*
X45000000Y-39380000D01*
X46120000Y-39380000D02*
X43880000Y-39380000D01*
X43880000Y-39380000D02*
X43880000Y-43620000D01*
X45000000Y-44270000D02*
X45000000Y-43620000D01*
X78120000Y-39620000D02*
X78120000Y-35380000D01*
X78120000Y-36100000D02*
X75880000Y-36100000D01*
X78120000Y-35980000D02*
X75880000Y-35980000D01*
X75880000Y-39620000D02*
X78120000Y-39620000D01*
X78120000Y-36220000D02*
X75880000Y-36220000D01*
X77000000Y-34730000D02*
X77000000Y-35380000D01*
X78120000Y-35380000D02*
X75880000Y-35380000D01*
X75880000Y-35380000D02*
X75880000Y-39620000D01*
X77000000Y-40270000D02*
X77000000Y-39620000D01*
D10*
X122000000Y-61000000D02*
X122000000Y-62000000D01*
X122000000Y-61200000D02*
X117500000Y-61200000D01*
X121000000Y-48000000D02*
X122000000Y-48000000D01*
X122000000Y-62000000D02*
X121000000Y-62000000D01*
X113000000Y-59200000D02*
X113500000Y-58700000D01*
X117500000Y-56500000D02*
X122000000Y-56500000D01*
X113000000Y-62700000D02*
X113500000Y-63200000D01*
D11*
X110000000Y-48850000D02*
X111100000Y-48850000D01*
D10*
X113500000Y-58700000D02*
X116000000Y-58700000D01*
D11*
X111100000Y-51550000D02*
X110000000Y-51550000D01*
D10*
X122000000Y-60600000D02*
X122000000Y-61200000D01*
X122000000Y-56500000D02*
X122000000Y-57000000D01*
X117000000Y-61700000D02*
X117000000Y-62700000D01*
X109000000Y-62000000D02*
X108000000Y-62000000D01*
D11*
X111100000Y-48850000D02*
X111100000Y-51550000D01*
D10*
X117500000Y-57200000D02*
X117500000Y-56500000D01*
X108000000Y-49000000D02*
X108000000Y-48000000D01*
D11*
X110000000Y-51550000D02*
X110000000Y-48850000D01*
D10*
X116500000Y-63200000D02*
X117000000Y-62700000D01*
X108000000Y-62000000D02*
X108000000Y-61000000D01*
X113500000Y-63200000D02*
X116500000Y-63200000D01*
X108000000Y-48000000D02*
X109000000Y-48000000D01*
X122000000Y-48000000D02*
X122000000Y-49000000D01*
X116000000Y-58700000D02*
G75*
G03*
X117500000Y-57200000I-1J1500001D01*
G01*
X117500000Y-61200000D02*
G75*
G03*
X117000000Y-61700000I1J-500001D01*
G01*
D12*
X117800000Y-48910000D02*
X117200000Y-48910000D01*
X117200000Y-48910000D02*
X117200000Y-48310000D01*
X117200000Y-48310000D02*
X117800000Y-48910000D01*
G36*
X117800000Y-48910000D02*
G01*
X117200000Y-48910000D01*
X117200000Y-48310000D01*
X117800000Y-48910000D01*
G37*
X117800000Y-48910000D02*
X117200000Y-48910000D01*
X117200000Y-48310000D01*
X117800000Y-48910000D01*
D13*
X75120000Y-37620000D02*
X75120000Y-33380000D01*
X75120000Y-34100000D02*
X72880000Y-34100000D01*
X75120000Y-33980000D02*
X72880000Y-33980000D01*
X72880000Y-37620000D02*
X75120000Y-37620000D01*
X75120000Y-34220000D02*
X72880000Y-34220000D01*
X74000000Y-32730000D02*
X74000000Y-33380000D01*
X75120000Y-33380000D02*
X72880000Y-33380000D01*
X72880000Y-33380000D02*
X72880000Y-37620000D01*
X74000000Y-38270000D02*
X74000000Y-37620000D01*
D10*
X46000000Y-115000000D02*
X46000000Y-116000000D01*
X46000000Y-115200000D02*
X41500000Y-115200000D01*
X45000000Y-102000000D02*
X46000000Y-102000000D01*
X46000000Y-116000000D02*
X45000000Y-116000000D01*
X37000000Y-113200000D02*
X37500000Y-112700000D01*
X41500000Y-110500000D02*
X46000000Y-110500000D01*
X37000000Y-116700000D02*
X37500000Y-117200000D01*
D11*
X34000000Y-102850000D02*
X35100000Y-102850000D01*
D10*
X37500000Y-112700000D02*
X40000000Y-112700000D01*
D11*
X35100000Y-105550000D02*
X34000000Y-105550000D01*
D10*
X46000000Y-114600000D02*
X46000000Y-115200000D01*
X46000000Y-110500000D02*
X46000000Y-111000000D01*
X41000000Y-115700000D02*
X41000000Y-116700000D01*
X33000000Y-116000000D02*
X32000000Y-116000000D01*
D11*
X35100000Y-102850000D02*
X35100000Y-105550000D01*
D10*
X41500000Y-111200000D02*
X41500000Y-110500000D01*
X32000000Y-103000000D02*
X32000000Y-102000000D01*
D11*
X34000000Y-105550000D02*
X34000000Y-102850000D01*
D10*
X40500000Y-117200000D02*
X41000000Y-116700000D01*
X32000000Y-116000000D02*
X32000000Y-115000000D01*
X37500000Y-117200000D02*
X40500000Y-117200000D01*
X32000000Y-102000000D02*
X33000000Y-102000000D01*
X46000000Y-102000000D02*
X46000000Y-103000000D01*
X40000000Y-112700000D02*
G75*
G03*
X41500000Y-111200000I-1J1500001D01*
G01*
X41500000Y-115200000D02*
G75*
G03*
X41000000Y-115700000I1J-500001D01*
G01*
D12*
X41800000Y-102910000D02*
X41200000Y-102910000D01*
X41200000Y-102910000D02*
X41200000Y-102310000D01*
X41200000Y-102310000D02*
X41800000Y-102910000D01*
G36*
X41800000Y-102910000D02*
G01*
X41200000Y-102910000D01*
X41200000Y-102310000D01*
X41800000Y-102910000D01*
G37*
X41800000Y-102910000D02*
X41200000Y-102910000D01*
X41200000Y-102310000D01*
X41800000Y-102910000D01*
D13*
X94120000Y-37620000D02*
X94120000Y-33380000D01*
X94120000Y-34100000D02*
X91880000Y-34100000D01*
X94120000Y-33980000D02*
X91880000Y-33980000D01*
X91880000Y-37620000D02*
X94120000Y-37620000D01*
X94120000Y-34220000D02*
X91880000Y-34220000D01*
X93000000Y-32730000D02*
X93000000Y-33380000D01*
X94120000Y-33380000D02*
X91880000Y-33380000D01*
X91880000Y-33380000D02*
X91880000Y-37620000D01*
X93000000Y-38270000D02*
X93000000Y-37620000D01*
X40120000Y-39620000D02*
X40120000Y-35380000D01*
X40120000Y-36100000D02*
X37880000Y-36100000D01*
X40120000Y-35980000D02*
X37880000Y-35980000D01*
X37880000Y-39620000D02*
X40120000Y-39620000D01*
X40120000Y-36220000D02*
X37880000Y-36220000D01*
X39000000Y-34730000D02*
X39000000Y-35380000D01*
X40120000Y-35380000D02*
X37880000Y-35380000D01*
X37880000Y-35380000D02*
X37880000Y-39620000D01*
X39000000Y-40270000D02*
X39000000Y-39620000D01*
%LPC*%
D14*
X168400000Y-79100000D03*
X175400000Y-79100000D03*
D15*
X165700000Y-81400000D03*
X165700000Y-72200000D03*
X166800000Y-76800000D03*
X173800000Y-76800000D03*
D14*
X168400000Y-74500000D03*
X175400000Y-74500000D03*
D15*
X170800000Y-76800000D03*
D16*
X91000000Y-58750000D03*
X96000000Y-60950000D03*
X101000000Y-58750000D03*
D17*
X90500000Y-55000000D03*
D18*
X96000000Y-55000000D03*
D17*
X101500000Y-55000000D03*
D19*
X92725000Y-60950000D03*
D20*
X104275000Y-58750000D03*
D21*
X98550000Y-49560000D03*
D22*
X98550000Y-51060000D03*
D23*
X91550000Y-50950000D03*
D22*
X93450000Y-51060000D03*
D23*
X91550000Y-49450000D03*
D22*
X93450000Y-49560000D03*
D16*
X91000000Y-94750000D03*
X96000000Y-96950000D03*
X101000000Y-94750000D03*
D17*
X90500000Y-91000000D03*
D18*
X96000000Y-91000000D03*
D17*
X101500000Y-91000000D03*
D19*
X92725000Y-96950000D03*
D20*
X104275000Y-94750000D03*
D21*
X98550000Y-85560000D03*
D22*
X98550000Y-87060000D03*
D23*
X91550000Y-86950000D03*
D22*
X93450000Y-87060000D03*
D23*
X91550000Y-85450000D03*
D22*
X93450000Y-85560000D03*
D16*
X129000000Y-58750000D03*
X134000000Y-60950000D03*
X139000000Y-58750000D03*
D17*
X128500000Y-55000000D03*
D18*
X134000000Y-55000000D03*
D17*
X139500000Y-55000000D03*
D19*
X130725000Y-60950000D03*
D20*
X142275000Y-58750000D03*
D21*
X136550000Y-49560000D03*
D22*
X136550000Y-51060000D03*
D23*
X129550000Y-50950000D03*
D22*
X131450000Y-51060000D03*
D23*
X129550000Y-49450000D03*
D22*
X131450000Y-49560000D03*
D16*
X91000000Y-76750000D03*
X96000000Y-78950000D03*
X101000000Y-76750000D03*
D17*
X90500000Y-73000000D03*
D18*
X96000000Y-73000000D03*
D17*
X101500000Y-73000000D03*
D19*
X92725000Y-78950000D03*
D20*
X104275000Y-76750000D03*
D21*
X98550000Y-67560000D03*
D22*
X98550000Y-69060000D03*
D23*
X91550000Y-68950000D03*
D22*
X93450000Y-69060000D03*
D23*
X91550000Y-67450000D03*
D22*
X93450000Y-67560000D03*
D16*
X34000000Y-94750000D03*
X39000000Y-96950000D03*
X44000000Y-94750000D03*
D17*
X33500000Y-91000000D03*
D18*
X39000000Y-91000000D03*
D17*
X44500000Y-91000000D03*
D19*
X35725000Y-96950000D03*
D20*
X47275000Y-94750000D03*
D21*
X41550000Y-85560000D03*
D22*
X41550000Y-87060000D03*
D23*
X34550000Y-86950000D03*
D22*
X36450000Y-87060000D03*
D23*
X34550000Y-85450000D03*
D22*
X36450000Y-85560000D03*
D24*
X112000000Y-31690000D03*
D25*
X112000000Y-39310000D03*
D16*
X34000000Y-130750000D03*
X39000000Y-132950000D03*
X44000000Y-130750000D03*
D17*
X33500000Y-127000000D03*
D18*
X39000000Y-127000000D03*
D17*
X44500000Y-127000000D03*
D19*
X35725000Y-132950000D03*
D20*
X47275000Y-130750000D03*
D21*
X41550000Y-121560000D03*
D22*
X41550000Y-123060000D03*
D23*
X34550000Y-122950000D03*
D22*
X36450000Y-123060000D03*
D23*
X34550000Y-121450000D03*
D22*
X36450000Y-121560000D03*
D16*
X72000000Y-130750000D03*
X77000000Y-132950000D03*
X82000000Y-130750000D03*
D17*
X71500000Y-127000000D03*
D18*
X77000000Y-127000000D03*
D17*
X82500000Y-127000000D03*
D19*
X73725000Y-132950000D03*
D20*
X85275000Y-130750000D03*
D21*
X79550000Y-121560000D03*
D22*
X79550000Y-123060000D03*
D23*
X72550000Y-122950000D03*
D22*
X74450000Y-123060000D03*
D23*
X72550000Y-121450000D03*
D22*
X74450000Y-121560000D03*
D16*
X34000000Y-58750000D03*
X39000000Y-60950000D03*
X44000000Y-58750000D03*
D17*
X33500000Y-55000000D03*
D18*
X39000000Y-55000000D03*
D17*
X44500000Y-55000000D03*
D19*
X35725000Y-60950000D03*
D20*
X47275000Y-58750000D03*
D21*
X41550000Y-49560000D03*
D22*
X41550000Y-51060000D03*
D23*
X34550000Y-50950000D03*
D22*
X36450000Y-51060000D03*
D23*
X34550000Y-49450000D03*
D22*
X36450000Y-49560000D03*
D24*
X80000000Y-35690000D03*
D25*
X80000000Y-43310000D03*
D24*
X64000000Y-37690000D03*
D25*
X64000000Y-45310000D03*
D24*
X71000000Y-29690000D03*
D25*
X71000000Y-37310000D03*
D24*
X102000000Y-37690000D03*
D25*
X102000000Y-45310000D03*
D16*
X110000000Y-112750000D03*
X115000000Y-114950000D03*
X120000000Y-112750000D03*
D17*
X109500000Y-109000000D03*
D18*
X115000000Y-109000000D03*
D17*
X120500000Y-109000000D03*
D19*
X111725000Y-114950000D03*
D20*
X123275000Y-112750000D03*
D21*
X117550000Y-103560000D03*
D22*
X117550000Y-105060000D03*
D23*
X110550000Y-104950000D03*
D22*
X112450000Y-105060000D03*
D23*
X110550000Y-103450000D03*
D22*
X112450000Y-103560000D03*
D24*
X137000000Y-35690000D03*
D25*
X137000000Y-43310000D03*
D16*
X72000000Y-94750000D03*
X77000000Y-96950000D03*
X82000000Y-94750000D03*
D17*
X71500000Y-91000000D03*
D18*
X77000000Y-91000000D03*
D17*
X82500000Y-91000000D03*
D19*
X73725000Y-96950000D03*
D20*
X85275000Y-94750000D03*
D21*
X79550000Y-85560000D03*
D22*
X79550000Y-87060000D03*
D23*
X72550000Y-86950000D03*
D22*
X74450000Y-87060000D03*
D23*
X72550000Y-85450000D03*
D22*
X74450000Y-85560000D03*
D24*
X109000000Y-29690000D03*
D25*
X109000000Y-37310000D03*
D24*
X140000000Y-37690000D03*
D25*
X140000000Y-45310000D03*
D16*
X53000000Y-76750000D03*
X58000000Y-78950000D03*
X63000000Y-76750000D03*
D17*
X52500000Y-73000000D03*
D18*
X58000000Y-73000000D03*
D17*
X63500000Y-73000000D03*
D19*
X54725000Y-78950000D03*
D20*
X66275000Y-76750000D03*
D21*
X60550000Y-67560000D03*
D22*
X60550000Y-69060000D03*
D23*
X53550000Y-68950000D03*
D22*
X55450000Y-69060000D03*
D23*
X53550000Y-67450000D03*
D22*
X55450000Y-67560000D03*
D24*
X134000000Y-33690000D03*
D25*
X134000000Y-41310000D03*
D24*
X61000000Y-35690000D03*
D25*
X61000000Y-43310000D03*
D26*
X166700000Y-92000000D03*
X154000000Y-92000000D03*
X156540000Y-92000000D03*
X159080000Y-92000000D03*
X161620000Y-92000000D03*
X164160000Y-92000000D03*
D24*
X36000000Y-31690000D03*
D25*
X36000000Y-39310000D03*
D16*
X53000000Y-130750000D03*
X58000000Y-132950000D03*
X63000000Y-130750000D03*
D17*
X52500000Y-127000000D03*
D18*
X58000000Y-127000000D03*
D17*
X63500000Y-127000000D03*
D19*
X54725000Y-132950000D03*
D20*
X66275000Y-130750000D03*
D21*
X60550000Y-121560000D03*
D22*
X60550000Y-123060000D03*
D23*
X53550000Y-122950000D03*
D22*
X55450000Y-123060000D03*
D23*
X53550000Y-121450000D03*
D22*
X55450000Y-121560000D03*
D24*
X131000000Y-31690000D03*
D25*
X131000000Y-39310000D03*
D16*
X110000000Y-76750000D03*
X115000000Y-78950000D03*
X120000000Y-76750000D03*
D17*
X109500000Y-73000000D03*
D18*
X115000000Y-73000000D03*
D17*
X120500000Y-73000000D03*
D19*
X111725000Y-78950000D03*
D20*
X123275000Y-76750000D03*
D21*
X117550000Y-67560000D03*
D22*
X117550000Y-69060000D03*
D23*
X110550000Y-68950000D03*
D22*
X112450000Y-69060000D03*
D23*
X110550000Y-67450000D03*
D22*
X112450000Y-67560000D03*
D24*
X33000000Y-29690000D03*
D25*
X33000000Y-37310000D03*
D16*
X53000000Y-94750000D03*
X58000000Y-96950000D03*
X63000000Y-94750000D03*
D17*
X52500000Y-91000000D03*
D18*
X58000000Y-91000000D03*
D17*
X63500000Y-91000000D03*
D19*
X54725000Y-96950000D03*
D20*
X66275000Y-94750000D03*
D21*
X60550000Y-85560000D03*
D22*
X60550000Y-87060000D03*
D23*
X53550000Y-86950000D03*
D22*
X55450000Y-87060000D03*
D23*
X53550000Y-85450000D03*
D22*
X55450000Y-85560000D03*
D16*
X129000000Y-112750000D03*
X134000000Y-114950000D03*
X139000000Y-112750000D03*
D17*
X128500000Y-109000000D03*
D18*
X134000000Y-109000000D03*
D17*
X139500000Y-109000000D03*
D19*
X130725000Y-114950000D03*
D20*
X142275000Y-112750000D03*
D21*
X136550000Y-103560000D03*
D22*
X136550000Y-105060000D03*
D23*
X129550000Y-104950000D03*
D22*
X131450000Y-105060000D03*
D23*
X129550000Y-103450000D03*
D22*
X131450000Y-103560000D03*
D24*
X90000000Y-29690000D03*
D25*
X90000000Y-37310000D03*
D24*
X55000000Y-31690000D03*
D25*
X55000000Y-39310000D03*
D24*
X115000000Y-33690000D03*
D25*
X115000000Y-41310000D03*
D24*
X128000000Y-29690000D03*
D25*
X128000000Y-37310000D03*
D16*
X91000000Y-130750000D03*
X96000000Y-132950000D03*
X101000000Y-130750000D03*
D17*
X90500000Y-127000000D03*
D18*
X96000000Y-127000000D03*
D17*
X101500000Y-127000000D03*
D19*
X92725000Y-132950000D03*
D20*
X104275000Y-130750000D03*
D21*
X98550000Y-121560000D03*
D22*
X98550000Y-123060000D03*
D23*
X91550000Y-122950000D03*
D22*
X93450000Y-123060000D03*
D23*
X91550000Y-121450000D03*
D22*
X93450000Y-121560000D03*
D16*
X119316117Y-142187184D03*
X124407285Y-140207285D03*
X126387184Y-135116117D03*
D17*
X116310913Y-139889087D03*
D18*
X120200000Y-136000000D03*
D17*
X124089087Y-132110913D03*
D27*
X122091511Y-142523060D03*
D28*
X128702959Y-132800342D03*
D29*
X118156461Y-130350217D03*
D30*
X119217122Y-131410877D03*
D31*
X114189592Y-136282843D03*
D30*
X115610877Y-135017122D03*
D31*
X113128932Y-135222183D03*
D30*
X114550217Y-133956461D03*
D24*
X52000000Y-29690000D03*
D25*
X52000000Y-37310000D03*
D24*
X83000000Y-37690000D03*
D25*
X83000000Y-45310000D03*
D24*
X121000000Y-37690000D03*
D25*
X121000000Y-45310000D03*
D24*
X58000000Y-33690000D03*
D25*
X58000000Y-41310000D03*
D16*
X72000000Y-112750000D03*
X77000000Y-114950000D03*
X82000000Y-112750000D03*
D17*
X71500000Y-109000000D03*
D18*
X77000000Y-109000000D03*
D17*
X82500000Y-109000000D03*
D19*
X73725000Y-114950000D03*
D20*
X85275000Y-112750000D03*
D21*
X79550000Y-103560000D03*
D22*
X79550000Y-105060000D03*
D23*
X72550000Y-104950000D03*
D22*
X74450000Y-105060000D03*
D23*
X72550000Y-103450000D03*
D22*
X74450000Y-103560000D03*
D24*
X42000000Y-35690000D03*
D25*
X42000000Y-43310000D03*
D16*
X129000000Y-76750000D03*
X134000000Y-78950000D03*
X139000000Y-76750000D03*
D17*
X128500000Y-73000000D03*
D18*
X134000000Y-73000000D03*
D17*
X139500000Y-73000000D03*
D19*
X130725000Y-78950000D03*
D20*
X142275000Y-76750000D03*
D21*
X136550000Y-67560000D03*
D22*
X136550000Y-69060000D03*
D23*
X129550000Y-68950000D03*
D22*
X131450000Y-69060000D03*
D23*
X129550000Y-67450000D03*
D22*
X131450000Y-67560000D03*
D16*
X91000000Y-112750000D03*
X96000000Y-114950000D03*
X101000000Y-112750000D03*
D17*
X90500000Y-109000000D03*
D18*
X96000000Y-109000000D03*
D17*
X101500000Y-109000000D03*
D19*
X92725000Y-114950000D03*
D20*
X104275000Y-112750000D03*
D21*
X98550000Y-103560000D03*
D22*
X98550000Y-105060000D03*
D23*
X91550000Y-104950000D03*
D22*
X93450000Y-105060000D03*
D23*
X91550000Y-103450000D03*
D22*
X93450000Y-103560000D03*
D16*
X72000000Y-58750000D03*
X77000000Y-60950000D03*
X82000000Y-58750000D03*
D17*
X71500000Y-55000000D03*
D18*
X77000000Y-55000000D03*
D17*
X82500000Y-55000000D03*
D19*
X73725000Y-60950000D03*
D20*
X85275000Y-58750000D03*
D21*
X79550000Y-49560000D03*
D22*
X79550000Y-51060000D03*
D23*
X72550000Y-50950000D03*
D22*
X74450000Y-51060000D03*
D23*
X72550000Y-49450000D03*
D22*
X74450000Y-49560000D03*
D24*
X118000000Y-35690000D03*
D25*
X118000000Y-43310000D03*
D16*
X130316117Y-159187184D03*
X135407285Y-157207285D03*
X137387184Y-152116117D03*
D17*
X127310913Y-156889087D03*
D18*
X131200000Y-153000000D03*
D17*
X135089087Y-149110913D03*
D27*
X133091511Y-159523060D03*
D28*
X139702959Y-149800342D03*
D29*
X129156461Y-147350217D03*
D30*
X130217122Y-148410877D03*
D31*
X125189592Y-153282843D03*
D30*
X126610877Y-152017122D03*
D31*
X124128932Y-152222183D03*
D30*
X125550217Y-150956461D03*
D16*
X53000000Y-112750000D03*
X58000000Y-114950000D03*
X63000000Y-112750000D03*
D17*
X52500000Y-109000000D03*
D18*
X58000000Y-109000000D03*
D17*
X63500000Y-109000000D03*
D19*
X54725000Y-114950000D03*
D20*
X66275000Y-112750000D03*
D21*
X60550000Y-103560000D03*
D22*
X60550000Y-105060000D03*
D23*
X53550000Y-104950000D03*
D22*
X55450000Y-105060000D03*
D23*
X53550000Y-103450000D03*
D22*
X55450000Y-103560000D03*
D16*
X129000000Y-94750000D03*
X134000000Y-96950000D03*
X139000000Y-94750000D03*
D17*
X128500000Y-91000000D03*
D18*
X134000000Y-91000000D03*
D17*
X139500000Y-91000000D03*
D19*
X130725000Y-96950000D03*
D20*
X142275000Y-94750000D03*
D21*
X136550000Y-85560000D03*
D22*
X136550000Y-87060000D03*
D23*
X129550000Y-86950000D03*
D22*
X131450000Y-87060000D03*
D23*
X129550000Y-85450000D03*
D22*
X131450000Y-85560000D03*
D16*
X110000000Y-94750000D03*
X115000000Y-96950000D03*
X120000000Y-94750000D03*
D17*
X109500000Y-91000000D03*
D18*
X115000000Y-91000000D03*
D17*
X120500000Y-91000000D03*
D19*
X111725000Y-96950000D03*
D20*
X123275000Y-94750000D03*
D21*
X117550000Y-85560000D03*
D22*
X117550000Y-87060000D03*
D23*
X110550000Y-86950000D03*
D22*
X112450000Y-87060000D03*
D23*
X110550000Y-85450000D03*
D22*
X112450000Y-85560000D03*
D24*
X99000000Y-35690000D03*
D25*
X99000000Y-43310000D03*
D26*
X171160000Y-31050000D03*
X153380000Y-33590000D03*
X171160000Y-33590000D03*
X153380000Y-36130000D03*
X171160000Y-36130000D03*
X153380000Y-38670000D03*
X153380000Y-41210000D03*
X171160000Y-38670000D03*
X153380000Y-43750000D03*
X171160000Y-41210000D03*
X171160000Y-43750000D03*
X153380000Y-46290000D03*
X153380000Y-48830000D03*
X171160000Y-46290000D03*
X171160000Y-48830000D03*
X153380000Y-51370000D03*
X153380000Y-53910000D03*
X171160000Y-51370000D03*
X155920000Y-53910000D03*
X158460000Y-53910000D03*
X166080000Y-51370000D03*
X163540000Y-51370000D03*
X161000000Y-53910000D03*
X161000000Y-51370000D03*
X163540000Y-53910000D03*
X166080000Y-53910000D03*
X158460000Y-51370000D03*
X168620000Y-53910000D03*
X155920000Y-51370000D03*
X155920000Y-48830000D03*
X168620000Y-48830000D03*
X155920000Y-46290000D03*
X155920000Y-43750000D03*
X168620000Y-46290000D03*
X168620000Y-43750000D03*
X155920000Y-41210000D03*
X168620000Y-41210000D03*
X155920000Y-38670000D03*
X168620000Y-38670000D03*
X155920000Y-36130000D03*
X168620000Y-36130000D03*
X155920000Y-33590000D03*
X155920000Y-31050000D03*
X168620000Y-33590000D03*
X168620000Y-51370000D03*
D24*
X96000000Y-33690000D03*
D25*
X96000000Y-41310000D03*
D16*
X72000000Y-76750000D03*
X77000000Y-78950000D03*
X82000000Y-76750000D03*
D17*
X71500000Y-73000000D03*
D18*
X77000000Y-73000000D03*
D17*
X82500000Y-73000000D03*
D19*
X73725000Y-78950000D03*
D20*
X85275000Y-76750000D03*
D21*
X79550000Y-67560000D03*
D22*
X79550000Y-69060000D03*
D23*
X72550000Y-68950000D03*
D22*
X74450000Y-69060000D03*
D23*
X72550000Y-67450000D03*
D22*
X74450000Y-67560000D03*
D16*
X34000000Y-76750000D03*
X39000000Y-78950000D03*
X44000000Y-76750000D03*
D17*
X33500000Y-73000000D03*
D18*
X39000000Y-73000000D03*
D17*
X44500000Y-73000000D03*
D19*
X35725000Y-78950000D03*
D20*
X47275000Y-76750000D03*
D21*
X41550000Y-67560000D03*
D22*
X41550000Y-69060000D03*
D23*
X34550000Y-68950000D03*
D22*
X36450000Y-69060000D03*
D23*
X34550000Y-67450000D03*
D22*
X36450000Y-67560000D03*
D16*
X53000000Y-58750000D03*
X58000000Y-60950000D03*
X63000000Y-58750000D03*
D17*
X52500000Y-55000000D03*
D18*
X58000000Y-55000000D03*
D17*
X63500000Y-55000000D03*
D19*
X54725000Y-60950000D03*
D20*
X66275000Y-58750000D03*
D21*
X60550000Y-49560000D03*
D22*
X60550000Y-51060000D03*
D23*
X53550000Y-50950000D03*
D22*
X55450000Y-51060000D03*
D23*
X53550000Y-49450000D03*
D22*
X55450000Y-49560000D03*
D24*
X45000000Y-37690000D03*
D25*
X45000000Y-45310000D03*
D24*
X77000000Y-33690000D03*
D25*
X77000000Y-41310000D03*
D16*
X110000000Y-58750000D03*
X115000000Y-60950000D03*
X120000000Y-58750000D03*
D17*
X109500000Y-55000000D03*
D18*
X115000000Y-55000000D03*
D17*
X120500000Y-55000000D03*
D19*
X111725000Y-60950000D03*
D20*
X123275000Y-58750000D03*
D21*
X117550000Y-49560000D03*
D22*
X117550000Y-51060000D03*
D23*
X110550000Y-50950000D03*
D22*
X112450000Y-51060000D03*
D23*
X110550000Y-49450000D03*
D22*
X112450000Y-49560000D03*
D24*
X74000000Y-31690000D03*
D25*
X74000000Y-39310000D03*
D16*
X34000000Y-112750000D03*
X39000000Y-114950000D03*
X44000000Y-112750000D03*
D17*
X33500000Y-109000000D03*
D18*
X39000000Y-109000000D03*
D17*
X44500000Y-109000000D03*
D19*
X35725000Y-114950000D03*
D20*
X47275000Y-112750000D03*
D21*
X41550000Y-103560000D03*
D22*
X41550000Y-105060000D03*
D23*
X34550000Y-104950000D03*
D22*
X36450000Y-105060000D03*
D23*
X34550000Y-103450000D03*
D22*
X36450000Y-103560000D03*
D24*
X93000000Y-31690000D03*
D25*
X93000000Y-39310000D03*
D24*
X39000000Y-33690000D03*
D25*
X39000000Y-41310000D03*
M02*
