M48
; DRILL file {KiCad (6.0.2)} date Wed Apr 13 18:46:08 2022
; FORMAT={-:-/ absolute / metric / decimal}
; #@! TF.CreationDate,2022-04-13T18:46:08+02:00
; #@! TF.GenerationSoftware,Kicad,Pcbnew,(6.0.2)
; #@! TF.FileFunction,NonPlated,1,2,NPTH
FMAT,2
METRIC
; #@! TA.AperFunction,NonPlated,NPTH,ComponentDrill
T1C1.500
; #@! TA.AperFunction,NonPlated,NPTH,ComponentDrill
T2C1.702
; #@! TA.AperFunction,NonPlated,NPTH,ComponentDrill
T3C3.000
; #@! TA.AperFunction,NonPlated,NPTH,ComponentDrill
T4C3.429
%
G90
G05
T1
X168.4Y-74.5
X168.4Y-79.1
X175.4Y-74.5
X175.4Y-79.1
T2
X33.5Y-55.0
X33.5Y-73.0
X33.5Y-91.0
X33.5Y-109.0
X33.5Y-127.0
X44.5Y-55.0
X44.5Y-73.0
X44.5Y-91.0
X44.5Y-109.0
X44.5Y-127.0
X52.5Y-55.0
X52.5Y-73.0
X52.5Y-91.0
X52.5Y-109.0
X52.5Y-127.0
X63.5Y-55.0
X63.5Y-73.0
X63.5Y-91.0
X63.5Y-109.0
X63.5Y-127.0
X71.5Y-55.0
X71.5Y-73.0
X71.5Y-91.0
X71.5Y-109.0
X71.5Y-127.0
X82.5Y-55.0
X82.5Y-73.0
X82.5Y-91.0
X82.5Y-109.0
X82.5Y-127.0
X90.5Y-55.0
X90.5Y-73.0
X90.5Y-91.0
X90.5Y-109.0
X90.5Y-127.0
X101.5Y-55.0
X101.5Y-73.0
X101.5Y-91.0
X101.5Y-109.0
X101.5Y-127.0
X109.5Y-55.0
X109.5Y-73.0
X109.5Y-91.0
X109.5Y-109.0
X116.311Y-139.889
X120.5Y-55.0
X120.5Y-73.0
X120.5Y-91.0
X120.5Y-109.0
X124.089Y-132.111
X127.311Y-156.889
X128.5Y-55.0
X128.5Y-73.0
X128.5Y-91.0
X128.5Y-109.0
X135.089Y-149.111
X139.5Y-55.0
X139.5Y-73.0
X139.5Y-91.0
X139.5Y-109.0
T3
X34.0Y-58.75
X34.0Y-76.75
X34.0Y-94.75
X34.0Y-112.75
X34.0Y-130.75
X39.0Y-60.95
X39.0Y-78.95
X39.0Y-96.95
X39.0Y-114.95
X39.0Y-132.95
X44.0Y-58.75
X44.0Y-76.75
X44.0Y-94.75
X44.0Y-112.75
X44.0Y-130.75
X53.0Y-58.75
X53.0Y-76.75
X53.0Y-94.75
X53.0Y-112.75
X53.0Y-130.75
X58.0Y-60.95
X58.0Y-78.95
X58.0Y-96.95
X58.0Y-114.95
X58.0Y-132.95
X63.0Y-58.75
X63.0Y-76.75
X63.0Y-94.75
X63.0Y-112.75
X63.0Y-130.75
X72.0Y-58.75
X72.0Y-76.75
X72.0Y-94.75
X72.0Y-112.75
X72.0Y-130.75
X77.0Y-60.95
X77.0Y-78.95
X77.0Y-96.95
X77.0Y-114.95
X77.0Y-132.95
X82.0Y-58.75
X82.0Y-76.75
X82.0Y-94.75
X82.0Y-112.75
X82.0Y-130.75
X91.0Y-58.75
X91.0Y-76.75
X91.0Y-94.75
X91.0Y-112.75
X91.0Y-130.75
X96.0Y-60.95
X96.0Y-78.95
X96.0Y-96.95
X96.0Y-114.95
X96.0Y-132.95
X101.0Y-58.75
X101.0Y-76.75
X101.0Y-94.75
X101.0Y-112.75
X101.0Y-130.75
X110.0Y-58.75
X110.0Y-76.75
X110.0Y-94.75
X110.0Y-112.75
X115.0Y-60.95
X115.0Y-78.95
X115.0Y-96.95
X115.0Y-114.95
X119.316Y-142.187
X120.0Y-58.75
X120.0Y-76.75
X120.0Y-94.75
X120.0Y-112.75
X124.407Y-140.207
X126.387Y-135.116
X129.0Y-58.75
X129.0Y-76.75
X129.0Y-94.75
X129.0Y-112.75
X130.316Y-159.187
X134.0Y-60.95
X134.0Y-78.95
X134.0Y-96.95
X134.0Y-114.95
X135.407Y-157.207
X137.387Y-152.116
X139.0Y-58.75
X139.0Y-76.75
X139.0Y-94.75
X139.0Y-112.75
T4
X39.0Y-55.0
X39.0Y-73.0
X39.0Y-91.0
X39.0Y-109.0
X39.0Y-127.0
X58.0Y-55.0
X58.0Y-73.0
X58.0Y-91.0
X58.0Y-109.0
X58.0Y-127.0
X77.0Y-55.0
X77.0Y-73.0
X77.0Y-91.0
X77.0Y-109.0
X77.0Y-127.0
X96.0Y-55.0
X96.0Y-73.0
X96.0Y-91.0
X96.0Y-109.0
X96.0Y-127.0
X115.0Y-55.0
X115.0Y-73.0
X115.0Y-91.0
X115.0Y-109.0
X120.2Y-136.0
X131.2Y-153.0
X134.0Y-55.0
X134.0Y-73.0
X134.0Y-91.0
X134.0Y-109.0
T0
M30
